<?xml version="1.0" encoding="UTF-8"?>
<svg xmlns="http://www.w3.org/2000/svg" version="1.1" viewBox="0 0 780 794">
  <g fill="black" fill-rule="evenodd" stroke="none">
    <path d="M 336.14 774.73 C 331.26 774.59 317.14 774.97 307.02 773.80 C 296.91 772.62 285.55 770.21 275.46 767.69 C 265.37 765.17 257.83 763.20 246.46 758.69 C 235.09 754.17 222.14 748.97 207.23 740.60 C 192.33 732.22 168.63 716.54 157.03 708.47 C 148.31 702.39 145.40 699.46 137.68 692.16 C 128.56 683.55 113.26 669.24 102.35 656.82 C 91.43 644.40 79.24 627.54 72.20 617.64 C 66.46 609.58 64.73 606.17 60.07 597.44 C 54.88 587.74 45.75 569.98 41.07 559.44 C 36.49 549.15 35.00 544.63 31.97 534.21 C 28.94 523.79 24.92 507.59 22.90 496.94 C 20.88 486.30 20.18 479.31 19.84 470.33 C 19.50 461.34 19.97 451.74 20.86 443.02 C 21.75 434.30 24.67 421.02 25.19 418.02 C 25.81 417.93 29.23 417.07 30.33 417.24 C 31.29 417.38 31.90 418.05 31.80 419.02 C 31.39 423.32 28.69 434.47 27.86 443.02 C 27.04 451.57 26.50 461.34 26.84 470.33 C 27.18 479.31 27.88 486.30 29.90 496.94 C 31.92 507.59 35.96 523.83 38.97 534.21 C 41.98 544.59 44.62 551.17 47.97 559.21 C 51.32 567.25 54.22 573.40 59.07 582.44 C 63.92 591.48 71.88 605.24 77.07 613.44 C 82.11 621.40 85.12 625.05 90.20 631.64 C 95.27 638.23 99.66 644.52 107.51 652.99 C 116.00 662.17 131.08 677.42 141.16 686.67 C 151.25 695.91 156.35 700.31 168.03 708.47 C 179.71 716.62 198.16 728.39 211.23 735.59 C 224.30 742.79 235.76 747.50 246.46 751.69 C 257.17 755.87 267.75 758.51 275.46 760.69 C 282.63 762.71 285.37 763.58 292.73 764.75 C 300.20 765.95 311.85 767.49 320.33 767.83 C 328.82 768.17 334.50 767.99 343.64 766.80 C 352.79 765.61 366.07 763.22 375.21 760.69 C 384.34 758.15 390.40 755.44 398.44 751.59 C 406.47 747.74 416.87 741.64 423.43 737.60 C 429.75 733.70 432.19 732.16 437.82 727.32 C 444.02 721.97 454.23 712.78 460.67 705.50 C 467.11 698.22 472.32 689.98 476.47 683.64 C 480.62 677.29 482.89 673.01 485.60 667.44 C 488.30 661.87 490.50 657.29 492.70 650.21 C 494.89 643.13 497.41 632.87 498.76 624.94 C 500.12 617.02 500.83 609.82 500.83 602.67 C 500.84 595.51 499.83 588.72 498.80 582.02 C 497.78 575.32 496.40 568.42 494.70 562.46 C 492.99 556.49 491.79 552.77 488.60 546.23 C 485.23 539.32 478.88 527.62 474.47 521.03 C 470.06 514.44 467.75 512.32 462.16 506.67 C 429.50 473.67 311.26 355.41 278.50 323.00 C 273.49 318.04 270.65 315.86 265.63 312.20 C 260.62 308.55 254.67 304.44 248.43 301.07 C 242.20 297.70 236.84 294.68 228.21 291.98 C 219.57 289.28 205.46 286.06 196.64 284.87 C 187.83 283.68 184.20 283.82 175.33 284.83 C 166.47 285.85 153.98 287.61 143.46 290.98 C 132.94 294.35 119.51 301.19 112.23 305.07 C 106.49 308.13 101.28 313.19 99.79 314.29 C 99.48 314.10 97.82 313.48 97.20 312.64 C 96.58 311.79 96.21 309.63 96.07 309.22 C 96.79 308.62 99.21 305.86 102.03 304.20 C 107.73 300.84 122.33 292.78 130.23 289.07 C 138.03 285.42 143.71 283.67 149.46 281.98 C 155.21 280.29 158.21 279.48 164.73 278.91 C 172.59 278.23 185.56 276.69 196.64 277.87 C 207.72 279.05 220.21 281.92 231.21 285.98 C 242.20 290.03 254.08 296.86 262.63 302.20 C 271.18 307.54 274.89 310.54 282.50 318.00 C 316.59 351.41 434.33 469.50 467.16 502.67 C 472.75 508.32 475.02 510.45 479.47 517.03 C 484.04 523.79 490.55 534.28 494.60 543.23 C 498.65 552.18 501.56 560.65 503.76 570.72 C 505.96 580.79 507.47 594.61 507.80 603.65 C 508.13 612.63 507.28 616.52 505.76 624.94 C 504.25 633.37 502.74 643.76 498.70 654.21 C 494.65 664.66 486.87 678.54 481.47 687.64 C 476.07 696.74 471.51 702.62 466.32 708.82 C 461.13 715.02 455.28 720.23 450.33 724.83 C 445.38 729.44 441.78 732.67 436.63 736.47 C 431.48 740.26 425.80 743.91 419.43 747.60 C 413.07 751.28 405.81 755.24 398.44 758.59 C 391.06 761.94 385.35 765.06 375.21 767.69 C 364.86 770.37 342.85 773.50 336.33 774.67 C 336.25 774.68 336.23 774.73 336.14 774.73 Z"/>
    <path d="M 338.14 756.73 C 334.15 756.76 321.91 757.31 314.34 756.82 C 306.77 756.32 301.04 755.61 292.73 753.75 C 284.41 751.90 274.21 749.05 264.46 745.69 C 254.71 742.33 244.77 738.44 234.23 733.59 C 223.69 728.74 211.77 722.78 201.23 716.60 C 190.70 710.41 179.43 702.51 171.03 696.47 C 162.64 690.42 158.27 686.90 150.85 680.32 C 143.43 673.74 133.45 664.11 126.51 656.99 C 119.56 649.88 115.91 646.23 109.20 637.64 C 101.96 628.38 88.92 609.97 83.07 601.44 C 78.91 595.38 77.40 592.99 74.07 586.44 C 69.38 577.23 59.82 557.91 54.97 546.21 C 50.12 534.50 47.32 524.42 44.97 516.21 C 42.70 508.26 42.09 504.09 40.90 496.94 C 39.72 489.80 38.13 481.98 37.84 473.33 C 37.56 464.67 39.03 448.42 39.19 445.02 C 39.81 444.93 43.24 444.12 44.33 444.24 C 45.19 444.33 45.73 444.86 45.76 445.72 C 46.02 452.12 44.84 470.94 45.86 482.65 C 46.89 494.35 49.89 507.02 51.90 515.94 C 53.86 524.61 54.61 527.98 57.97 536.21 C 62.50 547.29 72.70 570.20 79.07 582.44 C 85.30 594.41 90.34 601.11 96.20 609.64 C 102.05 618.17 105.98 624.09 114.20 633.64 C 122.44 643.23 135.54 657.52 145.68 667.16 C 155.82 676.80 163.27 683.06 175.03 691.47 C 186.79 699.87 204.03 710.74 216.23 717.60 C 228.43 724.45 238.19 728.41 248.23 732.59 C 258.27 736.77 265.44 739.82 276.46 742.69 C 287.48 745.56 304.14 748.63 314.34 749.82 C 324.06 750.95 330.54 750.31 337.64 749.80 C 344.74 749.29 350.01 748.27 356.94 746.75 C 363.87 745.24 372.62 742.88 379.21 740.69 C 385.79 738.49 390.03 736.97 396.43 733.60 C 402.84 730.22 411.68 724.57 417.63 720.47 C 423.59 716.37 426.59 714.42 432.16 709.00 C 438.63 702.69 450.73 689.73 456.47 682.64 C 461.52 676.40 463.23 673.18 466.60 666.44 C 469.97 659.70 474.16 650.34 476.70 642.21 C 479.23 634.08 480.95 625.96 481.80 617.65 C 482.66 609.33 482.16 598.99 481.82 592.34 C 481.51 586.15 481.26 583.74 479.76 577.72 C 478.23 571.54 475.79 562.64 472.60 555.23 C 469.40 547.81 464.51 539.32 460.60 533.23 C 456.69 527.14 454.61 524.22 449.16 518.67 C 417.31 486.30 302.26 371.24 269.50 339.00 C 262.98 332.58 258.14 329.19 252.63 325.20 C 247.12 321.21 242.51 318.11 236.44 315.07 C 230.37 312.03 221.84 308.85 216.21 306.98 C 210.66 305.14 208.46 304.47 202.64 303.87 C 196.00 303.18 185.70 302.00 176.34 302.85 C 166.98 303.70 154.81 306.44 146.46 308.98 C 138.11 311.52 134.18 313.35 126.23 318.07 C 118.29 322.79 102.08 334.99 98.79 337.29 C 98.28 336.90 95.02 334.38 94.51 333.99 C 95.01 333.33 96.75 330.31 98.68 328.51 C 100.60 326.71 102.80 325.22 106.03 323.20 C 110.96 320.13 121.49 313.61 128.23 310.07 C 134.97 306.54 140.88 304.01 146.46 301.98 C 152.04 299.95 155.15 298.80 161.73 297.91 C 169.26 296.89 183.94 295.87 191.64 295.87 C 198.54 295.87 201.85 296.56 207.94 297.91 C 214.03 299.26 220.13 300.28 228.21 303.98 C 236.32 307.69 249.08 315.20 256.63 320.20 C 264.18 325.20 266.98 327.58 273.50 334.00 C 306.37 366.35 422.17 482.33 453.83 514.33 C 458.31 518.86 459.88 520.77 463.47 526.03 C 467.10 531.34 471.72 537.61 475.60 546.23 C 479.48 554.84 484.56 570.04 486.76 577.72 C 488.47 583.68 488.51 586.15 488.82 592.34 C 489.16 598.99 489.83 608.83 488.80 617.65 C 487.78 626.46 484.56 638.41 482.70 645.21 C 481.12 650.95 480.20 653.08 477.60 658.44 C 474.73 664.35 470.18 673.58 465.47 680.64 C 460.76 687.70 454.18 695.29 449.32 700.82 C 444.47 706.35 442.25 708.87 436.33 713.83 C 430.02 719.13 420.96 726.95 411.43 732.60 C 401.91 738.24 391.39 743.68 379.21 747.69 C 367.02 751.70 345.18 755.16 338.33 756.67 C 338.25 756.69 338.23 756.73 338.14 756.73 Z"/>
    <path d="M 338.14 736.73 C 334.15 736.76 321.74 737.31 314.34 736.82 C 306.94 736.32 302.16 736.08 293.73 733.75 C 282.71 730.72 263.31 725.12 248.23 718.59 C 233.15 712.07 213.93 700.78 203.23 694.60 C 194.78 689.70 191.13 686.87 184.03 681.47 C 176.94 676.06 169.82 671.02 160.68 662.16 C 149.87 651.69 129.46 630.76 119.20 618.64 C 109.57 607.27 104.42 597.81 99.07 589.44 C 93.71 581.07 91.42 576.98 87.07 568.44 C 82.72 559.90 76.65 547.08 72.97 538.21 C 69.29 529.34 67.32 523.75 64.97 515.21 C 62.63 506.67 60.05 493.61 58.90 486.94 C 58.06 482.08 58.17 476.63 58.07 475.23 C 58.63 474.95 61.60 473.08 62.70 472.95 C 63.75 472.83 64.47 473.43 64.70 474.46 C 66.24 481.50 69.43 504.58 71.97 515.21 C 74.35 525.16 76.62 530.00 79.97 538.21 C 83.32 546.41 86.53 554.20 92.07 564.44 C 97.61 574.68 106.29 589.38 113.20 599.64 C 120.10 609.90 124.02 615.73 133.51 625.99 C 143.61 636.94 161.56 654.72 173.85 665.32 C 186.14 675.92 194.84 681.88 207.23 689.60 C 219.63 697.31 233.82 705.40 248.23 711.59 C 262.65 717.79 282.76 723.72 293.73 726.75 C 302.03 729.05 306.76 729.29 314.02 729.80 C 321.29 730.31 327.63 731.17 337.33 729.82 C 347.02 728.47 364.52 723.73 372.21 721.69 C 377.06 720.40 378.92 719.78 383.44 717.59 C 388.34 715.22 396.40 710.85 401.63 707.47 C 406.86 704.09 409.64 702.01 414.82 697.32 C 420.26 692.38 428.69 684.47 434.32 677.82 C 439.95 671.17 445.05 663.50 448.60 657.44 C 452.15 651.38 453.48 648.46 455.60 641.44 C 457.80 634.14 460.77 621.55 461.80 613.65 C 462.84 605.74 462.31 600.01 461.80 594.02 C 461.30 588.03 461.00 584.32 458.76 577.72 C 456.23 570.26 450.09 555.96 446.60 549.23 C 443.74 543.72 442.16 541.78 437.83 537.33 C 407.01 505.66 294.87 392.02 261.67 359.16 C 252.76 350.35 245.71 345.06 238.63 340.20 C 231.56 335.34 225.65 332.53 219.21 329.98 C 212.76 327.43 206.70 325.94 199.94 324.91 C 193.18 323.89 184.99 323.68 178.67 323.84 C 172.35 324.00 168.59 324.16 162.02 325.87 C 155.45 327.58 145.70 331.21 139.23 334.07 C 132.77 336.94 129.37 338.41 123.23 343.07 C 116.83 347.94 103.48 360.87 100.79 363.29 C 100.28 362.90 97.02 360.38 96.51 359.99 C 96.73 359.49 97.06 357.25 98.35 355.85 C 100.57 353.41 104.70 349.31 109.85 345.35 C 115.00 341.39 120.59 336.48 129.23 332.07 C 137.88 327.67 151.43 321.45 161.73 318.91 C 172.02 316.37 181.42 316.16 191.00 316.84 C 200.58 317.52 210.60 319.92 219.21 322.98 C 227.81 326.04 234.72 329.84 242.63 335.20 C 250.54 340.56 257.34 345.93 266.67 355.16 C 300.04 388.19 411.68 501.16 442.83 533.33 C 448.20 538.88 450.06 541.37 453.60 548.23 C 457.42 555.63 463.23 570.09 465.76 577.72 C 467.96 584.33 468.29 588.09 468.80 594.02 C 469.31 599.95 469.84 605.46 468.82 613.33 C 467.81 621.19 465.73 632.36 462.70 641.21 C 459.66 650.06 454.60 659.56 450.60 666.44 C 446.59 673.32 443.97 676.52 438.67 682.50 C 433.37 688.48 424.36 697.30 418.82 702.32 C 413.56 707.07 411.33 708.88 405.43 712.60 C 399.54 716.31 388.97 721.91 383.44 724.59 C 378.92 726.78 377.06 727.39 372.21 728.69 C 364.69 730.70 344.01 735.33 338.33 736.67 C 338.25 736.69 338.23 736.73 338.14 736.73 Z"/>
    <path d="M 336.14 718.73 C 330.88 718.58 315.84 719.60 304.73 717.75 C 293.61 715.91 278.88 710.88 269.46 707.69 C 260.27 704.57 256.88 702.99 248.23 698.59 C 237.99 693.39 220.76 684.85 208.03 676.47 C 195.30 668.09 182.13 657.26 171.85 648.32 C 161.57 639.38 155.98 634.30 146.35 622.82 C 136.71 611.34 123.30 594.21 114.07 579.44 C 104.84 564.67 96.15 545.41 90.97 534.21 C 86.84 525.29 85.29 519.87 82.97 512.21 C 80.65 504.55 77.78 491.10 77.07 488.22 C 77.63 487.95 80.62 486.12 81.70 485.95 C 82.65 485.80 83.31 486.31 83.60 487.23 C 84.98 491.60 87.58 504.38 89.97 512.21 C 92.37 520.04 93.86 525.28 97.97 534.21 C 102.82 544.75 110.17 561.34 119.07 575.44 C 127.96 589.54 142.00 607.62 151.35 618.82 C 160.42 629.69 165.55 634.23 175.16 642.67 C 184.78 651.11 198.85 662.31 209.03 669.47 C 219.21 676.62 226.16 680.39 236.23 685.59 C 246.30 690.79 258.05 696.49 269.46 700.69 C 280.88 704.88 293.70 708.90 304.73 710.75 C 315.76 712.61 327.11 712.13 335.64 711.80 C 344.18 711.46 350.35 709.94 355.94 708.75 C 361.53 707.57 363.91 707.12 369.21 704.69 C 375.49 701.81 386.84 695.89 393.63 691.47 C 400.43 687.04 405.38 682.43 409.99 678.16 C 414.61 673.88 417.22 671.54 421.32 665.82 C 425.59 659.87 431.85 651.30 435.60 642.44 C 439.35 633.58 442.94 622.77 443.80 612.65 C 444.66 602.53 442.96 590.79 440.76 581.72 C 438.56 572.65 433.84 564.21 430.60 558.23 C 427.50 552.51 425.68 550.67 421.32 545.85 C 414.83 538.67 404.34 527.84 391.67 515.16 C 360.55 484.06 264.01 387.05 234.63 359.20 C 227.87 352.79 220.55 350.62 215.44 348.07 C 210.84 345.78 208.68 344.95 203.94 343.91 C 199.20 342.87 193.37 341.83 187.00 341.83 C 180.63 341.83 172.19 342.54 165.73 343.91 C 159.26 345.29 153.01 348.03 148.23 350.07 C 143.45 352.12 141.47 353.19 137.03 356.20 C 132.30 359.41 124.74 364.80 119.85 369.35 C 114.96 373.90 110.23 380.89 107.67 383.50 C 106.64 384.55 104.88 384.82 104.50 385.00 C 104.11 384.56 101.63 381.77 101.24 381.33 C 101.61 380.79 102.85 378.58 104.35 376.85 C 106.78 374.02 110.54 368.98 115.85 364.35 C 121.16 359.72 127.96 353.63 136.23 349.07 C 144.50 344.51 156.61 339.35 165.46 336.98 C 174.31 334.61 181.37 334.35 189.33 334.85 C 197.28 335.35 204.99 336.75 213.21 339.98 C 221.42 343.20 229.69 345.85 238.63 354.20 C 269.21 382.73 365.39 479.89 396.67 511.16 C 409.34 523.84 419.33 533.84 426.32 541.85 C 432.20 548.58 435.03 552.58 438.60 559.23 C 442.17 565.87 445.73 572.87 447.76 581.72 C 449.80 590.57 451.17 603.58 450.82 612.33 C 450.48 621.08 448.23 626.86 445.70 634.21 C 443.16 641.56 440.60 648.56 435.60 656.44 C 430.59 664.32 422.53 674.48 415.67 681.50 C 408.81 688.53 402.18 693.56 394.43 698.60 C 386.69 703.63 375.62 708.83 369.21 711.69 C 363.88 714.06 361.42 714.59 355.94 715.75 C 350.46 716.92 339.63 718.17 336.33 718.67 C 336.25 718.68 336.23 718.73 336.14 718.73 Z"/>
    <path d="M 468.14 774.73 C 463.26 774.59 447.43 774.46 439.02 773.80 C 430.62 773.13 421.83 771.59 417.73 770.75 C 416.13 770.43 414.95 769.90 414.37 768.79 C 413.80 767.68 414.01 765.07 414.27 764.10 C 414.50 763.27 415.11 762.87 415.96 762.95 C 422.81 763.57 445.23 767.18 455.34 767.82 C 464.28 768.38 469.00 767.65 476.64 766.80 C 484.29 765.94 491.12 765.45 501.21 762.69 C 511.67 759.82 525.90 755.27 539.44 749.59 C 552.97 743.91 570.73 735.12 582.43 728.60 C 594.13 722.07 599.54 718.04 609.63 710.47 C 619.73 702.89 631.71 693.60 642.99 683.16 C 654.27 672.72 668.74 657.41 677.32 647.82 C 685.17 639.05 687.92 635.04 694.47 625.64 C 701.02 616.24 710.24 602.64 716.60 591.44 C 722.95 580.24 728.58 567.48 732.60 558.44 C 736.47 549.72 738.17 545.13 740.70 537.21 C 743.22 529.29 745.91 519.37 747.76 510.94 C 749.61 502.52 750.96 494.69 751.80 486.65 C 752.65 478.60 753.01 472.16 752.83 462.67 C 752.66 453.18 752.12 439.42 750.76 429.72 C 749.41 420.02 747.06 412.21 744.70 404.46 C 742.33 396.71 740.64 391.46 736.60 383.23 C 732.56 374.99 725.79 363.04 720.47 355.03 C 715.15 347.02 710.81 341.64 704.67 335.16 C 698.53 328.69 691.01 321.88 683.63 316.20 C 676.26 310.52 667.67 305.11 660.43 301.07 C 653.20 297.03 648.89 294.68 640.21 291.98 C 631.52 289.28 617.36 286.03 608.33 284.85 C 599.30 283.66 593.12 284.36 586.02 284.87 C 578.92 285.38 572.36 286.38 565.73 287.91 C 559.09 289.45 553.31 291.05 546.23 294.07 C 539.15 297.10 531.05 300.94 523.23 306.07 C 515.42 311.20 508.52 315.98 499.33 324.83 C 479.76 343.71 421.76 403.60 405.82 419.32 C 405.17 419.95 404.34 419.77 403.68 419.16 C 402.92 418.45 401.56 415.58 401.27 415.10 C 412.56 403.66 475.17 339.17 495.33 319.83 C 505.63 309.96 512.88 304.88 522.23 299.07 C 531.59 293.26 542.66 288.35 551.46 284.98 C 560.26 281.61 565.49 280.06 575.02 278.87 C 584.55 277.69 597.28 276.69 608.64 277.87 C 620.01 279.06 633.24 282.61 643.21 285.98 C 653.17 289.35 658.72 291.90 668.43 298.07 C 678.15 304.24 692.33 314.67 701.50 323.00 C 710.67 331.32 716.44 337.95 723.47 348.03 C 730.50 358.10 738.31 371.51 743.70 383.46 C 749.08 395.41 753.25 410.80 755.76 419.72 C 757.77 426.82 758.13 429.92 758.80 437.02 C 759.48 444.12 760.16 451.70 759.82 462.34 C 759.48 472.99 758.78 488.47 756.76 500.94 C 754.74 513.42 751.22 526.13 747.70 537.21 C 744.17 548.29 739.95 557.74 735.60 567.44 C 731.25 577.15 727.62 585.07 721.60 595.44 C 715.58 605.81 707.18 618.91 699.47 629.64 C 691.76 640.37 685.60 648.71 675.32 659.82 C 665.05 670.93 651.30 684.86 637.82 696.32 C 624.34 707.78 608.16 719.72 594.43 728.60 C 580.70 737.47 569.81 743.08 555.44 749.59 C 541.06 756.11 522.72 763.51 508.21 767.69 C 493.69 771.87 475.01 773.50 468.33 774.67 C 468.25 774.68 468.23 774.73 468.14 774.73 Z"/>
    <path d="M 754.15 374.72 C 753.24 374.21 749.50 372.01 748.86 371.65 C 749.22 369.61 751.19 361.87 751.80 354.65 C 752.46 346.93 753.00 333.83 752.82 325.34 C 752.65 316.85 752.11 311.99 750.76 303.72 C 749.42 295.45 747.11 284.60 744.76 275.72 C 742.42 266.85 739.89 259.04 736.70 250.46 C 733.50 241.87 730.28 233.77 725.60 224.23 C 720.92 214.69 715.62 204.43 708.60 193.23 C 701.58 182.03 692.57 168.48 683.47 157.03 C 674.37 145.57 665.80 135.65 653.99 124.51 C 642.18 113.37 626.06 100.11 612.63 90.20 C 599.21 80.29 587.51 72.78 573.43 65.07 C 559.36 57.37 541.74 49.33 528.21 43.98 C 514.67 38.63 503.63 35.66 492.21 32.98 C 480.78 30.29 469.62 28.73 459.64 27.87 C 449.67 27.02 441.49 27.17 432.34 27.85 C 423.19 28.52 414.91 29.37 404.73 31.91 C 394.54 34.45 381.35 38.69 371.23 43.07 C 361.12 47.46 352.99 51.77 344.03 58.20 C 335.08 64.63 325.31 73.54 317.51 81.67 C 309.70 89.81 302.45 99.06 297.20 107.03 C 291.94 114.99 289.35 120.51 285.97 129.46 C 282.59 138.41 278.59 150.52 276.90 160.72 C 275.22 170.92 275.20 180.28 275.86 190.65 C 276.53 201.02 279.04 214.64 280.90 222.94 C 282.61 230.55 283.65 233.44 287.07 240.44 C 290.78 248.06 294.81 257.87 303.20 268.64 C 312.10 280.07 336.00 304.18 340.47 309.02 C 339.97 309.55 336.83 312.90 336.33 313.43 C 332.73 309.75 313.37 290.62 306.35 282.82 C 300.66 276.51 298.41 273.20 294.20 266.64 C 289.98 260.08 284.78 252.22 281.07 243.44 C 277.35 234.66 273.94 222.80 271.90 213.94 C 269.87 205.09 269.18 199.20 268.84 190.33 C 268.51 181.46 268.22 170.87 269.90 160.72 C 271.59 150.58 275.28 139.04 278.97 129.46 C 282.67 119.87 288.34 109.83 292.07 103.23 C 295.43 97.27 296.87 95.02 301.35 89.85 C 306.83 83.50 317.52 71.96 325.00 65.16 C 332.48 58.37 336.99 54.60 346.23 49.07 C 355.48 43.54 367.88 36.51 380.46 31.98 C 393.04 27.45 408.58 23.77 421.73 21.91 C 434.87 20.06 447.62 20.18 459.33 20.85 C 471.03 21.52 480.46 23.22 491.94 25.91 C 503.42 28.60 513.96 31.29 528.21 36.98 C 542.45 42.67 562.70 52.03 577.43 60.07 C 592.17 68.11 603.12 75.21 616.63 85.20 C 630.15 95.19 646.53 108.69 658.50 120.00 C 670.47 131.30 679.81 142.36 688.47 153.03 C 697.13 163.70 704.95 175.66 710.47 184.03 C 715.60 191.81 717.43 194.89 721.60 203.23 C 727.14 214.30 738.00 235.71 743.70 250.46 C 749.39 265.21 753.25 281.63 755.76 291.72 C 757.75 299.68 758.13 302.84 758.80 311.02 C 759.48 319.23 760.01 332.51 759.83 341.00 C 759.66 349.49 758.68 356.33 757.76 361.94 C 756.87 367.40 754.94 372.53 754.34 374.66 C 754.31 374.74 754.22 374.76 754.15 374.72 Z"/>
    <path d="M 203.14 516.73 C 196.21 516.58 174.38 517.78 161.73 515.75 C 149.07 513.73 135.65 507.79 127.23 504.59 C 120.21 501.93 117.30 500.31 111.23 496.60 C 105.17 492.88 98.58 488.86 90.85 482.32 C 83.12 475.77 70.61 463.28 64.83 457.33 C 60.81 453.19 59.49 451.38 56.20 446.64 C 52.74 441.66 47.77 434.18 44.07 427.44 C 40.36 420.70 37.15 414.08 33.97 406.21 C 30.79 398.34 26.99 387.30 24.97 380.21 C 23.03 373.40 22.71 370.67 21.86 363.65 C 21.01 356.50 19.83 346.94 19.83 337.33 C 19.83 327.73 19.67 319.00 21.86 306.02 C 24.05 293.04 29.10 272.26 32.97 259.46 C 36.84 246.66 40.89 238.60 45.07 229.23 C 49.25 219.85 53.21 211.93 58.07 203.23 C 62.92 194.53 68.68 185.23 74.20 177.03 C 79.72 168.83 83.49 163.24 91.20 154.03 C 98.94 144.77 108.37 133.15 120.68 121.51 C 132.98 109.87 154.44 92.61 165.03 84.20 C 172.68 78.13 175.88 76.15 184.23 71.07 C 192.77 65.88 203.36 59.25 216.23 53.07 C 229.10 46.89 249.88 38.34 261.46 33.98 C 271.40 30.24 277.13 28.93 285.73 26.91 C 294.32 24.89 301.39 22.61 313.02 21.87 C 325.94 21.05 357.18 21.97 363.21 21.98 C 363.35 22.62 364.47 26.20 364.43 27.33 C 364.40 28.20 363.81 28.73 362.94 28.76 C 354.37 29.01 325.89 28.01 313.02 28.87 C 301.39 29.65 294.32 31.89 285.73 33.91 C 277.13 35.93 271.04 37.62 261.46 40.98 C 251.88 44.34 237.94 49.73 228.23 54.07 C 218.53 58.42 213.31 60.88 203.23 67.07 C 191.53 74.26 171.15 87.27 158.03 97.20 C 144.91 107.13 136.31 114.54 124.51 126.68 C 112.70 138.81 97.44 156.60 87.20 170.03 C 76.96 183.45 69.59 195.86 63.07 207.23 C 56.55 218.59 51.92 229.52 48.07 238.23 C 44.22 246.93 42.58 250.28 39.97 259.46 C 36.78 270.71 31.09 293.63 28.90 305.72 C 26.93 316.62 26.87 322.37 26.86 332.02 C 26.86 341.67 28.01 355.61 28.86 363.65 C 29.61 370.68 29.90 373.44 31.97 380.21 C 34.51 388.51 39.20 403.04 44.07 413.44 C 48.94 423.85 53.87 432.96 61.20 442.64 C 68.52 452.32 81.53 465.03 88.00 471.50 C 92.64 476.14 94.57 477.83 100.03 481.47 C 106.57 485.81 118.33 493.39 127.23 497.59 C 136.14 501.80 146.28 504.65 153.46 506.69 C 160.40 508.65 163.14 509.37 170.34 509.82 C 178.59 510.33 193.46 510.78 202.94 509.75 C 212.42 508.73 219.46 506.38 227.21 503.69 C 234.95 500.99 241.33 498.32 249.43 493.60 C 257.54 488.87 266.61 483.00 275.82 475.32 C 285.02 467.64 301.22 450.85 304.68 447.51 C 305.23 447.91 308.74 450.47 309.30 450.88 C 305.76 454.41 287.96 473.03 279.82 480.32 C 272.28 487.06 267.87 490.03 260.43 494.60 C 253.00 499.16 244.72 504.01 235.21 507.69 C 225.69 511.37 208.68 515.16 203.33 516.67 C 203.25 516.69 203.23 516.73 203.14 516.73 Z"/>
    <path d="M 466.14 756.73 C 461.17 756.40 441.92 755.34 436.46 754.69 C 434.95 754.51 433.90 753.89 433.37 752.79 C 432.84 751.69 433.01 749.07 433.27 748.10 C 433.50 747.27 434.11 746.87 434.96 746.95 C 436.25 747.07 438.37 748.54 441.02 748.80 C 446.03 749.28 457.01 750.17 465.00 749.83 C 472.99 749.49 479.24 748.94 488.94 746.75 C 498.64 744.56 513.79 739.88 523.21 736.69 C 532.62 733.49 536.38 732.03 545.43 727.59 C 554.64 723.07 568.73 715.45 578.43 709.60 C 588.13 703.74 594.40 699.51 603.63 692.47 C 612.86 685.42 624.68 675.62 633.82 667.32 C 642.96 659.01 651.03 650.92 658.47 642.64 C 665.91 634.36 672.12 626.34 678.47 617.64 C 684.82 608.94 690.91 600.14 696.60 590.44 C 702.29 580.74 707.92 569.81 712.60 559.44 C 717.28 549.07 721.67 537.13 724.70 528.21 C 727.72 519.29 729.08 514.20 730.76 505.94 C 732.45 497.68 734.13 487.91 734.80 478.65 C 735.48 469.38 735.16 458.49 734.82 450.34 C 734.48 442.19 734.45 438.04 732.76 429.72 C 731.07 421.41 727.56 408.71 724.70 400.46 C 721.83 392.21 719.47 387.30 715.60 380.23 C 711.73 373.16 707.32 365.40 701.47 358.03 C 695.62 350.66 687.51 342.16 680.50 336.00 C 673.50 329.84 665.78 325.06 659.43 321.07 C 653.09 317.08 648.52 314.60 642.44 312.07 C 636.35 309.55 629.24 307.45 622.94 305.91 C 616.65 304.37 610.49 303.34 604.67 302.83 C 598.85 302.33 594.18 302.36 588.02 302.87 C 581.87 303.38 575.95 303.33 567.73 305.91 C 559.06 308.63 543.51 315.46 536.03 319.20 C 530.00 322.21 527.99 323.99 522.85 328.35 C 516.26 333.93 507.21 342.08 496.50 352.67 C 479.03 369.97 427.41 422.62 417.99 432.16 C 417.42 431.67 413.83 428.58 413.27 428.09 C 425.08 416.26 490.68 349.18 511.68 329.51 C 522.01 319.82 531.10 314.83 539.23 310.07 C 547.36 305.32 552.28 303.35 560.46 300.98 C 568.65 298.61 579.43 296.53 588.34 295.85 C 597.25 295.17 604.96 295.39 613.94 296.91 C 622.92 298.43 631.92 300.43 642.21 304.98 C 652.49 309.53 665.61 316.89 675.63 324.20 C 685.65 331.51 694.49 339.67 702.32 348.85 C 710.15 358.02 717.04 368.63 722.60 379.23 C 728.16 389.83 732.83 404.04 735.70 412.46 C 738.09 419.51 738.75 423.46 739.76 429.72 C 740.78 435.98 741.66 441.45 741.80 450.02 C 741.98 460.17 741.99 479.28 740.80 490.65 C 739.62 502.01 737.71 507.95 734.70 518.21 C 731.68 528.47 727.54 540.67 722.70 552.21 C 717.85 563.75 712.14 575.87 705.60 587.44 C 699.06 599.01 690.52 611.74 683.47 621.64 C 676.42 631.54 670.65 638.65 663.32 646.82 C 655.99 654.99 648.78 662.23 639.50 670.67 C 630.22 679.11 619.15 688.98 607.63 697.47 C 596.12 705.95 583.13 714.41 570.43 721.60 C 557.73 728.78 545.02 735.23 531.44 740.59 C 517.85 745.95 499.79 751.08 488.94 753.75 C 479.65 756.05 470.13 756.17 466.33 756.67 C 466.25 756.68 466.23 756.74 466.14 756.73 Z"/>
    <path d="M 740.50 347.46 C 739.54 347.21 735.57 346.13 734.90 345.94 C 734.65 341.00 735.13 319.30 732.76 304.72 C 730.40 290.14 726.06 273.54 720.70 258.46 C 715.33 243.37 706.30 225.47 700.60 214.23 C 695.44 204.05 693.09 200.32 686.47 191.03 C 679.42 181.13 668.26 166.13 658.32 154.85 C 648.38 143.57 636.26 131.96 626.82 123.35 C 617.37 114.74 609.33 108.89 601.63 103.20 C 593.94 97.51 589.77 94.58 580.63 89.20 C 571.27 83.68 556.34 75.28 545.43 70.08 C 534.53 64.87 525.62 61.51 515.21 57.98 C 504.79 54.45 493.37 51.10 482.94 48.91 C 472.51 46.73 461.63 45.54 452.64 44.87 C 443.66 44.20 437.89 43.85 429.02 44.87 C 420.16 45.89 409.76 47.78 399.46 50.98 C 389.16 54.18 377.64 58.37 367.23 64.07 C 356.83 69.78 344.18 79.40 337.03 85.20 C 330.95 90.13 328.97 92.53 324.35 98.85 C 318.85 106.35 308.13 123.13 304.07 130.23 C 301.58 134.59 301.14 136.57 299.97 141.46 C 298.27 148.59 294.88 163.99 293.86 173.02 C 292.84 182.05 293.01 187.61 293.86 195.65 C 294.71 203.68 296.94 213.91 298.97 221.21 C 301.01 228.51 302.07 232.26 306.07 239.44 C 310.30 247.04 316.50 257.28 324.35 266.82 C 332.19 276.36 349.70 293.10 353.16 296.68 C 352.81 297.28 350.56 301.07 350.21 301.67 C 347.37 298.95 332.84 285.67 326.51 278.99 C 320.17 272.32 316.60 267.90 312.20 261.64 C 307.79 255.38 303.44 248.18 300.07 241.44 C 296.70 234.70 294.17 228.84 291.97 221.21 C 289.77 213.58 287.72 203.62 286.86 195.65 C 286.01 187.67 286.17 181.16 286.84 173.34 C 287.52 165.52 289.20 155.91 290.90 148.72 C 292.61 141.54 293.35 137.52 297.07 130.23 C 301.28 121.94 310.23 107.34 316.20 99.03 C 322.16 90.72 325.01 87.01 332.85 80.35 C 340.69 73.69 354.67 64.28 363.23 59.07 C 371.58 53.99 378.19 51.59 384.23 49.07 C 390.27 46.56 392.92 45.62 399.46 43.98 C 406.93 42.11 417.99 38.72 429.02 37.87 C 440.05 37.02 453.95 37.52 465.64 38.87 C 477.34 40.22 485.91 41.94 499.21 45.98 C 512.50 50.01 531.23 56.73 545.44 63.07 C 559.64 69.42 574.40 78.22 584.43 84.07 C 593.68 89.46 597.90 92.49 605.63 98.20 C 613.36 103.91 621.20 109.57 630.82 118.35 C 640.43 127.12 653.21 139.40 663.32 150.85 C 673.43 162.29 683.09 174.63 691.47 187.03 C 699.85 199.42 706.89 211.32 713.60 225.23 C 720.30 239.13 727.16 255.82 731.70 270.46 C 736.23 285.09 739.31 300.20 740.80 313.02 C 742.30 325.84 740.70 343.27 740.69 347.40 C 740.66 347.40 740.58 347.48 740.50 347.46 Z"/>
    <path d="M 466.14 736.73 C 464.76 736.70 459.57 736.80 458.03 736.46 C 457.18 736.28 456.91 735.57 456.93 734.70 C 456.96 733.80 456.62 731.46 458.20 731.03 C 462.36 729.87 472.14 730.06 481.94 727.75 C 492.11 725.36 509.46 720.05 519.21 716.69 C 528.38 713.53 532.56 711.44 540.43 707.59 C 548.30 703.74 556.02 700.33 566.43 693.60 C 577.33 686.55 592.50 676.61 605.82 665.32 C 619.13 654.02 636.71 635.93 646.32 625.82 C 654.21 617.52 657.92 612.37 663.47 604.64 C 669.02 596.91 674.24 588.81 679.60 579.44 C 684.95 570.07 691.41 557.31 695.60 548.44 C 699.78 539.57 701.83 535.88 704.70 526.21 C 707.90 515.41 713.12 497.51 714.80 483.65 C 716.49 469.78 715.82 454.55 714.80 443.02 C 713.79 431.49 710.73 421.92 708.70 414.46 C 706.78 407.43 704.80 403.13 702.60 398.23 C 700.39 393.32 698.90 390.32 695.47 385.03 C 691.76 379.30 685.63 369.98 680.32 363.85 C 675.02 357.71 670.12 353.16 663.63 348.20 C 657.15 343.24 647.50 337.45 641.43 334.08 C 635.75 330.92 632.89 329.69 627.21 327.98 C 621.52 326.27 614.14 324.52 607.33 323.83 C 600.52 323.15 591.82 323.49 586.34 323.85 C 581.28 324.18 579.31 324.61 574.46 325.98 C 569.61 327.35 563.64 329.04 557.23 332.07 C 550.83 335.11 543.04 339.05 536.03 344.20 C 529.02 349.35 523.55 354.70 515.16 363.00 C 498.02 379.97 447.52 432.42 433.17 446.00 C 431.82 447.27 429.88 445.10 429.03 444.47 C 428.21 443.86 428.19 442.49 428.07 442.22 C 438.10 432.06 494.35 374.68 511.68 357.51 C 519.84 349.41 525.94 343.94 532.03 339.20 C 538.13 334.46 542.33 332.11 548.23 329.07 C 554.14 326.03 561.11 323.02 567.46 320.98 C 573.81 318.94 579.43 317.53 586.34 316.85 C 593.25 316.17 600.46 315.56 608.94 316.91 C 617.42 318.27 628.09 321.10 637.21 324.98 C 646.32 328.86 655.61 334.39 663.63 340.20 C 671.65 346.01 679.16 353.01 685.32 359.85 C 691.48 366.68 696.55 374.83 700.60 381.23 C 704.65 387.62 707.08 392.69 709.60 398.23 C 712.11 403.76 713.78 407.43 715.70 414.46 C 717.73 421.92 720.62 432.99 721.80 443.02 C 722.99 453.05 723.49 464.28 722.80 474.65 C 722.12 485.01 720.55 494.12 717.70 505.21 C 714.84 516.30 710.21 529.84 705.70 541.21 C 701.18 552.58 697.30 561.53 690.60 573.44 C 683.90 585.34 673.46 601.63 665.47 612.64 C 657.48 623.65 652.94 629.06 642.67 639.50 C 632.39 649.95 615.86 665.47 603.82 675.32 C 591.78 685.17 581.66 691.72 570.43 698.60 C 559.20 705.47 547.97 711.41 536.44 716.59 C 524.90 721.77 510.29 726.66 501.21 729.69 C 493.27 732.33 487.75 733.59 481.94 734.75 C 476.13 735.92 468.97 736.34 466.33 736.67 C 466.25 736.68 466.23 736.73 466.14 736.73 Z"/>
    <path d="M 196.14 498.73 C 192.26 498.75 179.59 499.29 173.02 498.80 C 166.45 498.30 163.32 497.61 156.73 495.75 C 150.13 493.90 139.71 490.21 133.46 487.69 C 127.27 485.19 124.86 484.18 119.23 480.60 C 112.68 476.43 101.65 469.13 94.16 462.67 C 86.68 456.21 79.69 448.19 74.35 441.82 C 69.00 435.45 65.61 430.17 62.07 424.44 C 58.52 418.71 55.92 413.81 53.07 407.44 C 50.22 401.07 47.44 395.43 44.97 386.21 C 42.44 376.74 39.05 360.79 37.86 350.65 C 36.67 340.50 37.34 333.49 37.84 325.34 C 38.35 317.19 38.95 311.53 40.90 301.72 C 42.92 291.58 44.78 279.04 49.97 264.46 C 55.17 249.87 64.70 228.47 72.07 214.23 C 79.44 199.99 85.12 191.29 94.20 179.03 C 103.27 166.77 114.87 152.81 126.51 140.67 C 138.14 128.54 149.58 117.30 164.03 106.20 C 178.49 95.10 197.66 82.78 213.23 74.07 C 228.80 65.37 244.55 59.01 257.46 53.98 C 270.38 48.95 281.63 46.26 290.73 43.91 C 299.54 41.63 304.44 40.86 312.02 39.87 C 319.60 38.88 331.97 38.07 336.21 37.98 C 336.97 37.96 337.43 38.57 337.43 39.33 C 337.43 40.45 336.35 44.05 336.21 44.69 C 330.75 45.44 303.85 48.20 290.73 50.91 C 277.60 53.63 266.21 57.95 257.46 60.98 C 249.18 63.84 246.13 65.27 238.23 69.07 C 229.19 73.42 214.93 80.05 203.23 87.07 C 191.53 94.09 179.99 101.60 168.03 111.20 C 156.08 120.80 142.98 132.70 131.51 144.67 C 120.03 156.64 108.60 170.10 99.20 183.03 C 89.79 195.95 82.11 208.66 75.07 222.23 C 68.03 235.80 61.50 251.21 56.97 264.46 C 52.44 277.71 49.92 291.58 47.90 301.72 C 45.95 311.53 45.35 317.19 44.84 325.34 C 44.34 333.49 44.01 341.67 44.86 350.65 C 45.72 359.62 47.44 369.74 49.97 379.21 C 52.51 388.68 55.86 398.54 60.07 407.44 C 64.27 416.35 68.76 424.19 75.20 432.64 C 81.63 441.09 92.04 451.85 98.68 458.16 C 104.91 464.08 108.44 466.39 115.03 470.47 C 121.63 474.54 131.28 479.54 138.23 482.59 C 145.18 485.64 150.87 487.22 156.73 488.75 C 162.58 490.29 166.25 491.52 173.34 491.82 C 181.21 492.15 195.30 491.94 203.94 490.75 C 212.59 489.57 218.79 487.05 225.21 484.69 C 231.62 482.33 235.61 480.76 242.43 476.60 C 249.37 472.37 258.91 465.85 266.82 459.32 C 274.72 452.78 287.11 440.01 289.88 437.37 C 290.41 437.79 293.77 440.46 294.30 440.88 C 291.48 443.69 278.79 457.53 270.82 464.32 C 262.84 471.10 254.04 477.03 246.43 481.60 C 238.83 486.16 233.56 488.84 225.21 491.69 C 216.86 494.53 201.18 497.50 196.33 498.67 C 196.25 498.69 196.23 498.73 196.14 498.73 Z"/>
    <path d="M 478.14 716.73 C 477.60 716.53 475.77 716.28 475.07 715.44 C 474.37 714.60 473.91 712.60 473.93 711.70 C 473.96 710.83 474.39 710.30 475.23 710.08 C 479.61 708.91 491.84 707.27 500.21 704.69 C 508.57 702.11 517.23 698.27 525.44 694.59 C 533.64 690.91 540.90 687.45 549.43 682.60 C 557.97 677.74 567.68 671.90 576.63 665.47 C 585.59 659.03 592.79 653.89 603.16 644.00 C 613.97 633.69 630.40 617.56 641.47 603.64 C 652.54 589.71 662.06 573.84 669.60 560.44 C 677.14 547.03 682.16 536.01 686.70 523.21 C 691.23 510.41 695.13 497.39 696.80 483.65 C 698.48 469.90 697.61 451.59 696.76 440.72 C 696.01 431.16 693.89 425.54 691.70 418.46 C 689.50 411.37 686.80 404.30 683.60 398.23 C 680.39 392.16 676.24 386.81 672.47 382.03 C 668.70 377.24 665.83 373.83 660.99 369.51 C 656.15 365.18 649.73 359.99 643.43 356.07 C 637.14 352.15 629.00 348.18 623.21 345.98 C 617.41 343.78 614.12 343.56 608.64 342.87 C 603.17 342.18 595.70 341.66 590.34 341.85 C 584.98 342.03 581.44 342.62 576.46 343.98 C 571.48 345.33 566.20 346.94 560.46 349.98 C 554.72 353.02 548.78 355.82 542.03 362.20 C 523.15 380.04 458.55 445.63 447.17 457.00 C 446.54 456.58 442.60 453.88 441.98 453.45 C 451.86 443.42 508.33 385.88 524.33 369.83 C 529.86 364.29 533.55 360.83 538.03 357.20 C 542.52 353.57 545.83 351.11 551.23 348.07 C 556.64 345.03 564.00 341.18 570.46 338.98 C 576.93 336.78 583.66 335.39 590.02 334.87 C 596.39 334.35 603.11 335.19 608.64 335.87 C 614.18 336.56 617.38 336.70 623.21 338.98 C 629.67 341.51 640.36 346.71 647.43 351.07 C 654.51 355.44 659.33 358.84 665.67 365.16 C 672.01 371.49 680.30 381.15 685.47 389.03 C 690.64 396.91 693.65 403.84 696.70 412.46 C 699.74 421.07 702.41 431.08 703.76 440.72 C 705.12 450.37 705.32 460.62 704.82 470.33 C 704.32 480.03 702.62 490.13 700.76 498.94 C 698.91 507.76 697.63 513.35 693.70 523.21 C 689.33 534.13 680.64 552.87 674.60 564.44 C 668.56 576.01 664.02 583.24 657.47 592.64 C 650.92 602.04 643.76 611.37 635.32 620.82 C 626.88 630.27 615.93 641.04 606.82 649.32 C 597.70 657.59 591.36 663.09 580.63 670.47 C 569.90 677.85 554.84 687.06 542.43 693.60 C 530.03 700.13 516.89 705.84 506.21 709.69 C 495.52 713.53 483.01 715.50 478.33 716.67 C 478.25 716.69 478.22 716.76 478.14 716.73 Z"/>
    <path d="M 721.50 324.46 C 720.70 324.44 717.97 324.84 716.88 324.29 C 715.79 323.75 715.31 322.69 714.97 321.21 C 713.27 313.74 710.26 292.12 706.70 279.46 C 703.13 266.79 698.28 255.76 693.60 245.23 C 688.92 234.69 685.79 227.76 678.60 216.23 C 671.41 204.69 661.35 189.09 650.47 176.03 C 639.59 162.96 622.47 146.64 613.33 137.83 C 606.39 131.14 603.48 128.80 595.63 123.20 C 586.82 116.91 572.30 106.93 560.43 100.07 C 548.57 93.22 535.31 86.76 524.44 82.07 C 513.56 77.39 505.12 74.67 495.21 71.98 C 485.29 69.29 472.53 67.10 464.94 65.91 C 458.59 64.92 456.10 64.70 449.67 64.84 C 441.80 65.01 426.26 65.72 417.73 66.91 C 409.44 68.07 405.21 69.62 398.46 71.98 C 391.71 74.34 383.80 77.53 377.23 81.07 C 370.66 84.61 365.21 88.21 359.03 93.20 C 352.86 98.19 345.19 105.52 340.20 111.03 C 335.20 116.53 332.11 121.16 329.07 126.23 C 326.03 131.30 324.20 134.76 321.97 141.46 C 319.61 148.54 316.25 160.86 314.90 168.72 C 313.55 176.59 313.35 181.23 313.86 188.65 C 314.37 196.06 316.10 206.08 317.97 213.21 C 319.84 220.34 320.95 224.33 325.07 231.44 C 329.46 239.04 337.28 250.56 344.35 258.82 C 351.41 267.08 364.70 278.36 367.47 281.02 C 367.00 281.55 364.04 284.87 363.57 285.39 C 360.68 282.70 345.40 269.12 339.51 262.99 C 334.18 257.46 331.94 254.23 328.20 248.64 C 324.46 243.05 319.94 235.35 317.07 229.44 C 314.20 223.54 312.44 220.34 310.97 213.21 C 309.27 204.97 306.87 189.77 306.86 180.02 C 306.85 170.27 309.04 162.36 310.90 154.72 C 312.77 147.09 315.87 139.64 318.07 134.23 C 320.18 129.00 321.21 126.76 324.07 122.23 C 326.92 117.69 330.04 112.70 335.20 107.03 C 340.36 101.36 349.86 92.69 355.03 88.20 C 359.42 84.39 361.25 83.06 366.23 80.07 C 371.27 77.05 376.83 73.36 385.23 70.07 C 393.81 66.71 406.54 61.95 417.73 59.91 C 428.91 57.87 443.30 57.83 452.33 57.83 C 460.61 57.83 463.83 58.24 471.94 59.91 C 481.75 61.94 500.62 66.62 511.21 69.98 C 521.71 73.32 526.56 75.89 535.44 80.07 C 544.31 84.26 553.73 88.72 564.43 95.07 C 575.13 101.43 590.76 111.85 599.63 118.20 C 607.64 123.93 610.48 126.44 617.67 133.16 C 625.59 140.58 639.69 154.70 647.16 162.67 C 654.02 170.00 656.52 172.94 662.47 181.03 C 668.54 189.29 676.73 200.49 683.60 212.23 C 690.47 223.97 698.68 240.25 703.70 251.46 C 708.71 262.66 711.18 271.41 713.70 279.46 C 716.21 287.50 717.26 292.52 718.76 299.72 C 720.27 306.93 722.25 318.59 722.73 322.70 C 722.83 323.53 721.89 324.10 721.69 324.40 C 721.64 324.46 721.58 324.46 721.50 324.46 Z"/>
    <path d="M 194.14 477.73 C 189.04 477.41 173.88 477.94 163.73 475.75 C 153.57 473.57 140.85 467.98 133.23 464.60 C 126.43 461.57 123.29 459.21 118.03 455.47 C 112.77 451.73 106.32 446.46 101.68 442.16 C 97.04 437.85 93.94 434.39 90.20 429.64 C 86.45 424.89 83.03 420.84 79.20 413.64 C 74.99 405.73 68.53 393.37 64.97 382.21 C 61.42 371.04 58.88 357.84 57.86 346.65 C 56.84 335.45 57.51 326.05 58.86 315.02 C 60.21 303.99 63.62 289.72 65.97 280.46 C 68.26 271.45 69.79 267.50 72.97 259.46 C 76.15 251.42 79.86 242.13 85.07 232.23 C 90.27 222.32 95.32 212.59 104.20 200.03 C 113.08 187.46 129.07 167.46 138.35 156.85 C 146.56 147.45 151.57 143.62 159.85 136.35 C 168.13 129.07 178.97 119.91 188.03 113.20 C 197.10 106.49 205.87 101.09 214.23 96.07 C 222.60 91.05 229.53 87.25 238.23 83.07 C 246.94 78.89 254.23 75.06 266.46 70.98 C 278.85 66.85 307.04 59.80 312.57 58.27 C 312.67 58.91 313.58 62.35 313.39 63.57 C 313.21 64.74 312.56 65.24 311.43 65.59 C 303.61 67.99 280.83 72.73 266.46 77.98 C 252.09 83.23 237.64 90.37 225.23 97.07 C 212.83 103.78 202.29 110.79 192.03 118.20 C 181.77 125.61 171.29 134.90 163.68 141.51 C 156.12 148.06 152.96 150.34 146.35 157.85 C 137.60 167.77 120.91 187.13 111.20 201.03 C 101.48 214.92 94.44 227.99 88.07 241.23 C 81.70 254.46 76.67 268.21 72.97 280.46 C 69.28 292.71 67.26 306.52 65.90 314.72 C 64.88 320.93 64.84 323.38 64.83 329.67 C 64.83 336.32 64.67 345.89 65.86 354.65 C 67.05 363.40 69.44 373.91 71.97 382.21 C 74.51 390.51 77.70 397.87 81.07 404.44 C 84.44 411.01 88.15 416.24 92.20 421.64 C 96.24 427.04 100.36 432.03 105.33 436.83 C 110.31 441.64 114.31 445.74 122.03 450.47 C 129.89 455.28 144.46 462.47 152.46 465.69 C 159.49 468.52 163.11 468.95 170.02 469.80 C 176.94 470.64 186.74 471.27 193.94 470.75 C 201.14 470.24 206.12 469.05 213.21 466.69 C 220.29 464.33 229.83 460.32 236.43 456.60 C 243.04 452.87 246.38 449.88 252.82 444.32 C 259.25 438.75 270.80 426.92 275.03 423.20 C 276.11 422.26 277.00 421.71 278.21 421.99 C 279.42 422.27 281.81 424.53 282.30 424.88 C 279.24 427.81 264.29 442.86 256.82 449.32 C 249.34 455.77 244.70 459.53 237.43 463.60 C 230.17 467.66 220.39 471.34 213.21 473.69 C 206.02 476.03 197.51 477.00 194.33 477.67 C 194.25 477.69 194.23 477.74 194.14 477.73 Z"/>
    <path d="M 696.14 301.73 C 695.58 301.49 693.50 301.59 692.97 300.21 C 691.73 297.00 690.91 289.58 688.70 282.46 C 686.48 275.33 683.71 266.66 679.70 257.46 C 675.68 248.25 670.14 236.80 664.60 227.23 C 659.06 217.66 653.35 209.26 646.47 200.03 C 639.59 190.80 629.93 179.29 623.32 171.85 C 616.82 164.52 614.15 161.85 606.82 155.35 C 599.37 148.74 588.36 139.25 578.63 132.20 C 568.90 125.15 558.30 118.59 548.43 113.07 C 538.57 107.55 532.07 103.89 519.44 99.07 C 506.69 94.21 482.68 86.78 471.94 83.91 C 465.02 82.06 462.17 81.99 455.00 81.84 C 447.13 81.67 434.15 81.56 424.73 82.91 C 415.30 84.27 405.38 87.62 398.46 89.98 C 391.78 92.26 388.34 94.18 383.23 97.08 C 378.13 99.97 373.19 102.69 367.85 107.35 C 362.51 112.01 355.83 118.88 351.20 125.03 C 346.57 131.17 342.78 138.44 340.07 144.23 C 337.35 150.01 336.11 155.20 334.90 159.72 C 333.70 164.24 332.96 166.39 332.84 171.34 C 332.68 178.21 332.88 193.13 333.90 200.94 C 334.88 208.44 337.11 213.29 338.97 218.21 C 340.83 223.13 342.51 226.34 345.07 230.44 C 347.63 234.54 349.95 238.03 354.35 242.82 C 360.25 249.25 377.34 265.88 380.47 269.02 C 380.12 269.67 377.92 273.75 377.57 274.39 C 376.06 273.08 369.91 268.47 365.00 263.50 C 359.44 257.88 350.20 249.52 344.20 240.64 C 338.19 231.76 332.03 217.87 328.97 210.21 C 326.50 204.02 326.38 201.18 325.86 194.65 C 325.34 188.11 324.50 179.92 325.86 171.02 C 327.23 162.12 330.68 149.56 334.07 141.23 C 337.46 132.89 341.20 127.53 346.20 121.03 C 351.19 114.52 356.19 108.19 364.03 102.20 C 371.87 96.21 383.95 89.29 393.23 85.07 C 402.51 80.86 409.88 78.62 419.73 76.91 C 429.58 75.21 443.63 74.83 452.33 74.83 C 460.61 74.83 463.84 75.17 471.94 76.91 C 480.59 78.77 494.29 82.62 504.21 85.98 C 514.12 89.34 521.40 92.23 531.44 97.07 C 541.47 101.92 554.40 108.88 564.43 115.07 C 574.47 121.26 583.79 128.21 591.63 134.20 C 599.48 140.19 603.69 143.35 611.50 151.00 C 619.64 158.97 631.29 170.82 640.47 182.03 C 649.65 193.23 659.41 206.86 666.60 218.23 C 673.79 229.59 679.08 240.69 683.60 250.23 C 688.11 259.76 691.00 267.71 693.70 275.46 C 696.39 283.21 698.80 292.69 699.76 296.72 C 700.05 297.92 700.04 298.82 699.47 299.64 C 698.90 300.46 696.89 301.32 696.33 301.67 C 696.26 301.71 696.22 301.76 696.14 301.73 Z"/>
    <path d="M 195.14 458.73 C 191.38 458.75 178.67 459.26 172.73 458.75 C 167.03 458.27 164.71 457.38 159.46 455.69 C 154.21 453.99 147.67 451.99 141.23 448.59 C 134.80 445.20 127.69 441.14 120.85 435.32 C 114.01 429.49 105.33 419.79 100.20 413.64 C 95.28 407.75 92.60 402.84 90.07 398.44 C 87.53 394.03 86.49 390.75 84.97 387.21 C 83.46 383.67 82.17 381.57 80.97 377.21 C 79.63 372.33 77.69 366.18 76.90 357.94 C 76.05 348.97 75.16 334.09 75.84 323.34 C 76.52 312.59 78.45 303.60 80.97 293.46 C 83.49 283.31 86.12 274.00 90.97 262.46 C 95.82 250.92 102.86 236.47 110.07 224.23 C 117.27 211.99 126.37 199.21 134.20 189.03 C 142.02 178.85 148.36 171.80 157.00 163.16 C 165.64 154.53 175.83 145.38 186.03 137.20 C 196.24 129.02 205.37 121.76 218.23 114.07 C 231.10 106.38 251.07 96.42 263.23 91.07 C 274.54 86.10 287.85 83.07 291.20 81.98 C 291.51 82.43 293.43 85.26 293.73 85.70 C 293.46 86.05 292.87 88.01 291.43 88.59 C 286.35 90.65 274.66 93.03 263.23 98.07 C 251.66 103.18 234.23 111.85 222.03 119.20 C 209.83 126.56 200.12 134.12 190.03 142.20 C 179.94 150.28 169.98 159.20 161.51 167.67 C 153.03 176.14 146.94 182.94 139.20 193.03 C 131.46 203.12 121.94 216.66 115.07 228.23 C 108.20 239.80 102.49 251.59 97.97 262.46 C 93.46 273.33 90.49 283.14 87.97 293.46 C 85.45 303.77 83.52 313.64 82.83 324.33 C 82.15 335.03 83.01 348.83 83.86 357.65 C 84.68 366.00 85.94 370.91 87.97 377.21 C 90.01 383.51 93.20 390.03 96.07 395.44 C 98.94 400.84 100.55 404.28 105.20 409.64 C 110.69 415.98 123.03 428.14 129.03 433.47 C 133.64 437.55 136.16 439.05 141.23 441.59 C 146.30 444.13 154.16 446.99 159.46 448.69 C 164.76 450.39 167.20 451.29 173.02 451.80 C 178.94 452.31 188.91 452.27 194.94 451.75 C 200.97 451.24 203.46 450.71 209.21 448.69 C 214.95 446.66 223.14 443.52 229.43 439.60 C 235.73 435.67 241.62 430.17 246.99 425.16 C 252.36 420.14 259.92 411.39 261.68 409.51 C 262.23 409.91 265.74 412.47 266.30 412.88 C 264.50 414.91 256.81 424.55 251.33 429.83 C 245.86 435.12 240.46 440.29 233.43 444.60 C 226.41 448.90 215.56 453.34 209.21 455.69 C 203.62 457.75 197.68 458.16 195.33 458.67 C 195.25 458.69 195.23 458.73 195.14 458.73 Z"/>
    <path d="M 372.15 386.72 C 371.47 386.03 368.74 383.07 368.27 382.57 C 368.52 382.12 369.09 380.12 370.35 378.85 C 386.52 362.39 446.97 303.02 465.32 283.82 C 472.64 276.16 476.07 270.24 480.47 263.64 C 484.87 257.04 488.25 252.98 491.70 244.21 C 495.41 234.76 500.74 219.76 502.76 206.94 C 504.78 194.13 504.84 179.25 503.82 167.34 C 502.81 155.42 498.73 142.98 496.70 135.46 C 495.14 129.71 494.20 127.58 491.60 122.23 C 488.53 115.91 479.87 100.53 478.27 97.58 C 478.78 97.06 482.05 93.79 482.57 93.28 C 483.89 95.43 490.08 104.20 493.60 111.23 C 497.12 118.26 500.83 126.16 503.70 135.46 C 506.56 144.76 509.79 155.11 510.80 167.02 C 511.82 178.94 511.78 194.08 509.76 206.94 C 507.75 219.81 502.74 234.09 498.70 244.21 C 494.65 254.33 490.20 260.37 485.47 267.64 C 480.74 274.91 477.62 280.14 470.32 287.82 C 451.47 307.66 388.70 370.18 372.34 386.66 C 372.28 386.72 372.21 386.77 372.15 386.72 Z"/>
    <path d="M 361.15 372.72 C 360.47 372.03 357.74 369.72 357.27 368.57 C 356.81 367.43 357.48 366.72 358.35 365.85 C 373.58 350.33 431.65 292.87 448.67 275.50 C 454.02 270.04 456.15 267.82 460.47 261.64 C 464.79 255.46 471.23 244.84 474.60 238.44 C 477.81 232.34 478.92 229.87 480.70 223.21 C 482.57 216.19 485.15 207.08 485.82 196.33 C 486.50 185.58 485.78 168.20 484.76 158.72 C 483.87 150.40 481.72 145.37 479.70 139.46 C 477.67 133.54 476.38 129.64 472.60 123.23 C 468.65 116.52 457.97 102.10 455.98 99.22 C 456.53 98.74 460.02 95.75 460.57 95.28 C 462.49 97.91 472.25 109.86 476.60 117.23 C 480.95 124.59 484.33 133.37 486.70 139.46 C 488.95 145.27 489.74 149.24 490.76 153.72 C 491.78 158.20 492.56 160.98 492.82 166.34 C 493.17 173.44 493.68 186.85 492.82 196.33 C 491.97 205.81 489.90 215.52 487.70 223.21 C 485.49 230.89 483.33 235.34 479.60 242.44 C 475.87 249.54 469.62 259.67 465.32 265.82 C 461.06 271.93 459.03 274.00 453.83 279.33 C 436.50 297.14 376.78 357.10 361.34 372.66 C 361.28 372.72 361.21 372.77 361.15 372.72 Z"/>
    <path d="M 346.15 358.72 C 345.47 357.99 342.71 354.86 342.24 354.33 C 342.73 353.67 344.33 350.91 346.35 348.85 C 362.55 332.23 421.93 273.21 439.47 254.64 C 445.54 248.21 448.06 243.68 451.60 237.44 C 455.14 231.20 458.32 224.39 460.70 217.21 C 463.07 210.02 464.97 201.64 465.82 194.33 C 466.68 187.02 466.17 179.27 465.82 173.34 C 465.48 167.41 464.78 163.54 463.76 158.72 C 462.74 153.91 461.56 149.37 459.70 144.46 C 457.83 139.54 456.47 135.13 452.60 129.23 C 447.71 121.78 433.04 103.32 430.37 99.79 C 430.87 99.25 434.07 95.82 434.57 95.28 C 436.97 98.27 448.91 111.03 454.60 120.23 C 460.29 129.42 465.66 141.66 468.70 150.46 C 471.73 159.26 472.11 165.76 472.80 173.02 C 473.49 180.28 473.68 186.47 472.83 194.00 C 471.98 201.53 470.40 210.30 467.70 218.21 C 464.99 226.12 460.49 234.67 456.60 241.44 C 452.70 248.21 450.45 252.31 444.32 258.82 C 425.94 278.36 362.70 342.01 346.34 358.66 C 346.28 358.72 346.21 358.77 346.15 358.72 Z"/>
    <path d="M 331.50 347.46 C 331.13 346.78 328.72 342.52 328.34 341.84 C 339.14 331.04 400.97 269.69 418.32 251.82 C 424.83 245.11 428.74 240.07 432.47 234.64 C 436.20 229.20 438.31 225.16 440.70 219.21 C 443.08 213.26 445.58 204.70 446.76 198.94 C 447.95 193.18 448.09 190.66 447.80 184.65 C 447.47 177.61 447.15 165.66 444.76 156.72 C 442.37 147.79 439.04 139.35 433.47 131.03 C 427.90 122.71 414.02 109.70 411.37 106.79 C 411.83 106.21 414.75 102.57 415.21 101.99 C 418.00 105.00 432.39 117.95 438.47 127.03 C 444.55 136.11 448.97 146.91 451.70 156.46 C 454.42 166.01 454.48 177.25 454.82 184.33 C 455.12 190.48 454.95 193.13 453.76 198.94 C 452.57 204.76 450.24 212.76 447.70 219.21 C 445.15 225.66 442.53 231.54 438.47 237.64 C 434.41 243.74 430.25 248.70 423.32 255.82 C 405.52 274.11 346.99 332.12 331.69 347.40 C 331.63 347.45 331.53 347.45 331.50 347.46 Z"/>
    <path d="M 310.50 701.46 C 309.59 700.66 307.05 699.01 305.20 696.64 C 302.46 693.14 297.94 687.73 294.07 680.44 C 289.70 672.20 282.51 657.68 278.97 647.21 C 275.44 636.74 273.88 627.18 272.86 617.65 C 271.84 608.11 272.18 598.55 272.86 590.02 C 273.55 581.49 274.44 575.09 276.97 566.46 C 279.51 557.83 283.36 547.30 288.07 538.23 C 292.77 529.16 297.49 521.53 305.20 512.03 C 312.91 502.53 330.84 484.94 334.33 481.24 C 334.81 481.79 337.82 485.24 338.30 485.79 C 334.93 489.42 317.73 506.62 310.20 516.03 C 302.66 525.43 297.44 533.82 293.07 542.23 C 288.70 550.63 286.17 558.49 283.97 566.46 C 281.77 574.42 280.55 581.49 279.86 590.02 C 279.18 598.55 279.18 609.28 279.86 617.65 C 280.55 626.01 282.45 633.95 283.97 640.21 C 285.49 646.47 286.46 649.17 288.97 655.21 C 291.49 661.25 294.80 669.44 299.07 676.44 C 303.34 683.44 312.73 694.73 314.60 697.22 C 314.13 697.72 311.37 700.69 310.69 701.40 C 310.63 701.45 310.57 701.51 310.50 701.46 Z"/>
    <path d="M 611.14 516.73 C 604.88 516.58 583.67 516.93 573.73 515.75 C 564.10 514.62 557.54 511.71 551.46 509.69 C 545.38 507.66 542.86 506.85 537.23 503.59 C 528.83 498.72 511.84 489.09 501.03 480.47 C 490.22 471.85 475.81 455.31 472.37 451.88 C 472.88 451.44 476.12 448.64 476.63 448.20 C 480.04 451.48 495.27 467.57 505.03 475.47 C 514.80 483.36 527.49 491.06 535.23 495.60 C 541.65 499.36 545.05 500.49 551.46 502.69 C 557.88 504.88 564.11 507.58 573.73 508.75 C 583.48 509.94 601.96 509.99 610.00 509.83 C 615.09 509.72 617.04 509.12 621.94 507.75 C 628.68 505.88 643.35 501.29 650.44 498.59 C 656.58 496.26 659.32 494.65 664.43 491.60 C 669.54 488.54 679.10 481.63 681.10 480.28 C 681.61 480.73 684.88 483.64 685.39 484.10 C 683.36 485.60 674.26 493.01 668.43 496.60 C 662.61 500.18 656.14 503.08 650.44 505.59 C 644.73 508.11 640.72 509.84 634.21 511.69 C 627.69 513.53 615.18 515.83 611.33 516.67 C 611.25 516.69 611.23 516.73 611.14 516.73 Z"/>
    <path d="M 607.14 498.73 C 602.38 498.58 588.21 499.28 578.73 497.75 C 569.24 496.23 557.98 492.45 550.23 489.59 C 542.48 486.73 538.10 484.12 532.23 480.60 C 526.37 477.07 520.21 472.45 515.03 468.47 C 509.85 464.48 506.28 461.77 501.16 456.67 C 496.05 451.57 486.38 440.13 484.37 437.88 C 484.88 437.44 488.12 434.64 488.63 434.20 C 491.66 437.22 505.92 452.42 513.85 459.32 C 521.78 466.22 527.63 470.87 536.23 475.60 C 544.83 480.32 557.00 484.99 565.46 487.69 C 573.93 490.39 580.16 491.11 587.02 491.80 C 593.89 492.48 600.45 492.31 606.64 491.80 C 612.84 491.28 617.08 491.01 624.21 488.69 C 632.50 485.99 646.99 480.81 656.43 475.60 C 665.88 470.38 677.94 459.56 680.88 457.37 C 681.41 457.79 684.77 460.46 685.30 460.88 C 685.00 461.41 684.42 463.91 682.82 465.32 C 680.04 467.75 674.70 471.75 668.63 475.47 C 662.57 479.18 653.84 484.22 646.44 487.59 C 639.03 490.96 630.72 493.84 624.21 495.69 C 617.69 497.53 610.18 498.16 607.33 498.67 C 607.25 498.68 607.23 498.73 607.14 498.73 Z"/>
    <path d="M 332.50 700.46 C 330.55 698.20 321.79 690.01 316.20 681.64 C 310.61 673.26 303.19 661.04 298.97 650.21 C 294.75 639.38 292.21 626.68 290.86 616.65 C 289.51 606.61 290.51 596.72 290.86 590.02 C 291.16 584.26 291.62 581.72 292.97 576.46 C 294.32 571.20 295.74 565.74 298.97 558.46 C 302.32 550.92 306.98 540.19 313.07 531.23 C 319.16 522.26 329.79 510.84 335.51 504.67 C 340.01 499.81 345.91 495.49 347.33 494.24 C 347.71 494.89 350.09 498.99 350.47 499.64 C 347.82 502.31 334.91 513.92 328.35 521.85 C 321.78 529.78 315.80 538.13 311.07 547.23 C 306.34 556.33 302.17 569.32 299.97 576.46 C 298.27 581.97 298.16 584.26 297.86 590.02 C 297.51 596.72 297.01 608.11 297.86 616.65 C 298.71 625.18 300.10 632.58 302.97 641.21 C 305.84 649.84 309.51 659.33 315.07 668.44 C 320.62 677.55 333.75 692.58 336.30 695.88 C 335.86 696.42 333.32 699.63 332.69 700.40 C 332.64 700.46 332.53 700.45 332.50 700.46 Z"/>
    <path d="M 358.15 697.72 C 355.29 695.05 346.38 687.52 341.20 681.64 C 336.02 675.76 330.42 667.64 327.07 662.44 C 324.01 657.70 323.11 655.69 321.07 650.44 C 318.71 644.36 314.44 635.24 312.90 625.94 C 311.36 616.65 311.83 601.87 311.83 594.67 C 311.83 589.63 312.05 587.09 312.90 582.72 C 313.76 578.35 314.78 573.87 316.97 568.46 C 319.17 563.04 322.51 556.16 326.07 550.23 C 329.63 544.29 332.50 539.61 338.35 532.85 C 344.39 525.85 359.45 511.19 362.33 508.24 C 362.81 508.79 365.82 512.24 366.30 512.79 C 363.54 515.68 349.22 529.94 343.35 536.85 C 337.56 543.66 334.80 547.29 331.07 554.23 C 327.34 561.16 323.01 571.72 320.97 578.46 C 318.98 585.03 319.00 587.80 318.83 594.67 C 318.65 602.53 318.84 617.56 319.86 625.65 C 320.83 633.27 322.25 636.71 324.97 643.21 C 327.69 649.71 332.63 658.87 336.20 664.64 C 339.76 670.41 342.16 673.11 346.35 677.82 C 350.53 682.53 359.50 691.07 361.30 692.88 C 360.94 693.45 358.86 696.86 358.34 697.66 C 358.29 697.73 358.21 697.77 358.15 697.72 Z"/>
    <path d="M 600.14 477.73 C 598.43 477.75 594.24 478.32 590.02 477.80 C 584.57 477.12 575.59 476.22 567.46 473.69 C 559.33 471.15 549.33 467.32 541.23 462.60 C 533.13 457.87 525.66 451.44 518.85 445.32 C 512.04 439.20 502.59 428.21 500.37 425.88 C 500.92 425.47 504.43 422.91 504.99 422.51 C 507.13 424.65 516.14 434.47 522.85 440.32 C 529.56 446.16 537.80 453.20 545.23 457.59 C 552.67 461.99 559.94 464.48 567.46 466.69 C 574.98 468.89 583.26 470.31 590.34 470.82 C 597.42 471.33 603.13 470.78 609.94 469.75 C 616.75 468.73 622.72 468.18 631.21 464.69 C 639.82 461.14 653.46 454.07 661.63 448.47 C 669.81 442.87 678.00 433.17 680.23 431.08 C 680.84 431.42 684.69 433.54 685.30 433.88 C 683.68 435.61 676.96 443.86 671.82 448.32 C 666.67 452.77 661.20 456.70 654.43 460.60 C 647.67 464.49 640.22 468.84 631.21 471.69 C 622.19 474.53 605.51 476.66 600.33 477.67 C 600.25 477.69 600.23 477.73 600.14 477.73 Z"/>
    <path d="M 608.14 458.73 C 603.38 458.58 587.51 458.93 579.73 457.75 C 571.95 456.58 566.88 453.88 561.46 451.69 C 556.05 449.49 552.11 447.77 547.23 444.60 C 542.35 441.43 537.48 437.46 532.16 432.67 C 526.85 427.87 518.69 419.56 515.35 415.82 C 513.53 413.79 512.46 410.90 512.07 410.22 C 512.66 409.90 516.40 407.83 516.99 407.51 C 519.35 409.99 530.97 422.81 536.68 428.16 C 542.35 433.47 546.27 436.51 551.23 439.60 C 556.20 442.68 560.50 444.65 566.46 446.69 C 572.42 448.73 580.09 450.99 587.00 451.83 C 593.91 452.68 599.70 453.29 607.94 451.75 C 616.18 450.21 628.46 446.33 636.44 442.59 C 644.42 438.85 649.44 434.83 655.82 429.32 C 662.19 423.80 672.42 411.89 674.68 409.51 C 675.26 409.81 678.90 411.72 679.47 412.02 C 679.21 412.60 678.78 415.16 677.32 416.82 C 674.16 420.43 665.45 429.23 660.50 433.67 C 655.55 438.11 653.18 440.13 647.63 443.47 C 642.08 446.80 633.76 451.15 627.21 453.69 C 620.66 456.22 611.51 457.83 608.33 458.67 C 608.25 458.69 608.23 458.73 608.14 458.73 Z"/>
    <path d="M 374.14 687.73 C 373.73 687.67 372.58 687.97 371.85 687.32 C 369.05 684.83 362.64 679.30 357.35 672.82 C 352.05 666.34 344.47 657.09 340.07 648.44 C 335.66 639.79 332.61 628.91 330.90 620.94 C 329.20 612.98 329.83 606.37 329.83 600.67 C 329.83 594.96 329.50 592.43 330.90 586.72 C 332.44 580.48 334.99 571.04 339.07 563.23 C 343.14 555.41 349.13 547.18 355.35 539.85 C 361.56 532.51 373.81 521.71 376.33 519.24 C 376.81 519.79 379.82 523.24 380.30 523.79 C 377.29 526.94 361.23 542.62 355.20 550.03 C 349.54 556.97 346.95 562.11 344.07 568.23 C 341.19 574.34 339.11 581.32 337.90 586.72 C 336.70 592.13 336.83 594.96 336.83 600.67 C 336.83 606.37 336.53 613.65 337.90 620.94 C 339.28 628.24 342.02 637.66 345.07 644.44 C 348.12 651.22 350.96 655.21 356.20 661.64 C 361.43 668.07 374.04 680.46 376.47 683.02 C 376.21 683.58 374.72 686.88 374.33 687.67 C 374.30 687.74 374.23 687.74 374.14 687.73 Z"/>
  </g>
</svg>
