<?xml version="1.0" encoding="UTF-8"?>
<svg xmlns="http://www.w3.org/2000/svg" version="1.1" viewBox="0 0 780 794">
  <g fill="none" stroke="#111111" stroke-width="7.00" stroke-linecap="round" stroke-linejoin="round">
    <path d="M 470.96 341.49 C 550.16 364.12 589.76 457.46 564.30 539.48 C 537.43 610.19 440.56 637.77 361.36 581.20 C 315.40 533.83 321.76 482.21 363.48 437.66"/>
    <path d="M 460.36 352.10 C 539.55 374.73 579.15 468.06 553.70 550.09 C 526.83 620.80 429.95 648.38 350.76 591.81 C 304.79 544.43 311.16 492.81 352.88 448.27"/>
    <path d="M 449.75 362.71 C 528.95 385.33 568.54 478.67 543.09 560.70 C 516.22 631.41 419.34 658.98 340.15 602.41 C 294.19 555.04 300.55 503.42 342.27 458.87"/>
    <path d="M 439.14 373.31 C 518.34 395.94 557.94 489.28 532.48 571.30 C 505.61 642.01 408.74 669.59 329.54 613.02 C 283.58 565.64 289.94 514.03 331.66 469.48"/>
    <path d="M 445.51 477.96 C 422.88 557.16 329.54 596.76 247.52 571.30 C 176.81 544.43 149.23 447.56 205.80 368.36 C 253.17 322.40 304.79 328.76 349.34 370.48"/>
    <path d="M 434.90 467.36 C 412.27 546.55 318.94 586.15 236.91 560.70 C 166.20 533.83 138.62 436.95 195.19 357.76 C 242.57 311.79 294.19 318.16 338.73 359.88"/>
    <path d="M 424.29 456.75 C 401.67 535.95 308.33 575.54 226.30 550.09 C 155.59 523.22 128.02 426.34 184.59 347.15 C 231.96 301.19 283.58 307.55 328.13 349.27"/>
    <path d="M 413.69 446.14 C 391.06 525.34 297.72 564.94 215.70 539.48 C 144.99 512.61 117.41 415.74 173.98 336.54 C 221.36 290.58 272.97 296.94 317.52 338.66"/>
    <path d="M 309.04 452.51 C 229.84 429.88 190.24 336.54 215.70 254.52 C 242.57 183.81 339.44 156.23 418.64 212.80 C 464.60 260.17 458.24 311.79 416.52 356.34"/>
    <path d="M 319.64 441.90 C 240.45 419.27 200.85 325.94 226.30 243.91 C 253.17 173.20 350.05 145.62 429.24 202.19 C 475.21 249.57 468.84 301.19 427.12 345.73"/>
    <path d="M 330.25 431.29 C 251.05 408.67 211.46 315.33 236.91 233.30 C 263.78 162.59 360.66 135.02 439.85 191.59 C 485.81 238.96 479.45 290.58 437.73 335.13"/>
    <path d="M 340.86 420.69 C 261.66 398.06 222.06 304.72 247.52 222.70 C 274.39 151.99 371.26 124.41 450.46 180.98 C 496.42 228.36 490.06 279.97 448.34 324.52"/>
    <path d="M 334.49 316.04 C 357.12 236.84 450.46 197.24 532.48 222.70 C 603.19 249.57 630.77 346.44 574.20 425.64 C 526.83 471.60 475.21 465.24 430.66 423.52"/>
    <path d="M 345.10 326.64 C 367.73 247.45 461.06 207.85 543.09 233.30 C 613.80 260.17 641.38 357.05 584.81 436.24 C 537.43 482.21 485.81 475.84 441.27 434.12"/>
    <path d="M 355.71 337.25 C 378.33 258.05 471.67 218.46 553.70 243.91 C 624.41 270.78 651.98 367.66 595.41 446.85 C 548.04 492.81 496.42 486.45 451.87 444.73"/>
    <path d="M 366.31 347.86 C 388.94 268.66 482.28 229.06 564.30 254.52 C 635.01 281.39 662.59 378.26 606.02 457.46 C 558.64 503.42 507.03 497.06 462.48 455.34"/>
    <path d="M 662.00 397.00 A 272.00 272.00 0 1 1 118.00 397.00 A 272.00 272.00 0 1 1 662.00 397.00"/>
    <path d="M 679.00 397.00 A 289.00 289.00 0 1 1 101.00 397.00 A 289.00 289.00 0 1 1 679.00 397.00"/>
    <path d="M 696.00 397.00 A 306.00 306.00 0 1 1 84.00 397.00 A 306.00 306.00 0 1 1 696.00 397.00"/>
    <path d="M 713.00 397.00 A 323.00 323.00 0 1 1 67.00 397.00 A 323.00 323.00 0 1 1 713.00 397.00"/>
  </g>
</svg>
