<?xml version="1.0" encoding="UTF-8"?>
<svg xmlns="http://www.w3.org/2000/svg" version="1.1" viewBox="0 0 780 1090">
  <g fill="black" fill-rule="evenodd" stroke="none">
    <path d="M 336.13 774.73 C 331.25 774.58 317.14 774.96 307.03 773.79 C 296.92 772.62 285.56 770.20 275.47 767.68 C 265.38 765.16 257.76 763.16 246.47 758.68 C 235.10 754.16 222.18 748.98 207.24 740.59 C 192.30 732.19 168.47 716.41 156.85 708.31 C 148.55 702.53 144.86 698.95 137.50 692.00 C 128.42 683.41 113.23 669.21 102.35 656.82 C 91.46 644.42 79.25 627.53 72.20 617.63 C 66.74 609.96 64.52 605.74 60.07 597.43 C 54.89 587.73 45.76 569.97 41.08 559.43 C 36.72 549.63 34.97 544.50 31.98 534.20 C 28.95 523.78 24.93 507.58 22.91 496.93 C 20.91 486.41 20.19 479.31 19.85 470.32 C 19.51 461.34 19.98 452.58 20.87 443.03 C 21.76 433.48 23.92 418.49 25.20 413.03 C 25.60 411.34 28.23 410.57 28.57 410.29 C 28.89 410.67 31.84 412.05 31.80 414.03 C 31.68 419.48 28.69 433.64 27.87 443.03 C 27.04 452.41 26.51 461.34 26.85 470.32 C 27.19 479.31 28.39 487.96 29.91 496.93 C 31.43 505.91 32.95 513.78 35.98 524.20 C 39.01 534.62 41.84 545.90 48.08 559.43 C 54.95 574.34 67.30 598.04 77.20 613.63 C 87.11 629.23 96.79 640.77 107.51 652.99 C 118.22 665.22 132.58 678.58 141.50 687.00 C 148.94 694.01 152.65 697.62 161.04 703.46 C 172.66 711.56 197.00 727.55 211.24 735.58 C 224.73 743.20 236.93 747.83 246.47 751.68 C 255.03 755.14 260.76 756.50 268.47 758.68 C 276.18 760.86 284.59 763.22 292.73 764.75 C 300.88 766.27 310.19 767.31 317.34 767.81 C 324.49 768.32 329.04 768.30 335.64 767.79 C 342.24 767.28 348.84 766.43 356.93 764.75 C 365.02 763.06 375.61 760.71 384.20 757.68 C 392.78 754.65 400.36 750.96 408.43 746.59 C 416.50 742.22 426.31 735.92 432.63 731.46 C 438.50 727.32 441.55 724.27 446.33 719.83 C 451.11 715.39 456.27 710.88 461.32 704.82 C 466.36 698.75 471.55 692.00 476.59 683.43 C 481.64 674.87 488.23 661.35 491.59 653.43 C 494.44 646.72 495.56 643.13 496.76 635.93 C 498.29 626.70 500.80 608.89 500.80 598.03 C 500.80 587.16 498.79 579.36 496.76 570.73 C 494.72 562.10 492.31 554.52 488.59 546.23 C 484.88 537.95 478.87 527.63 474.46 521.03 C 470.26 514.74 467.48 512.05 462.16 506.67 C 429.50 473.67 311.26 355.41 278.50 323.00 C 273.72 318.27 270.64 315.86 265.63 312.21 C 260.62 308.55 254.67 304.45 248.43 301.08 C 242.19 297.71 236.66 294.64 228.20 291.99 C 219.56 289.29 205.56 286.07 196.64 284.88 C 187.93 283.71 183.40 283.84 174.67 284.84 C 165.81 285.86 153.88 287.61 143.47 290.99 C 133.07 294.36 120.41 300.65 112.24 305.08 C 104.59 309.23 96.21 316.33 94.43 317.58 C 94.03 317.30 90.79 315.06 90.38 314.78 C 90.73 314.34 92.12 311.79 93.85 310.35 C 96.80 307.92 102.01 303.73 108.04 300.21 C 114.10 296.66 123.33 292.12 130.24 289.08 C 137.14 286.05 143.72 283.68 149.47 281.99 C 155.22 280.29 158.53 279.46 164.73 278.92 C 172.60 278.23 185.56 276.70 196.64 277.88 C 207.72 279.05 220.20 281.93 231.20 285.99 C 242.19 290.04 254.08 296.87 262.63 302.21 C 271.18 307.54 275.25 310.89 282.50 318.00 C 316.56 351.38 434.17 469.33 467.00 502.50 C 472.38 507.95 475.17 510.69 479.46 517.03 C 484.06 523.82 490.54 534.28 494.59 543.23 C 498.64 552.18 501.55 560.66 503.76 570.73 C 505.96 580.80 507.46 594.61 507.80 603.64 C 508.11 612.19 507.27 616.51 505.76 624.93 C 504.24 633.36 502.74 643.75 498.69 654.20 C 494.64 664.65 486.86 678.53 481.46 687.63 C 476.15 696.60 471.51 702.62 466.32 708.82 C 461.13 715.02 455.28 720.23 450.33 724.83 C 445.38 729.44 441.78 732.67 436.63 736.46 C 431.48 740.25 425.79 743.90 419.43 747.59 C 413.06 751.28 405.80 755.24 398.43 758.59 C 391.06 761.93 384.86 765.18 375.20 767.68 C 364.85 770.36 342.84 773.49 336.33 774.66 C 336.25 774.68 336.22 774.73 336.13 774.73 Z"/>
    <path d="M 338.13 756.73 C 334.14 756.75 321.91 757.31 314.34 756.81 C 306.78 756.32 301.05 755.60 292.73 753.75 C 284.42 751.89 274.22 749.04 264.47 745.68 C 254.72 742.32 244.78 738.43 234.24 733.59 C 223.70 728.74 211.77 722.78 201.24 716.59 C 190.71 710.40 179.44 702.51 171.04 696.46 C 162.65 690.42 158.27 686.89 150.85 680.31 C 143.43 673.74 133.45 664.11 126.51 656.99 C 119.56 649.88 115.60 645.81 109.20 637.63 C 101.98 628.41 89.06 610.17 83.20 601.63 C 79.19 595.79 77.29 592.75 74.07 586.43 C 69.37 577.19 59.83 557.91 54.98 546.20 C 50.14 534.51 47.32 524.41 44.98 516.20 C 42.82 508.63 42.10 504.08 40.91 496.93 C 39.72 489.79 38.13 482.81 37.85 473.32 C 37.56 463.84 38.45 446.04 39.20 440.03 C 39.41 438.37 42.02 437.54 42.33 437.26 C 42.68 437.61 45.60 438.79 45.76 440.73 C 46.35 448.30 44.84 470.11 45.87 482.64 C 46.89 495.17 49.89 507.01 51.91 515.93 C 53.78 524.19 54.78 528.37 57.98 536.20 C 62.51 547.28 72.70 570.19 79.07 582.43 C 85.01 593.84 90.35 601.10 96.20 609.63 C 102.06 618.17 106.38 624.53 114.20 633.63 C 122.42 643.19 135.37 657.36 145.50 667.00 C 155.64 676.63 163.25 683.03 175.04 691.46 C 186.83 699.89 204.04 710.74 216.24 717.59 C 228.44 724.44 238.20 728.40 248.24 732.59 C 258.28 736.77 265.45 739.81 276.47 742.68 C 287.49 745.55 304.20 748.63 314.34 749.81 C 323.47 750.89 330.23 750.33 337.32 749.81 C 344.42 749.30 349.26 748.79 356.93 746.75 C 366.45 744.21 384.32 738.97 394.43 734.59 C 404.40 730.27 411.34 724.73 417.63 720.46 C 423.76 716.30 426.99 714.29 432.16 709.00 C 439.30 701.69 454.06 685.06 460.46 676.63 C 465.51 670.00 467.89 664.17 470.59 658.43 C 473.29 652.69 474.85 648.89 476.69 642.20 C 478.56 635.40 480.94 625.95 481.80 617.64 C 482.65 609.33 482.16 598.99 481.82 592.34 C 481.52 586.45 481.18 583.46 479.76 577.73 C 478.22 571.55 475.81 562.68 472.59 555.23 C 469.38 547.78 464.40 539.15 460.46 533.03 C 456.53 526.91 454.19 523.78 449.00 518.50 C 417.17 486.16 302.23 371.22 269.50 339.00 C 263.29 332.88 258.14 329.19 252.63 325.21 C 247.12 321.22 242.50 318.11 236.43 315.07 C 230.36 312.04 221.83 308.85 216.20 306.99 C 210.91 305.24 208.17 304.44 202.64 303.88 C 195.94 303.19 185.43 302.01 176.03 302.88 C 166.63 303.74 155.37 306.05 146.24 309.08 C 137.11 312.12 128.44 317.06 121.24 321.08 C 114.04 325.10 107.34 329.95 103.04 333.21 C 99.65 335.76 97.08 339.23 95.43 340.59 C 94.67 341.21 93.92 341.64 93.10 341.37 C 92.28 341.11 90.83 339.87 90.51 338.98 C 90.20 338.09 90.45 336.98 91.20 336.03 C 92.62 334.24 95.41 330.75 99.04 328.21 C 105.21 323.88 120.33 314.45 128.24 310.08 C 135.22 306.22 140.89 304.01 146.47 301.99 C 152.05 299.96 155.47 298.77 161.73 297.92 C 169.26 296.90 183.94 295.88 191.64 295.88 C 198.21 295.88 201.84 296.57 207.93 297.92 C 214.02 299.27 220.50 300.47 228.20 303.99 C 236.31 307.70 249.08 315.20 256.63 320.21 C 263.90 325.02 267.29 327.88 273.50 334.00 C 306.37 366.35 422.17 482.33 453.83 514.33 C 458.10 518.64 460.05 521.03 463.46 526.03 C 467.09 531.35 471.72 537.64 475.59 546.23 C 479.47 554.85 484.55 570.05 486.76 577.73 C 488.38 583.41 488.52 586.45 488.82 592.34 C 489.16 598.99 489.82 608.83 488.80 617.64 C 487.78 626.45 484.55 638.40 482.69 645.20 C 481.18 650.67 480.07 653.33 477.59 658.43 C 474.72 664.34 471.51 672.52 465.46 680.63 C 458.59 689.87 445.34 705.17 436.33 713.83 C 427.34 722.48 420.95 726.95 411.43 732.59 C 401.91 738.23 391.38 743.67 379.20 747.68 C 367.01 751.69 345.17 755.15 338.33 756.66 C 338.25 756.68 338.22 756.73 338.13 756.73 Z"/>
    <path d="M 338.13 736.73 C 334.14 736.75 321.74 737.31 314.34 736.81 C 306.94 736.32 301.77 735.96 293.73 733.75 C 282.72 730.71 263.35 725.13 248.24 718.59 C 233.12 712.04 217.66 703.89 203.04 694.46 C 188.42 685.03 174.48 674.63 160.50 662.00 C 146.53 649.36 129.42 630.69 119.20 618.63 C 110.09 607.88 104.56 598.00 99.20 589.63 C 93.94 581.40 91.43 576.97 87.07 568.43 C 82.72 559.90 76.76 547.31 73.08 538.43 C 69.39 529.56 67.20 524.79 64.98 515.20 C 62.31 503.67 57.82 477.38 57.08 469.23 C 56.92 467.42 60.22 466.59 60.57 466.29 C 60.98 466.81 64.02 468.91 64.69 471.47 C 65.58 474.91 64.89 480.81 65.91 486.93 C 67.13 494.22 68.62 504.28 71.98 515.20 C 75.34 526.12 79.21 538.36 86.08 552.43 C 92.95 566.51 105.30 587.37 113.20 599.63 C 120.41 610.82 124.48 616.21 133.51 625.99 C 143.61 636.94 161.56 654.72 173.85 665.31 C 186.14 675.91 194.84 681.88 207.24 689.59 C 219.64 697.30 233.82 705.39 248.24 711.59 C 262.65 717.78 282.72 723.71 293.73 726.75 C 301.77 728.96 307.08 729.30 314.34 729.81 C 321.61 730.33 328.22 731.09 337.32 729.81 C 346.97 728.46 361.48 725.41 372.20 721.68 C 382.91 717.95 394.50 711.55 401.63 707.46 C 407.48 704.11 409.99 701.69 414.99 697.16 C 420.44 692.22 428.72 684.44 434.32 677.82 C 439.92 671.20 445.05 663.50 448.59 657.43 C 452.12 651.40 453.57 648.12 455.59 641.43 C 457.79 634.13 460.76 621.54 461.80 613.64 C 462.82 605.86 462.31 600.01 461.80 594.03 C 461.29 588.04 460.89 584.01 458.76 577.73 C 456.22 570.27 450.08 555.97 446.59 549.23 C 443.87 543.99 441.96 541.57 437.83 537.33 C 407.01 505.66 294.87 392.02 261.67 359.17 C 253.19 350.77 245.71 345.07 238.63 340.21 C 231.55 335.34 225.65 332.53 219.20 329.99 C 212.75 327.44 206.69 325.94 199.93 324.92 C 193.18 323.89 185.04 323.67 178.67 323.84 C 172.30 324.01 167.14 324.71 161.73 325.92 C 156.33 327.13 151.82 328.72 146.24 331.08 C 140.66 333.44 134.80 335.87 128.24 340.08 C 121.67 344.29 111.95 351.95 106.85 356.35 C 102.71 359.93 99.59 364.62 97.63 366.46 C 96.85 367.20 95.93 367.59 95.10 367.37 C 94.28 367.16 92.98 366.05 92.67 365.16 C 92.35 364.27 92.45 363.06 93.20 362.03 C 94.87 359.76 98.32 355.13 102.68 351.51 C 108.68 346.52 119.40 337.51 129.24 332.08 C 139.08 326.65 151.44 321.46 161.73 318.92 C 172.03 316.38 181.42 316.16 191.00 316.84 C 200.57 317.52 210.59 319.93 219.20 322.99 C 227.80 326.05 234.72 329.84 242.63 335.21 C 250.54 340.57 257.79 346.37 266.67 355.17 C 300.04 388.19 411.68 501.16 442.83 533.33 C 447.95 538.62 450.22 541.70 453.59 548.23 C 457.41 555.63 463.22 570.10 465.76 577.73 C 467.85 584.02 468.29 588.15 468.80 594.03 C 469.31 599.90 469.81 605.47 468.83 613.00 C 467.81 620.86 465.73 632.29 462.69 641.20 C 459.65 650.11 454.57 659.58 450.59 666.43 C 446.62 673.28 444.07 676.41 438.83 682.33 C 433.57 688.29 424.56 697.11 418.99 702.16 C 413.92 706.75 411.22 708.94 405.43 712.59 C 399.50 716.33 388.97 721.90 383.43 724.59 C 379.12 726.67 376.82 727.44 372.20 728.68 C 364.68 730.69 344.01 735.32 338.33 736.66 C 338.25 736.68 338.22 736.73 338.13 736.73 Z"/>
    <path d="M 468.13 774.73 C 461.92 774.41 440.70 773.68 431.03 772.79 C 422.58 772.01 414.06 770.49 410.10 769.37 C 408.44 768.90 407.57 766.42 407.28 766.09 C 407.79 765.67 409.70 761.90 412.33 761.87 C 416.29 761.82 423.86 764.80 431.03 765.79 C 438.20 766.78 446.57 767.81 455.34 767.81 C 464.11 767.81 474.83 766.98 483.64 765.79 C 492.45 764.60 498.62 763.67 508.20 760.68 C 518.99 757.31 536.06 750.93 548.43 745.59 C 560.80 740.24 570.23 735.94 582.43 728.59 C 594.63 721.24 611.28 709.28 621.63 701.46 C 631.28 694.17 636.41 689.25 644.50 681.67 C 652.59 674.09 663.33 663.33 670.16 655.99 C 676.67 648.99 679.88 645.40 685.46 637.63 C 693.20 626.87 708.74 604.63 716.59 591.43 C 724.09 578.82 728.07 569.14 732.59 558.43 C 737.11 547.73 740.83 536.78 743.69 527.20 C 746.55 517.62 748.23 510.08 749.76 500.93 C 751.28 491.79 752.48 482.98 752.82 472.32 C 753.16 461.67 752.48 445.79 751.80 437.03 C 751.26 430.02 750.59 426.51 748.76 419.73 C 746.57 411.64 742.21 397.38 738.69 388.47 C 735.16 379.55 732.92 374.63 727.59 366.23 C 722.03 357.46 712.61 344.16 705.32 335.85 C 698.02 327.53 691.30 322.15 683.81 316.35 C 676.33 310.56 667.70 305.14 660.43 301.08 C 653.16 297.02 648.66 294.64 640.20 291.99 C 631.56 289.29 617.39 286.07 608.64 284.88 C 600.33 283.74 593.32 284.66 587.67 284.83 C 582.48 284.99 579.84 284.97 574.73 285.92 C 569.20 286.94 562.25 287.93 554.47 290.99 C 545.85 294.37 532.23 300.56 523.04 306.21 C 513.85 311.85 508.01 316.46 499.33 324.83 C 479.66 343.83 421.66 403.73 404.99 420.16 C 403.13 421.99 399.90 423.08 399.34 423.41 C 399.04 423.05 396.66 420.22 396.37 419.87 C 406.26 409.86 474.36 339.97 495.33 319.83 C 505.14 310.42 512.88 304.89 522.24 299.08 C 531.59 293.27 542.67 288.35 551.47 284.99 C 560.27 281.62 565.50 280.06 575.03 278.88 C 584.56 277.69 597.28 276.69 608.64 277.88 C 620.00 279.06 633.23 282.62 643.20 285.99 C 653.16 289.35 658.97 292.09 668.43 298.08 C 678.12 304.22 692.16 314.51 701.33 322.83 C 710.50 331.16 716.42 337.97 723.46 348.03 C 730.51 358.10 738.21 371.28 743.59 383.23 C 748.97 395.18 753.22 410.77 755.76 419.73 C 757.67 426.49 758.13 430.03 758.80 437.03 C 759.48 444.18 760.16 452.41 759.83 462.67 C 759.49 473.32 758.78 488.51 756.76 500.93 C 754.73 513.36 751.21 526.12 747.69 537.20 C 744.16 548.28 739.94 557.73 735.59 567.43 C 731.24 577.14 727.61 585.07 721.59 595.43 C 715.57 605.80 707.20 618.87 699.46 629.63 C 691.73 640.39 685.44 648.88 675.16 659.99 C 664.89 671.11 651.24 684.90 637.81 696.31 C 624.39 707.73 608.36 719.58 594.63 728.46 C 580.90 737.34 569.83 743.05 555.43 749.59 C 541.02 756.12 522.71 763.50 508.20 767.68 C 493.68 771.86 475.01 773.49 468.33 774.66 C 468.25 774.68 468.22 774.73 468.13 774.73 Z"/>
    <path d="M 336.13 718.73 C 330.87 718.57 315.84 719.59 304.73 717.75 C 293.62 715.91 278.89 710.87 269.47 707.68 C 260.72 704.71 256.47 702.77 248.24 698.59 C 238.00 693.38 220.80 684.87 208.04 676.46 C 195.28 668.06 181.96 657.10 171.68 648.16 C 161.40 639.22 155.55 633.80 146.35 622.82 C 136.75 611.36 121.62 590.50 114.07 579.43 C 108.12 570.70 105.59 565.64 101.08 556.43 C 96.56 547.23 91.15 536.57 86.98 524.20 C 82.81 511.83 77.32 489.72 76.08 482.23 C 75.78 480.43 79.22 479.59 79.57 479.29 C 79.97 479.79 82.81 481.81 83.59 484.23 C 85.99 491.72 88.07 509.00 93.98 524.20 C 99.89 539.40 109.51 559.66 119.07 575.43 C 128.64 591.20 142.03 607.64 151.35 618.82 C 159.92 629.10 165.38 634.06 175.00 642.50 C 184.61 650.94 198.83 662.28 209.04 669.46 C 219.24 676.64 226.17 680.38 236.24 685.58 C 246.31 690.79 258.06 696.49 269.47 700.68 C 280.89 704.87 293.71 708.90 304.73 710.75 C 315.76 712.60 327.11 712.12 335.64 711.79 C 343.84 711.47 350.34 709.93 355.93 708.75 C 361.36 707.60 364.15 706.99 369.20 704.68 C 375.48 701.80 386.83 695.88 393.63 691.46 C 400.43 687.04 405.38 682.43 409.99 678.16 C 414.60 673.88 417.42 671.26 421.32 665.82 C 425.58 659.86 431.84 651.30 435.59 642.43 C 439.34 633.57 442.94 622.76 443.80 612.64 C 444.66 602.52 442.96 590.80 440.76 581.73 C 438.55 572.66 433.83 564.22 430.59 558.23 C 427.64 552.79 425.47 550.44 421.32 545.85 C 414.86 538.70 403.80 527.37 391.83 515.33 C 362.03 485.36 270.24 393.04 242.50 366.00 C 236.37 360.02 231.81 356.75 225.43 353.08 C 219.04 349.41 210.16 345.85 204.20 343.99 C 198.58 342.23 195.00 342.06 189.64 341.88 C 184.28 341.69 177.22 342.19 172.03 342.88 C 166.83 343.56 163.67 344.01 158.47 345.99 C 152.64 348.21 143.50 352.29 137.04 356.21 C 130.57 360.13 125.21 364.16 119.68 369.51 C 114.14 374.86 107.15 385.04 103.81 388.31 C 102.61 389.50 100.09 389.07 99.68 389.16 C 99.45 388.83 97.61 386.21 97.38 385.88 C 99.09 383.86 108.03 371.81 114.51 365.67 C 120.98 359.54 127.74 353.86 136.24 349.08 C 144.73 344.30 156.62 339.36 165.47 336.99 C 174.32 334.62 181.37 334.35 189.32 334.85 C 197.28 335.35 204.98 336.76 213.20 339.99 C 221.41 343.21 230.11 346.25 238.63 354.21 C 269.24 382.76 365.55 480.06 396.83 511.33 C 408.84 523.33 419.36 533.87 426.32 541.85 C 431.91 548.27 435.02 552.59 438.59 559.23 C 442.17 565.88 445.72 572.88 447.76 581.73 C 449.79 590.58 451.17 603.58 450.82 612.32 C 450.48 621.07 448.25 626.81 445.69 634.20 C 443.13 641.58 440.44 648.78 435.46 656.63 C 430.49 664.49 422.67 674.34 415.83 681.33 C 408.99 688.33 402.20 693.53 394.43 698.59 C 386.66 703.65 375.61 708.82 369.20 711.68 C 364.13 713.94 361.36 714.59 355.93 715.75 C 350.45 716.91 339.63 718.17 336.33 718.66 C 336.25 718.67 336.22 718.73 336.13 718.73 Z"/>
    <path d="M 751.50 381.44 C 750.88 380.87 747.88 379.95 747.95 377.96 C 748.17 371.22 752.19 352.15 752.83 341.00 C 753.47 329.84 752.48 319.24 751.80 311.03 C 751.15 303.24 750.65 299.31 748.76 291.73 C 746.24 281.64 741.21 263.05 736.69 250.47 C 732.16 237.88 726.80 226.64 721.59 216.23 C 716.39 205.83 711.82 197.90 705.46 188.03 C 699.11 178.17 691.68 167.26 683.46 157.03 C 675.25 146.81 665.94 136.29 656.16 126.67 C 646.39 117.06 635.27 107.62 624.81 99.35 C 614.36 91.09 601.99 82.79 593.43 77.08 C 585.67 71.90 581.75 69.30 573.43 65.08 C 562.56 59.56 541.78 49.35 528.20 43.99 C 514.61 38.63 503.47 35.61 491.93 32.92 C 480.40 30.23 470.65 28.51 459.00 27.84 C 447.35 27.17 433.62 27.52 422.03 28.88 C 410.44 30.23 400.27 32.45 389.47 35.99 C 378.67 39.52 367.23 44.46 357.24 50.08 C 347.24 55.69 338.01 62.35 329.50 69.67 C 321.00 77.00 313.11 84.94 306.20 94.03 C 299.30 103.13 292.96 113.12 288.08 124.23 C 283.19 135.35 278.95 149.72 276.91 160.73 C 274.87 171.75 275.17 179.91 275.85 190.32 C 276.52 200.74 278.27 213.18 280.98 223.20 C 283.68 233.22 287.01 241.16 292.07 250.43 C 297.14 259.70 303.12 268.88 311.35 278.82 C 319.58 288.75 335.95 303.95 341.46 310.03 C 343.09 311.83 344.12 314.80 344.41 315.33 C 344.10 315.64 341.64 318.10 341.33 318.41 C 338.85 315.97 323.69 301.62 316.51 293.99 C 309.32 286.36 304.11 281.06 298.20 272.63 C 292.30 264.21 285.12 251.72 281.08 243.43 C 277.26 235.63 275.86 231.40 273.91 222.93 C 271.87 214.08 269.51 200.69 268.85 190.32 C 268.18 179.96 268.22 170.87 269.91 160.73 C 271.60 150.59 275.29 139.05 278.98 129.47 C 282.67 119.88 288.35 109.84 292.07 103.23 C 295.28 97.56 297.10 94.78 301.35 89.85 C 306.70 83.64 316.68 72.79 324.17 66.00 C 331.65 59.20 336.85 54.75 346.24 49.08 C 355.62 43.41 367.84 36.52 380.47 31.99 C 393.10 27.45 408.83 23.73 422.03 21.88 C 435.22 20.02 449.49 20.54 459.64 20.88 C 469.03 21.19 475.01 22.40 482.93 23.92 C 490.86 25.44 497.66 26.97 507.20 29.99 C 517.28 33.18 529.46 36.57 543.43 43.08 C 558.47 50.10 580.20 61.03 597.43 72.08 C 614.66 83.12 632.67 97.06 646.81 109.35 C 660.96 121.65 671.71 133.40 682.32 145.85 C 692.93 158.30 702.25 171.30 710.46 184.03 C 718.68 196.76 726.06 211.16 731.59 222.23 C 737.09 233.22 740.34 241.59 743.69 250.47 C 747.04 259.34 749.17 265.37 751.69 275.47 C 754.21 285.56 757.61 297.83 758.80 311.03 C 759.98 324.22 759.32 343.78 758.80 354.64 C 758.38 363.34 756.87 371.74 755.69 376.20 C 755.01 378.73 752.38 380.51 751.68 381.38 C 751.63 381.44 751.56 381.49 751.50 381.44 Z"/>
    <path d="M 203.13 516.73 C 196.20 516.57 174.38 517.77 161.73 515.75 C 149.09 513.72 135.65 507.78 127.24 504.59 C 120.55 502.05 117.30 500.30 111.24 496.59 C 105.17 492.88 98.45 488.74 90.85 482.31 C 83.12 475.77 70.61 463.28 64.83 457.33 C 61.00 453.39 59.34 451.15 56.20 446.63 C 52.74 441.65 47.76 434.13 44.07 427.43 C 40.39 420.73 37.26 414.31 34.08 406.43 C 30.89 398.56 27.01 387.33 24.98 380.20 C 23.13 373.72 22.67 370.33 21.87 363.64 C 21.01 356.50 19.83 346.94 19.83 337.33 C 19.83 327.73 19.78 318.40 21.87 306.03 C 24.06 293.05 29.11 272.27 32.98 259.47 C 36.75 247.00 40.89 238.61 45.08 229.23 C 49.26 219.86 53.22 211.93 58.07 203.23 C 62.93 194.53 68.68 185.23 74.20 177.03 C 79.72 168.83 83.86 162.81 91.20 154.03 C 98.92 144.81 108.20 133.31 120.50 121.67 C 132.81 110.03 151.91 94.14 165.04 84.21 C 178.03 74.37 188.71 68.26 199.24 62.08 C 209.77 55.89 216.23 52.21 228.24 47.08 C 240.78 41.73 262.55 33.85 274.47 29.99 C 284.36 26.78 291.64 25.44 299.73 23.92 C 307.83 22.40 313.63 21.10 323.03 20.88 C 334.50 20.60 360.51 21.51 368.56 22.29 C 370.29 22.46 371.10 25.24 371.38 25.57 C 370.94 25.99 369.36 29.42 366.96 29.70 C 363.73 30.08 358.03 27.93 352.00 27.84 C 343.01 27.70 324.07 27.86 313.03 28.88 C 301.98 29.89 294.33 31.90 285.73 33.92 C 277.14 35.94 270.95 37.49 261.47 40.99 C 250.56 45.01 232.45 52.24 220.24 58.08 C 208.04 63.93 196.77 70.89 188.24 76.08 C 180.29 80.91 176.33 83.42 169.04 89.21 C 158.44 97.61 136.82 115.04 124.68 126.51 C 112.54 137.98 103.78 148.95 96.20 158.03 C 88.87 166.82 84.72 172.83 79.20 181.03 C 73.68 189.23 68.58 196.23 63.07 207.23 C 56.54 220.31 45.67 243.05 39.98 259.47 C 34.29 275.88 31.10 293.59 28.91 305.73 C 27.02 316.24 26.85 322.69 26.85 332.34 C 26.84 341.99 28.01 355.66 28.87 363.64 C 29.59 370.34 30.01 373.75 31.98 380.20 C 34.51 388.50 39.21 403.03 44.08 413.43 C 48.95 423.84 54.02 433.09 61.20 442.63 C 68.38 452.17 80.69 464.20 87.17 470.67 C 91.92 475.42 94.46 477.71 100.04 481.46 C 106.72 485.95 118.33 493.38 127.24 497.59 C 136.14 501.79 146.29 504.64 153.47 506.68 C 160.07 508.55 163.49 509.39 170.34 509.81 C 178.59 510.33 192.12 511.27 202.93 509.75 C 213.74 508.23 226.28 504.04 235.20 500.68 C 244.11 497.32 249.66 493.82 256.43 489.59 C 263.20 485.36 268.58 481.67 275.81 475.31 C 284.42 467.75 302.25 449.54 308.04 444.21 C 308.83 443.48 309.69 443.01 310.56 443.29 C 311.44 443.57 313.02 444.93 313.29 445.88 C 313.55 446.83 313.05 448.02 312.16 448.99 C 308.61 452.87 300.54 461.61 291.99 469.16 C 283.40 476.74 270.10 488.04 260.63 494.46 C 251.16 500.88 244.75 503.98 235.20 507.68 C 225.65 511.38 208.67 515.15 203.33 516.66 C 203.25 516.68 203.22 516.73 203.13 516.73 Z"/>
    <path d="M 466.13 756.73 C 461.87 756.57 446.84 756.26 440.73 755.75 C 436.17 755.37 431.88 754.62 429.47 753.68 C 427.69 752.98 426.61 750.46 426.29 750.10 C 426.69 749.78 428.26 746.87 430.34 746.85 C 436.68 746.81 454.57 749.85 464.33 749.83 C 474.10 749.82 479.25 748.91 488.93 746.75 C 498.74 744.56 513.78 739.87 523.20 736.68 C 532.29 733.59 536.80 731.81 545.43 727.58 C 554.63 723.07 568.73 715.44 578.43 709.59 C 588.13 703.74 594.37 699.53 603.63 692.46 C 612.89 685.39 624.88 675.43 633.99 667.16 C 643.10 658.88 650.91 651.07 658.32 642.82 C 665.73 634.56 672.09 626.36 678.46 617.63 C 684.84 608.90 690.91 600.13 696.59 590.43 C 702.28 580.73 707.91 569.81 712.59 559.43 C 717.27 549.06 721.66 537.12 724.69 528.20 C 727.66 519.46 729.07 514.19 730.76 505.93 C 732.44 497.67 734.12 487.91 734.80 478.64 C 735.48 469.37 735.16 458.49 734.82 450.34 C 734.48 442.19 734.41 437.85 732.76 429.73 C 731.07 421.42 727.55 408.72 724.69 400.47 C 721.83 392.22 719.49 387.34 715.59 380.23 C 711.70 373.13 707.28 365.33 701.32 357.85 C 695.36 350.37 687.96 342.15 679.81 335.35 C 671.67 328.56 660.53 321.64 652.43 317.08 C 644.38 312.55 638.99 310.35 631.20 307.99 C 623.40 305.62 612.67 303.73 605.64 302.88 C 599.03 302.07 595.61 302.09 589.00 302.84 C 581.47 303.69 569.26 305.28 560.47 307.99 C 551.68 310.69 542.48 315.71 536.24 319.08 C 530.59 322.13 527.94 324.06 523.04 328.21 C 516.36 333.86 506.56 342.71 496.17 353.00 C 478.16 370.82 429.00 421.26 414.99 435.16 C 414.10 436.04 412.39 436.25 412.10 436.37 C 411.83 436.02 409.64 433.22 409.37 432.87 C 409.93 432.10 412.31 427.88 415.00 425.17 C 432.02 407.97 490.80 348.85 511.50 329.67 C 521.47 320.44 531.08 314.86 539.24 310.08 C 547.21 305.41 552.29 303.36 560.47 300.99 C 568.65 298.62 579.43 296.53 588.34 295.85 C 597.25 295.17 604.96 295.40 613.93 296.92 C 622.91 298.44 631.91 300.44 642.20 304.99 C 652.48 309.53 665.61 316.90 675.63 324.21 C 685.65 331.52 694.49 339.68 702.32 348.85 C 710.15 358.02 717.03 368.63 722.59 379.23 C 728.15 389.84 732.83 404.05 735.69 412.47 C 737.97 419.18 738.73 423.42 739.76 429.73 C 740.78 436.04 741.68 442.06 741.82 450.34 C 741.99 460.49 741.99 479.33 740.80 490.64 C 739.62 501.87 737.71 507.94 734.69 518.20 C 731.67 528.46 727.54 540.66 722.69 552.20 C 717.84 563.74 712.13 575.86 705.59 587.43 C 699.06 599.00 690.62 611.62 683.46 621.63 C 676.31 631.65 670.25 639.08 662.67 647.50 C 655.09 655.92 647.13 663.86 637.99 672.16 C 628.85 680.46 619.07 689.08 607.81 697.31 C 596.55 705.55 583.16 714.38 570.43 721.59 C 557.70 728.80 545.01 735.23 531.43 740.59 C 517.85 745.94 499.78 751.07 488.93 753.75 C 480.08 755.93 470.13 756.17 466.33 756.66 C 466.25 756.67 466.22 756.73 466.13 756.73 Z"/>
    <path d="M 738.50 354.44 C 737.87 353.87 735.14 352.93 734.91 350.93 C 734.30 345.59 735.17 329.99 734.82 322.34 C 734.50 315.38 734.13 311.87 732.80 305.03 C 731.11 296.38 728.06 281.60 724.69 270.47 C 721.32 259.33 718.49 250.68 712.59 238.23 C 706.55 225.49 697.51 207.93 688.46 194.03 C 679.42 180.14 668.56 166.60 658.32 154.85 C 648.07 143.09 636.44 132.12 626.99 123.51 C 617.54 114.90 612.34 110.57 601.63 103.21 C 590.37 95.47 573.83 84.61 559.43 77.08 C 545.02 69.54 527.95 62.68 515.20 57.99 C 502.62 53.36 493.41 51.11 482.93 48.92 C 472.45 46.73 461.31 45.53 452.32 44.85 C 443.34 44.18 437.84 43.85 429.03 44.88 C 420.22 45.90 409.77 47.79 399.47 50.99 C 389.17 54.19 377.68 58.35 367.24 64.08 C 356.80 69.81 344.00 79.56 336.85 85.35 C 331.14 89.99 328.69 92.91 324.35 98.85 C 318.89 106.33 308.14 123.13 304.08 130.24 C 301.70 134.39 301.09 136.82 299.98 141.47 C 298.28 148.60 294.88 163.95 293.87 173.03 C 292.86 182.10 293.06 187.91 293.91 195.93 C 294.76 203.96 295.95 212.12 298.98 221.20 C 302.01 230.28 306.65 241.47 312.07 250.43 C 317.49 259.40 323.94 266.73 331.51 274.99 C 339.07 283.26 352.99 295.44 357.46 300.03 C 358.22 300.80 358.69 301.67 358.38 302.57 C 358.06 303.46 355.85 305.09 355.56 305.37 C 354.92 305.00 351.27 303.74 349.17 301.67 C 342.44 295.04 323.22 275.34 315.20 265.63 C 308.50 257.52 304.94 250.84 301.07 243.43 C 297.20 236.03 294.35 229.17 291.98 221.20 C 289.61 213.23 287.72 203.67 286.87 195.64 C 286.02 187.61 286.18 180.89 286.87 173.03 C 287.55 165.16 288.95 156.27 290.98 148.47 C 293.01 140.67 294.87 134.47 299.07 126.23 C 303.28 118.00 310.54 106.70 316.20 99.03 C 321.86 91.36 327.06 85.68 333.04 80.21 C 339.01 74.73 345.67 70.39 352.04 66.21 C 358.40 62.02 365.83 57.94 371.24 55.07 C 376.38 52.34 378.97 50.91 384.47 48.99 C 391.22 46.63 404.31 42.77 411.73 40.92 C 418.55 39.22 422.37 38.39 429.03 37.88 C 435.68 37.36 442.68 37.16 451.67 37.84 C 460.65 38.51 472.34 39.73 482.93 41.92 C 493.52 44.11 502.64 46.28 515.20 50.99 C 528.61 56.01 548.36 64.21 563.43 72.08 C 578.50 79.95 594.37 90.47 605.63 98.21 C 616.34 105.57 621.51 109.63 630.99 118.51 C 641.60 128.45 658.05 144.56 669.32 157.85 C 680.59 171.14 690.21 184.84 698.59 198.23 C 706.97 211.63 713.73 224.98 719.59 238.23 C 725.45 251.48 730.05 263.71 733.76 277.73 C 737.46 291.75 740.48 310.19 741.82 322.34 C 743.06 333.59 742.32 345.30 741.80 350.64 C 741.61 352.58 739.23 353.75 738.68 354.38 C 738.63 354.44 738.56 354.49 738.50 354.44 Z"/>
    <path d="M 466.13 736.73 C 464.16 736.73 457.11 737.45 454.47 736.68 C 452.09 735.98 450.71 732.56 450.29 732.10 C 450.57 731.82 451.53 729.50 453.10 729.29 C 457.33 728.74 467.62 729.89 475.64 728.79 C 483.65 727.69 492.27 725.36 501.20 722.68 C 510.12 719.99 520.99 716.03 529.20 712.68 C 537.40 709.33 542.86 706.63 550.43 702.59 C 558.00 698.55 566.40 693.84 574.63 688.46 C 582.86 683.08 591.73 676.73 599.81 670.31 C 607.90 663.90 615.41 657.41 623.16 650.00 C 630.91 642.58 639.60 633.38 646.32 625.82 C 653.04 618.26 657.92 612.36 663.46 604.63 C 669.01 596.90 674.24 588.80 679.59 579.43 C 684.95 570.07 691.41 557.30 695.59 548.43 C 699.69 539.74 701.96 535.41 704.69 526.20 C 707.89 515.40 713.12 497.55 714.80 483.64 C 716.48 469.73 715.77 454.26 714.76 442.73 C 713.74 431.21 710.71 421.88 708.69 414.47 C 706.86 407.78 705.85 404.35 702.59 398.23 C 698.55 390.66 689.73 376.32 684.46 369.03 C 679.82 362.61 676.66 359.50 670.99 354.51 C 665.32 349.52 657.73 343.50 650.43 339.08 C 643.13 334.66 634.16 330.52 627.20 327.99 C 620.23 325.45 615.39 324.57 608.64 323.88 C 601.88 323.19 592.36 323.49 586.67 323.84 C 581.72 324.15 579.24 324.66 574.47 325.99 C 569.60 327.34 563.88 328.95 557.47 331.99 C 551.07 335.02 543.12 339.01 536.04 344.21 C 528.96 349.40 523.01 355.16 515.00 363.17 C 497.32 380.82 444.64 435.46 429.99 450.16 C 429.11 451.05 427.39 451.25 427.10 451.37 C 426.83 451.02 424.64 448.22 424.37 447.87 C 424.80 447.23 426.53 443.71 428.67 441.50 C 443.16 426.50 494.11 374.88 511.33 357.83 C 519.25 350.00 525.89 344.00 532.04 339.21 C 538.07 334.51 542.33 332.11 548.24 329.08 C 554.14 326.04 561.12 323.02 567.47 320.99 C 573.82 318.95 579.43 317.53 586.34 316.85 C 593.25 316.17 600.42 315.55 608.93 316.92 C 617.45 318.29 628.31 321.20 637.43 325.08 C 646.54 328.96 655.65 334.41 663.63 340.21 C 671.61 346.00 679.16 353.01 685.32 359.85 C 691.48 366.69 695.53 372.13 700.59 381.23 C 705.65 390.34 712.15 404.17 715.69 414.47 C 719.22 424.77 720.61 433.00 721.80 443.03 C 722.98 453.06 723.48 464.28 722.80 474.64 C 722.11 485.00 720.56 494.07 717.69 505.20 C 714.82 516.33 710.11 530.06 705.59 541.43 C 701.07 552.81 697.28 561.57 690.59 573.43 C 683.91 585.30 673.45 601.62 665.46 612.63 C 657.48 623.65 652.55 629.45 642.67 639.50 C 632.39 649.95 615.85 665.47 603.81 675.31 C 591.77 685.16 581.66 691.71 570.43 698.59 C 559.20 705.47 547.97 711.40 536.43 716.59 C 524.89 721.77 512.88 726.33 501.20 729.68 C 489.51 733.03 472.17 735.49 466.33 736.66 C 466.25 736.68 466.22 736.73 466.13 736.73 Z"/>
    <path d="M 196.13 498.73 C 192.30 498.75 179.91 499.31 173.34 498.81 C 166.78 498.32 163.24 497.56 156.73 495.75 C 150.09 493.89 139.72 490.21 133.47 487.68 C 127.57 485.30 124.60 484.00 119.24 480.59 C 112.69 476.42 101.65 469.13 94.17 462.67 C 86.68 456.21 79.70 448.19 74.35 441.82 C 69.00 435.45 65.62 430.16 62.07 424.43 C 58.53 418.70 55.93 413.81 53.08 407.43 C 50.23 401.06 47.33 394.98 44.98 386.20 C 42.44 376.73 39.06 360.78 37.87 350.64 C 36.69 340.59 37.35 333.44 37.85 325.34 C 38.35 317.24 39.03 311.25 40.87 302.03 C 42.89 291.88 44.80 279.03 49.98 264.47 C 55.18 249.83 64.70 228.47 72.07 214.23 C 79.44 200.00 85.10 191.32 94.20 179.03 C 103.30 166.74 115.03 152.64 126.67 140.50 C 138.31 128.37 149.61 117.28 164.04 106.21 C 178.47 95.13 197.67 82.78 213.24 74.08 C 228.81 65.37 243.72 59.18 257.47 53.99 C 271.22 48.79 286.64 45.27 295.73 42.92 C 302.15 41.26 305.44 40.59 312.03 39.88 C 319.60 39.05 335.80 37.74 341.19 37.99 C 343.05 38.07 344.09 41.00 344.41 41.33 C 344.09 41.67 343.02 44.37 341.19 44.68 C 335.80 45.60 320.44 45.84 312.03 46.88 C 303.62 47.92 299.13 48.75 290.73 50.92 C 281.64 53.27 266.22 57.96 257.47 60.99 C 249.58 63.72 245.76 65.46 238.24 69.08 C 229.20 73.43 214.97 80.03 203.24 87.08 C 191.51 94.12 179.78 101.78 167.85 111.35 C 155.92 120.92 143.11 132.56 131.67 144.50 C 120.23 156.45 108.63 170.08 99.20 183.03 C 89.77 195.99 82.11 208.66 75.08 222.24 C 68.04 235.81 61.51 251.22 56.98 264.47 C 52.45 277.72 49.93 291.59 47.91 301.73 C 46.05 311.07 45.35 317.19 44.85 325.34 C 44.34 333.49 44.01 341.66 44.87 350.64 C 45.72 359.62 47.44 369.73 49.98 379.20 C 52.51 388.67 55.87 398.53 60.08 407.43 C 64.28 416.34 68.80 424.21 75.20 432.63 C 81.61 441.06 91.87 451.69 98.50 458.00 C 104.51 463.70 108.42 466.36 115.04 470.46 C 121.66 474.56 131.29 479.54 138.24 482.59 C 145.19 485.63 150.88 487.21 156.73 488.75 C 162.59 490.29 166.59 491.53 173.34 491.81 C 181.21 492.15 195.29 491.94 203.93 490.75 C 212.57 489.56 218.78 487.04 225.20 484.68 C 231.61 482.32 235.93 480.55 242.43 476.59 C 249.36 472.36 258.38 466.38 266.81 459.31 C 275.25 452.25 288.25 438.54 293.04 434.21 C 293.83 433.48 294.69 433.01 295.56 433.29 C 296.44 433.57 298.01 435.62 298.29 435.88 C 298.16 436.21 297.98 438.15 297.00 439.16 C 292.42 443.90 279.24 457.24 270.81 464.31 C 262.39 471.39 254.03 477.03 246.43 481.59 C 238.82 486.15 233.55 488.83 225.20 491.68 C 216.85 494.53 201.17 497.49 196.33 498.66 C 196.25 498.68 196.22 498.73 196.13 498.73 Z"/>
    <path d="M 472.13 717.73 C 471.29 717.21 467.77 714.88 467.29 714.57 C 467.58 714.22 468.49 711.61 470.24 711.08 C 475.73 709.44 491.00 707.43 500.20 704.68 C 509.39 701.93 517.22 698.27 525.43 694.59 C 533.63 690.90 540.89 687.44 549.43 682.59 C 557.96 677.74 567.67 671.89 576.63 665.46 C 585.59 659.03 593.28 653.41 603.16 644.00 C 613.94 633.72 630.25 617.75 641.32 603.82 C 652.39 589.89 662.03 573.87 669.59 560.43 C 677.15 547.00 682.15 536.00 686.69 523.20 C 691.22 510.40 695.11 497.34 696.80 483.64 C 698.48 469.94 697.65 451.89 696.80 441.03 C 696.07 431.80 693.72 425.27 691.69 418.47 C 689.65 411.67 687.80 406.31 684.59 400.23 C 681.39 394.16 676.40 387.15 672.46 382.03 C 668.53 376.91 665.83 373.84 660.99 369.51 C 656.15 365.18 649.73 360.00 643.43 356.08 C 637.13 352.16 628.99 348.19 623.20 345.99 C 617.63 343.87 614.11 343.57 608.64 342.88 C 603.16 342.19 595.70 341.67 590.34 341.85 C 584.98 342.04 581.45 342.63 576.47 343.99 C 571.49 345.34 566.21 346.95 560.47 349.99 C 554.73 353.02 548.51 356.18 542.04 362.21 C 524.46 378.57 471.34 431.67 455.00 448.17 C 450.20 453.00 446.30 458.79 443.99 461.16 C 443.11 462.05 441.39 462.25 441.10 462.37 C 440.83 462.02 438.64 459.22 438.37 458.87 C 439.50 457.43 444.59 449.76 449.67 444.50 C 463.97 429.69 509.47 384.52 524.17 370.00 C 529.47 364.76 533.34 361.01 537.85 357.35 C 542.36 353.70 545.80 351.14 551.24 348.08 C 556.68 345.02 564.01 341.19 570.47 338.99 C 576.94 336.79 583.62 335.39 590.03 334.88 C 596.44 334.36 602.53 334.88 608.93 335.92 C 615.33 336.95 621.48 338.20 628.43 341.08 C 635.38 343.96 643.51 348.27 650.63 353.21 C 657.75 358.14 664.83 363.84 671.16 370.67 C 677.49 377.51 684.01 386.27 688.59 394.23 C 693.18 402.20 696.15 410.67 698.69 418.47 C 701.22 426.27 703.07 431.80 703.80 441.03 C 704.65 451.89 704.82 472.11 703.80 483.64 C 702.84 494.50 700.56 500.73 697.69 510.20 C 694.82 519.67 691.11 530.23 686.59 540.43 C 682.07 550.64 676.61 561.07 670.59 571.43 C 664.57 581.80 656.40 594.35 650.46 602.63 C 644.85 610.48 641.69 614.21 635.00 621.16 C 626.22 630.28 609.41 647.41 597.81 657.31 C 586.22 667.22 575.99 673.88 565.43 680.59 C 554.86 687.30 545.30 692.40 534.43 697.59 C 523.56 702.77 510.55 708.33 500.20 711.68 C 489.85 715.03 477.01 716.65 472.33 717.66 C 472.25 717.68 472.20 717.77 472.13 717.73 Z"/>
    <path d="M 719.50 331.44 C 718.88 330.91 716.43 330.06 715.98 328.20 C 714.69 322.91 714.45 310.92 711.76 299.73 C 708.87 287.78 703.38 268.88 698.69 256.47 C 693.99 244.05 689.13 235.31 683.59 225.23 C 678.06 215.16 672.34 205.76 665.46 196.03 C 658.59 186.30 651.06 176.60 642.32 166.85 C 633.57 157.09 621.94 145.62 612.99 137.51 C 604.04 129.40 597.39 124.44 588.63 118.21 C 579.87 111.97 572.27 106.38 560.43 100.08 C 547.52 93.21 525.11 82.35 511.20 76.99 C 497.97 71.89 486.46 69.94 476.93 67.92 C 467.88 66.00 463.25 65.00 454.00 64.83 C 444.18 64.66 427.28 65.68 418.03 66.88 C 410.01 67.91 406.03 69.11 398.47 71.99 C 390.51 75.02 378.12 80.41 370.24 85.08 C 362.35 89.75 357.34 94.17 351.17 100.00 C 344.99 105.82 338.05 113.16 333.20 120.03 C 328.35 126.91 325.12 133.12 322.08 141.23 C 319.03 149.35 316.28 160.83 314.91 168.73 C 313.55 176.59 313.36 181.23 313.87 188.64 C 314.38 196.05 316.11 206.07 317.98 213.20 C 319.85 220.33 321.16 224.66 325.07 231.43 C 329.47 239.04 336.78 250.05 344.35 258.82 C 351.91 267.58 365.91 279.30 370.46 284.03 C 371.41 285.01 371.55 286.89 371.67 287.21 C 371.34 287.53 368.67 290.09 368.33 290.41 C 365.47 287.68 346.36 270.13 339.67 263.16 C 334.54 257.82 331.97 254.26 328.20 248.63 C 324.44 243.01 319.95 235.34 317.08 229.43 C 314.21 223.53 312.65 219.93 310.98 213.20 C 309.27 206.35 307.36 195.69 306.85 188.32 C 306.33 180.96 306.55 176.64 307.87 169.03 C 309.22 161.22 312.28 149.27 314.98 141.47 C 317.68 133.67 320.68 128.00 324.07 122.23 C 327.47 116.46 331.67 111.22 335.35 106.85 C 339.03 102.48 341.53 100.01 346.17 96.00 C 351.31 91.54 357.52 85.25 366.24 80.08 C 374.96 74.91 388.51 68.52 398.47 64.99 C 408.44 61.45 416.50 60.06 426.03 58.88 C 435.56 57.69 444.11 56.86 455.64 57.88 C 467.17 58.89 483.73 62.12 495.20 64.99 C 506.66 67.85 513.08 70.15 524.43 75.08 C 535.97 80.10 553.06 88.72 564.43 95.08 C 575.79 101.43 583.87 106.97 592.63 113.21 C 601.39 119.44 607.91 124.02 616.99 132.51 C 627.44 142.28 645.74 160.93 655.32 171.85 C 663.87 181.60 668.92 189.80 674.46 198.03 C 680.01 206.26 683.55 211.61 688.59 221.23 C 694.13 231.81 702.66 248.38 707.69 261.47 C 712.71 274.55 716.24 289.52 718.76 299.73 C 720.99 308.80 722.10 317.99 722.76 322.73 C 723.05 324.90 723.20 326.76 722.69 328.20 C 722.18 329.64 720.21 330.84 719.68 331.38 C 719.63 331.44 719.56 331.49 719.50 331.44 Z"/>
    <path d="M 194.13 477.73 C 189.03 477.41 173.88 477.94 163.73 475.75 C 153.59 473.56 140.85 467.97 133.24 464.59 C 126.76 461.71 123.33 459.23 118.04 455.46 C 112.75 451.70 106.14 446.30 101.50 442.00 C 96.87 437.69 93.92 434.36 90.20 429.63 C 86.48 424.91 82.85 420.49 79.20 413.63 C 75.00 405.73 68.53 393.37 64.98 382.20 C 61.42 371.03 58.89 357.84 57.87 346.64 C 56.85 335.44 57.52 326.06 58.87 315.03 C 60.22 304.00 63.63 289.73 65.98 280.47 C 68.16 271.88 69.80 267.51 72.98 259.47 C 76.16 251.43 79.87 242.14 85.08 232.23 C 90.28 222.33 95.56 212.27 104.20 200.03 C 113.08 187.47 129.07 167.46 138.35 156.85 C 146.17 147.90 151.57 143.63 159.85 136.35 C 168.13 129.08 178.97 119.92 188.04 113.21 C 197.10 106.49 205.54 101.27 214.24 96.08 C 222.94 90.89 229.53 86.92 240.24 82.07 C 250.94 77.23 265.64 71.00 278.47 66.99 C 291.30 62.97 310.20 58.93 317.19 57.99 C 319.03 57.74 320.09 61.00 320.41 61.33 C 320.11 61.66 319.12 64.08 317.43 64.58 C 312.60 66.02 299.96 67.75 291.47 69.99 C 282.98 72.22 276.19 74.01 266.47 77.99 C 255.43 82.50 237.64 90.37 225.24 97.08 C 212.83 103.78 202.30 110.80 192.04 118.21 C 181.78 125.61 171.29 134.90 163.68 141.51 C 156.48 147.75 152.65 150.70 146.35 157.85 C 137.60 167.77 120.91 187.14 111.20 201.03 C 101.49 214.93 94.45 227.99 88.08 241.23 C 81.71 254.47 76.67 268.22 72.98 280.47 C 69.29 292.72 67.27 306.53 65.91 314.73 C 64.93 320.64 64.84 323.68 64.84 329.67 C 64.83 336.32 64.68 345.88 65.87 354.64 C 67.06 363.40 69.45 373.90 71.98 382.20 C 74.51 390.50 77.20 397.19 81.07 404.43 C 84.94 411.67 91.10 420.18 95.20 425.63 C 98.95 430.61 101.04 432.99 105.68 437.16 C 110.65 441.63 118.61 448.22 125.04 452.46 C 131.46 456.70 137.79 459.87 144.24 462.59 C 150.69 465.30 157.05 467.37 163.73 468.75 C 170.42 470.12 177.47 470.83 184.33 470.83 C 191.20 470.83 198.62 469.94 204.93 468.75 C 211.24 467.56 216.11 466.21 222.19 463.68 C 228.28 461.15 234.62 458.99 241.43 453.59 C 251.34 445.73 277.66 420.22 281.69 416.51 C 282.06 416.77 285.09 418.78 285.46 419.03 C 285.07 419.79 283.95 424.25 281.50 426.67 C 274.86 433.24 255.51 451.13 245.63 458.46 C 237.14 464.76 230.75 467.48 222.20 470.68 C 213.65 473.88 199.01 476.49 194.33 477.66 C 194.25 477.68 194.22 477.73 194.13 477.73 Z"/>
    <path d="M 698.50 308.44 C 697.95 307.62 694.34 303.93 692.98 300.20 C 690.68 293.87 688.42 280.79 684.69 270.47 C 680.96 260.14 676.13 248.81 670.59 238.23 C 665.06 227.66 657.34 215.76 651.46 207.03 C 645.59 198.30 642.28 193.92 635.32 185.85 C 627.93 177.29 616.61 164.61 607.16 155.67 C 597.71 146.73 588.42 139.30 578.63 132.21 C 568.84 125.11 556.79 117.93 548.43 113.08 C 540.69 108.59 535.97 106.43 528.43 103.08 C 520.89 99.73 512.61 96.18 503.20 92.99 C 493.78 89.79 479.97 85.78 471.93 83.92 C 465.28 82.38 461.82 81.99 455.00 81.84 C 447.18 81.67 434.45 81.52 425.03 82.88 C 415.61 84.23 405.44 87.62 398.47 89.99 C 392.11 92.15 388.34 94.19 383.24 97.08 C 378.14 99.98 373.17 102.72 367.85 107.35 C 362.54 111.98 355.98 118.70 351.35 124.85 C 346.72 131.00 342.82 138.42 340.08 144.23 C 337.34 150.05 336.12 155.16 334.91 159.73 C 333.70 164.30 332.95 166.82 332.84 171.67 C 332.67 178.54 332.89 193.18 333.91 200.93 C 334.85 208.07 337.10 213.25 338.98 218.20 C 340.86 223.15 341.87 226.18 345.20 230.63 C 350.29 237.43 362.68 251.82 369.51 258.99 C 375.63 265.43 384.49 272.22 386.15 273.68 C 385.86 274.08 383.50 277.26 383.20 277.66 C 382.13 276.99 376.16 274.46 372.50 271.00 C 366.03 264.86 351.60 250.95 344.35 240.82 C 337.09 230.69 332.06 217.90 328.98 210.20 C 326.62 204.31 326.37 200.97 325.87 194.64 C 325.35 188.11 324.50 179.93 325.87 171.03 C 327.24 162.13 330.69 149.57 334.08 141.23 C 337.47 132.90 341.21 127.54 346.20 121.03 C 351.20 114.53 356.20 108.20 364.04 102.21 C 371.88 96.21 383.96 89.30 393.24 85.08 C 402.52 80.87 409.94 78.63 419.73 76.92 C 429.53 75.21 443.30 74.83 452.00 74.83 C 460.02 74.83 464.09 75.24 471.93 76.92 C 480.63 78.78 494.28 82.63 504.20 85.99 C 514.11 89.35 521.39 92.23 531.43 97.08 C 541.47 101.93 554.36 108.87 564.43 115.08 C 574.49 121.29 581.47 125.84 591.81 134.35 C 602.35 143.03 618.89 158.38 627.67 167.17 C 635.02 174.53 638.16 178.76 644.46 187.03 C 650.95 195.54 660.07 207.70 666.59 218.23 C 673.11 228.77 679.07 240.69 683.59 250.23 C 688.11 259.77 690.67 266.76 693.69 275.47 C 696.70 284.17 700.37 297.47 701.69 302.47 C 701.99 303.61 702.09 304.45 701.59 305.43 C 701.09 306.42 699.20 307.88 698.68 308.38 C 698.63 308.44 698.52 308.43 698.50 308.44 Z"/>
    <path d="M 195.13 458.73 C 191.37 458.74 181.54 460.40 172.73 458.75 C 163.75 457.06 149.88 452.49 141.24 448.59 C 132.59 444.68 127.69 441.14 120.85 435.31 C 114.01 429.49 106.16 421.61 100.20 413.63 C 94.24 405.65 88.28 393.51 85.08 387.43 C 83.02 383.53 82.16 381.45 80.98 377.20 C 79.62 372.28 77.66 365.78 76.91 357.93 C 76.06 348.96 75.17 334.09 75.85 323.34 C 76.52 312.60 78.44 303.65 80.98 293.47 C 83.52 283.28 86.23 273.77 91.08 262.23 C 95.93 250.69 102.89 236.43 110.07 224.23 C 117.26 212.03 126.02 199.57 134.20 189.03 C 142.38 178.49 150.53 169.64 159.17 161.00 C 167.80 152.36 174.64 145.94 186.04 137.21 C 197.55 128.39 215.33 115.78 228.24 108.08 C 241.14 100.37 251.98 95.66 263.47 90.99 C 274.96 86.31 291.05 81.28 297.20 80.01 C 299.01 79.63 300.09 83.00 300.41 83.33 C 300.11 83.66 299.07 85.94 297.43 86.59 C 291.23 89.05 275.80 92.65 263.24 98.08 C 250.67 103.52 234.27 111.83 222.04 119.21 C 209.81 126.58 199.86 134.36 189.85 142.35 C 179.85 150.35 170.44 158.72 162.00 167.17 C 153.56 175.61 147.02 182.85 139.20 193.03 C 131.38 203.21 121.93 216.70 115.08 228.24 C 108.22 239.77 102.59 251.36 98.08 262.23 C 93.56 273.11 90.52 283.12 87.98 293.47 C 85.44 303.82 83.52 313.64 82.83 324.33 C 82.15 335.03 83.01 348.83 83.87 357.64 C 84.64 365.60 85.95 370.90 87.98 377.20 C 90.01 383.50 93.18 390.00 96.07 395.43 C 98.97 400.87 100.99 404.54 105.35 409.82 C 110.14 415.63 118.90 425.04 124.85 430.31 C 130.73 435.53 135.27 438.40 141.04 441.46 C 146.81 444.52 154.14 446.96 159.47 448.68 C 164.77 450.39 167.49 451.30 173.03 451.79 C 178.89 452.31 188.61 452.31 194.64 451.79 C 200.57 451.28 203.62 450.78 209.20 448.68 C 215.53 446.29 224.36 443.75 232.63 437.46 C 241.94 430.38 259.21 411.57 265.04 406.21 C 265.83 405.48 266.69 405.01 267.56 405.29 C 268.44 405.57 270.01 407.62 270.29 407.88 C 269.04 409.43 263.37 417.65 257.83 423.33 C 252.22 429.10 243.40 437.57 236.63 442.46 C 229.86 447.35 224.08 449.98 217.20 452.68 C 210.31 455.38 199.01 457.65 195.33 458.66 C 195.25 458.68 195.22 458.73 195.13 458.73 Z"/>
    <path d="M 367.14 390.71 C 366.47 390.12 363.67 387.46 363.29 387.10 C 364.01 386.26 367.39 381.83 370.51 378.67 C 387.51 361.46 445.80 304.86 465.32 283.82 C 475.79 272.53 482.70 260.37 487.59 252.43 C 491.31 246.40 492.45 242.92 494.69 236.20 C 497.22 228.57 501.28 218.17 502.80 206.64 C 504.32 195.11 504.65 178.39 503.80 167.03 C 502.95 155.66 499.71 145.89 497.69 138.47 C 495.89 131.87 494.79 128.56 491.69 122.47 C 487.79 114.82 476.02 95.56 474.28 92.57 C 474.64 92.25 477.45 89.69 477.80 89.37 C 478.37 89.83 481.78 91.63 483.46 94.03 C 486.26 98.01 491.05 105.83 494.59 113.23 C 498.13 120.64 502.16 130.72 504.69 138.47 C 507.21 146.22 508.86 151.03 509.76 159.73 C 510.77 169.59 511.13 188.11 510.80 197.64 C 510.52 205.45 509.27 210.51 507.76 216.93 C 506.24 223.36 504.21 229.62 501.69 236.20 C 499.16 242.78 497.20 248.85 492.59 256.43 C 487.36 265.04 480.82 276.56 470.32 287.82 C 449.44 310.19 384.53 373.51 367.33 390.66 C 367.28 390.71 367.20 390.76 367.14 390.71 Z"/>
    <path d="M 355.50 376.44 C 354.93 375.97 352.61 373.85 352.29 373.57 C 352.40 373.29 352.53 371.68 353.35 370.85 C 369.41 354.51 430.84 293.67 448.67 275.50 C 453.70 270.37 456.20 267.71 460.32 261.82 C 464.64 255.64 471.19 244.87 474.59 238.43 C 477.65 232.63 479.00 229.54 480.69 223.20 C 482.56 216.18 485.14 207.07 485.82 196.32 C 486.50 185.58 485.78 168.21 484.76 158.73 C 483.90 150.81 481.71 145.38 479.69 139.47 C 477.66 133.55 476.23 129.31 472.59 123.23 C 468.04 115.62 454.39 96.74 452.37 93.80 C 452.71 93.46 455.46 90.71 455.80 90.37 C 456.67 91.23 461.47 95.16 464.46 99.03 C 467.93 103.51 472.89 110.50 476.59 117.23 C 480.30 123.97 484.33 133.38 486.69 139.47 C 488.83 145.00 489.73 149.25 490.76 153.73 C 491.78 158.21 492.57 161.24 492.82 166.34 C 493.16 173.44 493.68 186.85 492.82 196.32 C 491.96 205.80 489.72 215.85 487.69 223.20 C 485.70 230.38 483.78 234.06 480.59 240.43 C 477.41 246.81 472.97 255.03 468.59 261.43 C 464.21 267.83 460.56 272.34 454.32 278.82 C 436.30 297.52 376.94 357.41 360.50 373.67 C 358.93 375.22 356.52 375.93 355.69 376.39 C 355.62 376.43 355.56 376.49 355.50 376.44 Z"/>
    <path d="M 341.14 362.71 C 340.47 362.12 337.67 359.46 337.29 359.10 C 338.21 358.06 342.61 352.65 346.51 348.67 C 363.51 331.29 421.80 273.36 439.32 254.82 C 445.16 248.63 447.69 244.70 451.59 237.43 C 455.48 230.16 460.32 218.33 462.69 211.20 C 464.81 204.80 465.27 200.90 465.80 194.64 C 466.32 188.38 466.52 181.03 465.83 173.67 C 465.14 166.31 464.41 158.74 461.69 150.47 C 458.96 142.19 455.23 133.04 449.46 124.03 C 443.70 115.03 430.92 101.46 427.07 96.43 C 426.43 95.59 425.96 94.74 426.38 93.88 C 426.80 93.03 429.25 91.55 429.57 91.29 C 430.95 92.64 439.17 100.06 443.32 104.85 C 447.47 109.64 450.80 113.45 454.46 120.03 C 458.69 127.64 465.63 141.63 468.69 150.47 C 471.69 159.14 472.11 165.77 472.80 173.03 C 473.49 180.28 473.68 186.47 472.83 194.00 C 471.98 201.53 470.39 210.29 467.69 218.20 C 464.98 226.11 460.49 234.66 456.59 241.43 C 452.70 248.20 450.18 252.65 444.32 258.82 C 425.11 279.02 358.53 345.34 341.33 362.66 C 341.28 362.71 341.20 362.76 341.14 362.71 Z"/>
    <path d="M 326.14 350.71 C 325.53 350.02 323.01 346.92 322.67 346.50 C 333.13 336.03 408.50 261.33 427.32 241.82 C 431.45 237.53 432.92 234.76 435.59 229.43 C 438.49 223.66 442.65 214.77 444.69 207.20 C 446.73 199.63 447.83 192.45 447.83 184.00 C 447.83 175.54 447.08 165.29 444.69 156.47 C 442.29 147.64 439.84 140.14 433.46 131.03 C 427.08 121.92 409.09 104.71 406.38 101.78 C 406.76 101.41 409.82 98.38 410.21 98.01 C 412.43 100.11 427.73 114.16 432.46 119.03 C 435.32 121.97 436.55 123.69 438.59 127.23 C 441.13 131.64 445.33 139.72 447.69 145.47 C 450.05 151.22 451.57 155.42 452.76 161.73 C 453.94 168.04 455.00 175.76 454.82 183.34 C 454.64 190.92 453.73 199.35 451.69 207.20 C 449.65 215.05 445.82 224.00 442.59 230.43 C 439.36 236.87 437.41 240.45 432.32 245.82 C 413.80 265.36 349.17 330.20 331.50 347.67 C 329.80 349.35 327.22 350.15 326.33 350.66 C 326.26 350.69 326.19 350.77 326.14 350.71 Z"/>
    <path d="M 315.50 706.44 C 313.77 704.85 308.91 701.14 305.35 696.82 C 301.78 692.48 297.81 687.46 294.07 680.43 C 289.68 672.16 282.51 657.67 278.98 647.20 C 275.45 636.73 273.89 627.17 272.87 617.64 C 271.85 608.11 271.85 599.56 272.87 590.03 C 273.89 580.50 276.78 568.43 278.98 560.47 C 281.06 552.92 283.39 547.94 286.08 542.23 C 288.76 536.53 291.03 532.30 295.07 526.23 C 299.12 520.17 303.52 513.41 310.35 505.85 C 317.72 497.69 336.43 480.12 339.33 477.26 C 339.63 477.54 342.07 479.82 342.38 480.10 C 342.29 480.35 342.18 481.83 341.46 482.63 C 336.13 488.59 318.41 505.92 310.35 515.85 C 302.40 525.64 297.47 533.80 293.08 542.24 C 288.68 550.67 286.18 558.50 283.98 566.47 C 281.78 574.43 280.55 581.50 279.87 590.03 C 279.18 598.56 278.85 608.11 279.87 617.64 C 280.89 627.17 282.78 637.40 285.98 647.20 C 289.18 657.00 293.80 667.43 299.07 676.43 C 304.34 685.44 314.38 696.71 317.59 701.23 C 318.16 702.04 318.70 702.71 318.38 703.57 C 318.06 704.42 316.16 705.90 315.68 706.38 C 315.63 706.44 315.55 706.49 315.50 706.44 Z"/>
    <path d="M 611.13 516.73 C 604.87 516.57 583.68 516.92 573.73 515.75 C 564.57 514.66 557.55 511.71 551.47 509.68 C 545.60 507.72 542.59 506.69 537.24 503.59 C 528.80 498.69 512.23 489.16 500.85 480.31 C 489.48 471.47 474.58 456.07 469.00 450.50 C 467.88 449.38 467.54 447.24 467.38 446.88 C 467.68 446.62 470.04 444.52 470.34 444.26 C 470.87 444.55 473.83 445.58 475.63 447.21 C 481.38 452.38 494.92 467.25 504.85 475.31 C 514.79 483.38 527.47 491.03 535.24 495.59 C 541.35 499.18 545.01 500.48 551.47 502.68 C 557.94 504.88 564.75 507.67 574.03 508.79 C 583.84 509.98 600.30 510.50 610.32 509.81 C 620.07 509.15 625.18 507.72 634.20 504.68 C 643.21 501.64 656.05 496.21 664.43 491.59 C 672.81 486.97 680.77 479.52 684.46 476.97 C 685.19 476.47 685.76 475.97 686.56 476.29 C 687.37 476.61 689.01 478.62 689.29 478.88 C 688.72 479.64 686.75 484.32 683.63 486.46 C 677.15 490.91 658.67 501.38 650.43 505.59 C 644.25 508.74 640.71 509.83 634.20 511.68 C 627.68 513.53 615.17 515.82 611.33 516.66 C 611.25 516.68 611.22 516.73 611.13 516.73 Z"/>
    <path d="M 607.13 498.73 C 603.80 498.75 592.91 499.14 587.34 498.81 C 581.85 498.49 579.08 498.07 573.73 496.75 C 567.59 495.23 557.39 492.37 550.47 489.68 C 543.55 486.99 539.02 485.11 532.24 480.59 C 524.11 475.17 510.32 464.62 501.68 457.16 C 493.03 449.70 484.07 439.86 480.35 435.82 C 479.51 434.91 479.48 433.18 479.38 432.88 C 479.68 432.62 481.13 430.37 482.34 430.26 C 483.54 430.14 485.24 430.93 486.63 432.21 C 491.88 437.05 505.58 452.08 513.85 459.31 C 522.12 466.55 527.64 470.86 536.24 475.59 C 544.84 480.32 557.01 484.98 565.47 487.68 C 573.83 490.35 578.95 491.28 587.03 491.79 C 595.10 492.30 605.24 492.10 613.93 490.75 C 622.63 489.40 630.75 487.06 639.20 483.68 C 647.65 480.30 658.53 474.02 664.63 470.46 C 669.41 467.67 672.71 465.05 675.81 462.31 C 678.92 459.58 681.51 455.63 683.24 454.08 C 684.18 453.24 685.20 452.71 686.20 453.01 C 687.21 453.31 688.98 455.60 689.29 455.88 C 688.64 456.83 686.29 462.34 682.81 465.31 C 678.00 469.43 667.70 476.36 660.43 480.59 C 653.16 484.82 645.28 488.15 639.20 490.68 C 633.25 493.15 629.24 494.42 623.93 495.75 C 618.62 497.08 610.13 498.17 607.33 498.66 C 607.25 498.68 607.22 498.73 607.13 498.73 Z"/>
    <path d="M 337.50 704.44 C 336.30 703.54 332.93 701.58 330.51 698.99 C 326.96 695.19 321.08 689.19 316.20 681.63 C 310.95 673.50 303.20 661.03 298.98 650.20 C 294.76 639.37 292.22 626.62 290.87 616.64 C 289.51 606.66 290.51 596.99 290.85 590.34 C 291.13 584.84 291.56 582.04 292.91 576.73 C 294.27 571.42 295.86 565.51 298.98 558.47 C 302.34 550.88 306.96 540.23 313.07 531.23 C 319.19 522.24 330.04 510.82 335.67 504.50 C 339.87 499.79 344.08 495.73 346.85 493.35 C 348.76 491.72 351.78 490.57 352.33 490.26 C 352.63 490.54 355.07 492.82 355.38 493.10 C 355.29 493.35 355.20 494.85 354.46 495.63 C 349.96 500.42 335.58 513.25 328.35 521.85 C 321.12 530.45 315.80 538.13 311.07 547.23 C 306.35 556.34 302.18 569.28 299.98 576.47 C 298.33 581.84 298.14 584.73 297.85 590.34 C 297.49 597.04 296.51 606.66 297.87 616.64 C 299.22 626.62 302.09 640.03 305.98 650.20 C 309.87 660.37 315.60 669.46 321.20 677.63 C 326.80 685.81 336.40 695.25 339.59 699.23 C 340.21 700.00 340.70 700.71 340.38 701.57 C 340.06 702.42 338.16 703.90 337.68 704.38 C 337.63 704.44 337.56 704.49 337.50 704.44 Z"/>
    <path d="M 363.50 701.44 C 362.53 700.93 359.78 700.03 357.85 698.31 C 354.16 695.04 346.46 687.76 341.35 681.82 C 336.24 675.87 330.58 667.86 327.20 662.63 C 324.24 658.05 323.06 655.52 321.08 650.43 C 318.69 644.32 314.45 635.23 312.91 625.93 C 311.37 616.64 311.84 601.87 311.84 594.67 C 311.84 589.87 312.05 587.10 312.91 582.73 C 313.77 578.36 314.63 573.92 316.98 568.47 C 319.67 562.22 324.32 552.53 329.07 545.23 C 333.83 537.94 339.13 531.50 345.51 524.67 C 351.88 517.84 365.15 506.30 367.33 504.26 C 367.63 504.54 370.07 506.82 370.38 507.10 C 370.29 507.35 370.19 508.84 369.46 509.63 C 364.96 514.59 349.75 529.42 343.35 536.85 C 337.79 543.30 334.80 547.30 331.07 554.23 C 327.35 561.17 323.02 571.73 320.98 578.47 C 319.09 584.72 318.99 588.13 318.84 594.67 C 318.65 602.53 318.83 617.51 319.87 625.64 C 320.81 633.00 323.04 637.97 325.08 643.43 C 327.11 648.90 329.72 654.23 332.08 658.43 C 334.43 662.63 336.77 665.35 339.20 668.63 C 341.63 671.92 343.32 674.67 346.67 678.16 C 351.05 682.73 362.18 692.63 365.46 696.03 C 366.21 696.81 366.67 697.67 366.38 698.57 C 366.08 699.46 364.16 700.90 363.68 701.38 C 363.63 701.44 363.57 701.48 363.50 701.44 Z"/>
    <path d="M 600.13 477.73 C 598.42 477.75 594.04 478.29 590.03 477.79 C 584.58 477.12 575.60 476.21 567.47 473.68 C 559.34 471.15 549.37 467.34 541.24 462.59 C 533.11 457.84 525.97 451.59 518.68 445.16 C 511.39 438.72 501.22 428.04 497.51 423.99 C 496.61 423.02 496.12 421.83 496.38 420.88 C 496.65 419.93 498.23 418.57 499.10 418.29 C 499.98 418.01 500.84 418.47 501.63 419.21 C 505.59 422.88 515.58 433.92 522.85 440.31 C 530.12 446.71 537.80 453.19 545.24 457.58 C 552.68 461.98 559.95 464.47 567.47 466.68 C 574.99 468.89 583.27 470.30 590.34 470.81 C 597.42 471.33 603.08 470.79 609.93 469.75 C 616.78 468.71 623.25 467.95 631.43 464.59 C 640.04 461.04 653.53 454.03 661.63 448.46 C 669.72 442.89 676.43 434.87 680.00 431.16 C 681.61 429.49 682.11 427.18 683.04 426.21 C 683.78 425.43 684.69 425.01 685.56 425.29 C 686.44 425.57 688.16 426.46 688.29 427.88 C 688.41 429.30 687.88 431.86 686.32 433.82 C 683.66 437.14 677.65 443.37 672.33 447.83 C 667.02 452.29 661.28 456.61 654.43 460.59 C 647.57 464.56 640.21 468.83 631.20 471.68 C 622.18 474.53 605.51 476.65 600.33 477.66 C 600.25 477.68 600.22 477.73 600.13 477.73 Z"/>
    <path d="M 608.13 458.73 C 603.37 458.57 587.51 458.92 579.73 457.75 C 572.12 456.60 566.89 453.87 561.47 451.68 C 556.05 449.49 552.04 447.68 547.24 444.59 C 542.44 441.50 537.88 437.84 532.68 433.16 C 527.47 428.48 520.10 421.16 516.00 416.50 C 512.36 412.37 508.87 406.36 508.08 405.23 C 508.47 404.96 511.59 402.79 511.98 402.51 C 514.43 405.06 529.96 421.82 536.50 428.00 C 541.96 433.14 546.24 436.48 551.24 439.59 C 556.23 442.70 560.45 444.64 566.47 446.68 C 572.49 448.72 580.42 450.99 587.33 451.83 C 594.24 452.68 599.83 453.27 607.93 451.75 C 616.11 450.21 628.42 446.35 636.43 442.59 C 644.44 438.82 650.01 434.12 655.99 429.16 C 661.97 424.20 668.54 417.09 672.32 412.82 C 675.31 409.44 678.05 404.44 678.69 403.51 C 679.06 403.77 682.09 405.78 682.46 406.03 C 681.95 407.11 680.51 413.26 677.32 416.82 C 672.01 422.72 658.98 435.32 650.63 441.46 C 642.28 447.60 634.25 450.81 627.20 453.68 C 620.15 456.55 611.51 457.82 608.33 458.66 C 608.25 458.68 608.22 458.73 608.13 458.73 Z"/>
    <path d="M 379.14 691.71 C 377.90 690.98 374.42 689.54 371.85 687.31 C 368.22 684.17 362.54 679.17 357.35 672.82 C 352.05 666.34 344.48 657.08 340.07 648.43 C 335.67 639.78 332.62 628.90 330.91 620.93 C 329.21 613.00 329.49 607.58 329.84 600.67 C 330.18 593.76 330.77 586.87 332.98 579.47 C 335.19 572.06 339.32 562.87 343.07 556.23 C 346.83 549.60 349.85 545.73 355.51 539.67 C 361.88 532.84 378.75 517.70 381.33 515.26 C 381.63 515.54 384.07 517.82 384.38 518.10 C 384.29 518.35 384.20 519.85 383.46 520.63 C 379.46 524.92 366.58 536.58 360.35 543.85 C 354.12 551.12 349.81 557.09 346.07 564.23 C 342.33 571.38 339.45 580.66 337.91 586.73 C 336.54 592.15 336.84 595.08 336.84 600.67 C 336.84 606.37 336.54 613.64 337.91 620.93 C 339.28 628.23 341.00 636.45 345.08 644.43 C 349.15 652.41 356.17 661.61 362.35 668.82 C 368.53 676.03 380.17 685.80 382.15 687.68 C 381.87 688.08 379.83 690.98 379.33 691.65 C 379.28 691.72 379.21 691.75 379.14 691.71 Z"/>
    <path d="M 455.14 351.71 C 454.20 351.29 451.47 350.77 449.68 349.16 C 446.69 346.48 439.43 338.31 437.20 335.63 C 436.51 334.81 436.04 333.95 436.29 333.10 C 436.54 332.25 437.76 330.81 438.69 330.51 C 439.61 330.22 440.84 330.49 441.81 331.35 C 445.06 334.21 456.52 346.05 458.15 347.68 C 457.87 348.08 455.83 350.98 455.33 351.65 C 455.28 351.72 455.21 351.74 455.14 351.71 Z"/>
    <path d="M 425.50 376.44 C 423.42 374.65 415.40 367.86 413.20 365.63 C 412.44 364.87 412.04 363.95 412.29 363.10 C 412.54 362.25 413.76 360.81 414.69 360.51 C 415.61 360.22 416.81 360.53 417.81 361.35 C 419.94 363.11 425.70 369.00 427.46 371.03 C 428.17 371.85 428.67 372.67 428.38 373.57 C 428.08 374.46 426.16 375.90 425.68 376.38 C 425.63 376.44 425.56 376.49 425.50 376.44 Z"/>
  </g>
  <text id="line1" x="390.00" y="906" text-anchor="middle" font-family="Arial, Helvetica, sans-serif" font-size="109" font-weight="700" letter-spacing="2">AKSMED</text>
  <text id="line2" x="390.00" y="1013" text-anchor="middle" font-family="Arial, Helvetica, sans-serif" font-size="109" font-weight="700" letter-spacing="2">CLINIQUE</text>
</svg>
