<?xml version="1.0" encoding="UTF-8"?>
<svg xmlns="http://www.w3.org/2000/svg" version="1.1" viewBox="0 0 780 1090">
  <g fill="black" fill-rule="evenodd" stroke="none">
    <path d="M 336.13 774.73 C 331.25 774.58 317.14 774.96 307.03 773.79 C 296.92 772.62 285.56 770.20 275.47 767.68 C 265.38 765.16 257.76 763.16 246.47 758.68 C 235.10 754.16 222.18 748.98 207.24 740.59 C 192.30 732.19 168.47 716.41 156.85 708.31 C 148.55 702.53 144.86 698.95 137.50 692.00 C 128.42 683.41 113.23 669.21 102.35 656.82 C 91.46 644.42 79.25 627.53 72.20 617.63 C 66.74 609.96 64.52 605.74 60.07 597.43 C 54.89 587.73 45.76 569.97 41.08 559.43 C 36.72 549.63 34.97 544.50 31.98 534.20 C 28.95 523.78 24.93 507.58 22.91 496.93 C 20.91 486.41 20.19 479.31 19.85 470.32 C 19.51 461.34 19.98 451.74 20.87 443.03 C 21.76 434.31 24.77 420.53 25.20 418.03 C 25.73 417.95 29.46 417.13 30.56 417.29 C 31.40 417.42 31.88 418.18 31.80 419.02 C 31.35 423.31 28.69 434.48 27.87 443.03 C 27.04 451.58 26.51 461.34 26.85 470.32 C 27.19 479.31 27.91 486.41 29.91 496.93 C 31.93 507.58 35.95 523.78 38.98 534.20 C 41.97 544.50 44.73 551.39 48.08 559.43 C 51.43 567.47 54.25 573.45 59.07 582.43 C 63.91 591.43 71.89 605.23 77.07 613.43 C 81.87 621.02 85.13 625.04 90.20 631.63 C 95.27 638.23 100.04 644.92 107.51 652.99 C 116.00 662.16 131.08 677.42 141.17 686.67 C 151.25 695.91 156.69 700.54 168.04 708.46 C 179.72 716.61 198.17 728.38 211.24 735.58 C 224.31 742.79 235.77 747.50 246.47 751.68 C 257.18 755.86 267.76 758.50 275.47 760.68 C 282.30 762.61 285.72 763.71 292.73 764.75 C 300.82 765.94 315.52 767.49 324.00 767.83 C 331.86 768.15 335.85 767.88 343.64 766.79 C 352.17 765.60 366.06 763.21 375.20 760.68 C 384.33 758.15 390.36 755.45 398.43 751.59 C 406.50 747.72 417.07 741.51 423.63 737.46 C 429.57 733.80 432.53 731.87 437.81 727.31 C 443.99 721.99 454.23 712.78 460.67 705.50 C 467.11 698.22 472.31 689.98 476.46 683.63 C 480.54 677.41 482.89 673.00 485.59 667.43 C 488.29 661.86 490.49 657.28 492.69 650.20 C 494.88 643.12 497.40 632.91 498.76 624.93 C 500.11 616.96 500.83 609.48 500.83 602.33 C 500.84 595.18 499.82 588.67 498.80 582.03 C 497.77 575.38 496.39 568.43 494.69 562.47 C 492.99 556.50 491.63 552.47 488.59 546.23 C 485.22 539.33 478.87 527.63 474.46 521.03 C 470.26 514.74 467.48 512.05 462.16 506.67 C 429.50 473.67 311.26 355.41 278.50 323.00 C 273.72 318.27 270.64 315.86 265.63 312.21 C 260.62 308.55 254.67 304.45 248.43 301.08 C 242.19 297.71 236.66 294.64 228.20 291.99 C 219.56 289.29 205.45 286.07 196.64 284.88 C 188.19 283.73 183.80 283.86 175.33 284.83 C 166.47 285.85 153.99 287.61 143.47 290.99 C 132.95 294.36 119.52 301.19 112.24 305.08 C 106.77 307.99 101.03 313.36 99.78 314.28 C 99.53 314.12 97.82 313.48 97.20 312.63 C 96.58 311.79 96.19 309.57 96.08 309.23 C 96.68 308.73 99.35 305.79 102.04 304.21 C 107.73 300.85 122.33 292.78 130.24 289.08 C 137.66 285.60 143.72 283.68 149.47 281.99 C 155.22 280.29 158.53 279.46 164.73 278.92 C 172.60 278.23 185.56 276.70 196.64 277.88 C 207.72 279.05 220.20 281.93 231.20 285.99 C 242.19 290.04 254.08 296.87 262.63 302.21 C 271.18 307.54 275.25 310.89 282.50 318.00 C 316.56 351.38 434.17 469.33 467.00 502.50 C 472.38 507.95 475.17 510.69 479.46 517.03 C 484.06 523.82 490.54 534.28 494.59 543.23 C 498.64 552.18 501.55 560.66 503.76 570.73 C 505.96 580.80 507.46 594.61 507.80 603.64 C 508.11 612.19 507.27 616.51 505.76 624.93 C 504.24 633.36 502.74 643.75 498.69 654.20 C 494.64 664.65 486.86 678.53 481.46 687.63 C 476.15 696.60 471.51 702.62 466.32 708.82 C 461.13 715.02 455.28 720.23 450.33 724.83 C 445.38 729.44 441.78 732.67 436.63 736.46 C 431.48 740.25 425.79 743.90 419.43 747.59 C 413.06 751.28 405.80 755.24 398.43 758.59 C 391.06 761.93 384.86 765.18 375.20 767.68 C 364.85 770.36 342.84 773.49 336.33 774.66 C 336.25 774.68 336.22 774.73 336.13 774.73 Z"/>
    <path d="M 338.13 756.73 C 334.14 756.75 321.91 757.31 314.34 756.81 C 306.78 756.32 301.05 755.60 292.73 753.75 C 284.42 751.89 274.22 749.04 264.47 745.68 C 254.72 742.32 244.78 738.43 234.24 733.59 C 223.70 728.74 211.77 722.78 201.24 716.59 C 190.71 710.40 179.44 702.51 171.04 696.46 C 162.65 690.42 158.25 686.86 150.85 680.31 C 143.46 673.77 133.61 664.28 126.67 657.16 C 119.73 650.05 115.66 645.89 109.20 637.63 C 101.96 628.38 89.06 610.17 83.20 601.63 C 79.19 595.79 77.29 592.75 74.07 586.43 C 69.37 577.19 59.83 557.91 54.98 546.20 C 50.14 534.51 47.32 524.41 44.98 516.20 C 42.82 508.63 42.10 504.08 40.91 496.93 C 39.72 489.79 38.13 481.98 37.85 473.32 C 37.56 464.67 39.06 447.86 39.20 445.03 C 39.71 444.95 43.24 444.14 44.33 444.26 C 45.15 444.34 45.72 444.91 45.76 445.73 C 46.01 452.13 44.84 470.94 45.87 482.64 C 46.89 494.34 49.89 507.01 51.91 515.93 C 53.78 524.19 54.78 528.37 57.98 536.20 C 62.51 547.28 72.70 570.19 79.07 582.43 C 85.01 593.84 90.32 601.07 96.20 609.63 C 102.08 618.20 106.47 624.65 114.35 633.82 C 122.57 643.38 135.39 657.39 145.50 667.00 C 155.62 676.60 163.25 683.03 175.04 691.46 C 186.83 699.89 204.04 710.74 216.24 717.59 C 228.44 724.44 238.16 728.39 248.24 732.59 C 258.32 736.78 265.72 739.88 276.73 742.75 C 287.75 745.62 304.24 748.64 314.34 749.81 C 323.47 750.88 330.23 750.33 337.32 749.81 C 344.42 749.30 349.26 748.79 356.93 746.75 C 366.45 744.21 384.32 738.97 394.43 734.59 C 404.40 730.27 411.34 724.73 417.63 720.46 C 423.76 716.30 426.99 714.29 432.16 709.00 C 439.30 701.69 454.06 685.06 460.46 676.63 C 465.51 670.00 467.89 664.17 470.59 658.43 C 473.29 652.69 474.85 648.89 476.69 642.20 C 478.56 635.40 480.94 625.95 481.80 617.64 C 482.65 609.33 482.16 598.99 481.82 592.34 C 481.52 586.45 481.18 583.46 479.76 577.73 C 478.22 571.55 475.81 562.68 472.59 555.23 C 469.38 547.78 464.40 539.15 460.46 533.03 C 456.53 526.91 454.19 523.78 449.00 518.50 C 417.17 486.16 302.23 371.22 269.50 339.00 C 263.29 332.88 258.14 329.19 252.63 325.21 C 247.12 321.22 242.50 318.11 236.43 315.07 C 230.36 312.04 221.83 308.85 216.20 306.99 C 210.91 305.24 208.17 304.45 202.64 303.88 C 196.00 303.19 185.70 302.00 176.34 302.85 C 166.98 303.70 154.82 306.45 146.47 308.99 C 138.12 311.52 133.87 313.55 126.24 318.08 C 118.29 322.79 101.53 335.36 98.78 337.28 C 98.36 336.95 94.94 334.31 94.51 333.98 C 95.66 332.90 100.89 326.86 106.04 323.21 C 111.66 319.22 121.50 313.62 128.24 310.08 C 134.98 306.54 140.89 304.01 146.47 301.99 C 152.05 299.96 155.47 298.77 161.73 297.92 C 169.26 296.90 183.94 295.88 191.64 295.88 C 198.21 295.88 201.84 296.57 207.93 297.92 C 214.02 299.27 220.50 300.47 228.20 303.99 C 236.31 307.70 249.08 315.20 256.63 320.21 C 263.90 325.02 267.29 327.88 273.50 334.00 C 306.37 366.35 422.17 482.33 453.83 514.33 C 458.10 518.64 460.05 521.03 463.46 526.03 C 467.09 531.35 471.72 537.64 475.59 546.23 C 479.47 554.85 484.55 570.05 486.76 577.73 C 488.38 583.41 488.52 586.45 488.82 592.34 C 489.16 598.99 489.82 608.83 488.80 617.64 C 487.78 626.45 484.55 638.40 482.69 645.20 C 481.18 650.67 480.07 653.33 477.59 658.43 C 474.72 664.34 471.51 672.52 465.46 680.63 C 458.59 689.87 445.34 705.17 436.33 713.83 C 427.34 722.48 420.95 726.95 411.43 732.59 C 401.91 738.23 391.38 743.67 379.20 747.68 C 367.01 751.69 345.17 755.15 338.33 756.66 C 338.25 756.68 338.22 756.73 338.13 756.73 Z"/>
    <path d="M 338.13 736.73 C 334.14 736.75 321.74 737.31 314.34 736.81 C 306.94 736.32 301.77 735.96 293.73 733.75 C 282.72 730.71 263.35 725.13 248.24 718.59 C 233.12 712.04 217.63 703.87 203.04 694.46 C 188.44 685.06 174.65 674.80 160.68 662.16 C 146.70 649.52 129.45 630.72 119.20 618.63 C 110.09 607.88 104.56 598.00 99.20 589.63 C 93.94 581.40 91.43 576.97 87.07 568.43 C 82.72 559.90 76.76 547.31 73.08 538.43 C 69.39 529.56 67.25 524.78 64.98 515.20 C 62.48 504.67 58.77 479.23 58.08 475.24 C 58.54 475.01 61.60 473.09 62.71 472.96 C 63.69 472.85 64.47 473.50 64.69 474.47 C 66.23 481.51 68.25 501.87 71.98 515.20 C 75.71 528.53 80.20 540.36 87.07 554.43 C 93.94 568.51 105.46 587.71 113.20 599.63 C 120.45 610.80 124.48 616.21 133.51 625.99 C 143.61 636.94 161.56 654.72 173.85 665.31 C 186.14 675.91 194.84 681.88 207.24 689.59 C 219.64 697.30 233.82 705.39 248.24 711.59 C 262.65 717.78 282.72 723.71 293.73 726.75 C 301.77 728.96 307.08 729.30 314.34 729.81 C 321.61 730.33 328.22 731.09 337.32 729.81 C 346.97 728.46 361.48 725.41 372.20 721.68 C 382.91 717.95 394.50 711.55 401.63 707.46 C 407.48 704.11 409.99 701.69 414.99 697.16 C 420.44 692.22 428.72 684.44 434.32 677.82 C 439.92 671.20 445.05 663.50 448.59 657.43 C 452.12 651.40 453.57 648.12 455.59 641.43 C 457.79 634.13 460.76 621.54 461.80 613.64 C 462.82 605.86 462.31 600.01 461.80 594.03 C 461.29 588.04 460.89 584.01 458.76 577.73 C 456.22 570.27 450.08 555.97 446.59 549.23 C 443.87 543.99 441.96 541.57 437.83 537.33 C 407.01 505.66 294.87 392.02 261.67 359.17 C 253.19 350.77 245.71 345.07 238.63 340.21 C 231.55 335.34 225.65 332.53 219.20 329.99 C 212.75 327.44 206.69 325.94 199.93 324.92 C 193.18 323.89 184.99 323.68 178.67 323.84 C 172.35 324.00 168.52 324.19 162.03 325.88 C 155.46 327.58 145.70 331.21 139.24 334.08 C 132.77 336.95 129.09 338.64 123.24 343.08 C 116.83 347.94 103.03 361.26 100.78 363.28 C 100.37 362.97 97.08 360.48 96.67 360.16 C 97.28 359.28 99.59 354.16 102.85 351.35 C 108.28 346.67 119.43 337.48 129.24 332.08 C 139.05 326.67 151.44 321.46 161.73 318.92 C 172.03 316.38 181.42 316.16 191.00 316.84 C 200.57 317.52 210.59 319.93 219.20 322.99 C 227.80 326.05 234.72 329.84 242.63 335.21 C 250.54 340.57 257.79 346.37 266.67 355.17 C 300.04 388.19 411.68 501.16 442.83 533.33 C 447.95 538.62 450.22 541.70 453.59 548.23 C 457.41 555.63 463.22 570.10 465.76 577.73 C 467.85 584.02 468.29 588.15 468.80 594.03 C 469.31 599.90 469.81 605.47 468.83 613.00 C 467.81 620.86 465.73 632.29 462.69 641.20 C 459.65 650.11 454.57 659.58 450.59 666.43 C 446.62 673.28 444.07 676.41 438.83 682.33 C 433.57 688.29 424.56 697.11 418.99 702.16 C 413.92 706.75 411.22 708.94 405.43 712.59 C 399.50 716.33 388.97 721.90 383.43 724.59 C 379.12 726.67 376.82 727.44 372.20 728.68 C 364.68 730.69 344.01 735.32 338.33 736.66 C 338.25 736.68 338.22 736.73 338.13 736.73 Z"/>
    <path d="M 336.13 718.73 C 330.87 718.57 315.84 719.59 304.73 717.75 C 293.62 715.91 278.89 710.87 269.47 707.68 C 260.72 704.71 256.47 702.77 248.24 698.59 C 238.00 693.38 220.77 684.84 208.04 676.46 C 195.31 668.08 182.13 657.26 171.85 648.31 C 161.57 639.37 155.62 633.87 146.35 622.82 C 136.72 611.34 123.30 594.20 114.07 579.43 C 104.85 564.66 96.16 545.41 90.98 534.20 C 87.05 525.70 85.30 519.86 82.98 512.20 C 80.66 504.54 77.67 490.63 77.08 488.23 C 77.54 488.00 80.62 486.13 81.71 485.96 C 82.61 485.82 83.32 486.37 83.59 487.24 C 84.97 491.61 87.58 504.37 89.98 512.20 C 92.38 520.03 94.07 525.69 97.98 534.20 C 102.83 544.74 110.18 561.33 119.07 575.43 C 127.97 589.54 142.00 607.61 151.35 618.82 C 159.99 629.17 165.55 634.23 175.17 642.67 C 184.78 651.11 198.86 662.31 209.04 669.46 C 219.22 676.61 226.17 680.38 236.24 685.58 C 246.31 690.79 258.06 696.49 269.47 700.68 C 280.89 704.87 293.71 708.90 304.73 710.75 C 315.76 712.60 327.11 712.12 335.64 711.79 C 343.84 711.47 350.34 709.93 355.93 708.75 C 361.36 707.60 364.15 706.99 369.20 704.68 C 375.48 701.80 386.83 695.88 393.63 691.46 C 400.43 687.04 405.38 682.43 409.99 678.16 C 414.60 673.88 417.42 671.26 421.32 665.82 C 425.58 659.86 431.84 651.30 435.59 642.43 C 439.34 633.57 442.94 622.76 443.80 612.64 C 444.66 602.52 442.96 590.80 440.76 581.73 C 438.55 572.66 433.83 564.22 430.59 558.23 C 427.64 552.79 425.47 550.44 421.32 545.85 C 414.83 538.67 403.74 527.23 391.67 515.17 C 360.55 484.06 264.00 387.05 234.63 359.21 C 228.19 353.10 220.55 350.62 215.43 348.07 C 211.05 345.89 208.67 344.96 203.93 343.92 C 199.19 342.88 193.37 341.83 187.00 341.83 C 180.63 341.83 172.19 342.54 165.73 343.92 C 159.27 345.29 153.02 348.03 148.24 350.08 C 143.54 352.09 141.26 353.34 137.04 356.21 C 132.31 359.42 124.75 364.80 119.85 369.35 C 114.96 373.90 110.23 380.89 107.67 383.50 C 106.69 384.50 104.82 384.85 104.50 385.00 C 104.18 384.63 101.58 381.70 101.26 381.33 C 101.56 380.88 102.93 378.50 104.35 376.85 C 106.78 374.02 110.73 368.81 115.85 364.35 C 121.17 359.72 127.97 353.64 136.24 349.08 C 144.51 344.52 156.62 339.36 165.47 336.99 C 174.32 334.62 181.37 334.35 189.32 334.85 C 197.28 335.35 204.98 336.76 213.20 339.99 C 221.41 343.21 230.11 346.25 238.63 354.21 C 269.24 382.76 365.55 480.06 396.83 511.33 C 408.84 523.33 419.36 533.87 426.32 541.85 C 431.91 548.27 435.02 552.59 438.59 559.23 C 442.17 565.88 445.72 572.88 447.76 581.73 C 449.79 590.58 451.17 603.58 450.82 612.32 C 450.48 621.07 448.25 626.81 445.69 634.20 C 443.13 641.58 440.44 648.78 435.46 656.63 C 430.49 664.49 422.67 674.34 415.83 681.33 C 408.99 688.33 402.20 693.53 394.43 698.59 C 386.66 703.65 375.61 708.82 369.20 711.68 C 364.13 713.94 361.36 714.59 355.93 715.75 C 350.45 716.91 339.63 718.17 336.33 718.66 C 336.25 718.67 336.22 718.73 336.13 718.73 Z"/>
    <path d="M 468.13 774.73 C 463.25 774.58 447.43 774.45 439.03 773.79 C 430.63 773.13 421.84 771.58 417.73 770.75 C 416.21 770.44 414.96 769.89 414.38 768.78 C 413.81 767.68 414.03 765.07 414.29 764.10 C 414.50 763.32 415.15 762.89 415.96 762.96 C 422.80 763.58 445.23 767.18 455.34 767.81 C 463.85 768.35 469.00 767.65 476.64 766.79 C 484.28 765.93 491.59 765.31 501.20 762.68 C 511.66 759.81 525.89 755.27 539.43 749.59 C 552.97 743.90 570.73 735.11 582.43 728.59 C 593.85 722.22 599.54 718.03 609.63 710.46 C 619.72 702.89 631.71 693.60 642.99 683.16 C 654.27 672.72 668.74 657.41 677.32 647.82 C 684.80 639.46 688.05 634.84 694.46 625.63 C 701.01 616.24 710.24 602.63 716.59 591.43 C 722.94 580.23 728.57 567.47 732.59 558.43 C 736.28 550.13 738.16 545.12 740.69 537.20 C 743.21 529.28 745.90 519.36 747.76 510.93 C 749.61 502.51 750.95 494.68 751.80 486.64 C 752.64 478.60 753.00 472.15 752.83 462.67 C 752.66 453.18 752.11 439.43 750.76 429.73 C 749.40 420.03 747.05 412.22 744.69 404.47 C 742.33 396.72 740.59 391.40 736.59 383.23 C 732.55 374.99 725.79 363.04 720.46 355.03 C 715.14 347.02 710.81 341.64 704.67 335.17 C 698.53 328.69 691.00 321.89 683.63 316.21 C 676.26 310.52 667.67 305.11 660.43 301.08 C 653.19 297.04 648.67 294.62 640.20 291.99 C 631.51 289.28 617.30 286.04 608.32 284.85 C 599.61 283.70 593.44 284.34 586.34 284.85 C 579.24 285.36 572.42 286.38 565.73 287.92 C 559.05 289.46 553.32 291.06 546.24 294.08 C 539.16 297.11 531.06 300.95 523.24 306.08 C 515.42 311.20 508.08 316.40 499.33 324.83 C 479.79 343.68 421.90 403.41 405.99 419.16 C 405.38 419.76 404.50 419.87 403.85 419.31 C 403.07 418.64 401.55 415.52 401.29 415.10 C 410.69 405.57 475.18 339.17 495.33 319.83 C 505.14 310.42 512.88 304.89 522.24 299.08 C 531.59 293.27 542.67 288.35 551.47 284.99 C 560.27 281.62 565.50 280.06 575.03 278.88 C 584.56 277.69 597.28 276.69 608.64 277.88 C 620.00 279.06 633.23 282.62 643.20 285.99 C 653.16 289.35 658.97 292.09 668.43 298.08 C 678.12 304.22 692.16 314.51 701.33 322.83 C 710.50 331.16 716.42 337.97 723.46 348.03 C 730.51 358.10 738.21 371.28 743.59 383.23 C 748.97 395.18 753.22 410.77 755.76 419.73 C 757.67 426.49 758.13 430.03 758.80 437.03 C 759.48 444.18 760.16 452.41 759.83 462.67 C 759.49 473.32 758.78 488.51 756.76 500.93 C 754.73 513.36 751.21 526.12 747.69 537.20 C 744.16 548.28 739.94 557.73 735.59 567.43 C 731.24 577.14 727.61 585.07 721.59 595.43 C 715.57 605.80 707.20 618.87 699.46 629.63 C 691.73 640.39 685.44 648.88 675.16 659.99 C 664.89 671.11 651.24 684.90 637.81 696.31 C 624.39 707.73 608.36 719.58 594.63 728.46 C 580.90 737.34 569.83 743.05 555.43 749.59 C 541.02 756.12 522.71 763.50 508.20 767.68 C 493.68 771.86 475.01 773.49 468.33 774.66 C 468.25 774.68 468.22 774.73 468.13 774.73 Z"/>
    <path d="M 754.14 374.71 C 753.23 374.20 749.40 371.95 748.87 371.64 C 749.16 369.94 751.21 361.52 751.80 354.64 C 752.46 346.92 752.99 333.83 752.82 325.34 C 752.65 316.86 752.10 312.00 750.76 303.73 C 749.41 295.46 747.10 284.61 744.76 275.73 C 742.41 266.85 739.88 259.05 736.69 250.47 C 733.49 241.88 730.27 233.77 725.59 224.24 C 720.91 214.70 715.61 204.43 708.59 193.23 C 701.57 182.03 692.54 168.46 683.46 157.03 C 674.39 145.61 665.97 135.81 654.16 124.67 C 642.36 113.53 626.09 100.14 612.63 90.21 C 599.17 80.27 587.50 72.78 573.43 65.08 C 559.36 57.37 541.73 49.33 528.20 43.99 C 514.66 38.64 503.62 35.67 492.20 32.99 C 480.77 30.30 469.61 28.73 459.64 27.88 C 449.66 27.02 441.49 27.18 432.34 27.85 C 423.19 28.53 414.92 29.38 404.73 31.92 C 394.55 34.46 381.35 38.70 371.24 43.08 C 361.12 47.46 352.97 51.80 344.04 58.21 C 335.11 64.61 325.48 73.37 317.67 81.50 C 309.86 89.64 302.48 99.04 297.20 107.03 C 291.92 115.03 289.36 120.52 285.98 129.47 C 282.60 138.42 278.60 150.54 276.91 160.73 C 275.23 170.93 275.20 180.27 275.87 190.64 C 276.54 201.01 279.04 214.64 280.91 222.93 C 282.54 230.17 283.82 233.76 287.08 240.43 C 290.79 248.05 295.22 258.38 303.20 268.63 C 312.10 280.07 336.74 304.99 340.46 309.03 C 340.05 309.47 336.75 312.97 336.33 313.41 C 333.33 310.35 313.37 290.61 306.35 282.82 C 300.93 276.80 298.41 273.20 294.20 266.63 C 289.99 260.07 284.79 252.22 281.08 243.43 C 277.36 234.65 273.95 222.79 271.91 213.93 C 269.87 205.08 269.18 199.19 268.85 190.32 C 268.51 181.46 268.22 170.87 269.91 160.73 C 271.60 150.59 275.29 139.05 278.98 129.47 C 282.67 119.88 288.35 109.84 292.07 103.23 C 295.28 97.56 297.10 94.78 301.35 89.85 C 306.70 83.64 316.68 72.79 324.17 66.00 C 331.65 59.20 336.85 54.75 346.24 49.08 C 355.62 43.41 367.89 36.51 380.47 31.99 C 393.05 27.46 408.59 23.77 421.73 21.92 C 434.88 20.06 447.62 20.19 459.32 20.85 C 471.02 21.52 480.45 23.23 491.93 25.92 C 503.41 28.61 514.11 31.36 528.20 36.99 C 542.45 42.68 562.69 52.04 577.43 60.08 C 592.17 68.11 603.12 75.22 616.63 85.21 C 630.14 95.19 646.53 108.69 658.50 120.00 C 670.47 131.30 679.80 142.36 688.46 153.03 C 697.13 163.71 704.94 175.67 710.46 184.03 C 715.35 191.44 717.62 195.29 721.59 203.23 C 727.13 214.31 737.99 235.72 743.69 250.47 C 749.38 265.22 753.24 281.64 755.76 291.73 C 757.65 299.31 758.15 303.24 758.80 311.03 C 759.48 319.24 760.00 332.51 759.83 341.00 C 759.66 349.41 758.67 356.33 757.76 361.93 C 756.91 367.13 754.93 372.53 754.33 374.65 C 754.31 374.73 754.21 374.74 754.14 374.71 Z"/>
    <path d="M 203.13 516.73 C 196.20 516.57 174.38 517.77 161.73 515.75 C 149.09 513.72 135.65 507.78 127.24 504.59 C 120.55 502.05 117.30 500.30 111.24 496.59 C 105.17 492.88 98.45 488.74 90.85 482.31 C 83.12 475.77 70.61 463.28 64.83 457.33 C 61.00 453.39 59.34 451.15 56.20 446.63 C 52.74 441.65 47.76 434.13 44.07 427.43 C 40.39 420.73 37.26 414.31 34.08 406.43 C 30.89 398.56 27.01 387.33 24.98 380.20 C 23.13 373.72 22.67 370.33 21.87 363.64 C 21.01 356.50 19.83 346.94 19.83 337.33 C 19.83 327.73 19.78 318.40 21.87 306.03 C 24.06 293.05 29.11 272.27 32.98 259.47 C 36.75 247.00 40.89 238.61 45.08 229.23 C 49.26 219.86 53.22 211.93 58.07 203.23 C 62.93 194.53 68.68 185.23 74.20 177.03 C 79.72 168.83 83.86 162.81 91.20 154.03 C 98.92 144.81 108.20 133.31 120.50 121.67 C 132.81 110.03 154.41 92.64 165.04 84.21 C 172.32 78.42 176.29 75.91 184.24 71.08 C 192.77 65.89 203.37 59.26 216.24 53.08 C 229.11 46.90 249.89 38.35 261.47 33.99 C 270.93 30.43 277.14 28.94 285.73 26.92 C 294.33 24.90 301.95 22.58 313.03 21.88 C 325.94 21.05 358.18 21.98 363.20 21.99 C 363.32 22.52 364.46 26.20 364.41 27.33 C 364.38 28.15 363.75 28.72 362.93 28.75 C 354.37 29.01 325.89 28.01 313.03 28.88 C 301.95 29.62 294.33 31.90 285.73 33.92 C 277.14 35.94 271.01 37.64 261.47 40.99 C 251.89 44.35 237.94 49.73 228.24 54.08 C 218.53 58.43 212.84 61.18 203.24 67.08 C 191.54 74.26 171.16 87.27 158.04 97.21 C 144.92 107.14 136.32 114.54 124.51 126.68 C 112.70 138.81 97.44 156.61 87.20 170.03 C 76.96 183.46 70.94 192.33 63.07 207.23 C 55.20 222.14 45.67 243.05 39.98 259.47 C 34.29 275.88 31.10 293.59 28.91 305.73 C 27.02 316.24 26.85 322.69 26.85 332.34 C 26.84 341.99 28.01 355.66 28.87 363.64 C 29.59 370.34 30.01 373.75 31.98 380.20 C 34.51 388.50 39.21 403.03 44.08 413.43 C 48.95 423.84 54.02 433.09 61.20 442.63 C 68.38 452.17 80.69 464.20 87.17 470.67 C 91.92 475.42 94.46 477.71 100.04 481.46 C 106.72 485.95 118.33 493.38 127.24 497.59 C 136.14 501.79 146.29 504.64 153.47 506.68 C 160.07 508.55 163.49 509.38 170.34 509.81 C 178.54 510.33 193.16 510.81 202.64 509.79 C 212.11 508.77 219.40 506.38 227.20 503.68 C 234.99 500.98 241.32 498.32 249.43 493.59 C 257.53 488.86 266.60 482.99 275.81 475.31 C 285.02 467.64 301.80 450.29 304.69 447.51 C 305.15 447.85 308.83 450.55 309.29 450.88 C 306.34 453.83 287.96 473.03 279.81 480.31 C 272.64 486.74 267.86 490.03 260.43 494.59 C 252.99 499.15 244.71 504.00 235.20 507.68 C 225.68 511.36 208.67 515.15 203.33 516.66 C 203.25 516.68 203.22 516.73 203.13 516.73 Z"/>
    <path d="M 466.13 756.73 C 461.16 756.40 441.93 755.34 436.47 754.68 C 435.03 754.51 433.91 753.88 433.38 752.78 C 432.85 751.69 433.03 749.07 433.29 748.10 C 433.50 747.32 434.15 746.89 434.96 746.96 C 436.25 747.08 438.50 748.55 441.03 748.79 C 446.03 749.27 457.01 750.17 465.00 749.83 C 472.98 749.49 479.52 748.87 488.93 746.75 C 498.63 744.56 513.78 739.87 523.20 736.68 C 532.29 733.59 536.80 731.81 545.43 727.58 C 554.63 723.07 568.73 715.44 578.43 709.59 C 588.13 703.74 594.37 699.53 603.63 692.46 C 612.89 685.39 624.88 675.43 633.99 667.16 C 643.10 658.88 650.91 651.07 658.32 642.82 C 665.73 634.56 672.09 626.36 678.46 617.63 C 684.84 608.90 690.91 600.13 696.59 590.43 C 702.28 580.73 707.91 569.81 712.59 559.43 C 717.27 549.06 721.66 537.12 724.69 528.20 C 727.66 519.46 729.07 514.19 730.76 505.93 C 732.44 497.67 734.12 487.91 734.80 478.64 C 735.48 469.37 735.16 458.49 734.82 450.34 C 734.48 442.19 734.41 437.85 732.76 429.73 C 731.07 421.42 727.55 408.72 724.69 400.47 C 721.83 392.22 719.46 387.31 715.59 380.23 C 711.72 373.16 707.31 365.41 701.46 358.03 C 695.62 350.66 687.51 342.16 680.50 336.00 C 673.49 329.84 665.77 325.06 659.43 321.08 C 653.08 317.09 648.51 314.61 642.43 312.08 C 636.35 309.56 629.23 307.46 622.93 305.92 C 616.64 304.38 610.48 303.34 604.67 302.84 C 598.85 302.33 594.18 302.36 588.03 302.88 C 581.87 303.39 575.57 303.46 567.73 305.92 C 559.07 308.64 543.52 315.47 536.04 319.21 C 530.30 322.08 527.75 324.20 522.85 328.35 C 516.26 333.93 506.70 342.58 496.50 352.67 C 479.06 369.94 425.99 424.06 418.16 431.99 C 417.68 431.58 413.84 428.28 413.37 427.87 C 423.20 418.03 490.70 349.14 511.68 329.51 C 521.53 320.29 531.11 314.83 539.24 310.08 C 547.21 305.42 552.29 303.36 560.47 300.99 C 568.65 298.62 579.43 296.53 588.34 295.85 C 597.25 295.17 604.96 295.40 613.93 296.92 C 622.91 298.44 631.91 300.44 642.20 304.99 C 652.48 309.53 665.61 316.90 675.63 324.21 C 685.65 331.52 694.49 339.68 702.32 348.85 C 710.15 358.02 717.03 368.63 722.59 379.23 C 728.15 389.84 732.83 404.05 735.69 412.47 C 737.97 419.18 738.73 423.42 739.76 429.73 C 740.78 436.04 741.68 442.06 741.82 450.34 C 741.99 460.49 741.99 479.33 740.80 490.64 C 739.62 501.87 737.71 507.94 734.69 518.20 C 731.67 528.46 727.54 540.66 722.69 552.20 C 717.84 563.74 712.13 575.86 705.59 587.43 C 699.06 599.00 690.62 611.62 683.46 621.63 C 676.31 631.65 670.25 639.08 662.67 647.50 C 655.09 655.92 647.13 663.86 637.99 672.16 C 628.85 680.46 619.07 689.08 607.81 697.31 C 596.55 705.55 583.16 714.38 570.43 721.59 C 557.70 728.80 545.01 735.23 531.43 740.59 C 517.85 745.94 499.78 751.07 488.93 753.75 C 480.08 755.93 470.13 756.17 466.33 756.66 C 466.25 756.67 466.22 756.73 466.13 756.73 Z"/>
    <path d="M 466.13 736.73 C 464.75 736.69 458.85 736.49 458.04 736.46 C 458.05 735.92 458.19 731.57 458.20 731.03 C 460.58 730.70 472.60 729.94 481.93 727.75 C 492.10 725.36 505.11 722.37 519.20 716.68 C 533.28 710.99 551.99 702.15 566.43 693.59 C 580.86 685.03 592.50 676.61 605.81 665.31 C 619.13 654.02 636.71 635.93 646.32 625.82 C 653.83 617.91 657.92 612.36 663.46 604.63 C 669.01 596.90 674.24 588.80 679.59 579.43 C 684.95 570.07 691.41 557.30 695.59 548.43 C 699.69 539.74 701.96 535.41 704.69 526.20 C 707.89 515.40 713.11 497.50 714.80 483.64 C 716.48 469.78 715.82 454.56 714.80 443.03 C 713.78 431.50 710.72 421.93 708.69 414.47 C 706.86 407.77 705.98 404.28 702.59 398.23 C 697.86 389.80 686.81 372.19 680.32 363.85 C 674.70 356.63 670.11 353.17 663.63 348.21 C 657.15 343.25 647.50 337.45 641.43 334.08 C 636.01 331.08 632.88 329.70 627.20 327.99 C 621.51 326.28 614.19 324.52 607.33 323.83 C 600.47 323.15 592.67 323.18 586.03 323.88 C 579.38 324.57 574.51 325.12 567.47 327.99 C 559.14 331.38 544.75 338.37 536.04 344.21 C 527.32 350.04 523.15 355.10 515.17 363.00 C 498.02 379.96 447.52 432.42 433.16 446.00 C 431.88 447.21 429.88 445.09 429.04 444.46 C 428.26 443.88 428.18 442.45 428.08 442.23 C 436.44 433.76 494.35 374.68 511.68 357.51 C 519.46 349.80 525.94 343.94 532.04 339.21 C 538.07 334.51 542.33 332.11 548.24 329.08 C 554.14 326.04 561.12 323.02 567.47 320.99 C 573.82 318.95 579.43 317.53 586.34 316.85 C 593.25 316.17 600.42 315.55 608.93 316.92 C 617.45 318.29 628.31 321.20 637.43 325.08 C 646.54 328.96 655.65 334.41 663.63 340.21 C 671.61 346.00 679.16 353.01 685.32 359.85 C 691.48 366.69 695.53 372.13 700.59 381.23 C 705.65 390.34 712.15 404.17 715.69 414.47 C 719.22 424.77 720.61 433.00 721.80 443.03 C 722.98 453.06 723.48 464.28 722.80 474.64 C 722.11 485.00 720.56 494.07 717.69 505.20 C 714.82 516.33 710.11 530.06 705.59 541.43 C 701.07 552.81 697.28 561.57 690.59 573.43 C 683.91 585.30 673.45 601.62 665.46 612.63 C 657.48 623.65 652.55 629.45 642.67 639.50 C 632.39 649.95 615.85 665.47 603.81 675.31 C 591.77 685.16 581.66 691.71 570.43 698.59 C 559.20 705.47 547.97 711.40 536.43 716.59 C 524.89 721.77 512.88 726.33 501.20 729.68 C 489.51 733.03 472.17 735.49 466.33 736.66 C 466.25 736.68 466.22 736.73 466.13 736.73 Z"/>
    <path d="M 740.50 347.44 C 739.54 347.20 735.47 346.09 734.91 345.94 C 734.69 341.82 735.13 319.31 732.76 304.73 C 730.39 290.15 726.05 273.55 720.69 258.47 C 715.33 243.38 706.30 225.47 700.59 214.23 C 695.68 204.55 692.77 199.88 686.46 191.03 C 679.42 181.14 668.26 166.13 658.32 154.85 C 648.38 143.57 636.26 131.96 626.81 123.35 C 617.37 114.74 609.33 108.90 601.63 103.21 C 593.93 97.51 589.33 94.33 580.63 89.21 C 571.26 83.69 556.33 75.29 545.43 70.08 C 534.52 64.88 525.61 61.51 515.20 57.99 C 504.78 54.46 493.41 51.11 482.93 48.92 C 472.45 46.73 461.31 45.53 452.32 44.85 C 443.34 44.18 437.84 43.85 429.03 44.88 C 420.22 45.90 409.77 47.79 399.47 50.99 C 389.17 54.19 377.68 58.35 367.24 64.08 C 356.80 69.81 344.00 79.56 336.85 85.35 C 331.14 89.99 328.69 92.91 324.35 98.85 C 318.89 106.33 308.14 123.13 304.08 130.24 C 301.70 134.39 301.09 136.82 299.98 141.47 C 298.28 148.60 294.89 164.00 293.87 173.03 C 292.85 182.01 293.02 187.61 293.87 195.64 C 294.72 203.67 296.95 213.90 298.98 221.20 C 301.01 228.50 302.27 232.59 306.07 239.43 C 310.30 247.04 316.50 257.28 324.35 266.82 C 332.20 276.36 350.27 293.70 353.15 296.68 C 352.86 297.18 350.50 301.16 350.20 301.66 C 347.83 299.39 332.84 285.66 326.51 278.99 C 320.31 272.47 316.61 267.89 312.20 261.63 C 307.80 255.37 303.44 248.17 300.07 241.43 C 296.70 234.69 294.18 228.83 291.98 221.20 C 289.78 213.57 287.72 203.62 286.87 195.64 C 286.01 187.66 286.17 181.16 286.85 173.34 C 287.52 165.52 289.21 155.92 290.91 148.73 C 292.62 141.55 293.54 137.18 297.08 130.23 C 301.29 121.95 310.24 107.35 316.20 99.03 C 322.04 90.90 325.22 86.83 332.85 80.35 C 340.69 73.69 352.14 65.14 363.24 59.08 C 374.34 53.02 388.51 47.52 399.47 43.99 C 410.44 40.45 418.00 38.73 429.03 37.88 C 440.06 37.02 453.94 37.52 465.64 38.88 C 477.33 40.23 486.07 42.00 499.20 45.99 C 512.49 50.02 531.19 56.71 545.43 63.08 C 559.67 69.45 574.60 78.35 584.63 84.21 C 593.35 89.29 597.93 92.51 605.63 98.21 C 613.33 103.90 621.29 109.66 630.81 118.35 C 640.43 127.13 653.21 139.40 663.32 150.85 C 673.43 162.30 683.09 174.64 691.46 187.03 C 699.84 199.43 706.89 211.33 713.59 225.23 C 720.29 239.14 727.15 255.83 731.69 270.47 C 736.22 285.10 739.30 300.21 740.80 313.03 C 742.30 325.85 740.69 343.95 740.68 347.38 C 740.66 347.39 740.57 347.46 740.50 347.44 Z"/>
    <path d="M 196.13 498.73 C 192.30 498.75 179.91 499.31 173.34 498.81 C 166.78 498.32 163.24 497.56 156.73 495.75 C 150.09 493.89 139.72 490.21 133.47 487.68 C 127.57 485.30 124.60 484.00 119.24 480.59 C 112.69 476.42 101.65 469.13 94.17 462.67 C 86.68 456.21 79.70 448.19 74.35 441.82 C 69.00 435.45 65.62 430.16 62.07 424.43 C 58.53 418.70 55.93 413.81 53.08 407.43 C 50.23 401.06 47.33 394.98 44.98 386.20 C 42.44 376.73 39.06 360.78 37.87 350.64 C 36.69 340.59 37.35 333.44 37.85 325.34 C 38.35 317.24 39.03 311.25 40.87 302.03 C 42.89 291.88 44.80 279.03 49.98 264.47 C 55.18 249.83 64.70 228.47 72.07 214.23 C 79.44 200.00 85.10 191.32 94.20 179.03 C 103.30 166.74 115.06 152.62 126.67 140.50 C 138.28 128.39 149.42 117.42 163.85 106.35 C 178.28 95.28 197.64 82.81 213.24 74.08 C 228.84 65.35 244.55 59.01 257.47 53.99 C 270.39 48.96 281.64 46.27 290.73 43.92 C 299.13 41.75 304.45 40.86 312.03 39.88 C 319.60 38.89 331.97 38.08 336.20 37.99 C 336.92 37.97 337.41 38.61 337.41 39.34 C 337.41 40.45 336.32 44.15 336.20 44.68 C 331.65 45.30 303.86 48.20 290.73 50.92 C 277.61 53.64 266.22 57.96 257.47 60.99 C 249.58 63.72 245.76 65.46 238.24 69.08 C 229.20 73.43 214.97 80.03 203.24 87.08 C 191.51 94.12 179.78 101.78 167.85 111.35 C 155.92 120.92 143.11 132.56 131.67 144.50 C 120.23 156.45 108.63 170.08 99.20 183.03 C 89.77 195.99 82.11 208.66 75.08 222.24 C 68.04 235.81 61.51 251.22 56.98 264.47 C 52.45 277.72 49.93 291.59 47.91 301.73 C 46.05 311.07 45.35 317.19 44.85 325.34 C 44.34 333.49 44.01 341.66 44.87 350.64 C 45.72 359.62 47.44 369.73 49.98 379.20 C 52.51 388.67 55.87 398.53 60.08 407.43 C 64.28 416.34 68.80 424.21 75.20 432.63 C 81.61 441.06 91.87 451.69 98.50 458.00 C 104.51 463.70 108.42 466.36 115.04 470.46 C 121.66 474.56 131.29 479.54 138.24 482.59 C 145.19 485.63 150.88 487.21 156.73 488.75 C 162.59 490.29 166.59 491.53 173.34 491.81 C 181.21 492.15 195.29 491.94 203.93 490.75 C 212.57 489.56 218.78 487.04 225.20 484.68 C 231.61 482.32 235.93 480.55 242.43 476.59 C 249.36 472.36 258.94 465.83 266.81 459.31 C 274.69 452.80 287.40 439.69 289.69 437.51 C 290.15 437.85 293.83 440.55 294.29 440.88 C 291.94 443.23 278.79 457.53 270.81 464.31 C 262.84 471.10 254.03 477.03 246.43 481.59 C 238.82 486.15 233.55 488.83 225.20 491.68 C 216.85 494.53 201.17 497.49 196.33 498.66 C 196.25 498.68 196.22 498.73 196.13 498.73 Z"/>
    <path d="M 478.13 716.73 C 477.59 716.52 475.78 716.27 475.08 715.43 C 474.38 714.59 473.92 712.60 473.95 711.70 C 473.97 710.88 474.44 710.30 475.24 710.08 C 479.62 708.91 491.83 707.26 500.20 704.68 C 508.56 702.10 517.22 698.27 525.43 694.59 C 533.63 690.90 540.89 687.44 549.43 682.59 C 557.96 677.74 567.67 671.89 576.63 665.46 C 585.59 659.03 593.28 653.42 603.16 644.00 C 613.97 633.69 630.39 617.56 641.46 603.63 C 652.54 589.71 662.06 573.84 669.59 560.43 C 677.13 547.03 682.15 536.00 686.69 523.20 C 691.22 510.40 695.11 497.34 696.80 483.64 C 698.48 469.94 697.65 451.89 696.80 441.03 C 696.07 431.80 693.72 425.27 691.69 418.47 C 689.65 411.67 687.80 406.31 684.59 400.23 C 681.39 394.16 676.40 387.15 672.46 382.03 C 668.53 376.91 665.83 373.84 660.99 369.51 C 656.15 365.18 649.73 360.00 643.43 356.08 C 637.13 352.16 628.99 348.19 623.20 345.99 C 617.63 343.87 614.11 343.57 608.64 342.88 C 603.16 342.19 595.70 341.67 590.34 341.85 C 584.98 342.04 581.45 342.63 576.47 343.99 C 571.49 345.34 566.21 346.95 560.47 349.99 C 554.73 353.02 548.47 356.13 542.04 362.21 C 523.15 380.04 456.65 447.52 447.16 457.00 C 446.65 456.65 442.51 453.81 441.99 453.46 C 450.23 445.09 508.36 385.85 524.33 369.83 C 529.53 364.62 533.37 360.98 537.85 357.35 C 542.34 353.73 545.80 351.14 551.24 348.08 C 556.68 345.02 564.01 341.19 570.47 338.99 C 576.94 336.79 583.67 335.39 590.03 334.88 C 596.39 334.36 603.11 335.19 608.64 335.88 C 614.17 336.56 617.65 336.81 623.20 338.99 C 629.66 341.52 640.21 346.58 647.43 351.08 C 654.65 355.58 660.16 359.67 666.50 366.00 C 672.84 372.32 680.43 381.29 685.46 389.03 C 690.50 396.78 693.63 403.80 696.69 412.47 C 699.74 421.13 702.44 431.44 703.80 441.03 C 705.16 450.62 705.34 460.35 704.83 470.00 C 704.32 479.65 702.61 490.07 700.76 498.93 C 698.90 507.80 697.44 513.81 693.69 523.20 C 689.33 534.12 680.63 552.86 674.59 564.43 C 668.56 576.00 664.01 583.24 657.46 592.63 C 650.92 602.03 643.73 611.40 635.32 620.82 C 626.91 630.24 616.10 640.88 606.99 649.16 C 597.88 657.43 591.39 663.06 580.63 670.46 C 569.87 677.87 554.83 687.05 542.43 693.59 C 530.02 700.13 516.88 705.83 506.20 709.68 C 495.51 713.53 483.01 715.49 478.33 716.66 C 478.25 716.68 478.21 716.75 478.13 716.73 Z"/>
    <path d="M 721.50 324.44 C 720.70 324.42 717.97 324.82 716.88 324.28 C 715.80 323.74 715.30 322.61 714.98 321.20 C 713.28 313.73 710.25 292.13 706.69 279.47 C 703.12 266.81 698.27 255.77 693.59 245.23 C 688.91 234.69 685.50 227.32 678.59 216.23 C 671.38 204.67 661.19 188.92 650.32 175.85 C 639.44 162.78 622.45 146.61 613.33 137.83 C 606.71 131.46 603.11 128.54 595.63 123.21 C 586.81 116.91 572.29 106.93 560.43 100.08 C 548.56 93.22 535.30 86.76 524.43 82.08 C 513.56 77.40 505.16 74.69 495.20 71.99 C 485.23 69.29 472.23 67.07 464.64 65.88 C 458.71 64.95 455.67 64.71 449.67 64.84 C 441.85 65.01 426.27 65.73 417.73 66.92 C 409.84 68.02 405.22 69.63 398.47 71.99 C 391.72 74.35 383.84 77.52 377.24 81.08 C 370.64 84.64 365.03 88.36 358.85 93.35 C 352.68 98.34 345.16 105.55 340.20 111.03 C 335.24 116.51 332.11 121.16 329.08 126.24 C 326.04 131.31 324.11 135.09 321.98 141.47 C 319.62 148.55 316.26 160.87 314.91 168.73 C 313.56 176.59 313.36 181.23 313.87 188.64 C 314.38 196.05 316.11 206.07 317.98 213.20 C 319.85 220.33 321.16 224.66 325.07 231.43 C 329.47 239.04 337.28 250.55 344.35 258.82 C 351.41 267.08 365.15 278.81 367.46 281.03 C 367.07 281.46 363.96 284.94 363.57 285.37 C 361.18 283.15 345.56 269.29 339.67 263.16 C 334.53 257.83 331.97 254.26 328.20 248.63 C 324.44 243.01 319.95 235.34 317.08 229.43 C 314.21 223.53 312.38 219.99 310.98 213.20 C 309.28 204.97 306.88 189.77 306.87 180.03 C 306.86 170.28 309.04 162.36 310.91 154.73 C 312.78 147.10 315.88 139.65 318.08 134.23 C 320.09 129.26 321.21 126.77 324.07 122.23 C 326.95 117.67 330.21 112.49 335.35 106.85 C 340.51 101.18 349.89 92.67 355.04 88.21 C 359.22 84.58 361.49 82.93 366.24 80.08 C 371.27 77.06 377.24 73.21 385.24 70.08 C 393.82 66.72 406.55 61.96 417.73 59.92 C 428.92 57.88 443.30 57.83 452.33 57.83 C 460.22 57.83 464.21 58.33 471.93 59.92 C 481.74 61.94 500.61 66.63 511.20 69.99 C 521.20 73.16 526.56 75.90 535.43 80.08 C 544.30 84.26 553.70 88.70 564.43 95.08 C 575.16 101.46 591.05 112.11 599.81 118.35 C 607.07 123.52 610.49 126.43 616.99 132.51 C 624.80 139.81 639.09 154.08 646.67 162.17 C 653.40 169.35 656.62 173.11 662.46 181.03 C 668.62 189.38 676.72 200.50 683.59 212.23 C 690.46 223.97 698.67 240.26 703.69 251.47 C 708.55 262.32 711.18 271.42 713.69 279.47 C 716.18 287.44 717.25 292.53 718.76 299.73 C 720.26 306.94 722.23 318.60 722.72 322.71 C 722.81 323.49 721.89 324.09 721.68 324.38 C 721.64 324.45 721.57 324.44 721.50 324.44 Z"/>
    <path d="M 194.13 477.73 C 189.03 477.41 173.88 477.94 163.73 475.75 C 153.59 473.56 140.85 467.97 133.24 464.59 C 126.76 461.71 123.33 459.23 118.04 455.46 C 112.75 451.70 106.14 446.30 101.50 442.00 C 96.87 437.69 93.92 434.36 90.20 429.63 C 86.48 424.91 82.85 420.49 79.20 413.63 C 75.00 405.73 68.53 393.37 64.98 382.20 C 61.42 371.03 58.89 357.84 57.87 346.64 C 56.85 335.44 57.52 326.06 58.87 315.03 C 60.22 304.00 63.63 289.73 65.98 280.47 C 68.16 271.88 69.80 267.51 72.98 259.47 C 76.16 251.43 79.87 242.14 85.08 232.23 C 90.28 222.33 95.56 212.27 104.20 200.03 C 113.08 187.47 129.10 167.44 138.35 156.85 C 146.10 147.97 151.40 143.78 159.68 136.51 C 167.96 129.24 178.94 119.94 188.04 113.21 C 197.13 106.47 205.87 101.10 214.24 96.08 C 222.61 91.06 229.53 87.26 238.24 83.08 C 246.94 78.90 254.82 74.87 266.47 70.99 C 278.86 66.86 307.96 59.56 312.57 58.29 C 312.65 58.82 313.57 62.35 313.38 63.57 C 313.20 64.67 312.50 65.25 311.43 65.58 C 303.61 67.99 280.84 72.74 266.47 77.99 C 252.11 83.24 237.64 90.37 225.24 97.08 C 212.83 103.78 202.30 110.80 192.04 118.21 C 181.78 125.61 171.29 134.90 163.68 141.51 C 156.48 147.75 152.65 150.70 146.35 157.85 C 137.60 167.77 120.91 187.14 111.20 201.03 C 101.49 214.93 94.45 227.99 88.08 241.23 C 81.71 254.47 76.67 268.22 72.98 280.47 C 69.29 292.72 67.27 306.53 65.91 314.73 C 64.93 320.64 64.84 323.68 64.84 329.67 C 64.83 336.32 64.68 345.88 65.87 354.64 C 67.06 363.40 69.45 373.90 71.98 382.20 C 74.51 390.50 77.70 397.86 81.07 404.43 C 84.44 411.00 88.16 416.23 92.20 421.63 C 96.25 427.03 100.36 432.03 105.33 436.83 C 110.31 441.64 114.68 445.96 122.04 450.46 C 129.89 455.27 144.47 462.46 152.47 465.68 C 159.16 468.37 163.12 468.95 170.03 469.79 C 176.94 470.64 186.24 471.43 193.93 470.75 C 201.63 470.06 209.11 468.04 216.20 465.68 C 223.28 463.32 230.32 460.15 236.43 456.59 C 242.53 453.03 246.62 449.67 252.81 444.31 C 259.25 438.75 270.81 426.92 275.04 423.21 C 276.06 422.31 277.00 421.73 278.21 422.01 C 279.41 422.29 281.88 424.60 282.29 424.88 C 279.74 427.33 264.29 442.86 256.81 449.31 C 249.52 455.61 244.70 459.53 237.43 463.59 C 230.16 467.65 220.38 471.33 213.20 473.68 C 206.01 476.03 197.51 476.99 194.33 477.66 C 194.25 477.68 194.22 477.73 194.13 477.73 Z"/>
    <path d="M 696.13 301.73 C 695.59 301.52 693.54 301.68 693.08 300.43 C 690.34 293.05 684.43 269.67 679.69 257.47 C 674.94 245.27 670.13 236.81 664.59 227.23 C 659.06 217.66 653.34 209.26 646.46 200.03 C 639.59 190.80 629.93 179.30 623.32 171.85 C 617.12 164.87 613.80 161.55 606.81 155.35 C 599.37 148.74 588.36 139.25 578.63 132.21 C 568.90 125.16 558.29 118.60 548.43 113.08 C 538.56 107.56 531.46 103.67 519.43 99.08 C 506.68 94.22 482.67 86.79 471.93 83.92 C 465.34 82.16 461.82 81.98 455.00 81.84 C 447.13 81.67 434.16 81.56 424.73 82.92 C 415.31 84.28 405.39 87.63 398.47 89.99 C 392.11 92.16 388.34 94.19 383.24 97.08 C 378.14 99.98 373.17 102.72 367.85 107.35 C 362.54 111.98 355.98 118.70 351.35 124.85 C 346.72 131.00 342.82 138.42 340.08 144.23 C 337.34 150.05 336.12 155.16 334.91 159.73 C 333.70 164.30 332.95 166.82 332.84 171.67 C 332.67 178.54 332.89 193.18 333.91 200.93 C 334.85 208.07 337.12 213.28 338.98 218.20 C 340.84 223.12 342.49 226.30 345.07 230.43 C 347.66 234.56 350.26 238.36 354.51 242.99 C 360.40 249.43 377.87 266.43 380.46 269.03 C 380.17 269.56 377.86 273.84 377.57 274.37 C 376.31 273.29 369.67 268.23 365.00 263.50 C 359.44 257.88 350.21 249.52 344.20 240.63 C 338.20 231.75 332.03 217.87 328.98 210.20 C 326.63 204.30 326.37 200.97 325.87 194.64 C 325.35 188.11 324.50 179.93 325.87 171.03 C 327.24 162.13 330.69 149.57 334.08 141.23 C 337.47 132.90 341.21 127.54 346.20 121.03 C 351.20 114.53 356.20 108.20 364.04 102.21 C 371.88 96.21 383.96 89.30 393.24 85.08 C 402.52 80.87 409.94 78.63 419.73 76.92 C 429.53 75.21 443.30 74.83 452.00 74.83 C 460.02 74.83 464.09 75.24 471.93 76.92 C 480.63 78.78 494.28 82.63 504.20 85.99 C 514.11 89.35 521.39 92.23 531.43 97.08 C 541.47 101.93 554.39 108.89 564.43 115.08 C 574.46 121.26 583.78 128.22 591.63 134.21 C 599.47 140.19 604.06 143.72 611.50 151.00 C 619.62 158.94 631.14 170.64 640.32 181.85 C 649.50 193.05 659.38 206.84 666.59 218.23 C 673.80 229.63 679.07 240.69 683.59 250.23 C 688.11 259.77 690.99 267.72 693.69 275.47 C 696.38 283.22 698.79 292.70 699.76 296.73 C 700.03 297.87 700.04 298.81 699.46 299.63 C 698.89 300.46 696.88 301.31 696.33 301.66 C 696.26 301.71 696.21 301.75 696.13 301.73 Z"/>
    <path d="M 195.13 458.73 C 191.37 458.74 181.54 460.40 172.73 458.75 C 163.75 457.06 149.88 452.49 141.24 448.59 C 132.59 444.68 127.69 441.14 120.85 435.31 C 114.01 429.49 106.16 421.61 100.20 413.63 C 94.24 405.65 88.28 393.51 85.08 387.43 C 83.02 383.53 82.16 381.45 80.98 377.20 C 79.62 372.28 77.66 365.78 76.91 357.93 C 76.06 348.96 75.18 334.04 75.85 323.34 C 76.51 312.64 78.37 303.92 80.91 293.73 C 83.45 283.55 86.22 273.82 91.08 262.23 C 95.94 250.65 102.89 236.43 110.07 224.23 C 117.26 212.03 126.38 199.21 134.20 189.03 C 142.02 178.85 148.39 171.78 157.00 163.17 C 165.61 154.55 175.65 145.53 185.85 137.35 C 196.06 129.17 205.34 121.79 218.24 114.08 C 231.14 106.37 251.08 96.43 263.24 91.08 C 274.00 86.35 288.40 82.90 291.19 81.99 C 291.45 82.36 293.47 85.33 293.72 85.70 C 293.49 85.99 292.79 88.03 291.43 88.58 C 286.34 90.65 274.12 93.28 263.24 98.08 C 251.67 103.19 234.27 111.83 222.04 119.21 C 209.81 126.58 199.91 134.30 189.85 142.35 C 179.79 150.40 170.11 159.06 161.67 167.50 C 153.23 175.95 146.97 182.91 139.20 193.03 C 131.44 203.15 121.93 216.70 115.08 228.24 C 108.22 239.77 102.60 251.32 98.08 262.23 C 93.55 273.15 90.45 283.60 87.91 293.73 C 85.38 303.86 83.72 314.93 82.87 323.03 C 82.07 330.71 82.66 336.52 82.83 342.33 C 83.01 348.15 83.05 352.12 83.91 357.93 C 84.77 363.75 85.95 370.95 87.98 377.20 C 90.01 383.45 93.20 390.03 96.07 395.43 C 98.94 400.84 100.78 404.53 105.20 409.63 C 110.70 415.97 123.03 428.14 129.04 433.46 C 133.43 437.35 136.17 439.05 141.24 441.58 C 146.31 444.12 154.17 446.98 159.47 448.68 C 164.77 450.38 167.48 451.31 173.03 451.79 C 178.94 452.30 188.90 452.27 194.93 451.75 C 200.75 451.25 203.69 450.62 209.20 448.68 C 214.95 446.65 223.13 443.51 229.43 439.59 C 235.73 435.67 241.61 430.17 246.99 425.16 C 252.37 420.14 260.22 411.08 261.69 409.51 C 262.15 409.85 265.83 412.55 266.29 412.88 C 264.79 414.58 256.77 424.57 251.33 429.83 C 245.89 435.10 240.65 440.15 233.63 444.46 C 226.61 448.77 215.58 453.31 209.20 455.68 C 203.88 457.65 197.67 458.15 195.33 458.66 C 195.25 458.68 195.22 458.73 195.13 458.73 Z"/>
    <path d="M 372.14 386.71 C 371.47 386.03 368.67 382.98 368.29 382.57 C 368.49 382.19 369.16 380.06 370.35 378.85 C 386.52 362.39 446.97 303.02 465.32 283.82 C 472.29 276.52 476.07 270.24 480.46 263.63 C 484.86 257.03 488.40 252.55 491.69 244.20 C 495.40 234.75 500.73 219.74 502.76 206.93 C 504.78 194.13 504.83 179.25 503.82 167.34 C 502.81 155.43 500.94 147.10 496.69 135.47 C 492.43 123.84 480.12 101.36 478.28 97.57 C 478.71 97.14 482.14 93.72 482.57 93.29 C 483.67 95.09 490.07 104.21 493.59 111.23 C 497.11 118.26 500.82 126.17 503.69 135.47 C 506.55 144.77 509.79 155.12 510.80 167.03 C 511.81 178.94 511.77 194.07 509.76 206.93 C 507.74 219.80 502.74 234.08 498.69 244.20 C 494.69 254.19 490.19 260.36 485.46 267.63 C 480.74 274.90 477.27 280.50 470.32 287.82 C 451.46 307.65 388.69 370.17 372.33 386.65 C 372.27 386.71 372.20 386.76 372.14 386.71 Z"/>
    <path d="M 361.14 372.71 C 360.47 372.03 357.75 369.71 357.29 368.57 C 356.85 367.48 357.53 366.68 358.35 365.85 C 373.58 350.34 431.67 292.84 448.67 275.50 C 453.70 270.37 456.20 267.71 460.32 261.82 C 464.64 255.64 471.19 244.87 474.59 238.43 C 477.65 232.63 479.00 229.54 480.69 223.20 C 482.56 216.18 485.14 207.07 485.82 196.32 C 486.50 185.58 485.78 168.21 484.76 158.73 C 483.90 150.81 481.71 145.38 479.69 139.47 C 477.66 133.55 476.19 129.34 472.59 123.23 C 468.64 116.52 457.65 101.61 455.99 99.21 C 456.45 98.82 460.11 95.68 460.57 95.29 C 462.17 97.49 472.24 109.87 476.59 117.23 C 480.95 124.60 484.33 133.38 486.69 139.47 C 488.83 145.00 489.73 149.25 490.76 153.73 C 491.78 158.21 492.57 161.24 492.82 166.34 C 493.16 173.44 493.68 186.85 492.82 196.32 C 491.96 205.80 489.89 215.52 487.69 223.20 C 485.48 230.88 483.32 235.33 479.59 242.43 C 475.86 249.54 472.69 257.71 465.32 265.82 C 445.61 287.52 378.69 354.84 361.33 372.65 C 361.28 372.71 361.20 372.76 361.14 372.71 Z"/>
    <path d="M 346.14 358.71 C 345.46 357.99 342.64 354.77 342.26 354.33 C 342.67 353.78 344.44 350.81 346.35 348.85 C 362.53 332.26 421.78 273.39 439.32 254.82 C 445.16 248.63 448.03 243.70 451.59 237.43 C 455.15 231.16 458.32 224.38 460.69 217.20 C 463.06 210.02 464.96 201.63 465.82 194.32 C 466.68 187.01 466.16 179.27 465.82 173.34 C 465.48 167.45 464.78 163.54 463.76 158.73 C 462.73 153.92 461.55 149.38 459.69 144.47 C 457.83 139.55 456.28 134.85 452.59 129.23 C 447.71 121.79 432.60 102.73 430.38 99.78 C 430.80 99.33 434.15 95.74 434.57 95.29 C 436.57 97.79 448.91 111.04 454.59 120.23 C 460.28 129.43 465.65 141.67 468.69 150.47 C 471.68 159.14 472.11 165.77 472.80 173.03 C 473.49 180.28 473.68 186.47 472.83 194.00 C 471.98 201.53 470.39 210.29 467.69 218.20 C 464.98 226.11 460.49 234.66 456.59 241.43 C 452.70 248.20 450.15 252.62 444.32 258.82 C 425.94 278.35 362.69 342.01 346.33 358.65 C 346.27 358.71 346.20 358.76 346.14 358.71 Z"/>
    <path d="M 331.50 347.44 C 331.18 346.88 328.66 342.41 328.35 341.85 C 337.33 332.86 400.81 269.86 418.16 251.99 C 424.43 245.54 428.71 240.10 432.46 234.63 C 436.22 229.17 438.31 225.15 440.69 219.20 C 443.07 213.25 445.57 204.75 446.76 198.93 C 447.93 193.19 448.10 190.18 447.82 184.32 C 447.49 177.29 447.15 165.61 444.76 156.73 C 442.36 147.85 439.03 139.36 433.46 131.03 C 427.90 122.71 413.59 109.21 411.38 106.78 C 411.76 106.31 414.82 102.48 415.20 102.01 C 417.53 104.51 432.38 117.96 438.46 127.03 C 444.55 136.11 448.96 146.92 451.69 156.47 C 454.41 166.02 454.48 177.25 454.82 184.32 C 455.11 190.18 454.93 193.19 453.76 198.93 C 452.57 204.75 450.24 212.75 447.69 219.20 C 445.14 225.65 442.55 231.50 438.46 237.63 C 434.38 243.77 429.83 249.14 423.16 255.99 C 405.36 274.28 346.96 332.14 331.68 347.38 C 331.63 347.44 331.52 347.43 331.50 347.44 Z"/>
    <path d="M 310.50 701.44 C 309.58 700.65 306.96 698.89 305.20 696.63 C 302.46 693.13 297.76 687.38 294.07 680.43 C 289.70 672.19 282.51 657.67 278.98 647.20 C 275.45 636.73 273.89 627.17 272.87 617.64 C 271.85 608.11 272.18 598.56 272.87 590.03 C 273.55 581.50 274.45 575.10 276.98 566.47 C 279.51 557.83 283.35 547.34 288.07 538.23 C 292.80 529.13 297.64 521.34 305.35 511.85 C 313.06 502.35 331.43 484.32 334.33 481.26 C 334.72 481.73 337.77 485.51 338.15 485.98 C 335.37 488.97 317.86 506.47 310.35 515.85 C 302.84 525.22 297.47 533.80 293.08 542.24 C 288.68 550.67 286.18 558.50 283.98 566.47 C 281.78 574.43 280.55 581.50 279.87 590.03 C 279.18 598.56 279.18 609.28 279.87 617.64 C 280.55 626.00 281.13 631.48 283.98 640.20 C 287.18 650.00 293.97 666.93 299.07 676.43 C 303.98 685.58 313.04 695.15 314.59 697.23 C 314.20 697.65 311.36 700.68 310.68 701.38 C 310.63 701.44 310.56 701.49 310.50 701.44 Z"/>
    <path d="M 611.13 516.73 C 604.87 516.57 583.68 516.92 573.73 515.75 C 564.57 514.66 557.55 511.71 551.47 509.68 C 545.60 507.72 542.59 506.69 537.24 503.59 C 528.80 498.69 511.66 488.93 500.85 480.31 C 490.04 471.70 475.23 454.73 472.38 451.88 C 472.81 451.52 476.20 448.58 476.63 448.21 C 479.45 450.92 495.08 467.42 504.85 475.31 C 514.62 483.21 527.47 491.03 535.24 495.59 C 541.35 499.18 545.05 500.49 551.47 502.68 C 557.89 504.87 564.57 507.63 573.73 508.75 C 583.49 509.94 601.96 509.99 610.00 509.83 C 614.84 509.73 617.26 509.05 621.93 507.75 C 628.67 505.87 640.57 503.16 650.43 498.59 C 660.29 494.01 678.03 482.12 681.10 480.29 C 681.52 480.65 684.87 483.52 685.29 483.88 C 683.60 485.15 674.24 492.97 668.43 496.59 C 662.62 500.21 656.13 503.07 650.43 505.59 C 644.72 508.10 640.71 509.83 634.20 511.68 C 627.68 513.53 615.17 515.82 611.33 516.66 C 611.25 516.68 611.22 516.73 611.13 516.73 Z"/>
    <path d="M 607.13 498.73 C 602.37 498.57 588.22 499.27 578.73 497.75 C 569.25 496.22 557.99 492.44 550.24 489.59 C 542.69 486.80 538.11 484.11 532.24 480.59 C 526.37 477.07 520.24 472.48 515.04 468.46 C 509.83 464.45 506.11 461.60 501.00 456.50 C 495.89 451.41 486.04 439.74 484.38 437.88 C 484.81 437.52 488.20 434.58 488.63 434.21 C 491.15 436.72 505.92 452.42 513.85 459.31 C 521.79 466.21 527.64 470.86 536.24 475.59 C 544.84 480.32 557.01 484.98 565.47 487.68 C 573.83 490.35 580.17 491.11 587.03 491.79 C 593.89 492.48 600.44 492.31 606.64 491.79 C 612.83 491.27 617.41 490.89 624.20 488.68 C 632.49 485.98 646.98 480.81 656.43 475.59 C 665.88 470.37 678.44 459.20 680.88 457.38 C 681.32 457.73 684.85 460.53 685.29 460.88 C 685.04 461.33 684.34 463.98 682.81 465.31 C 680.04 467.74 674.58 471.82 668.63 475.46 C 662.57 479.17 653.83 484.22 646.43 487.59 C 639.02 490.95 630.71 493.83 624.20 495.68 C 617.68 497.53 610.17 498.15 607.33 498.66 C 607.25 498.68 607.22 498.73 607.13 498.73 Z"/>
    <path d="M 332.50 700.44 C 329.75 697.31 321.73 689.91 316.20 681.63 C 310.62 673.26 303.20 661.03 298.98 650.20 C 294.76 639.37 292.22 626.67 290.87 616.64 C 289.52 606.61 290.53 596.68 290.87 590.03 C 291.14 584.65 291.57 581.94 292.91 576.73 C 294.26 571.47 295.86 565.51 298.98 558.47 C 302.34 550.88 306.99 540.20 313.07 531.23 C 319.16 522.27 329.80 510.84 335.51 504.67 C 339.79 500.05 346.15 495.30 347.33 494.26 C 347.65 494.80 350.15 499.10 350.46 499.64 C 348.25 501.86 334.91 513.92 328.35 521.85 C 321.78 529.78 315.80 538.13 311.07 547.23 C 306.35 556.34 302.18 569.28 299.98 576.47 C 298.33 581.84 298.14 584.73 297.85 590.34 C 297.49 597.04 297.01 608.16 297.87 616.64 C 298.72 625.12 300.11 632.57 302.98 641.20 C 305.85 649.83 309.53 659.32 315.08 668.43 C 320.63 677.55 334.17 693.14 336.29 695.88 C 335.93 696.33 333.31 699.62 332.68 700.38 C 332.63 700.44 332.55 700.50 332.50 700.44 Z"/>
    <path d="M 358.14 697.71 C 355.29 695.04 346.36 687.48 341.20 681.63 C 336.05 675.79 330.56 667.83 327.20 662.63 C 324.24 658.04 323.06 655.52 321.08 650.43 C 318.69 644.32 314.45 635.23 312.91 625.93 C 311.37 616.64 311.84 601.87 311.84 594.67 C 311.84 589.87 312.05 587.10 312.91 582.73 C 313.77 578.36 314.79 573.88 316.98 568.47 C 319.17 563.05 322.51 556.17 326.07 550.23 C 329.64 544.30 332.78 539.29 338.35 532.85 C 344.39 525.85 359.93 510.72 362.33 508.26 C 362.72 508.73 365.77 512.51 366.15 512.98 C 363.87 515.37 349.20 529.97 343.35 536.85 C 337.83 543.33 334.80 547.30 331.07 554.23 C 327.35 561.17 323.02 571.73 320.98 578.47 C 319.09 584.72 318.99 588.13 318.84 594.67 C 318.65 602.53 318.84 617.55 319.87 625.64 C 320.79 632.90 322.26 636.70 324.98 643.20 C 327.70 649.70 330.49 656.82 336.20 664.63 C 342.25 672.91 358.78 690.06 361.29 692.88 C 360.99 693.36 358.85 696.85 358.33 697.65 C 358.29 697.72 358.20 697.76 358.14 697.71 Z"/>
    <path d="M 600.13 477.73 C 598.42 477.75 594.04 478.29 590.03 477.79 C 584.58 477.12 575.60 476.21 567.47 473.68 C 559.34 471.15 549.37 467.34 541.24 462.59 C 533.11 457.84 525.49 451.28 518.68 445.16 C 511.87 439.04 502.21 427.81 500.38 425.88 C 500.84 425.55 504.52 422.85 504.98 422.51 C 506.77 424.29 516.14 434.47 522.85 440.31 C 529.56 446.16 537.80 453.19 545.24 457.58 C 552.68 461.98 559.95 464.47 567.47 466.68 C 574.99 468.89 583.27 470.30 590.34 470.81 C 597.42 471.33 603.12 470.77 609.93 469.75 C 616.74 468.72 623.11 468.01 631.20 464.68 C 639.81 461.13 653.46 454.06 661.63 448.46 C 669.80 442.86 678.38 432.83 680.24 431.09 C 680.74 431.37 684.78 433.60 685.29 433.88 C 683.94 435.33 676.96 443.86 671.81 448.31 C 666.67 452.77 661.20 456.69 654.43 460.59 C 647.66 464.48 640.21 468.83 631.20 471.68 C 622.18 474.53 605.51 476.65 600.33 477.66 C 600.25 477.68 600.22 477.73 600.13 477.73 Z"/>
    <path d="M 608.13 458.73 C 603.37 458.57 587.51 458.92 579.73 457.75 C 572.12 456.60 566.89 453.87 561.47 451.68 C 556.05 449.49 552.12 447.76 547.24 444.59 C 542.35 441.42 537.48 437.46 532.17 432.67 C 526.85 427.87 518.70 419.56 515.35 415.82 C 513.62 413.89 512.41 410.79 512.08 410.23 C 512.57 409.96 516.49 407.79 516.98 407.51 C 518.95 409.58 530.97 422.81 536.68 428.16 C 542.08 433.22 546.27 436.50 551.24 439.59 C 556.20 442.68 560.51 444.64 566.47 446.68 C 572.43 448.72 580.09 450.99 587.00 451.83 C 593.91 452.68 599.70 453.29 607.93 451.75 C 616.17 450.21 628.45 446.32 636.43 442.59 C 644.41 438.85 649.44 434.83 655.81 429.31 C 662.19 423.80 672.80 411.49 674.69 409.51 C 675.16 409.77 678.99 411.78 679.46 412.03 C 679.25 412.51 678.70 415.24 677.32 416.82 C 674.16 420.42 665.45 429.23 660.50 433.67 C 655.69 437.99 653.17 440.13 647.63 443.46 C 642.08 446.80 633.75 451.15 627.20 453.68 C 620.65 456.21 611.51 457.82 608.33 458.66 C 608.25 458.68 608.22 458.73 608.13 458.73 Z"/>
    <path d="M 374.13 687.73 C 373.72 687.67 372.55 687.93 371.85 687.31 C 369.06 684.83 362.54 679.17 357.35 672.82 C 352.05 666.34 344.48 657.08 340.07 648.43 C 335.67 639.78 332.62 628.90 330.91 620.93 C 329.21 613.00 329.84 606.37 329.84 600.67 C 329.84 595.08 329.57 592.16 330.91 586.73 C 332.45 580.49 335.00 571.05 339.07 563.23 C 343.15 555.42 349.14 547.18 355.35 539.85 C 361.56 532.52 374.23 521.32 376.33 519.26 C 376.73 519.71 379.89 523.33 380.29 523.78 C 377.79 526.39 361.38 542.44 355.35 549.85 C 349.90 556.54 346.98 562.09 344.08 568.23 C 341.17 574.38 339.12 581.33 337.91 586.73 C 336.70 592.14 336.84 595.08 336.84 600.67 C 336.84 606.37 336.54 613.64 337.91 620.93 C 339.28 628.23 342.00 637.62 345.08 644.43 C 348.15 651.25 351.12 655.39 356.35 661.82 C 361.58 668.25 374.45 680.91 376.46 683.03 C 376.25 683.49 374.72 686.88 374.33 687.66 C 374.29 687.73 374.21 687.74 374.13 687.73 Z"/>
  </g>
  <text id="line1" x="390.00" y="906" text-anchor="middle" font-family="Arial, Helvetica, sans-serif" font-size="109" font-weight="700" letter-spacing="2">AKSMED</text>
  <text id="line2" x="390.00" y="1013" text-anchor="middle" font-family="Arial, Helvetica, sans-serif" font-size="109" font-weight="700" letter-spacing="2">CLINIQUE</text>
</svg>
