<?xml version="1.0" encoding="UTF-8"?>
<svg xmlns="http://www.w3.org/2000/svg" version="1.1" viewBox="0 0 780 794">
  <g fill="#111111" fill-rule="evenodd" stroke="none">
    <path d="M 339.14 774.73 C 334.81 774.76 321.58 775.31 313.34 774.82 C 305.10 774.32 301.37 774.61 289.73 771.75 C 278.08 768.90 255.71 762.05 243.46 757.69 C 231.21 753.33 224.27 749.45 216.23 745.60 C 208.19 741.75 205.43 740.95 195.23 734.60 C 185.03 728.24 167.13 716.71 155.03 707.47 C 142.94 698.23 131.96 687.93 122.68 679.16 C 113.39 670.38 107.76 664.91 99.35 654.82 C 90.93 644.73 79.58 629.37 72.20 618.64 C 64.82 607.91 60.77 601.18 55.07 590.44 C 49.36 579.70 42.32 564.75 37.97 554.21 C 33.62 543.67 31.48 536.09 28.97 527.21 C 26.46 518.33 24.43 509.81 22.90 500.94 C 21.38 492.08 20.34 482.65 19.83 474.00 C 19.33 465.34 19.18 457.73 19.86 449.02 C 20.54 440.31 22.70 427.68 23.90 421.72 C 25.11 415.76 26.19 414.70 27.10 413.27 C 28.02 411.83 28.78 412.54 29.40 413.11 C 30.02 413.67 31.09 411.13 30.83 416.67 C 30.57 422.21 28.34 436.34 27.84 446.34 C 27.35 456.34 26.51 464.33 27.86 476.65 C 29.22 488.96 32.27 506.08 35.97 520.21 C 39.67 534.34 45.05 549.24 50.07 561.44 C 55.09 573.65 61.05 584.24 66.07 593.44 C 71.09 602.64 75.18 609.11 80.20 616.64 C 85.22 624.17 90.98 632.08 96.20 638.64 C 101.41 645.20 103.59 647.74 111.51 655.99 C 119.42 664.25 135.25 680.25 143.68 688.16 C 152.10 696.07 155.94 698.73 162.03 703.47 C 168.13 708.21 171.87 711.24 180.23 716.60 C 188.60 721.95 201.53 729.91 212.23 735.60 C 222.94 741.28 234.59 746.67 244.46 750.69 C 254.33 754.70 262.42 757.18 271.46 759.69 C 280.51 762.20 290.52 764.42 298.73 765.75 C 306.93 767.09 311.72 767.71 320.70 767.72 C 329.69 767.72 344.11 766.79 352.64 765.80 C 361.18 764.80 365.64 763.46 371.94 761.75 C 378.24 760.05 383.35 758.62 390.44 755.59 C 397.52 752.57 407.40 747.62 414.43 743.60 C 421.47 739.57 427.46 735.29 432.63 731.47 C 437.81 727.64 440.53 725.31 445.50 720.67 C 450.47 716.03 456.62 711.01 462.47 703.64 C 468.32 696.27 475.56 685.18 480.60 676.44 C 485.64 667.70 489.84 658.46 492.70 651.21 C 495.56 643.96 496.58 638.76 497.76 632.94 C 498.95 627.13 499.48 623.81 499.82 616.33 C 500.16 608.84 500.49 596.33 499.80 588.02 C 499.12 579.71 497.56 573.42 495.70 566.46 C 493.83 559.49 492.14 553.63 488.60 546.23 C 485.06 538.82 478.93 528.51 474.47 522.03 C 470.01 515.55 494.66 540.50 461.83 507.33 C 429.01 474.16 311.37 356.19 277.50 323.00 C 243.64 289.81 264.81 312.35 258.63 308.20 C 252.46 304.05 247.22 301.12 240.43 298.08 C 233.65 295.03 225.07 291.95 217.94 289.91 C 210.81 287.88 205.91 286.55 197.64 285.87 C 189.38 285.19 177.70 284.83 168.34 285.85 C 158.98 286.87 150.48 288.94 141.46 291.98 C 132.44 295.02 121.90 299.97 114.23 304.08 C 106.56 308.18 99.28 314.67 95.44 316.59 C 91.60 318.52 91.85 316.29 91.20 315.64 C 90.54 314.99 89.70 314.58 91.51 312.67 C 93.31 310.77 96.08 307.97 102.03 304.20 C 107.99 300.44 119.33 293.78 127.23 290.08 C 135.14 286.37 143.55 283.84 149.46 281.98 C 155.38 280.12 157.35 279.75 162.73 278.91 C 168.10 278.07 175.38 277.12 181.70 276.95 C 188.02 276.78 191.73 276.20 200.64 277.87 C 209.56 279.54 225.74 283.61 235.21 286.98 C 244.67 290.35 251.70 294.87 257.43 298.07 C 263.17 301.28 265.29 302.88 269.63 306.20 C 273.98 309.52 250.58 285.42 283.50 318.00 C 316.42 350.58 434.50 468.67 467.16 501.67 C 499.82 534.68 474.90 509.27 479.47 516.03 C 484.04 522.79 490.55 533.61 494.60 542.23 C 498.65 550.84 501.56 559.42 503.76 567.72 C 505.96 576.02 507.13 585.53 507.80 592.02 C 508.48 598.51 508.14 600.66 507.80 606.65 C 507.46 612.63 506.95 620.85 505.76 627.94 C 504.58 635.04 503.06 642.13 500.70 649.21 C 498.33 656.29 494.80 663.87 491.60 670.44 C 488.39 677.01 486.96 680.96 481.47 688.64 C 475.98 696.32 465.44 709.06 458.67 716.50 C 451.89 723.95 445.69 729.14 440.82 733.32 C 435.94 737.50 434.17 738.55 429.43 741.60 C 424.70 744.64 420.31 747.58 412.43 751.60 C 404.56 755.61 390.95 762.33 382.21 765.69 C 373.46 769.05 367.09 770.26 359.94 771.75 C 352.80 773.25 342.80 774.17 339.33 774.67 C 335.87 775.17 343.48 774.71 339.14 774.73 Z"/>
    <path d="M 339.14 756.72 C 334.48 756.75 319.58 757.31 311.34 756.82 C 303.10 756.32 296.54 755.11 289.73 753.75 C 282.91 752.40 279.04 751.55 270.46 748.69 C 261.88 745.83 249.11 741.44 238.23 736.59 C 227.36 731.74 214.93 725.12 205.23 719.60 C 195.53 714.07 189.26 710.01 180.03 703.47 C 170.80 696.92 158.77 687.90 149.85 680.32 C 140.93 672.74 134.45 666.44 126.51 657.99 C 118.56 649.55 109.44 638.90 102.20 629.64 C 94.96 620.38 88.42 610.64 83.07 602.44 C 77.71 594.24 75.09 590.31 70.07 580.44 C 65.05 570.57 57.00 553.13 52.97 543.21 C 48.94 533.29 48.25 530.37 45.90 520.94 C 43.55 511.52 40.21 497.41 38.86 486.65 C 37.52 475.88 37.47 464.07 37.84 456.34 C 38.22 448.61 40.18 442.97 41.10 440.27 C 42.03 437.56 42.79 439.70 43.40 440.11 C 44.01 440.52 44.52 437.80 44.76 442.72 C 45.01 447.65 44.28 460.67 44.86 469.65 C 45.45 478.62 46.09 485.81 48.28 496.57 C 50.46 507.34 52.51 519.57 57.97 534.21 C 63.44 548.85 74.03 571.03 81.07 584.44 C 88.11 597.84 95.01 606.94 100.20 614.64 C 105.38 622.34 104.64 622.08 112.20 630.64 C 119.75 639.20 134.87 655.86 145.50 666.00 C 156.14 676.13 164.74 683.20 176.03 691.47 C 187.32 699.73 200.70 708.57 213.23 715.59 C 225.77 722.61 241.19 729.24 251.23 733.59 C 261.27 737.94 265.38 739.33 273.46 741.69 C 281.54 744.05 292.41 746.40 299.73 747.75 C 307.04 749.11 311.35 749.48 317.34 749.82 C 323.33 750.16 328.38 750.47 335.64 749.80 C 342.91 749.12 353.01 747.44 360.94 745.75 C 368.87 744.07 377.29 741.71 383.20 739.69 C 389.12 737.66 392.36 735.63 396.43 733.60 C 400.51 731.56 401.62 731.62 407.63 727.46 C 413.64 723.31 425.39 714.94 432.50 708.67 C 439.62 702.39 445.81 695.03 450.32 689.82 C 454.84 684.62 456.05 683.17 459.60 677.44 C 463.15 671.71 468.24 663.19 471.60 655.44 C 474.96 647.69 478.06 637.13 479.76 630.94 C 481.47 624.76 481.48 625.31 481.82 618.33 C 482.16 611.34 482.49 597.17 481.80 589.02 C 481.12 580.88 479.73 576.09 477.70 569.46 C 475.66 562.82 473.14 556.13 469.60 549.23 C 466.06 542.32 463.29 536.54 456.47 528.03 C 449.65 519.52 460.66 530.34 428.67 498.16 C 396.67 465.99 294.67 364.33 264.50 335.00 C 234.33 305.67 252.81 325.69 247.63 322.20 C 242.46 318.71 239.05 316.62 233.44 314.07 C 227.82 311.53 219.63 308.62 213.94 306.91 C 208.26 305.21 206.65 304.36 199.33 303.85 C 192.01 303.34 178.17 303.18 170.02 303.87 C 161.88 304.56 157.26 305.78 150.46 307.98 C 143.66 310.18 135.64 313.87 129.23 317.07 C 122.83 320.28 117.63 323.30 112.03 327.20 C 106.43 331.10 99.08 338.19 95.63 340.46 C 92.18 342.74 91.93 341.70 91.34 340.83 C 90.75 339.95 90.82 337.31 92.07 335.23 C 93.32 333.15 93.32 332.37 98.85 328.35 C 104.38 324.32 117.80 315.30 125.23 311.08 C 132.67 306.85 137.38 305.17 143.46 302.98 C 149.54 300.78 156.91 299.10 161.73 297.91 C 166.54 296.72 166.74 296.19 172.34 295.85 C 177.94 295.50 187.85 295.16 195.33 295.85 C 202.80 296.54 211.23 298.46 217.21 299.98 C 223.19 301.50 224.47 301.61 231.21 304.98 C 237.94 308.35 249.84 314.78 257.63 320.20 C 265.43 325.62 269.36 329.52 277.99 337.51 C 286.62 345.49 281.47 340.31 309.40 368.10 C 337.33 395.90 419.89 478.11 445.56 504.26 C 471.24 530.42 458.13 517.53 463.47 525.03 C 468.81 532.52 473.72 540.94 477.60 549.23 C 481.48 557.51 484.73 567.42 486.76 574.72 C 488.80 582.02 489.29 586.53 489.80 593.02 C 490.31 599.51 490.31 606.99 489.80 613.65 C 489.30 620.30 488.11 626.85 486.76 632.94 C 485.41 639.04 483.72 644.63 481.70 650.21 C 479.67 655.79 477.30 661.20 474.60 666.44 C 471.90 671.68 471.35 674.07 465.47 681.64 C 459.59 689.20 448.01 703.51 439.33 711.83 C 430.66 720.16 421.42 726.30 413.43 731.60 C 405.45 736.89 396.97 740.91 391.44 743.59 C 385.90 746.27 385.45 745.99 380.21 747.69 C 374.96 749.38 366.75 752.26 359.94 753.75 C 353.13 755.25 342.80 756.17 339.33 756.66 C 335.86 757.16 343.81 756.70 339.14 756.72 Z"/>
    <path d="M 341.14 736.73 C 336.15 736.76 319.74 737.31 311.34 736.82 C 302.94 736.32 301.54 736.78 290.73 733.75 C 279.91 730.73 257.54 723.05 246.46 718.69 C 235.38 714.33 232.64 712.30 224.23 707.60 C 215.83 702.89 204.40 695.99 196.03 690.47 C 187.67 684.94 180.29 679.38 174.03 674.47 C 167.78 669.55 167.64 670.13 158.50 661.00 C 149.37 651.86 129.10 631.40 119.20 619.64 C 109.29 607.88 104.59 598.97 99.07 590.44 C 93.55 581.91 90.75 577.81 86.07 568.44 C 81.39 559.07 74.32 542.41 70.97 534.21 C 67.62 526.00 67.82 526.14 65.97 519.21 C 64.12 512.28 61.01 501.14 59.86 492.65 C 58.71 484.15 58.84 472.50 59.07 468.23 C 59.29 463.95 60.44 466.79 61.21 466.99 C 61.98 467.20 61.90 461.92 63.70 469.46 C 65.49 476.99 68.24 498.71 71.97 512.21 C 75.70 525.71 79.05 535.74 86.07 550.44 C 93.08 565.15 105.52 587.21 114.07 600.44 C 122.61 613.67 127.88 619.51 137.35 629.82 C 146.81 640.13 159.04 652.36 170.85 662.32 C 182.66 672.28 195.13 681.37 208.23 689.60 C 221.33 697.82 239.42 706.67 249.46 711.69 C 259.50 716.70 260.25 717.01 268.46 719.69 C 276.67 722.36 291.91 726.07 298.73 727.75 C 305.54 729.44 302.74 729.54 309.34 729.82 C 315.94 730.10 329.90 730.11 338.33 729.43 C 346.77 728.75 353.30 727.38 359.94 725.75 C 366.59 724.13 370.42 723.40 378.21 719.69 C 385.99 715.97 397.95 709.78 406.63 703.47 C 415.32 697.15 424.85 687.29 430.32 681.82 C 435.79 676.35 436.09 675.54 439.47 670.64 C 442.85 665.74 447.56 658.35 450.60 652.44 C 453.64 646.54 455.83 641.29 457.70 635.21 C 459.56 629.13 461.08 622.76 461.76 615.94 C 462.45 609.13 462.16 600.21 461.82 594.34 C 461.49 588.47 461.97 587.58 459.76 580.72 C 457.56 573.87 453.78 561.99 448.60 553.23 C 443.42 544.47 447.60 547.79 428.67 528.16 C 409.74 508.54 362.86 463.53 335.00 435.50 C 307.14 407.47 277.73 375.88 261.50 360.00 C 245.27 344.11 245.02 345.20 237.63 340.20 C 230.25 335.20 222.71 332.30 217.20 329.98 C 211.69 327.66 210.17 327.30 204.58 326.28 C 198.99 325.25 190.31 323.90 183.67 323.83 C 177.02 323.77 170.43 324.89 164.73 325.91 C 159.03 326.94 155.38 327.62 149.46 329.98 C 143.55 332.34 135.47 336.37 129.23 340.07 C 122.99 343.77 116.63 348.47 112.03 352.20 C 107.43 355.93 104.46 360.27 101.63 362.47 C 98.81 364.67 96.21 365.73 95.10 365.40 C 93.99 365.07 94.32 362.16 94.97 360.46 C 95.62 358.75 95.65 358.37 99.00 355.16 C 102.34 351.96 110.16 345.05 115.03 341.20 C 119.91 337.35 121.16 335.61 128.23 332.08 C 135.30 328.54 148.28 322.62 157.46 319.98 C 166.64 317.34 174.38 316.24 183.33 316.24 C 192.29 316.24 204.52 318.67 211.21 319.98 C 217.89 321.29 218.03 321.54 223.43 324.08 C 228.84 326.61 237.12 330.88 243.63 335.20 C 250.15 339.52 236.94 324.61 262.50 350.00 C 288.06 375.38 370.15 460.46 397.00 487.50 C 423.84 514.55 415.84 504.71 423.56 512.26 C 431.28 519.82 438.32 527.02 443.32 532.85 C 448.33 538.67 450.55 542.16 453.60 547.23 C 456.65 552.29 459.57 558.48 461.60 563.23 C 463.63 567.98 464.56 570.76 465.76 575.72 C 466.96 580.69 468.29 586.31 468.80 593.02 C 469.31 599.73 469.68 608.13 468.83 616.00 C 467.98 623.86 466.40 632.14 463.70 640.21 C 460.99 648.28 456.69 657.31 452.60 664.44 C 448.51 671.57 444.46 676.85 439.16 682.99 C 433.86 689.14 426.24 696.41 420.82 701.32 C 415.40 706.23 412.36 708.75 406.63 712.47 C 400.90 716.18 392.34 720.72 386.44 723.59 C 380.53 726.46 378.72 727.51 371.21 729.69 C 363.69 731.87 346.35 735.50 341.33 736.67 C 336.32 737.84 346.14 736.71 341.14 736.73 Z"/>
    <path d="M 751.52 379.44 C 751.21 378.65 750.14 376.83 749.86 374.65 C 749.58 372.46 749.35 371.51 749.84 366.34 C 750.33 361.17 752.31 350.15 752.80 343.65 C 753.30 337.15 753.66 336.49 752.82 327.34 C 751.98 318.19 750.28 300.70 747.76 288.72 C 745.24 276.74 743.22 269.37 737.70 255.46 C 732.17 241.54 723.80 221.47 714.60 205.23 C 705.39 188.99 692.65 171.23 682.47 158.03 C 672.29 144.82 664.14 136.30 653.50 126.00 C 642.86 115.69 631.31 105.69 618.63 96.20 C 605.96 86.71 590.47 76.76 577.43 69.08 C 564.40 61.39 552.64 55.43 540.43 50.08 C 528.23 44.73 513.95 40.01 504.21 36.98 C 494.46 33.95 489.70 33.26 481.94 31.91 C 474.18 30.56 466.24 29.38 457.64 28.87 C 449.04 28.36 440.04 28.00 430.34 28.85 C 420.64 29.70 409.31 31.44 399.46 33.98 C 389.61 36.52 380.47 39.87 371.23 44.07 C 361.99 48.28 350.93 54.82 344.03 59.20 C 337.14 63.58 334.10 66.60 329.85 70.35 C 325.60 74.09 323.80 75.36 318.51 81.67 C 313.21 87.99 303.82 98.76 298.07 108.23 C 292.31 117.69 287.34 129.66 283.97 138.46 C 280.60 147.26 279.05 152.04 277.86 161.02 C 276.67 170.00 276.83 185.06 276.83 192.33 C 276.83 199.60 276.51 197.83 277.86 204.65 C 279.22 211.46 282.60 225.74 284.97 233.21 C 287.34 240.68 287.53 241.87 292.07 249.44 C 296.61 257.01 304.13 268.71 312.20 278.64 C 320.26 288.57 335.10 302.79 340.47 309.03 C 345.84 315.27 344.04 314.46 344.40 316.09 C 344.76 317.72 347.54 322.55 342.64 318.79 C 337.74 315.02 322.41 301.03 315.00 293.50 C 307.59 285.98 303.68 281.32 298.20 273.64 C 292.71 265.96 286.11 255.18 282.07 247.44 C 278.03 239.70 276.18 236.06 273.97 227.21 C 271.77 218.36 269.53 206.03 268.84 194.33 C 268.16 182.63 268.67 167.00 269.86 157.02 C 271.05 147.04 273.27 142.26 275.97 134.46 C 278.67 126.66 282.20 117.63 286.07 110.23 C 289.94 102.82 294.79 95.79 299.20 90.03 C 303.60 84.27 305.03 82.48 312.51 75.67 C 319.98 68.87 333.21 56.48 344.03 49.20 C 354.86 41.92 366.18 36.36 377.46 31.98 C 388.74 27.60 399.30 24.94 411.73 22.91 C 424.15 20.89 439.46 19.67 452.00 19.84 C 464.53 20.01 473.74 21.06 486.94 23.91 C 500.14 26.77 515.96 31.12 531.21 36.98 C 546.45 42.84 564.03 51.20 578.43 59.07 C 592.84 66.94 603.60 73.69 617.63 84.20 C 631.67 94.72 650.70 110.86 662.67 122.16 C 674.64 133.47 681.34 141.88 689.47 152.03 C 697.60 162.17 705.28 173.49 711.47 183.03 C 717.66 192.56 721.23 198.49 726.60 209.23 C 731.97 219.97 739.51 236.92 743.70 247.46 C 747.88 258.00 749.35 263.75 751.70 272.46 C 754.04 281.17 756.41 291.41 757.76 299.72 C 759.12 308.04 759.48 314.85 759.82 322.34 C 760.16 329.83 760.48 336.05 759.80 344.65 C 759.13 353.25 757.11 368.15 755.76 373.94 C 754.41 379.73 752.40 378.48 751.70 379.39 C 750.99 380.31 751.82 380.23 751.52 379.44 Z"/>
    <path d="M 471.14 774.73 C 465.04 774.58 444.17 774.60 434.73 773.75 C 425.28 772.91 418.93 771.03 414.46 769.69 C 410.00 768.35 408.45 766.78 407.93 765.70 C 407.41 764.63 408.83 763.53 411.33 763.24 C 413.83 762.94 420.16 763.49 422.94 763.91 C 425.72 764.34 422.12 765.21 428.02 765.80 C 433.92 766.38 449.02 767.43 458.34 767.42 C 467.66 767.42 475.13 767.04 483.94 765.75 C 492.75 764.47 498.96 763.72 511.21 759.69 C 523.45 755.66 542.73 748.61 557.43 741.59 C 572.14 734.57 587.54 725.31 599.43 717.60 C 611.33 709.88 617.39 705.22 628.82 695.32 C 640.24 685.41 658.56 667.94 668.00 658.16 C 677.44 648.38 680.56 642.89 685.47 636.64 C 690.38 630.38 692.28 628.34 697.47 620.64 C 702.66 612.94 710.56 601.51 716.60 590.44 C 722.64 579.37 728.85 566.41 733.70 554.21 C 738.54 542.00 742.67 529.24 745.70 517.21 C 748.72 505.17 750.81 495.31 751.83 482.00 C 752.85 468.69 752.50 448.39 751.82 437.34 C 751.15 426.29 750.47 424.91 747.76 415.72 C 745.06 406.54 740.62 392.98 735.60 382.23 C 730.57 371.48 723.39 359.71 717.60 351.23 C 711.81 342.75 706.30 336.98 700.83 331.33 C 695.37 325.69 690.22 321.56 684.82 317.35 C 679.42 313.14 675.70 310.14 668.43 306.08 C 661.16 302.01 650.35 296.28 641.21 292.98 C 632.06 289.68 621.56 287.62 613.58 286.27 C 605.60 284.92 599.31 284.92 593.33 284.87 C 587.36 284.81 583.87 284.89 577.73 285.91 C 571.58 286.93 565.41 287.60 556.46 290.98 C 547.51 294.36 533.39 300.56 524.03 306.20 C 514.68 311.84 517.87 307.98 500.33 324.83 C 482.80 341.69 434.80 391.52 418.82 407.32 C 402.83 423.11 407.58 417.19 404.43 419.60 C 401.29 422.00 401.02 421.61 399.94 421.75 C 398.87 421.90 397.27 422.24 397.98 420.45 C 398.69 418.66 401.28 414.66 404.20 411.03 C 407.12 407.40 400.95 413.40 415.51 398.67 C 430.06 383.95 475.08 338.42 491.50 322.67 C 507.93 306.93 507.58 308.97 514.03 304.20 C 520.49 299.43 524.16 297.28 530.23 294.08 C 536.30 290.87 541.83 287.68 550.46 284.98 C 559.09 282.28 571.66 279.06 582.02 277.87 C 592.39 276.69 602.61 276.69 612.64 277.87 C 622.68 279.06 632.41 281.45 642.21 284.98 C 652.00 288.51 661.97 293.15 671.43 299.07 C 680.90 304.99 691.68 314.21 698.99 320.51 C 706.31 326.80 710.91 331.93 715.32 336.85 C 719.73 341.77 720.76 342.63 725.47 350.03 C 730.18 357.42 738.55 370.11 743.60 381.23 C 748.65 392.34 752.89 405.20 755.76 416.72 C 758.63 428.24 760.15 438.35 760.82 450.34 C 761.50 462.33 761.66 474.50 759.80 488.65 C 757.95 502.79 753.73 521.58 749.70 535.21 C 745.66 548.84 741.97 557.37 735.60 570.44 C 729.23 583.51 717.82 603.11 711.47 613.64 C 705.12 624.17 703.49 625.78 697.47 633.64 C 691.45 641.50 685.10 650.37 675.32 660.82 C 665.55 671.27 647.10 688.54 638.82 696.32 C 630.54 704.09 633.00 701.94 625.63 707.47 C 618.27 712.99 606.83 722.11 594.63 729.46 C 582.43 736.82 567.51 744.89 552.44 751.59 C 537.36 758.30 517.72 765.84 504.21 769.69 C 490.69 773.53 476.85 773.83 471.33 774.67 C 465.82 775.51 477.25 774.88 471.14 774.73 Z"/>
    <path d="M 339.14 718.73 C 333.04 718.58 312.17 718.76 302.73 717.75 C 293.28 716.75 289.84 715.03 282.46 712.69 C 275.08 710.34 266.50 707.04 258.46 703.69 C 250.42 700.34 242.47 696.96 234.23 692.59 C 226.00 688.22 215.73 681.65 209.03 677.46 C 202.33 673.28 200.56 672.49 194.03 667.47 C 187.50 662.44 177.77 654.56 169.85 647.32 C 161.93 640.07 151.95 629.77 146.51 623.99 C 141.06 618.21 142.58 619.86 137.20 612.64 C 131.81 605.41 119.88 589.17 114.20 580.64 C 108.51 572.11 106.77 568.51 103.07 561.44 C 99.36 554.37 95.15 545.91 91.97 538.21 C 88.79 530.50 85.68 521.17 83.97 515.21 C 82.26 509.25 82.71 506.33 81.70 502.46 C 80.68 498.58 78.36 495.27 77.90 491.94 C 77.45 488.61 78.52 484.09 78.98 482.47 C 79.43 480.85 79.85 481.71 80.63 482.20 C 81.42 482.70 81.47 478.79 83.70 485.46 C 85.92 492.12 89.91 510.71 93.97 522.21 C 98.03 533.71 103.03 544.37 108.07 554.44 C 113.11 564.51 117.07 572.16 124.20 582.64 C 131.32 593.12 141.89 607.05 150.83 617.33 C 159.78 627.61 167.78 635.44 177.85 644.32 C 187.92 653.19 199.00 662.55 211.23 670.60 C 223.46 678.64 241.03 687.41 251.23 692.59 C 261.44 697.77 264.38 698.83 272.46 701.69 C 280.54 704.55 292.63 707.90 299.73 709.75 C 306.82 711.61 309.70 712.29 315.02 712.80 C 320.34 713.30 325.32 713.30 331.64 712.80 C 337.96 712.29 346.01 711.27 352.94 709.75 C 359.87 708.24 365.59 707.40 373.20 703.69 C 380.82 699.97 391.28 693.11 398.63 687.47 C 405.99 681.82 412.16 675.49 417.32 669.82 C 422.48 664.15 426.37 658.54 429.60 653.44 C 432.83 648.34 434.50 644.96 436.70 639.21 C 438.89 633.46 441.57 624.09 442.76 618.94 C 443.95 613.80 443.83 613.04 443.83 608.33 C 443.83 603.63 444.47 598.07 442.76 590.72 C 441.06 583.37 437.36 571.74 433.60 564.23 C 429.83 556.72 438.74 565.14 420.16 545.67 C 401.58 526.20 342.02 467.65 322.10 447.40 C 302.19 427.15 314.35 437.98 300.67 424.16 C 286.98 410.35 252.70 376.36 239.99 364.51 C 227.29 352.66 230.23 356.33 224.43 353.07 C 218.64 349.82 210.89 346.78 205.21 344.98 C 199.52 343.17 195.36 342.59 190.33 342.24 C 185.30 341.89 180.00 342.25 175.02 342.87 C 170.04 343.49 166.63 343.76 160.46 345.98 C 154.30 348.20 144.63 352.31 138.03 356.20 C 131.43 360.10 126.55 364.16 120.85 369.35 C 115.15 374.54 107.29 384.18 103.82 387.32 C 100.34 390.45 100.81 388.48 100.01 388.17 C 99.20 387.86 98.28 387.31 98.98 385.45 C 99.68 383.59 101.17 380.77 104.20 377.03 C 107.23 373.29 110.49 368.49 117.16 363.00 C 123.84 357.51 135.47 348.59 144.23 344.08 C 152.99 339.56 160.66 337.28 169.73 335.91 C 178.79 334.54 190.69 335.01 198.64 335.87 C 206.60 336.73 210.60 338.02 217.44 341.07 C 224.27 344.13 233.35 349.77 239.63 354.20 C 245.92 358.63 240.50 353.33 255.16 367.68 C 269.81 382.02 312.92 425.29 327.56 440.26 C 342.20 455.24 327.81 442.19 343.00 457.50 C 358.18 472.82 402.90 515.71 418.67 532.16 C 434.44 548.62 432.76 548.35 437.60 556.23 C 442.44 564.11 445.32 570.61 447.70 579.46 C 450.07 588.31 451.83 600.71 451.83 609.33 C 451.83 617.96 450.07 623.69 447.70 631.21 C 445.32 638.73 441.14 647.87 437.60 654.44 C 434.06 661.01 429.88 666.21 426.47 670.64 C 423.06 675.06 422.30 676.36 417.16 680.99 C 412.02 685.63 403.63 693.35 395.63 698.47 C 387.64 703.58 375.65 708.81 369.21 711.69 C 362.76 714.57 361.92 714.59 356.94 715.75 C 351.96 716.92 342.30 718.17 339.33 718.67 C 336.37 719.17 345.25 718.88 339.14 718.73 Z"/>
    <path d="M 197.14 517.73 C 193.48 517.76 181.74 518.15 175.34 517.82 C 168.94 517.49 165.54 517.28 158.73 515.75 C 151.91 514.23 142.21 511.71 134.46 508.69 C 126.71 505.66 118.97 501.47 112.23 497.60 C 105.49 493.72 99.21 489.29 94.03 485.47 C 88.85 481.64 87.45 480.94 81.16 474.67 C 74.88 468.39 62.03 454.69 56.35 447.82 C 50.66 440.95 50.11 438.67 47.07 433.44 C 44.02 428.21 41.25 423.65 38.07 416.44 C 34.89 409.24 30.67 398.29 27.97 390.21 C 25.28 382.13 22.94 373.19 21.90 367.94 C 20.87 362.70 22.09 361.05 21.76 358.72 C 21.43 356.39 20.25 359.86 19.93 353.96 C 19.61 348.07 19.53 331.99 19.85 323.33 C 20.17 314.68 19.84 312.67 21.86 302.02 C 23.88 291.37 27.44 273.42 31.97 259.46 C 36.51 245.49 44.72 227.93 49.07 218.23 C 53.42 208.52 53.88 208.43 58.07 201.23 C 62.26 194.03 68.68 183.23 74.20 175.03 C 79.72 166.83 83.69 161.02 91.20 152.03 C 98.71 143.04 109.99 130.38 119.26 121.10 C 128.54 111.82 139.56 102.50 146.85 96.35 C 154.14 90.20 156.97 88.58 163.03 84.20 C 169.10 79.82 174.53 75.43 183.23 70.07 C 191.93 64.72 206.20 56.76 215.23 52.08 C 224.27 47.39 228.26 45.66 237.46 41.98 C 246.67 38.30 260.75 32.99 270.46 29.98 C 280.17 26.97 285.63 25.60 295.73 23.91 C 305.82 22.23 320.87 20.38 331.02 19.88 C 341.17 19.37 350.45 20.35 356.64 20.87 C 362.84 21.39 365.68 22.12 368.21 22.98 C 370.73 23.84 371.68 25.06 371.80 26.02 C 371.92 26.98 378.40 28.11 368.94 28.75 C 359.48 29.40 328.39 29.01 315.02 29.87 C 301.65 30.73 298.49 31.56 288.73 33.91 C 278.97 36.26 266.04 40.62 256.46 43.98 C 246.88 47.34 239.94 50.06 231.23 54.07 C 222.53 58.09 215.60 61.22 204.23 68.07 C 192.87 74.93 175.54 85.88 163.03 95.20 C 150.52 104.52 138.78 115.06 129.16 124.00 C 119.55 132.94 112.01 141.34 105.35 148.85 C 98.68 156.35 96.08 159.30 89.20 169.03 C 82.32 178.76 70.26 196.86 64.07 207.23 C 57.88 217.59 54.13 226.56 52.07 231.23 C 50.01 235.89 53.71 230.00 51.70 235.21 C 49.68 240.41 43.27 252.54 39.97 262.46 C 36.67 272.38 33.91 284.68 31.90 294.72 C 29.90 304.76 28.44 312.21 27.93 322.70 C 27.43 333.19 27.52 346.06 28.86 357.65 C 30.20 369.23 32.44 381.08 35.97 392.21 C 39.51 403.34 44.86 414.87 50.07 424.44 C 55.27 434.01 61.23 442.16 67.20 449.64 C 73.16 457.12 79.04 463.18 85.85 469.32 C 92.66 475.46 100.64 481.59 108.03 486.47 C 115.43 491.35 121.78 495.04 130.23 498.59 C 138.68 502.14 151.04 505.88 158.73 507.75 C 166.41 509.63 169.40 509.49 176.33 509.83 C 183.27 510.18 194.23 510.16 200.33 509.82 C 206.43 509.47 207.42 509.13 212.94 507.75 C 218.46 506.38 226.02 504.78 233.43 501.59 C 240.85 498.40 248.37 494.81 257.43 488.60 C 266.50 482.38 280.05 471.05 287.82 464.32 C 295.58 457.59 300.59 451.26 304.03 448.20 C 307.47 445.14 307.21 446.30 308.46 445.98 C 309.72 445.66 311.59 445.13 311.56 446.27 C 311.54 447.41 313.53 447.06 308.32 452.82 C 303.12 458.58 288.15 473.87 280.33 480.83 C 272.52 487.80 269.96 489.62 261.43 494.60 C 252.91 499.57 237.62 507.16 229.21 510.69 C 220.79 514.21 216.25 514.59 210.94 515.75 C 205.63 516.92 199.63 517.34 197.33 517.67 C 195.04 518.00 200.81 517.71 197.14 517.73 Z"/>
    <path d="M 469.14 756.73 C 463.88 756.58 444.66 756.44 437.73 755.75 C 430.79 755.07 429.25 753.59 427.51 752.64 C 425.77 751.70 426.86 750.89 427.28 750.09 C 427.69 749.29 423.83 747.88 430.00 747.83 C 436.18 747.79 453.84 750.16 464.33 749.82 C 474.82 749.47 480.96 748.78 492.94 745.75 C 504.92 742.73 524.96 736.05 536.20 731.69 C 547.45 727.33 551.69 724.46 560.43 719.59 C 569.17 714.72 577.90 709.84 588.63 702.47 C 599.36 695.09 614.40 684.06 624.82 675.32 C 635.24 666.57 642.89 658.77 651.16 649.99 C 659.44 641.21 669.09 629.20 674.47 622.64 C 679.85 616.08 679.12 617.34 683.47 610.64 C 687.82 603.94 695.58 591.47 700.60 582.44 C 705.62 573.41 709.75 565.31 713.60 556.44 C 717.45 547.57 720.33 540.68 723.70 529.21 C 727.06 517.74 731.95 500.12 733.80 487.65 C 735.66 475.17 735.16 464.83 734.82 454.34 C 734.48 443.85 733.95 434.87 731.76 424.72 C 729.58 414.58 724.22 400.37 721.70 393.46 C 719.17 386.54 720.47 389.63 716.60 383.23 C 712.73 376.82 703.77 362.17 698.47 355.03 C 693.17 347.88 688.46 343.99 684.82 340.35 C 681.18 336.71 681.33 336.56 676.63 333.20 C 671.94 329.84 662.71 323.74 656.63 320.20 C 650.56 316.67 647.82 314.69 640.20 311.98 C 632.59 309.26 618.25 305.37 610.94 303.91 C 603.63 302.45 601.37 303.24 596.33 303.24 C 591.30 303.24 587.37 302.79 580.73 303.91 C 574.08 305.04 562.71 307.95 556.46 309.98 C 550.21 312.01 548.64 313.03 543.23 316.07 C 537.83 319.11 531.71 322.05 524.03 328.20 C 516.35 334.36 515.03 335.48 497.16 353.00 C 479.30 370.52 431.12 419.51 416.82 433.32 C 402.51 447.12 412.58 435.89 411.34 435.82 C 410.10 435.74 407.64 435.92 409.36 432.86 C 411.08 429.81 407.45 432.23 421.67 417.50 C 435.89 402.78 478.28 360.39 494.68 344.51 C 511.07 328.63 512.77 327.94 520.03 322.20 C 527.29 316.46 531.16 313.78 538.23 310.08 C 545.30 306.37 554.78 302.35 562.46 299.98 C 570.15 297.61 576.43 296.53 584.34 295.85 C 592.25 295.17 602.46 295.22 609.94 295.91 C 617.42 296.60 623.16 298.30 629.21 299.98 C 635.25 301.66 638.97 302.44 646.20 305.98 C 653.44 309.52 665.87 316.81 672.63 321.20 C 679.40 325.60 682.04 328.07 686.82 332.35 C 691.60 336.62 695.86 340.20 701.32 346.85 C 706.78 353.49 714.20 362.79 719.60 372.23 C 724.99 381.66 730.50 395.21 733.70 403.46 C 736.89 411.71 737.41 415.46 738.76 421.72 C 740.11 427.98 741.13 431.75 741.80 441.02 C 742.48 450.29 743.50 465.84 742.82 477.33 C 742.15 488.81 740.28 499.13 737.76 509.94 C 735.24 520.76 732.06 530.79 727.70 542.21 C 723.33 553.63 718.97 565.03 711.60 578.44 C 704.23 591.84 691.60 610.99 683.47 622.64 C 675.34 634.29 670.25 640.08 662.83 648.33 C 655.42 656.59 646.49 665.16 638.99 672.16 C 631.49 679.16 628.41 682.41 617.82 690.32 C 607.22 698.22 589.50 711.21 575.43 719.59 C 561.37 727.97 546.02 735.23 533.44 740.59 C 520.85 745.95 510.62 749.08 499.94 751.75 C 489.26 754.43 474.47 755.84 469.33 756.67 C 464.20 757.50 474.41 756.88 469.14 756.73 Z"/>
    <path d="M 739.14 353.73 C 738.75 353.65 737.70 354.71 736.99 353.19 C 736.28 351.68 735.22 349.29 734.86 344.65 C 734.50 340.00 735.17 331.66 734.82 325.34 C 734.47 319.02 734.95 317.20 732.76 306.72 C 730.58 296.24 726.39 276.37 721.70 262.46 C 717.00 248.54 709.95 234.10 704.60 223.23 C 699.25 212.36 696.81 207.79 689.60 197.23 C 682.38 186.66 670.26 170.47 661.32 159.85 C 652.39 149.23 646.11 142.78 635.99 133.51 C 625.88 124.23 611.73 112.44 600.63 104.20 C 589.54 95.96 581.47 90.76 569.43 84.07 C 557.40 77.38 540.64 69.26 528.44 64.07 C 516.23 58.89 507.17 55.85 496.21 52.98 C 485.24 50.11 473.23 48.04 462.64 46.87 C 452.06 45.70 442.07 45.43 432.70 45.95 C 423.34 46.47 414.00 48.31 406.46 49.98 C 398.92 51.65 393.17 53.80 387.46 55.98 C 381.76 58.16 378.14 59.87 372.23 63.07 C 366.33 66.28 359.07 70.02 352.03 75.20 C 344.99 80.38 336.49 87.16 330.00 94.16 C 323.50 101.17 317.91 109.35 313.07 117.23 C 308.23 125.11 304.01 132.66 300.97 141.46 C 297.94 150.26 295.88 161.16 294.86 170.02 C 293.84 178.89 294.18 186.61 294.86 194.65 C 295.55 202.68 297.44 211.74 298.97 218.21 C 300.51 224.68 302.22 229.07 304.07 233.44 C 305.92 237.81 306.52 238.88 310.07 244.44 C 313.61 250.00 317.78 257.72 325.35 266.82 C 332.91 275.92 350.48 292.93 355.47 299.03 C 360.46 305.12 356.17 302.80 355.30 303.39 C 354.43 303.99 351.84 303.30 350.23 302.59 C 348.63 301.88 350.30 303.59 345.68 299.16 C 341.05 294.73 327.75 281.58 322.51 275.99 C 317.26 270.41 317.94 271.06 314.20 265.64 C 310.46 260.21 303.77 250.34 300.07 243.44 C 296.36 236.53 294.17 231.51 291.97 224.21 C 289.77 216.91 287.71 208.84 286.86 199.65 C 286.01 190.45 286.01 178.22 286.86 169.02 C 287.71 159.82 289.10 153.42 291.97 144.46 C 294.84 135.49 300.20 122.97 304.07 115.23 C 307.94 107.49 310.82 103.76 315.20 98.03 C 319.58 92.30 324.51 86.17 330.35 80.85 C 336.19 75.52 343.58 70.53 350.23 66.07 C 356.88 61.61 364.03 57.26 370.23 54.08 C 376.44 50.89 378.55 49.67 387.46 46.98 C 396.38 44.28 411.20 39.43 423.73 37.91 C 436.26 36.39 450.78 36.87 462.64 37.87 C 474.51 38.87 482.68 40.56 494.94 43.91 C 507.20 47.26 523.46 52.78 536.21 57.98 C 548.95 63.17 558.20 67.37 571.43 75.08 C 584.67 82.78 604.87 96.46 615.63 104.20 C 626.39 111.94 627.21 113.07 635.99 121.51 C 644.77 129.95 658.39 143.23 668.32 154.85 C 678.26 166.47 688.05 180.00 695.60 191.23 C 703.15 202.46 707.41 209.02 713.60 222.23 C 719.78 235.43 728.33 257.21 732.70 270.46 C 737.06 283.71 738.25 293.80 739.76 301.72 C 741.28 309.65 741.30 312.03 741.80 318.02 C 742.31 324.01 743.22 331.71 742.80 337.65 C 742.39 343.59 739.93 350.98 739.32 353.66 C 738.71 356.34 739.53 353.80 739.14 353.73 Z"/>
    <path d="M 194.14 499.73 C 191.26 499.75 183.76 500.46 177.02 499.80 C 170.29 499.13 159.69 497.12 153.73 495.75 C 147.76 494.39 147.15 494.12 141.23 491.59 C 135.32 489.07 127.08 486.25 118.23 480.60 C 109.39 474.94 95.50 463.99 88.16 457.67 C 80.83 451.34 78.55 448.01 74.20 442.64 C 69.85 437.27 65.42 430.64 62.07 425.44 C 58.71 420.24 56.75 417.15 54.07 411.44 C 51.39 405.74 48.67 400.68 45.97 391.21 C 43.27 381.74 39.21 366.34 37.86 354.65 C 36.51 342.95 36.18 335.55 37.86 321.02 C 39.55 306.49 44.10 281.92 47.97 267.46 C 51.84 252.99 57.39 242.77 61.07 234.23 C 64.75 225.69 64.55 225.59 70.07 216.23 C 75.59 206.86 88.15 187.09 94.20 178.03 C 100.24 168.96 100.46 168.91 106.35 161.85 C 112.23 154.79 120.06 145.11 129.51 135.67 C 138.95 126.23 149.41 115.47 163.03 105.20 C 176.65 94.93 195.83 82.61 211.23 74.08 C 226.64 65.54 242.05 59.17 255.46 53.98 C 268.88 48.78 282.97 45.26 291.73 42.91 C 300.49 40.56 300.44 40.69 308.02 39.87 C 315.60 39.05 331.47 37.95 337.21 37.98 C 342.94 38.01 341.42 39.43 342.44 40.07 C 343.45 40.70 343.88 41.01 343.30 41.79 C 342.71 42.57 343.20 43.90 338.94 44.75 C 334.68 45.61 327.14 45.37 317.73 46.91 C 308.31 48.45 292.01 51.63 282.46 53.98 C 272.92 56.32 268.50 57.96 260.46 60.98 C 252.42 63.99 245.27 66.56 234.23 72.07 C 223.19 77.59 206.46 86.36 194.23 94.07 C 182.00 101.78 170.36 110.69 160.85 118.35 C 151.34 126.00 144.08 133.25 137.16 140.00 C 130.25 146.75 126.84 149.67 119.35 158.85 C 111.85 168.02 100.08 182.96 92.20 195.03 C 84.32 207.09 78.11 218.49 72.07 231.23 C 66.03 243.96 60.00 259.21 55.97 271.46 C 51.94 283.71 49.59 296.08 47.90 304.72 C 46.22 313.37 46.18 315.35 45.84 323.34 C 45.50 331.33 45.17 343.67 45.86 352.65 C 46.55 361.62 47.60 368.41 49.97 377.21 C 52.34 386.01 55.70 396.20 60.07 405.44 C 64.44 414.68 72.48 426.74 76.20 432.64 C 79.91 438.54 78.27 436.40 82.35 440.82 C 86.43 445.24 94.89 454.05 100.68 459.16 C 106.46 464.27 110.23 467.38 117.03 471.47 C 123.83 475.55 132.35 480.31 141.46 483.69 C 150.58 487.07 162.36 490.40 171.73 491.75 C 181.09 493.11 191.61 492.12 197.65 491.79 C 203.68 491.46 203.81 490.79 207.94 489.75 C 212.07 488.72 215.35 488.62 222.44 485.59 C 229.52 482.57 243.04 475.97 250.43 471.60 C 257.83 467.22 259.72 465.55 266.82 459.32 C 273.92 453.09 287.74 438.38 293.03 434.20 C 298.33 430.02 297.86 433.65 298.60 434.22 C 299.34 434.79 298.68 435.87 297.47 437.64 C 296.26 439.41 295.32 440.65 291.32 444.82 C 287.33 448.99 279.48 457.37 273.50 462.67 C 267.52 467.96 263.15 471.76 255.43 476.60 C 247.72 481.43 235.29 488.16 227.20 491.69 C 219.12 495.21 212.42 496.42 206.94 497.75 C 201.46 499.08 196.47 499.34 194.33 499.67 C 192.20 500.00 197.03 499.71 194.14 499.73 Z"/>
    <path d="M 471.15 736.72 C 468.38 736.56 457.87 736.48 454.73 735.75 C 451.58 735.03 452.22 733.18 452.27 732.37 C 452.32 731.55 451.74 731.31 455.02 730.87 C 458.30 730.44 463.24 731.45 471.94 729.75 C 480.64 728.06 498.12 723.38 507.21 720.69 C 516.29 717.99 516.56 718.11 526.43 713.59 C 536.30 709.07 555.90 699.62 566.43 693.60 C 576.97 687.57 581.57 683.51 589.63 677.47 C 597.70 671.42 605.56 665.73 614.82 657.32 C 624.07 648.91 637.89 634.77 645.16 626.99 C 652.44 619.21 651.73 620.40 658.47 610.64 C 665.21 600.88 677.73 583.18 685.60 568.44 C 693.47 553.70 701.33 533.96 705.70 522.21 C 710.06 510.46 710.08 506.20 711.76 497.94 C 713.45 489.68 715.47 483.18 715.80 472.65 C 716.14 462.11 714.78 443.75 713.76 434.72 C 712.75 425.69 712.39 425.87 709.70 418.46 C 707.00 411.04 702.30 398.97 697.60 390.23 C 692.89 381.49 686.27 372.17 681.47 366.03 C 676.67 359.88 674.29 357.99 668.82 353.35 C 663.34 348.71 654.07 341.76 648.63 338.20 C 643.20 334.64 640.11 333.68 636.20 331.98 C 632.30 330.28 630.25 329.32 625.21 327.98 C 620.16 326.63 612.09 324.60 605.94 323.91 C 599.80 323.22 595.92 322.67 588.34 323.85 C 580.76 325.03 569.01 327.59 560.46 330.98 C 551.91 334.37 544.42 338.86 537.03 344.20 C 529.65 349.54 524.41 354.80 516.16 363.00 C 507.92 371.20 501.79 379.02 487.56 393.40 C 473.34 407.79 440.82 439.65 430.82 449.32 C 420.82 458.98 428.50 451.18 427.57 451.39 C 426.64 451.60 425.66 451.42 425.23 450.60 C 424.80 449.78 421.68 450.86 424.97 446.46 C 428.27 442.05 430.27 439.27 445.00 424.16 C 459.72 409.06 498.83 369.99 513.33 355.83 C 527.84 341.67 526.72 343.49 532.03 339.20 C 537.35 334.91 538.83 333.28 545.23 330.07 C 551.64 326.87 563.00 322.18 570.46 319.98 C 577.93 317.78 583.66 317.39 590.02 316.87 C 596.39 316.36 601.78 316.02 608.64 316.87 C 615.51 317.72 623.41 319.11 631.20 321.98 C 639.00 324.85 647.89 329.40 655.43 334.07 C 662.98 338.74 669.50 343.17 676.50 350.00 C 683.51 356.82 691.60 366.62 697.47 375.03 C 703.34 383.44 708.32 393.05 711.70 400.46 C 715.07 407.86 716.02 412.91 717.70 419.46 C 719.37 426.00 720.91 430.24 721.76 439.72 C 722.62 449.20 723.17 466.30 722.83 476.33 C 722.50 486.37 721.62 491.13 719.76 499.94 C 717.91 508.76 716.06 517.63 711.70 529.21 C 707.34 540.79 699.14 558.37 693.60 569.44 C 688.06 580.51 685.52 585.41 678.47 595.64 C 671.42 605.87 661.43 619.37 651.32 630.82 C 641.21 642.27 629.76 653.88 617.82 664.32 C 605.87 674.76 592.86 684.75 579.63 693.47 C 566.40 702.18 552.84 710.05 538.43 716.59 C 524.03 723.13 504.39 729.34 493.21 732.69 C 482.02 736.03 475.01 735.99 471.34 736.66 C 467.66 737.34 473.92 736.87 471.15 736.72 Z"/>
    <path d="M 719.50 331.46 C 719.07 330.96 717.82 330.15 717.07 328.44 C 716.31 326.73 716.02 326.83 714.97 321.21 C 713.92 315.59 713.31 304.85 710.76 294.72 C 708.22 284.60 703.89 271.21 699.70 260.46 C 695.50 249.71 691.47 240.97 685.60 230.23 C 679.73 219.49 670.35 204.92 664.47 196.03 C 658.59 187.13 658.43 185.96 650.32 176.85 C 642.21 167.73 625.26 150.29 615.82 141.35 C 606.37 132.41 602.70 129.75 593.63 123.20 C 584.57 116.65 572.30 108.43 561.43 102.07 C 550.57 95.72 536.80 89.09 528.43 85.08 C 520.06 81.06 520.29 80.84 511.21 77.98 C 502.12 75.12 483.36 69.94 473.94 67.91 C 464.52 65.89 463.65 65.84 454.67 65.84 C 445.68 65.83 428.89 66.85 420.02 67.87 C 411.15 68.89 407.26 70.28 401.46 71.98 C 395.66 73.68 390.60 75.56 385.23 78.07 C 379.86 80.59 374.91 83.25 369.23 87.07 C 363.55 90.89 356.67 95.84 351.16 101.00 C 345.66 106.16 341.06 110.78 336.20 118.03 C 331.33 125.27 325.35 135.84 321.97 144.46 C 318.59 153.07 317.09 162.02 315.90 169.72 C 314.72 177.42 314.52 183.90 314.86 190.65 C 315.21 197.39 316.10 203.41 317.97 210.21 C 319.84 217.01 323.36 225.70 326.07 231.44 C 328.77 237.18 330.82 239.91 334.20 244.64 C 337.58 249.37 340.80 253.76 346.35 259.82 C 351.89 265.89 363.41 276.59 367.47 281.03 C 371.53 285.47 370.28 285.01 370.70 286.46 C 371.11 287.90 371.27 289.74 369.96 289.71 C 368.65 289.69 368.31 291.00 362.85 286.32 C 357.39 281.64 344.16 269.62 337.20 261.64 C 330.23 253.66 325.44 246.34 321.07 238.44 C 316.70 230.53 313.34 221.89 310.97 214.21 C 308.60 206.52 307.36 200.53 306.84 192.33 C 306.32 184.13 307.01 172.67 307.86 165.02 C 308.72 157.38 309.44 153.76 311.97 146.46 C 314.51 139.16 319.34 128.00 323.07 121.23 C 326.80 114.46 330.69 110.19 334.35 105.85 C 338.00 101.50 340.02 99.46 345.00 95.16 C 349.98 90.87 357.19 84.59 364.23 80.07 C 371.27 75.56 381.53 70.76 387.23 68.08 C 392.94 65.39 391.83 65.68 398.46 63.98 C 405.09 62.28 419.54 59.06 427.02 57.87 C 434.50 56.68 437.34 56.82 443.33 56.83 C 449.32 56.85 455.76 57.05 462.96 57.95 C 470.17 58.86 475.70 59.27 486.58 62.28 C 497.45 65.28 516.39 71.35 528.20 75.98 C 540.01 80.61 545.70 83.37 557.43 90.07 C 569.17 96.77 587.37 108.13 598.63 116.20 C 609.89 124.27 617.21 131.40 624.99 138.51 C 632.77 145.62 638.91 151.76 645.32 158.85 C 651.73 165.93 657.28 172.83 663.47 181.03 C 669.66 189.22 675.78 196.83 682.47 208.03 C 689.16 219.23 698.39 236.82 703.60 248.23 C 708.80 259.63 710.66 264.49 713.70 276.46 C 716.73 288.42 720.46 311.27 721.80 320.02 C 723.15 328.77 722.12 327.05 721.76 328.94 C 721.41 330.84 720.06 330.98 719.69 331.40 C 719.31 331.81 719.94 331.95 719.50 331.46 Z"/>
    <path d="M 477.14 716.73 C 476.00 716.57 471.65 716.26 470.47 715.67 C 469.30 715.09 469.07 714.18 470.07 713.23 C 471.07 712.28 470.94 711.57 476.46 709.98 C 481.98 708.39 494.54 706.59 503.21 703.69 C 511.87 700.79 519.40 696.94 528.44 692.59 C 537.47 688.24 549.57 682.12 557.43 677.60 C 565.30 673.07 568.71 670.54 575.63 665.47 C 582.56 660.39 589.18 656.13 598.99 647.16 C 608.80 638.19 624.20 623.76 634.47 611.64 C 644.74 599.52 652.91 586.97 660.60 574.44 C 668.29 561.91 676.08 545.65 680.60 536.44 C 685.11 527.24 685.17 527.13 687.70 519.21 C 690.22 511.29 694.08 496.20 695.76 488.94 C 697.45 481.68 697.47 483.02 697.80 475.65 C 698.14 468.28 698.61 453.59 697.76 444.72 C 696.91 435.86 694.72 429.54 692.70 422.46 C 690.67 415.37 689.30 409.13 685.60 402.23 C 681.89 395.32 674.99 386.73 670.47 381.03 C 665.95 375.32 662.64 371.80 658.50 368.00 C 654.36 364.19 650.18 361.21 645.63 358.20 C 641.08 355.20 636.82 352.36 631.21 349.98 C 625.59 347.60 618.25 345.27 611.94 343.91 C 605.63 342.56 598.75 341.84 593.34 341.85 C 587.93 341.86 584.61 342.62 579.46 343.98 C 574.32 345.33 568.53 346.94 562.46 349.98 C 556.39 353.02 561.78 344.67 543.03 362.20 C 524.29 379.73 467.13 438.41 449.99 455.16 C 432.85 471.90 442.18 461.59 440.21 462.67 C 438.25 463.75 438.57 462.18 438.20 461.64 C 437.82 461.10 436.75 461.62 437.97 459.46 C 439.19 457.30 432.14 462.75 445.51 448.67 C 458.87 434.60 503.27 389.89 518.16 375.00 C 533.06 360.11 529.51 363.84 534.85 359.35 C 540.19 354.86 543.96 351.63 550.23 348.07 C 556.50 344.51 565.72 340.17 572.46 337.98 C 579.21 335.79 584.17 335.30 590.70 334.95 C 597.23 334.60 605.56 335.03 611.64 335.87 C 617.73 336.71 621.21 337.59 627.20 339.98 C 633.20 342.37 640.39 345.34 647.63 350.20 C 654.88 355.07 664.84 363.66 670.67 369.16 C 676.50 374.67 678.26 376.35 682.60 383.23 C 686.94 390.11 693.17 401.21 696.70 410.46 C 700.22 419.71 702.24 429.41 703.76 438.72 C 705.28 448.03 705.81 460.44 705.82 466.33 C 705.84 472.21 704.21 470.58 703.86 474.02 C 703.52 477.46 704.45 481.46 703.76 486.94 C 703.08 492.43 701.61 500.07 699.76 506.94 C 697.92 513.82 696.72 518.46 692.70 528.21 C 688.67 537.96 682.47 553.03 675.60 565.44 C 668.73 577.84 658.24 593.18 651.47 602.64 C 644.70 612.09 643.77 613.05 635.00 622.16 C 626.22 631.28 609.41 648.08 598.82 657.32 C 588.22 666.56 581.83 670.88 571.43 677.60 C 561.04 684.31 548.47 691.75 536.44 697.59 C 524.40 703.44 509.06 709.49 499.21 712.67 C 489.36 715.85 481.01 715.99 477.33 716.67 C 473.66 717.35 478.29 716.90 477.14 716.73 Z"/>
    <path d="M 183.14 478.73 C 181.04 478.58 176.67 478.93 170.73 477.75 C 164.78 476.58 156.21 475.21 147.46 471.69 C 138.71 468.16 126.29 461.81 118.23 456.60 C 110.17 451.38 103.94 444.90 99.10 440.40 C 94.26 435.91 92.37 433.63 89.20 429.64 C 86.02 425.64 83.94 423.51 80.07 416.44 C 76.20 409.37 69.67 398.18 65.97 387.21 C 62.27 376.24 59.21 361.01 57.86 350.65 C 56.51 340.28 57.19 334.34 57.86 325.02 C 58.54 315.70 60.55 302.65 61.90 294.72 C 63.25 286.80 63.28 285.71 65.97 277.46 C 68.67 269.21 72.72 256.76 78.07 245.23 C 83.42 233.69 90.52 220.29 98.07 208.23 C 105.61 196.16 113.71 184.49 123.35 172.85 C 132.98 161.20 145.40 148.29 155.85 138.35 C 166.30 128.41 176.64 120.25 186.03 113.20 C 195.43 106.15 203.53 101.26 212.23 96.07 C 220.93 90.88 229.03 86.42 238.23 82.07 C 247.44 77.73 259.26 72.99 267.46 69.98 C 275.67 66.96 281.08 65.66 287.46 63.98 C 293.84 62.30 301.10 60.58 305.73 59.91 C 310.35 59.25 313.21 59.60 315.21 59.98 C 317.20 60.36 317.96 61.43 317.67 62.20 C 317.37 62.97 321.47 61.96 313.44 64.59 C 305.40 67.22 280.83 74.07 269.46 77.98 C 258.09 81.89 253.10 84.39 245.23 88.07 C 237.36 91.76 231.27 94.72 222.23 100.07 C 213.20 105.43 200.76 113.15 191.03 120.20 C 181.30 127.25 171.30 135.91 163.85 142.35 C 156.40 148.79 154.12 150.23 146.35 158.85 C 138.57 167.46 126.24 181.30 117.20 194.03 C 108.15 206.76 98.94 221.99 92.07 235.23 C 85.20 248.47 79.67 263.54 75.97 273.46 C 72.28 283.37 71.59 287.24 69.90 294.72 C 68.22 302.20 66.52 309.02 65.84 318.34 C 65.17 327.66 65.17 341.50 65.86 350.65 C 66.55 359.79 67.60 364.91 69.97 373.21 C 72.34 381.51 77.03 393.54 80.07 400.44 C 83.11 407.35 84.07 408.82 88.20 414.64 C 92.32 420.45 99.03 429.36 104.83 435.33 C 110.64 441.30 117.47 446.42 123.03 450.47 C 128.60 454.51 131.95 456.71 138.23 459.59 C 144.52 462.47 153.04 465.95 160.73 467.75 C 168.41 469.56 176.96 470.26 184.33 470.43 C 191.70 470.60 199.09 469.73 204.94 468.75 C 210.79 467.78 213.52 467.12 219.43 464.59 C 225.35 462.06 234.37 457.47 240.43 453.59 C 246.50 449.71 250.72 445.88 255.82 441.32 C 260.92 436.75 266.96 429.91 271.03 426.20 C 275.10 422.49 278.13 420.20 280.23 419.08 C 282.34 417.96 283.14 418.71 283.68 419.47 C 284.22 420.23 286.17 420.11 283.47 423.64 C 280.77 427.17 272.97 435.36 267.50 440.67 C 262.03 445.97 255.48 451.65 250.63 455.47 C 245.79 459.29 242.50 461.22 238.43 463.59 C 234.36 465.96 231.24 467.67 226.20 469.69 C 221.17 471.70 215.35 474.19 208.21 475.69 C 201.06 477.18 187.51 478.16 183.33 478.67 C 179.16 479.18 185.25 478.88 183.14 478.73 Z"/>
    <path d="M 699.15 308.71 C 698.27 307.84 697.14 311.32 694.07 303.44 C 690.99 295.56 685.77 274.16 680.70 261.46 C 675.62 248.76 669.47 237.47 663.60 227.23 C 657.73 216.99 650.68 207.26 645.47 200.03 C 640.26 192.80 639.40 191.60 632.32 183.85 C 625.24 176.09 612.27 162.12 602.99 153.51 C 593.71 144.90 589.06 140.44 576.63 132.20 C 564.21 123.96 541.17 110.61 528.43 104.08 C 515.70 97.54 510.12 96.34 500.21 92.98 C 490.29 89.62 479.64 85.60 468.94 83.91 C 458.24 82.23 445.72 82.37 436.02 82.87 C 426.32 83.37 417.36 85.38 410.73 86.91 C 404.09 88.45 402.02 89.36 396.23 92.08 C 390.45 94.79 382.51 98.57 376.03 103.20 C 369.55 107.83 362.34 114.51 357.35 119.85 C 352.35 125.18 349.63 128.63 346.07 135.23 C 342.51 141.83 338.01 153.61 335.97 159.46 C 333.93 165.31 334.19 163.92 333.84 170.34 C 333.50 176.75 332.88 189.97 333.90 197.94 C 334.93 205.92 337.94 212.79 339.97 218.21 C 342.00 223.63 343.17 226.00 346.07 230.44 C 348.96 234.87 351.11 237.89 357.35 244.82 C 363.58 251.75 378.96 267.11 383.47 272.03 C 387.98 276.95 384.52 273.71 384.43 274.33 C 384.34 274.95 384.14 275.71 382.94 275.76 C 381.74 275.80 379.25 275.50 377.23 274.59 C 375.22 273.69 376.00 275.28 370.85 270.32 C 365.70 265.36 351.81 251.13 346.35 244.82 C 340.88 238.51 340.63 237.04 338.07 232.44 C 335.51 227.84 333.00 222.79 330.97 217.21 C 328.94 211.63 326.93 204.26 325.90 198.94 C 324.88 193.63 324.84 190.71 324.84 185.34 C 324.84 179.97 324.37 174.58 325.90 166.72 C 327.44 158.87 330.69 146.18 334.07 138.23 C 337.45 130.28 341.37 125.20 346.20 119.03 C 351.02 112.86 355.19 107.03 363.03 101.20 C 370.87 95.38 384.45 88.12 393.23 84.08 C 402.02 80.03 409.32 78.45 415.73 76.91 C 422.13 75.37 422.97 75.01 431.67 74.84 C 440.37 74.67 455.35 74.06 467.94 75.91 C 480.53 77.77 497.29 82.95 507.20 85.98 C 517.12 89.01 519.73 90.56 527.43 94.08 C 535.14 97.59 543.73 101.38 553.43 107.07 C 563.13 112.76 574.64 120.03 585.63 128.20 C 596.63 136.37 610.43 147.63 619.40 156.10 C 628.37 164.57 631.60 169.01 639.47 179.03 C 647.34 189.05 659.24 204.86 666.60 216.23 C 673.95 227.59 678.75 236.86 683.60 247.23 C 688.45 257.60 692.83 269.66 695.70 278.46 C 698.56 287.26 700.20 294.99 700.80 300.02 C 701.41 305.05 699.60 307.20 699.32 308.65 C 699.05 310.10 700.02 309.58 699.15 308.71 Z"/>
    <path d="M 191.14 459.73 C 186.71 459.41 173.54 459.78 164.73 457.75 C 155.91 455.73 146.10 451.72 138.23 447.60 C 130.36 443.47 122.99 437.46 117.50 433.00 C 112.02 428.53 109.25 425.41 105.35 420.82 C 101.44 416.23 97.96 412.21 94.07 405.44 C 90.17 398.67 84.84 388.84 81.97 380.21 C 79.10 371.58 77.89 361.68 76.86 353.65 C 75.84 345.61 75.82 338.16 75.83 332.00 C 75.85 325.84 75.91 323.96 76.94 316.70 C 77.96 309.44 78.78 299.70 81.97 288.46 C 85.16 277.21 90.05 262.43 96.07 249.23 C 102.08 236.02 109.69 221.96 118.07 209.23 C 126.45 196.50 137.94 182.61 146.35 172.85 C 154.75 163.09 158.39 159.45 168.50 150.67 C 178.62 141.90 194.91 128.63 207.03 120.20 C 219.15 111.77 231.49 105.28 241.23 100.07 C 250.97 94.87 258.42 91.83 265.46 88.98 C 272.50 86.13 278.05 84.16 283.46 82.98 C 288.87 81.80 295.28 81.65 297.94 81.92 C 300.59 82.18 299.64 83.62 299.39 84.57 C 299.14 85.52 303.46 84.67 296.43 87.59 C 289.41 90.51 270.10 96.33 257.23 102.07 C 244.36 107.82 230.43 115.22 219.23 122.07 C 208.03 128.93 199.40 135.69 190.03 143.20 C 180.66 150.72 171.30 158.86 163.00 167.16 C 154.69 175.47 147.85 183.02 140.20 193.03 C 132.54 203.04 123.77 215.99 117.07 227.23 C 110.36 238.47 104.82 248.92 99.97 260.46 C 95.12 272.00 90.82 286.25 87.97 296.46 C 85.13 306.67 83.76 315.58 82.90 321.72 C 82.05 327.87 82.67 327.51 82.83 333.33 C 82.99 339.15 83.37 352.08 83.86 356.65 C 84.35 361.21 85.08 357.46 85.76 360.72 C 86.45 363.98 86.25 370.42 87.97 376.21 C 89.69 382.00 93.20 390.03 96.07 395.44 C 98.94 400.84 100.15 402.74 105.20 408.64 C 110.24 414.54 121.33 426.01 126.33 430.83 C 131.34 435.66 130.21 434.79 135.23 437.60 C 140.25 440.40 151.05 445.49 156.46 447.69 C 161.88 449.88 160.98 450.08 167.73 450.75 C 174.47 451.43 188.86 452.60 196.94 451.75 C 205.02 450.91 210.96 447.72 216.21 445.69 C 221.45 443.66 223.50 442.99 228.43 439.59 C 233.37 436.20 239.72 430.88 245.82 425.32 C 251.92 419.75 261.28 409.61 265.03 406.20 C 268.79 402.79 267.41 404.86 268.33 404.86 C 269.26 404.87 270.74 404.76 270.60 406.23 C 270.45 407.69 269.52 410.71 267.47 413.64 C 265.42 416.57 263.29 419.02 258.32 423.82 C 253.35 428.62 245.49 437.15 237.63 442.47 C 229.78 447.78 218.92 452.82 211.21 455.69 C 203.49 458.55 194.68 459.00 191.33 459.67 C 187.99 460.34 195.58 460.05 191.14 459.73 Z"/>
    <path d="M 354.15 377.72 C 353.58 377.39 350.94 376.94 350.94 375.70 C 350.93 374.46 341.95 382.83 354.10 370.26 C 366.25 357.70 406.11 318.60 423.83 300.33 C 441.56 282.06 452.01 271.12 460.47 260.64 C 468.93 250.16 471.23 243.84 474.60 237.44 C 477.97 231.03 478.83 228.68 480.70 222.21 C 482.56 215.74 484.97 208.27 485.80 198.65 C 486.64 189.02 486.54 173.31 485.69 164.45 C 484.83 155.59 482.71 151.66 480.70 145.46 C 478.68 139.25 478.05 135.43 473.60 127.23 C 469.14 119.02 457.42 102.13 453.97 96.21 C 450.52 90.29 452.70 92.76 452.90 91.72 C 453.11 90.69 453.12 88.78 455.21 89.99 C 457.31 91.21 461.41 93.99 465.47 99.03 C 469.53 104.07 475.89 113.66 479.60 120.23 C 483.30 126.80 485.83 133.54 487.70 138.46 C 489.56 143.37 489.64 143.58 490.76 149.72 C 491.89 155.87 493.92 167.73 494.43 175.33 C 494.94 182.93 494.95 186.85 493.82 195.33 C 492.70 203.81 490.07 218.02 487.70 226.21 C 485.32 234.39 482.62 238.57 479.60 244.44 C 476.58 250.31 473.64 255.71 469.60 261.44 C 465.55 267.17 473.50 260.12 455.32 278.82 C 437.14 297.53 377.33 357.19 360.50 373.67 C 343.67 390.14 355.39 376.99 354.34 377.66 C 353.28 378.34 354.72 378.04 354.15 377.72 Z"/>
    <path d="M 369.14 388.73 C 368.67 388.73 367.02 388.96 366.47 388.67 C 365.93 388.39 365.22 388.66 365.86 387.02 C 366.51 385.38 357.04 392.77 370.35 378.85 C 383.65 364.93 429.17 320.34 445.67 303.50 C 462.16 286.66 462.50 286.16 469.32 277.82 C 476.14 269.48 482.54 259.87 486.60 253.44 C 490.66 247.00 491.50 244.63 493.70 239.21 C 495.89 233.79 498.09 227.82 499.76 220.94 C 501.44 214.07 503.10 206.65 503.76 197.94 C 504.42 189.24 504.91 178.62 503.73 168.70 C 502.56 158.79 499.38 147.20 496.70 138.46 C 494.01 129.71 491.22 123.81 487.60 116.23 C 483.97 108.64 476.75 97.18 474.93 92.96 C 473.12 88.75 475.68 91.08 476.73 90.91 C 477.77 90.75 479.75 91.13 481.20 91.98 C 482.66 92.83 483.24 92.99 485.47 96.03 C 487.70 99.07 491.89 105.16 494.60 110.23 C 497.30 115.30 499.17 119.21 501.70 126.46 C 504.22 133.71 508.07 146.41 509.76 153.72 C 511.45 161.04 511.48 163.35 511.82 170.34 C 512.16 177.33 512.13 190.20 511.80 195.65 C 511.48 201.09 510.20 200.30 509.86 203.02 C 509.52 205.74 511.12 205.91 509.76 211.94 C 508.40 217.98 505.56 229.96 501.70 239.21 C 497.84 248.46 491.66 259.34 486.60 267.44 C 481.54 275.54 490.87 267.62 471.32 287.82 C 451.78 308.03 386.36 371.85 369.33 388.67 C 352.30 405.49 369.62 388.73 369.14 388.73 Z"/>
    <path d="M 339.51 362.46 C 339.10 362.15 337.51 361.28 337.27 360.57 C 337.03 359.87 336.22 360.68 338.07 358.23 C 339.91 355.77 343.25 351.13 348.35 345.85 C 353.45 340.56 363.02 332.29 368.67 326.50 C 374.32 320.71 379.10 314.27 382.26 311.10 C 385.43 307.94 377.83 317.55 387.67 307.50 C 397.51 297.46 430.50 263.00 441.32 250.82 C 452.14 238.64 449.20 240.54 452.60 234.44 C 455.99 228.34 459.49 221.51 461.70 214.21 C 463.90 206.91 465.11 196.63 465.80 190.65 C 466.49 184.67 466.52 184.70 465.83 178.33 C 465.15 171.97 463.73 160.14 461.70 152.46 C 459.66 144.77 457.14 138.80 453.60 132.23 C 450.06 125.66 444.73 118.66 440.47 113.03 C 436.22 107.40 430.50 101.82 428.07 98.44 C 425.64 95.05 425.71 93.97 425.90 92.72 C 426.09 91.48 426.83 89.82 429.21 90.98 C 431.58 92.14 435.78 95.00 440.16 99.67 C 444.54 104.35 451.73 113.60 455.47 119.03 C 459.21 124.45 460.23 126.99 462.60 132.23 C 464.97 137.47 467.83 143.49 469.70 150.46 C 471.56 157.42 473.11 167.37 473.80 174.02 C 474.49 180.67 474.52 183.64 473.83 190.33 C 473.15 197.03 471.90 206.53 469.70 214.21 C 467.49 221.89 464.66 229.00 460.60 236.44 C 456.54 243.87 464.00 238.78 445.32 258.82 C 426.64 278.86 366.11 339.40 348.50 356.67 C 330.90 373.93 341.19 361.44 339.69 362.40 C 338.20 363.37 339.91 362.76 339.51 362.46 Z"/>
    <path d="M 328.14 348.73 C 327.63 348.72 325.88 348.87 325.23 348.59 C 324.59 348.32 323.42 348.55 324.27 347.10 C 325.12 345.64 318.92 351.47 330.35 339.85 C 341.77 328.22 376.67 294.00 392.83 277.33 C 409.00 260.66 420.53 247.47 427.32 239.82 C 434.12 232.17 431.20 235.54 433.60 231.44 C 435.99 227.34 439.49 221.39 441.70 215.21 C 443.90 209.02 445.97 201.19 446.82 194.33 C 447.68 187.46 447.33 180.33 446.80 174.02 C 446.28 167.71 445.23 161.92 443.70 156.46 C 442.16 150.99 439.97 146.13 437.60 141.23 C 435.23 136.32 434.73 133.49 429.47 127.03 C 424.22 120.56 410.13 107.07 406.07 102.44 C 402.00 97.81 404.55 100.13 405.07 99.22 C 405.59 98.31 407.05 96.43 409.21 96.98 C 411.36 97.53 413.45 98.33 417.99 102.51 C 422.54 106.68 432.04 116.57 436.47 122.03 C 440.90 127.48 442.06 130.16 444.60 135.23 C 447.14 140.30 449.99 147.16 451.70 152.46 C 453.40 157.76 454.11 161.21 454.80 167.02 C 455.49 172.83 456.35 180.14 455.83 187.33 C 455.32 194.53 454.07 202.36 451.70 210.21 C 449.32 218.06 444.66 228.50 441.60 234.44 C 438.54 240.37 450.34 228.12 433.32 245.82 C 416.31 263.53 357.00 323.53 339.50 340.67 C 322.00 357.81 330.23 347.33 328.33 348.67 C 326.44 350.01 328.66 348.74 328.14 348.73 Z"/>
    <path d="M 315.47 704.41 C 313.93 703.33 309.91 701.65 306.35 697.82 C 302.78 693.99 297.28 686.34 294.07 681.44 C 290.85 676.54 289.75 674.48 287.07 668.44 C 284.39 662.40 280.34 654.34 277.97 645.21 C 275.60 636.08 273.55 624.34 272.86 613.65 C 272.18 602.95 273.18 588.89 273.86 581.02 C 274.55 573.16 275.29 572.22 276.97 566.46 C 278.66 560.70 281.12 553.00 283.97 546.46 C 286.82 539.92 289.51 534.33 294.07 527.23 C 298.63 520.13 304.58 511.63 311.35 503.85 C 318.11 496.06 329.96 484.84 334.68 480.51 C 339.39 476.18 338.46 477.91 339.65 477.88 C 340.84 477.85 341.84 479.21 341.81 480.33 C 341.79 481.46 344.74 478.52 339.47 484.64 C 334.20 490.75 317.76 507.43 310.20 517.03 C 302.63 526.63 298.44 533.66 294.07 542.23 C 289.70 550.80 286.28 560.61 283.97 568.46 C 281.67 576.31 280.91 581.58 280.24 589.33 C 279.56 597.08 278.98 605.65 279.93 614.96 C 280.89 624.28 283.62 636.80 285.97 645.21 C 288.33 653.62 289.30 656.44 294.07 665.44 C 298.84 674.44 311.01 692.75 314.60 699.23 C 318.19 705.71 315.47 703.45 315.62 704.32 C 315.76 705.18 317.02 705.49 315.47 704.41 Z"/>
    <path d="M 607.14 517.73 C 603.48 517.76 591.58 518.15 585.34 517.82 C 579.10 517.49 575.71 517.11 569.73 515.75 C 563.75 514.40 555.71 512.05 549.46 509.69 C 543.21 507.33 540.67 506.66 532.23 501.60 C 523.80 496.53 508.16 486.61 498.85 479.32 C 489.54 472.02 481.26 463.18 476.35 457.82 C 471.43 452.46 470.14 449.09 469.35 447.17 C 468.55 445.24 470.36 446.10 471.58 446.27 C 472.79 446.44 472.92 445.03 476.63 448.20 C 480.35 451.38 485.75 458.42 493.85 465.32 C 501.95 472.22 516.30 483.70 525.23 489.59 C 534.17 495.49 540.05 497.66 547.46 500.69 C 554.88 503.72 563.52 506.25 569.73 507.75 C 575.93 509.26 578.10 509.37 584.70 509.72 C 591.30 510.06 601.62 510.48 609.33 509.82 C 617.03 509.16 622.76 508.29 630.94 505.75 C 639.13 503.22 650.05 498.87 658.44 494.59 C 666.82 490.31 676.68 482.85 681.23 480.07 C 685.78 477.29 684.65 478.18 685.73 477.91 C 686.80 477.65 687.37 477.89 687.68 478.47 C 687.99 479.06 688.27 480.11 687.60 481.44 C 686.92 482.77 686.66 483.94 683.63 486.47 C 680.61 488.99 673.97 493.74 669.43 496.60 C 664.90 499.45 661.97 501.08 656.44 503.59 C 650.90 506.11 644.39 509.34 636.21 511.69 C 628.02 514.03 612.18 516.66 607.33 517.67 C 602.49 518.68 610.81 517.71 607.14 517.73 Z"/>
    <path d="M 338.15 703.71 C 336.98 702.91 334.83 702.18 331.33 698.83 C 327.84 695.49 321.91 690.04 317.20 683.64 C 312.49 677.24 306.95 668.89 303.07 660.44 C 299.19 651.99 295.94 640.74 293.90 632.94 C 291.87 625.14 291.37 620.13 290.86 613.65 C 290.36 607.16 290.34 600.72 290.86 594.02 C 291.38 587.32 291.44 582.09 293.97 573.46 C 296.51 564.82 302.20 550.30 306.07 542.23 C 309.94 534.16 313.36 530.19 317.20 525.03 C 321.04 519.87 324.26 516.42 329.10 511.26 C 333.95 506.11 342.39 497.61 346.26 494.10 C 350.14 490.60 350.92 490.43 352.33 490.24 C 353.74 490.05 354.88 491.56 354.73 492.96 C 354.59 494.36 355.87 493.66 351.47 498.64 C 347.07 503.62 334.75 515.08 328.35 522.85 C 321.94 530.61 317.46 537.13 313.07 545.23 C 308.67 553.33 304.51 563.49 301.97 571.46 C 299.44 579.42 298.55 585.99 297.86 593.02 C 297.18 600.05 296.85 605.28 297.87 613.64 C 298.88 622.01 300.27 632.91 303.97 643.21 C 307.67 653.51 314.18 665.83 320.07 675.44 C 325.96 685.05 336.25 696.18 339.30 700.88 C 342.34 705.58 338.51 703.18 338.32 703.65 C 338.13 704.12 339.31 704.51 338.15 703.71 Z"/>
    <path d="M 602.14 499.73 C 599.09 499.59 589.97 499.47 584.02 498.80 C 578.07 498.12 572.26 497.22 566.46 495.69 C 560.66 494.15 554.77 491.94 549.23 489.59 C 543.69 487.24 539.27 485.28 533.23 481.60 C 527.20 477.91 518.79 471.87 513.03 467.47 C 507.27 463.06 503.15 459.46 498.68 455.16 C 494.20 450.85 489.08 445.30 486.20 441.64 C 483.31 437.97 481.72 434.78 481.35 433.17 C 480.97 431.55 482.91 431.94 483.96 431.95 C 485.01 431.96 482.15 428.31 487.63 433.20 C 493.11 438.10 508.58 454.25 516.85 461.32 C 525.12 468.38 530.13 471.53 537.23 475.60 C 544.33 479.66 550.83 482.99 559.46 485.69 C 568.09 488.39 581.54 490.77 589.02 491.80 C 596.50 492.82 599.17 492.16 604.33 491.82 C 609.48 491.48 614.63 490.94 619.94 489.75 C 625.25 488.57 630.12 487.05 636.21 484.69 C 642.29 482.33 649.53 479.46 656.43 475.59 C 663.34 471.72 673.20 464.70 677.63 461.47 C 682.07 458.23 681.53 457.20 683.03 456.20 C 684.54 455.21 686.22 454.80 686.65 455.50 C 687.08 456.21 687.07 458.14 685.60 460.44 C 684.13 462.74 683.34 465.13 677.82 469.32 C 672.29 473.51 661.04 481.20 652.43 485.59 C 643.83 489.99 634.55 493.34 626.21 495.69 C 617.86 498.03 606.35 499.00 602.33 499.67 C 598.32 500.34 605.20 499.88 602.14 499.73 Z"/>
    <path d="M 608.14 477.73 C 604.15 477.76 590.41 478.15 584.34 477.82 C 578.27 477.49 576.04 476.78 571.73 475.75 C 567.41 474.73 563.38 473.71 558.46 471.69 C 553.55 469.66 548.89 467.87 542.23 463.59 C 535.57 459.31 525.65 452.12 518.50 446.00 C 511.36 439.87 503.03 431.17 499.35 426.82 C 495.66 422.47 496.39 421.35 496.37 419.88 C 496.35 418.41 497.67 417.61 499.21 417.99 C 500.76 418.38 501.53 418.48 505.63 422.20 C 509.74 425.92 517.08 434.42 523.85 440.32 C 530.62 446.22 538.46 453.03 546.23 457.60 C 554.00 462.16 562.61 465.55 570.46 467.69 C 578.31 469.83 586.75 470.09 593.33 470.43 C 599.91 470.77 603.26 470.89 609.94 469.75 C 616.62 468.61 624.98 467.14 633.43 463.59 C 641.88 460.04 652.53 454.20 660.63 448.47 C 668.73 442.73 677.88 432.57 682.03 429.20 C 686.19 425.83 684.79 427.77 685.56 428.27 C 686.34 428.77 687.40 430.28 686.70 432.21 C 685.99 434.14 685.86 435.42 681.32 439.82 C 676.78 444.22 667.45 453.28 659.43 458.60 C 651.42 463.91 641.72 468.51 633.21 471.69 C 624.69 474.87 612.51 476.66 608.33 477.67 C 604.16 478.68 612.14 477.71 608.14 477.73 Z"/>
    <path d="M 363.47 699.41 C 361.06 697.97 355.23 696.66 349.16 690.67 C 343.10 684.67 332.10 670.68 327.07 663.44 C 322.04 656.20 321.15 652.58 318.97 647.21 C 316.79 641.84 315.33 638.47 313.97 631.21 C 312.62 623.95 311.18 610.58 310.83 603.67 C 310.49 596.75 311.05 595.09 311.90 589.72 C 312.76 584.35 313.61 578.21 315.97 571.46 C 318.33 564.71 322.15 556.02 326.07 549.23 C 329.99 542.43 333.38 537.65 339.51 530.67 C 345.64 523.69 358.21 511.59 362.85 507.35 C 367.49 503.11 366.33 505.19 367.33 505.24 C 368.33 505.29 368.81 506.60 368.83 507.67 C 368.86 508.73 371.72 506.61 367.47 511.64 C 363.22 516.67 349.41 530.58 343.35 537.85 C 337.28 545.11 334.80 547.96 331.07 555.23 C 327.34 562.50 323.01 574.22 320.97 581.46 C 318.93 588.70 319.01 591.75 318.83 598.67 C 318.66 605.58 318.03 613.81 319.90 622.94 C 321.78 632.07 326.02 644.82 330.07 653.44 C 334.12 662.06 339.30 668.37 344.20 674.64 C 349.10 680.90 356.23 686.92 359.47 691.03 C 362.71 695.14 362.95 697.92 363.62 699.32 C 364.28 700.71 365.88 700.85 363.47 699.41 Z"/>
    <path d="M 603.14 459.73 C 600.93 459.75 594.43 460.12 590.02 459.79 C 585.62 459.46 583.86 460.12 576.73 457.75 C 569.59 455.39 554.21 449.17 547.23 445.60 C 540.25 442.02 539.64 440.58 534.85 436.32 C 530.06 432.05 522.47 424.14 518.51 419.99 C 514.54 415.85 512.64 413.90 511.07 411.44 C 509.49 408.98 508.64 406.43 509.07 405.22 C 509.50 404.02 509.20 400.71 513.63 404.20 C 518.07 407.69 529.24 420.26 535.68 426.16 C 542.11 432.06 546.60 436.01 552.23 439.60 C 557.86 443.18 563.83 445.65 569.46 447.69 C 575.09 449.73 579.48 451.21 586.00 451.83 C 592.52 452.45 602.21 452.09 608.58 451.40 C 614.94 450.71 620.06 448.99 624.20 447.69 C 628.35 446.39 628.03 446.80 633.44 443.59 C 638.84 440.39 649.62 434.29 656.63 428.47 C 663.65 422.65 671.67 412.33 675.50 408.67 C 679.34 405.01 678.97 405.88 679.65 406.50 C 680.33 407.13 680.79 409.75 679.60 412.44 C 678.40 415.13 677.13 417.80 672.47 422.64 C 667.81 427.48 659.34 436.12 651.63 441.47 C 643.92 446.81 634.26 451.65 626.21 454.69 C 618.16 457.72 607.18 458.83 603.33 459.67 C 599.49 460.51 605.36 459.71 603.14 459.73 Z"/>
    <path d="M 379.51 690.46 C 378.23 689.97 374.89 689.40 372.03 687.47 C 369.17 685.53 366.99 684.00 362.33 678.83 C 357.67 673.66 348.63 663.54 344.07 656.44 C 339.51 649.34 337.17 642.13 334.97 636.21 C 332.78 630.29 331.76 627.53 330.90 620.94 C 330.05 614.35 329.32 604.08 329.83 596.67 C 330.35 589.25 332.10 582.70 333.97 576.46 C 335.84 570.22 337.14 565.86 341.07 559.23 C 344.99 552.60 351.71 543.32 357.51 536.68 C 363.31 530.03 371.99 522.49 375.85 519.35 C 379.71 516.21 379.52 517.94 380.67 517.83 C 381.82 517.73 382.62 517.93 382.76 518.73 C 382.89 519.53 386.04 517.29 381.47 522.64 C 376.90 527.99 361.58 543.25 355.35 550.85 C 349.11 558.44 346.98 561.75 344.07 568.23 C 341.16 574.71 339.11 583.71 337.90 589.72 C 336.70 595.74 336.85 599.63 336.85 604.33 C 336.85 609.04 336.70 611.76 337.90 617.94 C 339.11 624.13 341.35 634.66 344.07 641.44 C 346.78 648.22 350.79 653.71 354.20 658.64 C 357.60 663.56 360.28 666.56 364.51 670.99 C 368.73 675.43 376.69 682.31 379.56 685.26 C 382.43 688.22 381.71 687.84 381.73 688.70 C 381.75 689.56 380.06 690.11 379.69 690.40 C 379.32 690.70 380.78 690.95 379.51 690.46 Z"/>
    <path d="M 452.15 350.72 C 450.96 349.88 447.38 347.85 445.20 345.64 C 443.02 343.43 440.39 339.86 439.07 337.44 C 437.75 335.02 436.84 332.14 437.26 331.10 C 437.69 330.06 438.60 328.88 441.63 331.20 C 444.67 333.52 453.03 342.10 455.47 345.03 C 457.91 347.96 456.82 347.85 456.30 348.79 C 455.77 349.73 453.03 350.34 452.34 350.66 C 451.65 350.99 453.34 351.55 452.15 350.72 Z"/>
    <path d="M 427.15 377.72 C 424.99 376.08 417.21 370.57 414.35 367.82 C 411.48 365.07 410.55 362.79 409.97 361.21 C 409.39 359.63 409.77 358.71 410.85 358.35 C 411.93 357.99 414.36 357.82 416.43 359.07 C 418.51 360.32 421.11 363.28 423.32 365.85 C 425.53 368.41 429.02 372.48 429.69 374.45 C 430.36 376.42 427.76 377.12 427.34 377.66 C 426.91 378.21 429.32 379.36 427.15 377.72 Z"/>
  </g>
</svg>
