<?xml version="1.0" encoding="UTF-8"?>
<svg xmlns="http://www.w3.org/2000/svg" version="1.1" viewBox="0 0 780 794">
  <g fill="black" fill-rule="evenodd" stroke="none">
    <path d="M 336.14 774.73 C 331.26 774.59 317.14 774.97 307.02 773.80 C 296.91 772.62 285.55 770.21 275.46 767.69 C 265.37 765.17 257.83 763.20 246.46 758.69 C 235.09 754.17 222.14 748.97 207.23 740.60 C 192.33 732.22 168.63 716.54 157.03 708.47 C 148.31 702.39 145.40 699.46 137.68 692.16 C 128.56 683.55 113.26 669.24 102.35 656.82 C 91.43 644.40 79.24 627.54 72.20 617.64 C 66.46 609.58 64.73 606.17 60.07 597.44 C 54.88 587.74 45.75 569.98 41.07 559.44 C 36.49 549.15 35.00 544.63 31.97 534.21 C 28.94 523.79 24.92 507.59 22.90 496.94 C 20.88 486.30 20.18 479.31 19.84 470.33 C 19.50 461.34 19.97 452.57 20.86 443.02 C 21.76 433.47 23.91 418.48 25.20 413.03 C 25.61 411.25 28.17 410.61 28.57 410.28 C 28.96 410.73 31.85 411.94 31.80 414.02 C 31.69 419.48 28.69 433.64 27.86 443.02 C 27.04 452.41 26.50 461.34 26.84 470.33 C 27.18 479.31 28.38 487.96 29.90 496.94 C 31.42 505.92 32.94 513.79 35.97 524.21 C 39.00 534.63 44.22 549.74 48.07 559.44 C 51.92 569.15 54.21 573.41 59.07 582.44 C 63.92 591.47 69.12 601.88 77.20 613.64 C 85.27 625.40 96.76 640.74 107.51 652.99 C 118.25 665.25 132.75 678.75 141.68 687.16 C 149.41 694.45 152.31 697.39 161.03 703.47 C 172.63 711.54 197.00 727.55 211.23 735.59 C 225.40 743.59 236.92 747.84 246.46 751.69 C 255.45 755.32 260.75 756.51 268.46 758.69 C 276.17 760.87 284.58 763.23 292.73 764.75 C 300.87 766.28 310.19 767.31 317.34 767.82 C 324.49 768.33 329.04 768.31 335.64 767.80 C 342.24 767.29 348.85 766.44 356.94 764.75 C 365.03 763.07 375.62 760.71 384.21 757.69 C 392.79 754.66 400.36 750.97 408.43 746.60 C 416.51 742.22 426.32 735.93 432.63 731.47 C 438.80 727.11 441.55 724.27 446.33 719.83 C 451.11 715.39 456.28 710.89 461.32 704.82 C 466.37 698.75 471.55 692.00 476.60 683.44 C 481.65 674.88 488.24 661.36 491.60 653.44 C 494.59 646.39 495.51 643.50 496.76 635.94 C 498.30 626.71 500.80 608.89 500.80 598.02 C 500.80 587.15 498.80 579.36 496.76 570.72 C 494.73 562.09 492.31 554.51 488.60 546.23 C 484.88 537.94 478.88 527.62 474.47 521.03 C 470.06 514.44 467.75 512.32 462.16 506.67 C 429.50 473.67 311.26 355.41 278.50 323.00 C 273.49 318.04 270.65 315.86 265.63 312.20 C 260.62 308.55 254.67 304.44 248.43 301.07 C 242.20 297.70 236.84 294.68 228.21 291.98 C 219.57 289.28 205.57 286.06 196.64 284.87 C 187.72 283.68 183.53 283.82 174.67 284.84 C 165.80 285.86 153.87 287.61 143.46 290.98 C 133.06 294.35 120.40 300.64 112.23 305.07 C 104.20 309.43 96.57 316.09 94.44 317.59 C 93.95 317.25 90.86 315.13 90.37 314.79 C 90.79 314.26 92.02 311.86 93.85 310.35 C 96.83 307.90 102.17 303.62 108.23 300.07 C 114.30 296.53 123.36 292.09 130.23 289.07 C 137.10 286.06 143.71 283.67 149.46 281.98 C 155.21 280.29 158.21 279.48 164.73 278.91 C 172.59 278.23 185.56 276.69 196.64 277.87 C 207.72 279.05 220.21 281.92 231.21 285.98 C 242.20 290.03 254.08 296.86 262.63 302.20 C 271.18 307.54 274.89 310.54 282.50 318.00 C 316.59 351.41 434.33 469.50 467.16 502.67 C 472.75 508.32 475.02 510.45 479.47 517.03 C 484.04 523.79 490.55 534.28 494.60 543.23 C 498.65 552.18 501.56 560.65 503.76 570.72 C 505.96 580.79 507.47 594.61 507.80 603.65 C 508.13 612.63 507.28 616.52 505.76 624.94 C 504.25 633.37 502.74 643.76 498.70 654.21 C 494.65 664.66 486.87 678.54 481.47 687.64 C 476.07 696.74 471.51 702.62 466.32 708.82 C 461.13 715.02 455.28 720.23 450.33 724.83 C 445.38 729.44 441.78 732.67 436.63 736.47 C 431.48 740.26 425.80 743.91 419.43 747.60 C 413.07 751.28 405.81 755.24 398.44 758.59 C 391.06 761.94 385.35 765.06 375.21 767.69 C 364.86 770.37 342.85 773.50 336.33 774.67 C 336.25 774.68 336.23 774.73 336.14 774.73 Z"/>
    <path d="M 338.14 756.73 C 334.15 756.76 321.91 757.31 314.34 756.82 C 306.77 756.32 301.04 755.61 292.73 753.75 C 284.41 751.90 274.21 749.05 264.46 745.69 C 254.71 742.33 244.77 738.44 234.23 733.59 C 223.69 728.74 211.77 722.78 201.23 716.60 C 190.70 710.41 179.43 702.51 171.03 696.47 C 162.64 690.42 158.27 686.90 150.85 680.32 C 143.43 673.74 133.45 664.11 126.51 656.99 C 119.56 649.88 115.91 646.23 109.20 637.64 C 101.96 628.38 88.92 609.97 83.07 601.44 C 78.91 595.38 77.40 592.99 74.07 586.44 C 69.38 577.23 59.82 557.91 54.97 546.21 C 50.12 534.50 47.32 524.42 44.97 516.21 C 42.70 508.26 42.09 504.09 40.90 496.94 C 39.72 489.80 38.13 482.81 37.84 473.33 C 37.56 463.84 38.45 446.04 39.20 440.03 C 39.41 438.28 41.96 437.57 42.33 437.24 C 42.74 437.66 45.60 438.68 45.76 440.72 C 46.35 448.29 44.84 470.11 45.86 482.65 C 46.89 495.18 49.89 507.02 51.90 515.94 C 53.86 524.61 54.61 527.98 57.97 536.21 C 62.50 547.29 72.70 570.20 79.07 582.44 C 85.30 594.41 90.34 601.11 96.20 609.64 C 102.05 618.17 105.98 624.09 114.20 633.64 C 122.44 643.23 135.54 657.52 145.68 667.16 C 155.82 676.80 163.27 683.06 175.03 691.47 C 186.79 699.87 204.03 710.74 216.23 717.60 C 228.43 724.45 238.19 728.41 248.23 732.59 C 258.27 736.77 265.44 739.82 276.46 742.69 C 287.48 745.56 304.14 748.63 314.34 749.82 C 324.06 750.95 330.54 750.31 337.64 749.80 C 344.74 749.29 350.01 748.27 356.94 746.75 C 363.87 745.24 372.62 742.88 379.21 740.69 C 385.79 738.49 390.03 736.97 396.43 733.60 C 402.84 730.22 411.68 724.57 417.63 720.47 C 423.59 716.37 426.59 714.42 432.16 709.00 C 438.63 702.69 450.73 689.73 456.47 682.64 C 461.52 676.40 463.23 673.18 466.60 666.44 C 469.97 659.70 474.16 650.34 476.70 642.21 C 479.23 634.08 480.95 625.96 481.80 617.65 C 482.66 609.33 482.16 598.99 481.82 592.34 C 481.51 586.15 481.26 583.74 479.76 577.72 C 478.23 571.54 475.79 562.64 472.60 555.23 C 469.40 547.81 464.51 539.32 460.60 533.23 C 456.69 527.14 454.61 524.22 449.16 518.67 C 417.31 486.30 302.26 371.24 269.50 339.00 C 262.98 332.58 258.14 329.19 252.63 325.20 C 247.12 321.21 242.51 318.11 236.44 315.07 C 230.37 312.03 221.84 308.85 216.21 306.98 C 210.66 305.14 208.46 304.46 202.64 303.87 C 195.95 303.19 185.42 302.00 176.02 302.87 C 166.62 303.74 155.36 306.04 146.23 309.07 C 137.10 312.11 128.43 317.05 121.23 321.07 C 114.03 325.09 107.33 329.95 103.03 333.20 C 99.48 335.89 97.09 339.23 95.43 340.60 C 94.63 341.26 93.92 341.66 93.10 341.39 C 92.28 341.12 90.82 339.88 90.51 338.99 C 90.19 338.09 90.41 337.03 91.20 336.03 C 92.62 334.23 95.22 330.87 99.03 328.20 C 105.21 323.88 120.33 314.44 128.23 310.07 C 135.56 306.02 140.88 304.01 146.46 301.98 C 152.04 299.95 155.15 298.80 161.73 297.91 C 169.26 296.89 183.94 295.87 191.64 295.87 C 198.54 295.87 201.85 296.56 207.94 297.91 C 214.03 299.26 220.13 300.28 228.21 303.98 C 236.32 307.69 249.08 315.20 256.63 320.20 C 264.18 325.20 266.98 327.58 273.50 334.00 C 306.37 366.35 422.17 482.33 453.83 514.33 C 458.31 518.86 459.88 520.77 463.47 526.03 C 467.10 531.34 471.72 537.61 475.60 546.23 C 479.48 554.84 484.56 570.04 486.76 577.72 C 488.47 583.68 488.51 586.15 488.82 592.34 C 489.16 598.99 489.83 608.83 488.80 617.65 C 487.78 626.46 484.56 638.41 482.70 645.21 C 481.12 650.95 480.20 653.08 477.60 658.44 C 474.73 664.35 470.18 673.58 465.47 680.64 C 460.76 687.70 454.18 695.29 449.32 700.82 C 444.47 706.35 442.25 708.87 436.33 713.83 C 430.02 719.13 420.96 726.95 411.43 732.60 C 401.91 738.24 391.39 743.68 379.21 747.69 C 367.02 751.70 345.18 755.16 338.33 756.67 C 338.25 756.69 338.23 756.73 338.14 756.73 Z"/>
    <path d="M 338.14 736.73 C 334.15 736.76 321.74 737.31 314.34 736.82 C 306.94 736.32 302.16 736.08 293.73 733.75 C 282.71 730.72 263.31 725.12 248.23 718.59 C 233.15 712.07 213.93 700.78 203.23 694.60 C 194.78 689.70 191.15 686.90 184.03 681.47 C 176.91 676.03 169.72 670.92 160.50 662.00 C 149.70 651.52 129.44 630.73 119.20 618.64 C 109.57 607.27 104.42 597.81 99.07 589.44 C 93.71 581.07 91.42 576.98 87.07 568.44 C 82.72 559.90 76.65 547.08 72.97 538.21 C 69.29 529.34 67.32 523.75 64.97 515.21 C 62.63 506.67 60.22 494.61 58.90 486.94 C 57.64 479.57 56.79 472.67 57.07 469.22 C 57.22 467.31 60.15 466.63 60.57 466.28 C 61.07 466.90 64.00 468.76 64.70 471.46 C 65.58 474.90 64.83 480.51 65.90 486.94 C 67.12 494.24 68.61 504.29 71.97 515.21 C 75.33 526.13 79.22 538.40 86.07 552.44 C 92.92 566.48 105.19 587.21 113.07 599.44 C 120.64 611.19 123.87 615.55 133.35 625.82 C 143.48 636.80 161.54 654.69 173.85 665.32 C 186.16 675.95 194.84 681.88 207.23 689.60 C 219.63 697.31 233.82 705.40 248.23 711.59 C 262.65 717.79 282.76 723.72 293.73 726.75 C 302.03 729.05 306.76 729.29 314.02 729.80 C 321.29 730.31 327.63 731.17 337.33 729.82 C 347.02 728.47 364.52 723.73 372.21 721.69 C 377.06 720.40 378.92 719.78 383.44 717.59 C 388.34 715.22 396.40 710.85 401.63 707.47 C 406.86 704.09 409.64 702.01 414.82 697.32 C 420.26 692.38 428.69 684.47 434.32 677.82 C 439.95 671.17 445.05 663.50 448.60 657.44 C 452.15 651.38 453.48 648.46 455.60 641.44 C 457.80 634.14 460.77 621.55 461.80 613.65 C 462.84 605.74 462.31 600.01 461.80 594.02 C 461.30 588.03 461.00 584.32 458.76 577.72 C 456.23 570.26 450.09 555.96 446.60 549.23 C 443.74 543.72 442.16 541.78 437.83 537.33 C 407.01 505.66 294.87 392.02 261.67 359.16 C 252.76 350.35 245.71 345.06 238.63 340.20 C 231.56 335.34 225.65 332.53 219.21 329.98 C 212.76 327.43 206.70 325.94 199.94 324.91 C 193.18 323.89 185.04 323.67 178.67 323.84 C 172.30 324.01 167.13 324.71 161.73 325.91 C 156.32 327.12 151.81 328.71 146.23 331.07 C 140.65 333.43 134.80 335.86 128.23 340.07 C 121.67 344.28 111.95 351.95 106.85 356.35 C 102.50 360.10 99.59 364.63 97.63 366.47 C 96.81 367.24 95.93 367.61 95.10 367.39 C 94.27 367.17 92.98 366.06 92.66 365.17 C 92.35 364.27 92.40 363.10 93.20 362.03 C 94.89 359.73 98.20 355.21 102.85 351.35 C 108.86 346.36 119.42 337.48 129.23 332.07 C 139.04 326.67 151.43 321.45 161.73 318.91 C 172.02 316.37 181.42 316.16 191.00 316.84 C 200.58 317.52 210.60 319.92 219.21 322.98 C 227.81 326.04 234.72 329.84 242.63 335.20 C 250.54 340.56 257.34 345.93 266.67 355.16 C 300.04 388.19 411.68 501.16 442.83 533.33 C 448.20 538.88 450.06 541.37 453.60 548.23 C 457.42 555.63 463.23 570.09 465.76 577.72 C 467.96 584.33 468.29 588.09 468.80 594.02 C 469.31 599.95 469.84 605.46 468.82 613.33 C 467.81 621.19 465.73 632.36 462.70 641.21 C 459.66 650.06 454.60 659.56 450.60 666.44 C 446.59 673.32 443.97 676.52 438.67 682.50 C 433.37 688.48 424.36 697.30 418.82 702.32 C 413.56 707.07 411.33 708.88 405.43 712.60 C 399.54 716.31 388.97 721.91 383.44 724.59 C 378.92 726.78 377.06 727.39 372.21 728.69 C 364.69 730.70 344.01 735.33 338.33 736.67 C 338.25 736.69 338.23 736.73 338.14 736.73 Z"/>
    <path d="M 468.14 774.73 C 461.88 774.41 440.40 773.64 430.73 772.75 C 421.98 771.95 414.01 770.50 410.10 769.39 C 408.34 768.89 407.61 766.49 407.27 766.09 C 407.88 765.58 409.56 761.90 412.33 761.86 C 416.29 761.81 423.85 764.80 431.02 765.80 C 438.19 766.79 446.52 767.83 455.34 767.82 C 464.16 767.81 475.13 766.94 483.94 765.75 C 492.75 764.57 498.27 763.79 508.21 760.69 C 518.95 757.33 536.06 750.94 548.44 745.59 C 560.81 740.24 570.23 735.95 582.43 728.60 C 594.63 721.24 611.43 709.15 621.63 701.47 C 631.39 694.12 635.58 690.08 643.67 682.50 C 651.76 674.92 663.19 663.47 670.16 655.99 C 677.00 648.65 679.61 645.79 685.47 637.64 C 693.21 626.88 708.74 604.64 716.60 591.44 C 724.45 578.24 728.08 569.15 732.60 558.44 C 737.11 547.74 740.83 536.79 743.70 527.21 C 746.56 517.63 748.24 510.09 749.76 500.94 C 751.28 491.80 752.48 482.98 752.82 472.33 C 753.16 461.67 752.48 445.79 751.80 437.02 C 751.24 429.67 750.69 426.84 748.76 419.72 C 746.58 411.63 742.22 397.37 738.70 388.46 C 735.17 379.54 733.16 375.00 727.60 366.23 C 722.04 357.46 712.62 344.16 705.32 335.85 C 698.02 327.53 691.30 322.14 683.82 316.35 C 676.34 310.55 667.70 305.13 660.43 301.07 C 653.17 297.01 648.84 294.68 640.21 291.98 C 631.57 289.28 617.46 286.06 608.64 284.87 C 599.83 283.68 592.99 284.66 587.33 284.83 C 582.02 285.00 579.95 284.94 574.73 285.91 C 569.25 286.94 562.63 287.77 554.46 290.98 C 545.85 294.36 532.22 300.56 523.03 306.20 C 513.84 311.84 508.44 316.04 499.33 324.83 C 479.63 343.85 421.48 403.89 404.82 420.32 C 402.93 422.18 399.99 423.05 399.34 423.43 C 398.97 423.03 396.64 420.49 396.27 420.09 C 408.16 408.06 474.34 340.00 495.33 319.83 C 505.63 309.95 512.88 304.88 522.23 299.07 C 531.59 293.26 542.66 288.35 551.46 284.98 C 560.26 281.61 565.49 280.06 575.02 278.87 C 584.55 277.69 597.28 276.69 608.64 277.87 C 620.01 279.06 633.24 282.61 643.21 285.98 C 653.17 289.35 658.72 291.90 668.43 298.07 C 678.15 304.24 692.33 314.67 701.50 323.00 C 710.67 331.32 716.44 337.95 723.47 348.03 C 730.50 358.10 738.31 371.51 743.70 383.46 C 749.08 395.41 753.25 410.80 755.76 419.72 C 757.77 426.82 758.13 429.92 758.80 437.02 C 759.48 444.12 760.16 451.70 759.82 462.34 C 759.48 472.99 758.78 488.47 756.76 500.94 C 754.74 513.42 751.22 526.13 747.70 537.21 C 744.17 548.29 739.95 557.74 735.60 567.44 C 731.25 577.15 727.62 585.07 721.60 595.44 C 715.58 605.81 707.18 618.91 699.47 629.64 C 691.76 640.37 685.60 648.71 675.32 659.82 C 665.05 670.93 651.30 684.86 637.82 696.32 C 624.34 707.78 608.16 719.72 594.43 728.60 C 580.70 737.47 569.81 743.08 555.44 749.59 C 541.06 756.11 522.72 763.51 508.21 767.69 C 493.69 771.87 475.01 773.50 468.33 774.67 C 468.25 774.68 468.23 774.74 468.14 774.73 Z"/>
    <path d="M 336.14 718.73 C 330.88 718.58 315.84 719.60 304.73 717.75 C 293.61 715.91 278.88 710.88 269.46 707.69 C 260.27 704.57 256.88 702.99 248.23 698.59 C 237.99 693.39 220.76 684.85 208.03 676.47 C 195.30 668.09 182.13 657.26 171.85 648.32 C 161.57 639.38 155.98 634.30 146.35 622.82 C 136.71 611.34 121.61 590.50 114.07 579.44 C 107.82 570.27 105.58 565.65 101.07 556.44 C 96.55 547.24 91.14 536.58 86.97 524.21 C 82.81 511.84 77.30 489.71 76.07 482.22 C 75.76 480.33 79.15 479.63 79.57 479.28 C 80.05 479.87 82.78 481.67 83.60 484.23 C 86.00 491.71 90.73 514.01 93.97 524.21 C 96.91 533.45 98.89 536.90 103.07 545.44 C 107.25 553.98 111.22 563.51 119.07 575.44 C 127.11 587.67 142.02 607.64 151.35 618.82 C 160.35 629.62 165.38 634.06 175.00 642.50 C 184.61 650.94 198.83 662.28 209.03 669.47 C 219.24 676.65 226.16 680.39 236.23 685.59 C 246.30 690.79 258.05 696.49 269.46 700.69 C 280.88 704.88 293.70 708.90 304.73 710.75 C 315.76 712.61 327.11 712.13 335.64 711.80 C 344.18 711.46 350.35 709.94 355.94 708.75 C 361.53 707.57 363.91 707.12 369.21 704.69 C 375.49 701.81 386.84 695.89 393.63 691.47 C 400.43 687.04 405.38 682.43 409.99 678.16 C 414.61 673.88 417.22 671.54 421.32 665.82 C 425.59 659.87 431.85 651.30 435.60 642.44 C 439.35 633.58 442.94 622.77 443.80 612.65 C 444.66 602.53 442.96 590.79 440.76 581.72 C 438.56 572.65 433.84 564.21 430.60 558.23 C 427.50 552.51 425.68 550.67 421.32 545.85 C 414.83 538.67 404.30 527.87 391.67 515.16 C 361.87 485.19 270.21 393.01 242.50 366.00 C 236.06 359.72 231.82 356.74 225.43 353.07 C 219.05 349.40 210.17 345.85 204.21 343.98 C 198.31 342.13 195.01 342.06 189.64 341.87 C 184.28 341.69 177.22 342.19 172.02 342.87 C 166.82 343.56 163.92 343.90 158.46 345.98 C 152.63 348.20 143.50 352.28 137.03 356.20 C 130.57 360.12 125.21 364.16 119.68 369.51 C 114.14 374.86 107.12 385.02 103.82 388.32 C 102.60 389.53 100.94 389.69 99.85 389.32 C 98.76 388.95 97.58 386.48 97.27 386.10 C 98.12 384.99 101.25 380.47 104.35 376.85 C 107.44 373.22 110.54 368.98 115.85 364.35 C 121.16 359.72 127.96 353.63 136.23 349.07 C 144.50 344.51 156.61 339.35 165.46 336.98 C 174.31 334.61 181.37 334.35 189.33 334.85 C 197.28 335.35 204.99 336.75 213.21 339.98 C 221.42 343.20 229.69 345.85 238.63 354.20 C 269.21 382.73 365.39 479.89 396.67 511.16 C 409.34 523.84 419.33 533.84 426.32 541.85 C 432.20 548.58 435.03 552.58 438.60 559.23 C 442.17 565.87 445.73 572.87 447.76 581.72 C 449.80 590.57 451.17 603.58 450.82 612.33 C 450.48 621.08 448.23 626.86 445.70 634.21 C 443.16 641.56 440.60 648.56 435.60 656.44 C 430.59 664.32 422.53 674.48 415.67 681.50 C 408.81 688.53 402.18 693.56 394.43 698.60 C 386.69 703.63 375.62 708.83 369.21 711.69 C 363.88 714.06 361.42 714.59 355.94 715.75 C 350.46 716.92 339.63 718.17 336.33 718.67 C 336.25 718.68 336.23 718.73 336.14 718.73 Z"/>
    <path d="M 751.50 381.46 C 750.88 380.88 747.86 380.06 747.93 377.96 C 748.15 371.22 752.19 352.16 752.83 341.00 C 753.48 329.84 752.48 319.23 751.80 311.02 C 751.13 302.84 750.75 299.68 748.76 291.72 C 746.25 281.63 741.22 263.04 736.70 250.46 C 732.17 237.87 726.78 226.60 721.60 216.23 C 716.42 205.86 711.95 198.09 705.60 188.23 C 699.24 178.36 691.68 167.26 683.47 157.03 C 675.26 146.80 666.13 136.48 656.32 126.85 C 646.52 117.21 635.12 107.50 624.63 99.20 C 614.15 90.90 601.97 82.76 593.43 77.07 C 585.28 71.64 582.17 69.50 573.43 65.07 C 562.56 59.56 541.79 49.34 528.21 43.98 C 514.62 38.62 503.48 35.60 491.94 32.91 C 480.41 30.22 470.65 28.51 459.00 27.84 C 447.35 27.16 433.61 27.51 422.02 28.87 C 410.43 30.23 400.26 32.45 389.46 35.98 C 378.66 39.51 367.25 44.43 357.23 50.07 C 347.21 55.71 337.84 62.51 329.33 69.83 C 320.83 77.16 313.07 84.96 306.20 94.03 C 299.32 103.09 292.95 113.11 288.07 124.23 C 283.19 135.34 278.94 149.71 276.90 160.72 C 274.87 171.74 275.16 179.91 275.84 190.33 C 276.52 200.74 278.27 213.19 280.97 223.21 C 283.68 233.23 287.01 241.17 292.07 250.44 C 297.13 259.71 303.11 268.89 311.35 278.82 C 319.58 288.75 335.96 303.94 341.47 310.03 C 343.18 311.92 344.08 314.70 344.43 315.33 C 344.06 315.70 341.70 318.06 341.33 318.43 C 338.35 315.50 323.69 301.63 316.51 293.99 C 309.32 286.36 304.10 281.06 298.20 272.64 C 292.29 264.21 285.12 251.72 281.07 243.44 C 277.06 235.25 275.94 231.74 273.90 222.94 C 271.87 214.14 269.53 201.02 268.86 190.65 C 268.20 180.28 268.22 170.92 269.90 160.72 C 271.59 150.52 275.28 139.04 278.97 129.46 C 282.67 119.87 288.34 109.83 292.07 103.23 C 295.43 97.27 296.87 95.02 301.35 89.85 C 306.83 83.50 317.52 71.96 325.00 65.16 C 332.48 58.37 336.99 54.60 346.23 49.07 C 355.48 43.54 367.83 36.51 380.46 31.98 C 393.09 27.45 408.82 23.72 422.02 21.87 C 435.22 20.02 449.49 20.53 459.64 20.87 C 469.51 21.20 475.01 22.39 482.94 23.91 C 490.87 25.43 497.19 26.81 507.21 29.98 C 517.29 33.17 528.77 36.23 543.44 43.07 C 558.47 50.09 580.20 61.03 597.43 72.07 C 614.66 83.12 632.67 97.05 646.82 109.35 C 660.96 121.64 671.69 133.37 682.32 145.85 C 692.95 158.33 702.22 171.16 710.60 184.23 C 718.98 197.29 727.08 213.19 732.60 224.23 C 737.95 234.93 740.51 241.92 743.70 250.46 C 746.88 259.00 749.18 265.36 751.70 275.46 C 754.21 285.55 757.62 297.82 758.80 311.02 C 759.99 324.22 759.32 343.78 758.80 354.65 C 758.37 363.79 756.88 371.75 755.70 376.21 C 754.99 378.87 752.39 380.52 751.69 381.40 C 751.64 381.46 751.56 381.51 751.50 381.46 Z"/>
    <path d="M 466.14 756.73 C 461.88 756.58 446.84 756.26 440.73 755.75 C 435.93 755.36 431.87 754.63 429.46 753.69 C 427.58 752.95 426.65 750.53 426.27 750.10 C 426.76 749.71 428.15 746.86 430.34 746.85 C 436.68 746.80 454.57 749.85 464.33 749.83 C 474.10 749.82 479.13 748.95 488.94 746.75 C 498.75 744.56 513.79 739.88 523.21 736.69 C 532.62 733.49 536.38 732.03 545.43 727.59 C 554.64 723.07 568.73 715.45 578.43 709.60 C 588.13 703.74 594.40 699.51 603.63 692.47 C 612.86 685.42 624.68 675.62 633.82 667.32 C 642.96 659.01 651.03 650.92 658.47 642.64 C 665.91 634.36 672.12 626.34 678.47 617.64 C 684.82 608.94 690.91 600.14 696.60 590.44 C 702.29 580.74 707.92 569.81 712.60 559.44 C 717.28 549.07 721.67 537.13 724.70 528.21 C 727.72 519.29 729.08 514.20 730.76 505.94 C 732.45 497.68 734.13 487.91 734.80 478.65 C 735.48 469.38 735.16 458.49 734.82 450.34 C 734.48 442.19 734.45 438.04 732.76 429.72 C 731.07 421.41 727.56 408.71 724.70 400.46 C 721.83 392.21 719.47 387.30 715.60 380.23 C 711.73 373.16 707.43 365.51 701.47 358.03 C 695.51 350.55 687.99 342.18 679.82 335.35 C 671.64 328.52 660.54 321.63 652.43 317.07 C 644.33 312.51 639.00 310.35 631.21 307.98 C 623.41 305.61 612.68 303.73 605.64 302.87 C 598.71 302.02 595.95 302.05 589.00 302.83 C 581.47 303.69 569.26 305.27 560.46 307.98 C 551.67 310.69 542.47 315.70 536.23 319.07 C 530.30 322.28 528.18 323.84 523.03 328.20 C 516.35 333.86 507.08 342.19 496.16 353.00 C 478.16 370.82 429.00 421.26 414.99 435.16 C 414.05 436.09 412.44 436.24 412.10 436.39 C 411.76 436.00 409.61 433.49 409.27 433.09 C 409.96 432.14 412.11 428.09 415.00 425.16 C 432.07 407.90 490.97 348.69 511.68 329.51 C 522.07 319.88 531.10 314.83 539.23 310.07 C 547.36 305.32 552.28 303.35 560.46 300.98 C 568.65 298.61 579.43 296.53 588.34 295.85 C 597.25 295.17 604.96 295.39 613.94 296.91 C 622.92 298.43 631.92 300.43 642.21 304.98 C 652.49 309.53 665.61 316.89 675.63 324.20 C 685.65 331.51 694.49 339.67 702.32 348.85 C 710.15 358.02 717.04 368.63 722.60 379.23 C 728.16 389.83 732.83 404.04 735.70 412.46 C 738.09 419.51 738.75 423.46 739.76 429.72 C 740.78 435.98 741.66 441.45 741.80 450.02 C 741.98 460.17 741.99 479.28 740.80 490.65 C 739.62 502.01 737.71 507.95 734.70 518.21 C 731.68 528.47 727.54 540.67 722.70 552.21 C 717.85 563.75 712.14 575.87 705.60 587.44 C 699.06 599.01 690.52 611.74 683.47 621.64 C 676.42 631.54 670.65 638.65 663.32 646.82 C 655.99 654.99 648.78 662.23 639.50 670.67 C 630.22 679.11 619.15 688.98 607.63 697.47 C 596.12 705.95 583.13 714.41 570.43 721.60 C 557.73 728.78 545.02 735.23 531.44 740.59 C 517.85 745.95 499.79 751.08 488.94 753.75 C 479.65 756.05 470.13 756.17 466.33 756.67 C 466.25 756.68 466.23 756.73 466.14 756.73 Z"/>
    <path d="M 203.14 516.73 C 196.21 516.58 174.38 517.78 161.73 515.75 C 149.07 513.73 135.65 507.79 127.23 504.59 C 120.21 501.93 117.30 500.31 111.23 496.60 C 105.17 492.88 98.58 488.86 90.85 482.32 C 83.12 475.77 70.61 463.28 64.83 457.33 C 60.81 453.19 59.49 451.38 56.20 446.64 C 52.74 441.66 47.77 434.18 44.07 427.44 C 40.36 420.70 37.15 414.08 33.97 406.21 C 30.79 398.34 26.99 387.30 24.97 380.21 C 23.03 373.40 22.71 370.67 21.86 363.65 C 21.01 356.50 19.83 346.94 19.83 337.33 C 19.83 327.73 19.67 319.00 21.86 306.02 C 24.05 293.04 29.10 272.26 32.97 259.46 C 36.84 246.66 40.89 238.60 45.07 229.23 C 49.25 219.85 53.21 211.93 58.07 203.23 C 62.92 194.53 68.68 185.23 74.20 177.03 C 79.72 168.83 83.49 163.24 91.20 154.03 C 98.94 144.77 108.37 133.15 120.68 121.51 C 132.98 109.87 151.94 94.11 165.03 84.20 C 178.13 74.29 188.70 68.26 199.23 62.07 C 209.77 55.88 215.69 52.42 228.23 47.07 C 240.77 41.73 262.55 33.84 274.46 29.98 C 284.84 26.62 291.63 25.43 299.73 23.91 C 307.82 22.39 313.16 21.11 323.02 20.87 C 334.50 20.60 360.51 21.49 368.57 22.28 C 370.39 22.45 371.06 25.18 371.40 25.58 C 370.87 26.07 369.49 29.42 366.96 29.72 C 363.73 30.09 358.33 27.94 352.00 27.84 C 343.01 27.70 324.07 27.86 313.02 28.87 C 301.98 29.88 294.32 31.89 285.73 33.91 C 277.13 35.93 271.42 37.30 261.46 40.98 C 250.55 45.01 232.44 52.23 220.23 58.08 C 208.03 63.93 196.77 70.88 188.23 76.07 C 179.88 81.15 176.68 83.13 169.03 89.20 C 158.44 97.61 136.82 115.04 124.68 126.51 C 112.54 137.98 103.78 148.94 96.20 158.03 C 88.62 167.11 84.72 172.83 79.20 181.03 C 73.68 189.23 68.26 197.69 63.07 207.23 C 57.88 216.76 51.92 229.52 48.07 238.23 C 44.22 246.93 42.58 250.28 39.97 259.46 C 36.78 270.71 31.09 293.63 28.90 305.72 C 26.93 316.62 26.87 322.37 26.86 332.02 C 26.86 341.67 28.01 355.61 28.86 363.65 C 29.61 370.68 29.90 373.44 31.97 380.21 C 34.51 388.51 39.20 403.04 44.07 413.44 C 48.94 423.85 53.87 432.96 61.20 442.64 C 68.52 452.32 81.53 465.03 88.00 471.50 C 92.64 476.14 94.57 477.83 100.03 481.47 C 106.57 485.81 118.33 493.39 127.23 497.59 C 136.14 501.80 146.28 504.65 153.46 506.69 C 160.40 508.65 163.14 509.37 170.34 509.82 C 178.59 510.33 192.13 511.28 202.94 509.75 C 213.75 508.23 226.29 504.05 235.21 500.69 C 244.12 497.33 249.67 493.82 256.43 489.60 C 263.20 485.37 268.23 482.00 275.82 475.32 C 284.42 467.75 302.24 449.54 308.03 444.20 C 308.87 443.43 309.69 443.00 310.57 443.28 C 311.45 443.55 313.00 444.95 313.30 445.88 C 313.59 446.80 313.20 447.86 312.32 448.82 C 308.77 452.70 300.64 461.53 291.99 469.16 C 283.34 476.79 269.90 488.17 260.43 494.60 C 250.97 501.02 244.72 504.01 235.21 507.69 C 225.69 511.37 208.68 515.16 203.33 516.67 C 203.25 516.69 203.23 516.73 203.14 516.73 Z"/>
    <path d="M 466.14 736.73 C 464.17 736.73 457.11 737.46 454.46 736.69 C 451.96 735.96 450.77 732.65 450.27 732.10 C 450.61 731.76 451.43 729.49 453.10 729.28 C 457.33 728.73 467.63 729.89 475.64 728.80 C 483.66 727.70 492.28 725.37 501.21 722.69 C 510.13 720.00 521.00 716.04 529.21 712.69 C 537.41 709.34 542.86 706.63 550.43 702.60 C 558.01 698.56 566.43 693.82 574.63 688.47 C 582.83 683.11 591.55 676.88 599.63 670.47 C 607.72 664.05 615.38 657.44 623.16 650.00 C 630.94 642.55 639.60 633.38 646.32 625.82 C 653.04 618.26 657.92 612.37 663.47 604.64 C 669.02 596.91 674.24 588.81 679.60 579.44 C 684.95 570.07 691.41 557.31 695.60 548.44 C 699.78 539.57 701.83 535.88 704.70 526.21 C 707.90 515.41 713.13 497.56 714.80 483.65 C 716.48 469.73 715.78 454.25 714.76 442.72 C 713.75 431.19 710.72 421.87 708.70 414.46 C 706.78 407.43 706.02 404.65 702.60 398.23 C 698.56 390.65 689.74 376.31 684.47 369.03 C 679.59 362.28 676.66 359.50 670.99 354.51 C 665.32 349.52 657.73 343.49 650.43 339.07 C 643.14 334.65 634.17 330.51 627.21 327.98 C 620.24 325.45 615.40 324.56 608.64 323.87 C 601.89 323.18 592.37 323.49 586.67 323.84 C 581.47 324.16 579.33 324.62 574.46 325.98 C 569.59 327.34 563.87 328.94 557.46 331.98 C 551.06 335.02 543.11 339.00 536.03 344.20 C 528.96 349.40 523.41 354.76 515.00 363.16 C 497.32 380.82 444.64 435.45 429.99 450.16 C 429.06 451.09 427.44 451.24 427.10 451.39 C 426.77 450.97 424.69 448.29 424.36 447.86 C 424.89 447.08 426.52 443.72 428.83 441.33 C 443.33 426.33 494.13 374.86 511.33 357.83 C 519.65 349.61 525.88 343.99 532.03 339.20 C 538.18 334.41 542.33 332.11 548.23 329.07 C 554.14 326.03 561.11 323.02 567.46 320.98 C 573.81 318.94 579.43 317.53 586.34 316.85 C 593.25 316.17 600.46 315.56 608.94 316.91 C 617.42 318.27 628.09 321.10 637.21 324.98 C 646.32 328.86 655.61 334.39 663.63 340.20 C 671.65 346.01 679.16 353.01 685.32 359.85 C 691.48 366.68 696.55 374.83 700.60 381.23 C 704.65 387.62 707.08 392.69 709.60 398.23 C 712.11 403.76 713.78 407.43 715.70 414.46 C 717.73 421.92 720.62 432.99 721.80 443.02 C 722.99 453.05 723.49 464.28 722.80 474.65 C 722.12 485.01 720.55 494.12 717.70 505.21 C 714.84 516.30 710.21 529.84 705.70 541.21 C 701.18 552.58 697.30 561.53 690.60 573.44 C 683.90 585.34 673.46 601.63 665.47 612.64 C 657.48 623.65 652.94 629.06 642.67 639.50 C 632.39 649.95 615.86 665.47 603.82 675.32 C 591.78 685.17 581.66 691.72 570.43 698.60 C 559.20 705.47 547.97 711.41 536.44 716.59 C 524.90 721.77 510.29 726.66 501.21 729.69 C 493.27 732.33 487.75 733.59 481.94 734.75 C 476.13 735.92 468.97 736.34 466.33 736.67 C 466.25 736.68 466.23 736.73 466.14 736.73 Z"/>
    <path d="M 738.50 354.46 C 737.87 353.88 735.14 353.04 734.90 350.94 C 734.29 345.59 735.17 329.99 734.82 322.34 C 734.49 315.02 734.21 312.21 732.80 305.02 C 731.12 296.37 728.06 281.59 724.70 270.46 C 721.33 259.32 718.61 250.93 712.60 238.23 C 706.58 225.52 697.65 208.12 688.60 194.23 C 679.55 180.33 668.62 166.66 658.32 154.85 C 648.02 143.03 636.26 131.96 626.82 123.35 C 617.37 114.74 612.80 110.87 601.63 103.20 C 590.40 95.49 573.84 84.61 559.43 77.07 C 545.03 69.53 527.95 62.67 515.21 57.98 C 502.46 53.29 493.37 51.10 482.94 48.91 C 472.51 46.73 461.63 45.54 452.64 44.87 C 443.66 44.20 437.89 43.85 429.02 44.87 C 420.16 45.89 409.76 47.78 399.46 50.98 C 389.16 54.18 377.64 58.37 367.23 64.07 C 356.83 69.78 344.18 79.40 337.03 85.20 C 330.95 90.13 328.97 92.53 324.35 98.85 C 318.85 106.35 308.13 123.13 304.07 130.23 C 301.58 134.59 301.14 136.57 299.97 141.46 C 298.27 148.59 294.87 163.94 293.86 173.02 C 292.85 182.10 293.05 187.91 293.90 195.94 C 294.75 203.98 297.28 214.63 298.97 221.21 C 300.55 227.36 301.89 230.57 304.07 235.44 C 306.25 240.31 308.00 244.57 312.07 250.44 C 316.61 257.00 323.78 266.56 331.35 274.82 C 338.91 283.09 352.96 295.40 357.47 300.03 C 358.26 300.84 358.71 301.68 358.39 302.57 C 358.08 303.46 355.91 305.05 355.57 305.39 C 354.80 304.94 351.38 303.85 349.16 301.67 C 342.44 295.04 323.21 275.34 315.20 265.64 C 308.16 257.12 304.94 250.84 301.07 243.44 C 297.20 236.03 294.34 229.17 291.97 221.21 C 289.60 213.24 287.71 203.68 286.86 195.65 C 286.01 187.61 286.18 180.89 286.86 173.02 C 287.55 165.16 288.94 156.26 290.97 148.46 C 293.01 140.66 294.86 134.47 299.07 126.23 C 303.27 117.99 310.54 106.70 316.20 99.03 C 321.86 91.36 327.06 85.67 333.03 80.20 C 339.01 74.73 345.67 70.39 352.03 66.20 C 358.40 62.01 365.82 57.94 371.23 55.07 C 376.63 52.20 378.69 51.00 384.46 48.98 C 391.21 46.62 404.30 42.76 411.73 40.91 C 418.88 39.13 422.31 38.38 429.02 37.87 C 435.73 37.36 443.01 37.16 452.00 37.84 C 460.99 38.51 472.41 39.72 482.94 41.91 C 493.48 44.10 502.02 46.04 515.21 50.98 C 528.62 56.01 548.36 64.20 563.43 72.07 C 578.51 79.94 594.37 90.46 605.63 98.20 C 616.88 105.93 621.03 109.18 630.99 118.51 C 641.61 128.45 658.05 144.56 669.32 157.85 C 680.59 171.13 690.22 184.83 698.60 198.23 C 706.98 211.62 713.75 225.02 719.60 238.23 C 725.45 251.43 729.99 263.49 733.70 277.46 C 737.40 291.42 740.45 309.82 741.80 322.02 C 743.13 333.97 742.32 345.25 741.80 350.65 C 741.61 352.68 739.24 353.76 738.69 354.40 C 738.63 354.46 738.56 354.51 738.50 354.46 Z"/>
    <path d="M 196.14 498.73 C 192.26 498.75 179.59 499.29 173.02 498.80 C 166.45 498.30 163.32 497.61 156.73 495.75 C 150.13 493.90 139.71 490.21 133.46 487.69 C 127.27 485.19 124.86 484.18 119.23 480.60 C 112.68 476.43 101.65 469.13 94.16 462.67 C 86.68 456.21 79.69 448.19 74.35 441.82 C 69.00 435.45 65.61 430.17 62.07 424.44 C 58.52 418.71 55.92 413.81 53.07 407.44 C 50.22 401.07 47.44 395.43 44.97 386.21 C 42.44 376.74 39.05 360.79 37.86 350.65 C 36.67 340.50 37.34 333.49 37.84 325.34 C 38.35 317.19 38.95 311.53 40.90 301.72 C 42.92 291.58 44.78 279.04 49.97 264.46 C 55.17 249.87 64.70 228.47 72.07 214.23 C 79.44 199.99 85.12 191.29 94.20 179.03 C 103.27 166.77 114.87 152.81 126.51 140.67 C 138.14 128.54 149.58 117.30 164.03 106.20 C 178.49 95.10 197.66 82.78 213.23 74.07 C 228.80 65.37 243.71 59.17 257.46 53.98 C 271.21 48.79 286.63 45.26 295.73 42.91 C 302.47 41.17 305.10 40.62 312.02 39.87 C 319.60 39.05 335.80 37.74 341.20 37.98 C 343.16 38.07 344.04 40.93 344.43 41.33 C 344.04 41.74 343.13 44.36 341.20 44.69 C 335.80 45.61 320.44 45.83 312.02 46.87 C 303.61 47.91 299.54 48.63 290.73 50.91 C 281.63 53.26 266.21 57.95 257.46 60.98 C 249.18 63.84 246.13 65.27 238.23 69.07 C 229.19 73.42 214.93 80.05 203.23 87.07 C 191.53 94.09 179.99 101.60 168.03 111.20 C 156.08 120.80 142.98 132.70 131.51 144.67 C 120.03 156.64 108.60 170.10 99.20 183.03 C 89.79 195.95 82.11 208.66 75.07 222.23 C 68.03 235.80 61.50 251.21 56.97 264.46 C 52.44 277.71 49.92 291.58 47.90 301.72 C 45.95 311.53 45.35 317.19 44.84 325.34 C 44.34 333.49 44.01 341.67 44.86 350.65 C 45.72 359.62 47.44 369.74 49.97 379.21 C 52.51 388.68 55.86 398.54 60.07 407.44 C 64.27 416.35 68.76 424.19 75.20 432.64 C 81.63 441.09 92.04 451.85 98.68 458.16 C 104.91 464.08 108.44 466.39 115.03 470.47 C 121.63 474.54 131.28 479.54 138.23 482.59 C 145.18 485.64 150.87 487.22 156.73 488.75 C 162.58 490.29 166.25 491.52 173.34 491.82 C 181.21 492.15 195.30 491.94 203.94 490.75 C 212.59 489.57 218.79 487.05 225.21 484.69 C 231.62 482.33 235.61 480.76 242.43 476.60 C 249.37 472.37 258.38 466.38 266.82 459.32 C 275.25 452.25 288.24 438.54 293.03 434.20 C 293.87 433.44 294.69 433.00 295.57 433.28 C 296.45 433.55 297.97 435.56 298.30 435.88 C 298.12 436.29 297.93 438.20 296.83 439.33 C 292.25 444.07 279.22 457.27 270.82 464.32 C 262.42 471.36 254.04 477.03 246.43 481.60 C 238.83 486.16 233.56 488.84 225.21 491.69 C 216.86 494.53 201.18 497.50 196.33 498.67 C 196.25 498.69 196.23 498.73 196.14 498.73 Z"/>
    <path d="M 472.14 717.73 C 471.30 717.22 467.86 714.95 467.27 714.57 C 467.63 714.15 468.39 711.63 470.23 711.08 C 475.72 709.43 491.00 707.44 500.21 704.69 C 509.41 701.94 517.23 698.27 525.44 694.59 C 533.64 690.91 540.90 687.45 549.43 682.60 C 557.97 677.74 567.68 671.90 576.63 665.47 C 585.59 659.03 592.79 653.89 603.16 644.00 C 613.97 633.69 630.40 617.56 641.47 603.64 C 652.54 589.71 662.06 573.84 669.60 560.44 C 677.14 547.03 682.16 536.01 686.70 523.21 C 691.23 510.41 695.12 497.34 696.80 483.65 C 698.49 469.95 697.66 451.89 696.80 441.02 C 696.04 431.33 693.90 425.59 691.70 418.46 C 689.49 411.32 686.80 404.30 683.60 398.23 C 680.39 392.16 676.24 386.81 672.47 382.03 C 668.70 377.24 665.83 373.83 660.99 369.51 C 656.15 365.18 649.73 359.99 643.43 356.07 C 637.14 352.15 629.00 348.18 623.21 345.98 C 617.41 343.78 614.12 343.56 608.64 342.87 C 603.17 342.18 595.70 341.66 590.34 341.85 C 584.98 342.03 581.44 342.62 576.46 343.98 C 571.48 345.33 566.20 346.94 560.46 349.98 C 554.72 353.02 548.83 355.87 542.03 362.20 C 524.46 378.56 471.34 431.67 455.00 448.16 C 449.96 453.25 446.31 458.79 443.99 461.16 C 443.07 462.10 441.44 462.24 441.10 462.39 C 440.77 461.97 438.69 459.29 438.36 458.86 C 439.71 457.14 444.34 450.03 449.67 444.50 C 463.97 429.69 509.44 384.55 524.16 370.00 C 529.80 364.43 533.52 360.86 538.03 357.20 C 542.54 353.55 545.83 351.11 551.23 348.07 C 556.64 345.03 564.00 341.18 570.46 338.98 C 576.93 336.78 583.61 335.38 590.02 334.87 C 596.44 334.36 602.58 334.89 608.94 335.91 C 615.30 336.93 621.26 338.10 628.21 340.98 C 635.15 343.86 643.45 348.22 650.63 353.20 C 657.82 358.18 664.99 364.01 671.32 370.85 C 677.65 377.68 684.04 386.29 688.60 394.23 C 693.16 402.16 696.16 410.66 698.70 418.46 C 701.23 426.26 703.04 431.33 703.80 441.02 C 704.66 451.89 704.82 472.11 703.80 483.65 C 702.80 495.05 700.55 500.78 697.70 510.21 C 694.84 519.64 691.21 530.00 686.70 540.21 C 682.18 550.41 676.64 561.03 670.60 571.44 C 664.56 581.84 656.40 594.35 650.47 602.64 C 644.57 610.88 642.03 613.86 635.00 621.16 C 626.22 630.28 609.41 647.41 597.82 657.32 C 586.22 667.22 576.00 673.88 565.43 680.60 C 554.87 687.31 545.31 692.41 534.44 697.59 C 523.56 702.77 510.56 708.34 500.21 711.69 C 489.86 715.03 477.01 716.66 472.33 717.67 C 472.25 717.69 472.22 717.78 472.14 717.73 Z"/>
    <path d="M 719.50 331.46 C 718.89 330.92 716.45 330.17 715.97 328.21 C 714.68 322.92 714.59 311.48 711.76 299.72 C 708.88 287.76 703.39 268.87 698.70 256.46 C 694.00 244.04 689.14 235.30 683.60 225.23 C 678.06 215.16 672.35 205.76 665.47 196.03 C 658.59 186.30 651.10 176.63 642.32 166.85 C 633.55 157.07 621.76 145.46 612.82 137.35 C 603.87 129.24 597.36 124.41 588.63 118.20 C 579.90 111.99 572.86 106.69 560.43 100.07 C 547.53 93.20 525.12 82.34 511.21 76.98 C 497.31 71.63 486.48 69.94 476.94 67.91 C 467.43 65.89 463.72 65.01 454.00 64.83 C 444.18 64.66 427.28 65.68 418.02 66.87 C 409.60 67.95 406.40 68.96 398.46 71.98 C 390.50 75.01 378.11 80.40 370.23 85.07 C 362.35 89.74 357.34 94.17 351.16 100.00 C 344.99 105.82 338.05 113.16 333.20 120.03 C 328.35 126.90 325.12 133.11 322.07 141.23 C 319.02 149.34 316.27 160.82 314.90 168.72 C 313.54 176.63 313.35 181.23 313.86 188.65 C 314.37 196.06 316.10 206.08 317.97 213.21 C 319.84 220.34 320.95 224.33 325.07 231.44 C 329.46 239.04 336.78 250.06 344.35 258.82 C 351.91 267.59 365.91 279.30 370.47 284.03 C 371.46 285.06 371.54 286.83 371.69 287.22 C 371.28 287.60 368.74 290.04 368.33 290.43 C 364.87 287.13 346.19 269.96 339.51 262.99 C 334.19 257.46 331.94 254.23 328.20 248.64 C 324.46 243.05 319.94 235.35 317.07 229.44 C 314.20 223.54 312.67 220.01 310.97 213.21 C 309.27 206.41 307.37 196.06 306.86 188.65 C 306.35 181.23 306.55 176.59 307.90 168.72 C 309.25 160.86 312.28 149.21 314.97 141.46 C 317.67 133.71 320.67 128.00 324.07 122.23 C 327.46 116.46 331.52 111.36 335.35 106.85 C 339.17 102.34 341.85 99.63 347.00 95.16 C 352.15 90.70 357.65 85.10 366.23 80.07 C 374.81 75.04 388.50 68.51 398.46 64.98 C 408.43 61.45 416.49 60.06 426.02 58.87 C 435.55 57.69 444.11 56.85 455.64 57.87 C 467.18 58.89 483.74 62.11 495.21 64.98 C 506.67 67.85 512.90 70.06 524.44 75.07 C 535.97 80.09 553.07 88.72 564.43 95.07 C 575.80 101.43 583.87 106.96 592.63 113.20 C 601.39 119.44 607.46 123.59 616.99 132.51 C 627.44 142.28 645.74 160.93 655.32 171.85 C 664.31 182.09 668.92 189.80 674.47 198.03 C 680.02 206.26 683.31 211.12 688.60 221.23 C 694.14 231.80 702.67 248.37 707.70 261.46 C 712.72 274.54 716.25 289.51 718.76 299.72 C 721.10 309.24 722.11 317.98 722.76 322.72 C 723.08 325.01 723.21 326.76 722.70 328.21 C 722.18 329.65 720.22 330.85 719.69 331.40 C 719.63 331.45 719.57 331.51 719.50 331.46 Z"/>
    <path d="M 194.14 477.73 C 189.04 477.41 173.88 477.94 163.73 475.75 C 153.57 473.57 140.85 467.98 133.23 464.60 C 126.43 461.57 123.29 459.21 118.03 455.47 C 112.77 451.73 106.32 446.46 101.68 442.16 C 97.04 437.85 93.94 434.39 90.20 429.64 C 86.45 424.89 83.03 420.84 79.20 413.64 C 74.99 405.73 68.53 393.37 64.97 382.21 C 61.42 371.04 58.88 357.84 57.86 346.65 C 56.84 335.45 57.51 326.05 58.86 315.02 C 60.21 303.99 63.62 289.72 65.97 280.46 C 68.26 271.45 69.79 267.50 72.97 259.46 C 76.15 251.42 79.86 242.13 85.07 232.23 C 90.27 222.32 95.32 212.59 104.20 200.03 C 113.08 187.46 129.07 167.46 138.35 156.85 C 146.56 147.45 151.57 143.62 159.85 136.35 C 168.13 129.07 178.97 119.91 188.03 113.20 C 197.10 106.49 205.53 101.26 214.23 96.07 C 222.93 90.88 229.52 86.92 240.23 82.07 C 250.93 77.22 265.63 70.99 278.46 66.98 C 291.29 62.96 310.21 58.92 317.20 57.98 C 319.14 57.72 320.04 60.93 320.43 61.33 C 320.07 61.72 319.21 64.06 317.43 64.59 C 312.60 66.03 299.96 67.75 291.46 69.98 C 282.97 72.21 276.67 73.80 266.46 77.98 C 255.42 82.49 237.64 90.37 225.23 97.07 C 212.83 103.78 202.26 110.82 192.03 118.20 C 181.80 125.58 171.46 134.74 163.85 141.35 C 156.24 147.96 153.03 150.27 146.35 157.85 C 137.57 167.79 120.91 187.13 111.20 201.03 C 101.48 214.92 94.44 227.99 88.07 241.23 C 81.70 254.46 76.67 268.21 72.97 280.46 C 69.28 292.71 67.26 306.52 65.90 314.72 C 64.88 320.93 64.84 323.38 64.83 329.67 C 64.83 336.32 64.67 345.89 65.86 354.65 C 67.05 363.40 69.44 373.91 71.97 382.21 C 74.51 390.51 77.20 397.20 81.07 404.44 C 84.94 411.68 91.07 420.16 95.20 425.64 C 99.19 430.94 100.91 432.88 105.85 437.32 C 110.82 441.79 118.64 448.25 125.03 452.47 C 131.43 456.68 137.78 459.88 144.23 462.59 C 150.68 465.31 157.04 467.38 163.73 468.75 C 170.41 470.13 177.46 470.83 184.33 470.83 C 191.20 470.83 198.63 469.95 204.94 468.75 C 211.25 467.56 216.12 466.21 222.20 463.69 C 228.29 461.16 234.29 459.26 241.43 453.60 C 251.35 445.73 276.85 420.96 281.68 416.51 C 282.15 416.83 285.13 418.90 285.60 419.22 C 285.10 420.12 284.05 424.17 281.50 426.67 C 274.81 433.23 255.32 451.26 245.43 458.60 C 236.60 465.15 230.72 467.51 222.21 470.69 C 213.69 473.87 199.01 476.50 194.33 477.67 C 194.25 477.69 194.23 477.74 194.14 477.73 Z"/>
    <path d="M 698.50 308.46 C 697.92 308.00 696.12 307.01 695.20 305.64 C 694.27 304.27 693.68 302.57 692.97 300.21 C 691.22 294.35 688.42 280.79 684.70 270.46 C 680.97 260.13 676.14 248.80 670.60 238.23 C 665.06 227.66 657.35 215.76 651.47 207.03 C 645.59 198.30 642.63 194.31 635.32 185.85 C 627.91 177.26 616.44 164.45 606.99 155.51 C 597.54 146.57 588.39 139.27 578.63 132.20 C 568.87 125.13 556.80 117.93 548.43 113.07 C 540.31 108.36 535.97 106.42 528.44 103.07 C 520.90 99.73 512.62 96.17 503.21 92.98 C 493.79 89.78 479.98 85.77 471.94 83.91 C 464.96 82.30 462.17 82.00 455.00 81.84 C 447.18 81.66 434.44 81.51 425.02 82.87 C 415.60 84.23 405.43 87.61 398.46 89.98 C 391.78 92.25 388.34 94.18 383.23 97.08 C 378.13 99.97 373.16 102.72 367.85 107.35 C 362.54 111.98 355.98 118.70 351.35 124.85 C 346.72 130.99 342.81 138.41 340.07 144.23 C 337.33 150.04 336.11 155.20 334.90 159.72 C 333.70 164.24 332.96 166.39 332.84 171.34 C 332.68 178.21 332.88 193.13 333.90 200.94 C 334.88 208.44 337.11 213.29 338.97 218.21 C 340.83 223.13 341.63 225.84 345.07 230.44 C 350.16 237.24 362.66 251.79 369.51 258.99 C 375.93 265.75 384.16 271.92 386.16 273.68 C 385.81 274.16 383.56 277.19 383.21 277.67 C 381.95 276.89 376.45 274.74 372.68 271.16 C 366.17 264.99 351.48 250.80 344.20 240.64 C 336.91 230.48 332.03 217.87 328.97 210.21 C 326.50 204.02 326.38 201.18 325.86 194.65 C 325.34 188.11 324.50 179.92 325.86 171.02 C 327.23 162.12 330.68 149.56 334.07 141.23 C 337.46 132.89 341.20 127.53 346.20 121.03 C 351.19 114.52 356.19 108.19 364.03 102.20 C 371.87 96.21 383.95 89.29 393.23 85.07 C 402.51 80.86 409.88 78.62 419.73 76.91 C 429.58 75.21 443.63 74.83 452.33 74.83 C 460.61 74.83 463.84 75.17 471.94 76.91 C 480.59 78.77 494.29 82.62 504.21 85.98 C 514.12 89.34 521.40 92.23 531.44 97.07 C 541.47 101.92 554.40 108.88 564.43 115.07 C 574.47 121.26 583.76 128.19 591.63 134.20 C 599.51 140.22 603.87 143.37 611.67 151.16 C 620.47 159.97 635.32 175.85 644.47 187.03 C 653.63 198.21 660.08 207.69 666.60 218.23 C 673.12 228.76 679.08 240.69 683.60 250.23 C 688.11 259.76 690.68 266.75 693.70 275.46 C 696.71 284.16 700.38 297.46 701.70 302.46 C 702.02 303.67 702.10 304.45 701.60 305.44 C 701.10 306.43 699.20 307.89 698.69 308.40 C 698.63 308.45 698.57 308.51 698.50 308.46 Z"/>
    <path d="M 195.14 458.73 C 191.38 458.75 178.67 459.26 172.73 458.75 C 167.03 458.27 164.71 457.38 159.46 455.69 C 154.21 453.99 147.67 451.99 141.23 448.59 C 134.80 445.20 127.69 441.14 120.85 435.32 C 114.01 429.49 105.33 419.79 100.20 413.64 C 95.28 407.75 92.60 402.84 90.07 398.44 C 87.53 394.03 86.49 390.75 84.97 387.21 C 83.46 383.67 82.17 381.57 80.97 377.21 C 79.63 372.33 77.69 366.18 76.90 357.94 C 76.05 348.97 75.16 334.09 75.84 323.34 C 76.52 312.59 78.45 303.60 80.97 293.46 C 83.49 283.31 86.12 274.00 90.97 262.46 C 95.82 250.92 102.86 236.47 110.07 224.23 C 117.27 211.99 126.01 199.57 134.20 189.03 C 142.38 178.49 150.53 169.64 159.16 161.00 C 167.80 152.36 174.52 146.02 186.03 137.20 C 197.54 128.38 215.33 115.78 228.23 108.07 C 241.14 100.37 251.96 95.66 263.46 90.98 C 274.96 86.30 291.05 81.27 297.21 79.99 C 299.12 79.60 300.04 82.93 300.43 83.33 C 300.07 83.72 299.16 85.91 297.43 86.60 C 291.23 89.05 275.76 92.66 263.23 98.07 C 250.70 103.49 234.43 111.72 222.23 119.07 C 210.03 126.43 200.07 134.19 190.03 142.20 C 179.99 150.22 170.47 158.69 162.00 167.16 C 153.53 175.64 147.02 182.85 139.20 193.03 C 131.38 203.21 121.94 216.66 115.07 228.23 C 108.20 239.80 102.49 251.59 97.97 262.46 C 93.46 273.33 90.49 283.14 87.97 293.46 C 85.45 303.77 83.52 313.64 82.83 324.33 C 82.15 335.03 83.01 348.83 83.86 357.65 C 84.68 366.00 85.94 370.91 87.97 377.21 C 90.01 383.51 93.17 390.00 96.07 395.44 C 98.96 400.87 100.77 404.28 105.35 409.82 C 110.14 415.63 118.90 425.04 124.85 430.32 C 130.80 435.59 135.26 438.40 141.03 441.46 C 146.80 444.53 154.13 446.97 159.46 448.69 C 164.79 450.41 167.20 451.28 173.02 451.80 C 178.89 452.31 188.61 452.31 194.64 451.80 C 200.68 451.28 203.35 450.89 209.21 448.69 C 215.54 446.30 223.95 444.07 232.63 437.47 C 241.94 430.38 259.21 411.57 265.03 406.20 C 265.87 405.43 266.69 405.00 267.57 405.28 C 268.45 405.55 269.97 407.56 270.30 407.88 C 268.80 409.73 263.44 417.57 257.83 423.33 C 252.22 429.10 243.41 437.57 236.63 442.47 C 229.86 447.36 224.09 449.99 217.21 452.69 C 210.32 455.39 199.01 457.66 195.33 458.67 C 195.25 458.69 195.23 458.73 195.14 458.73 Z"/>
    <path d="M 367.15 390.72 C 366.47 390.12 363.74 387.53 363.27 387.10 C 364.12 386.11 367.14 382.09 370.35 378.85 C 387.35 361.63 445.78 304.89 465.32 283.82 C 476.31 271.97 482.70 260.37 487.60 252.44 C 491.51 246.11 492.35 243.27 494.70 236.21 C 497.23 228.58 501.29 218.18 502.80 206.65 C 504.32 195.11 504.66 178.39 503.80 167.02 C 502.95 155.66 499.71 145.88 497.70 138.46 C 495.81 131.53 494.96 128.85 491.70 122.46 C 487.79 114.81 476.36 96.16 474.27 92.58 C 474.67 92.18 477.18 89.67 477.58 89.27 C 478.28 89.84 481.63 91.43 483.47 94.03 C 486.31 98.02 491.06 105.82 494.60 113.23 C 498.14 120.63 502.17 130.71 504.70 138.46 C 507.22 146.21 508.82 150.59 509.76 159.72 C 510.78 169.59 511.14 188.11 510.80 197.65 C 510.52 205.85 509.28 210.52 507.76 216.94 C 506.25 223.37 504.22 229.63 501.70 236.21 C 499.17 242.79 497.44 248.48 492.60 256.44 C 487.37 265.04 481.35 276.00 470.32 287.82 C 449.44 310.19 384.53 373.51 367.34 390.66 C 367.28 390.72 367.21 390.77 367.15 390.72 Z"/>
    <path d="M 355.51 376.46 C 354.94 375.99 352.66 373.92 352.27 373.57 C 352.40 373.24 352.48 371.72 353.35 370.85 C 369.41 354.50 430.81 293.70 448.67 275.50 C 454.02 270.04 456.15 267.82 460.47 261.64 C 464.79 255.46 471.23 244.84 474.60 238.44 C 477.81 232.34 478.92 229.87 480.70 223.21 C 482.57 216.19 485.15 207.08 485.82 196.33 C 486.50 185.58 485.78 168.20 484.76 158.72 C 483.87 150.40 481.72 145.37 479.70 139.46 C 477.67 133.54 476.42 129.61 472.60 123.23 C 468.04 115.62 454.79 97.33 452.36 93.80 C 452.74 93.38 455.19 90.69 455.58 90.27 C 456.64 91.32 461.25 94.89 464.47 99.03 C 467.97 103.52 472.90 110.49 476.60 117.23 C 480.30 123.97 484.33 133.37 486.70 139.46 C 488.95 145.27 489.74 149.24 490.76 153.72 C 491.78 158.20 492.56 160.98 492.82 166.34 C 493.17 173.44 493.68 186.85 492.82 196.33 C 491.97 205.81 489.73 215.86 487.70 223.21 C 485.66 230.56 483.78 234.07 480.60 240.44 C 477.42 246.81 472.98 255.04 468.60 261.44 C 464.22 267.84 460.88 272.02 454.32 278.82 C 436.31 297.53 376.94 357.40 360.50 373.67 C 358.85 375.30 356.53 375.94 355.69 376.40 C 355.62 376.44 355.57 376.51 355.51 376.46 Z"/>
    <path d="M 341.15 362.72 C 340.47 362.12 337.74 359.53 337.27 359.10 C 338.36 357.87 342.32 352.96 346.35 348.85 C 363.38 331.44 421.93 273.21 439.47 254.64 C 445.54 248.21 447.73 244.68 451.60 237.44 C 455.47 230.20 460.33 218.34 462.70 211.21 C 464.93 204.49 465.28 200.90 465.80 194.65 C 466.33 188.39 466.52 181.03 465.83 173.67 C 465.15 166.30 464.40 158.70 461.70 150.46 C 458.99 142.22 455.37 133.23 449.60 124.23 C 443.83 115.22 430.94 101.50 427.07 96.44 C 426.39 95.55 425.95 94.74 426.37 93.88 C 426.79 93.02 429.19 91.58 429.58 91.27 C 431.23 92.90 439.17 100.05 443.32 104.85 C 447.47 109.64 450.62 113.11 454.47 120.03 C 458.70 127.63 465.64 141.63 468.70 150.46 C 471.75 159.29 472.11 165.76 472.80 173.02 C 473.49 180.28 473.68 186.47 472.83 194.00 C 471.98 201.53 470.40 210.30 467.70 218.21 C 464.99 226.12 460.49 234.67 456.60 241.44 C 452.70 248.21 450.48 252.34 444.32 258.82 C 425.11 279.02 358.53 345.35 341.34 362.66 C 341.28 362.72 341.21 362.77 341.15 362.72 Z"/>
    <path d="M 326.15 350.72 C 325.54 350.02 323.08 347.01 322.66 346.50 C 335.22 333.94 408.50 261.33 427.32 241.82 C 431.66 237.32 432.79 235.03 435.60 229.44 C 438.49 223.67 442.66 214.78 444.70 207.21 C 446.73 199.64 447.83 192.46 447.83 184.00 C 447.83 175.54 447.09 165.29 444.70 156.46 C 442.30 147.63 439.86 140.14 433.47 131.03 C 427.08 121.92 409.62 105.30 406.37 101.79 C 406.83 101.33 409.75 98.45 410.21 97.99 C 412.88 100.52 427.74 114.16 432.47 119.03 C 435.47 122.11 436.45 123.50 438.60 127.23 C 441.14 131.63 445.33 139.71 447.70 145.46 C 450.06 151.21 451.58 155.46 452.76 161.72 C 453.95 167.98 454.98 175.44 454.80 183.02 C 454.63 190.60 453.73 199.31 451.70 207.21 C 449.66 215.11 445.83 224.00 442.60 230.44 C 439.37 236.87 437.67 240.18 432.32 245.82 C 413.81 265.36 349.17 330.19 331.50 347.67 C 329.72 349.43 327.23 350.16 326.34 350.66 C 326.27 350.70 326.20 350.78 326.15 350.72 Z"/>
    <path d="M 315.50 706.46 C 313.78 704.86 308.92 701.16 305.35 696.82 C 301.77 692.48 297.99 687.81 294.07 680.44 C 289.67 672.17 282.51 657.68 278.97 647.21 C 275.44 636.74 273.88 627.18 272.86 617.65 C 271.84 608.11 271.84 599.55 272.86 590.02 C 273.88 580.49 276.77 568.42 278.97 560.46 C 281.16 552.54 283.39 547.93 286.07 542.23 C 288.75 536.52 291.02 532.29 295.07 526.23 C 299.11 520.16 303.17 513.78 310.35 505.85 C 317.72 497.68 335.85 480.67 339.33 477.24 C 339.70 477.58 342.03 479.75 342.39 480.10 C 342.28 480.40 342.23 481.79 341.47 482.64 C 336.10 488.63 318.26 506.10 310.20 516.03 C 302.13 525.96 297.44 533.82 293.07 542.23 C 288.70 550.63 286.17 558.49 283.97 566.46 C 281.77 574.42 280.55 581.49 279.86 590.02 C 279.18 598.55 278.84 608.11 279.86 617.65 C 280.88 627.18 282.77 637.41 285.97 647.21 C 289.17 657.01 293.80 667.44 299.07 676.44 C 304.34 685.44 314.38 696.71 317.60 701.23 C 318.20 702.07 318.71 702.71 318.39 703.57 C 318.08 704.43 316.17 705.91 315.69 706.40 C 315.63 706.45 315.56 706.51 315.50 706.46 Z"/>
    <path d="M 611.14 516.73 C 604.88 516.58 583.67 516.93 573.73 515.75 C 564.10 514.62 557.54 511.71 551.46 509.69 C 545.38 507.66 542.85 506.86 537.23 503.59 C 528.80 498.70 512.22 489.17 500.85 480.32 C 489.48 471.47 474.58 456.08 469.00 450.50 C 467.82 449.32 467.57 447.31 467.37 446.88 C 467.73 446.56 469.98 444.56 470.34 444.24 C 470.97 444.59 473.74 445.49 475.63 447.20 C 481.39 452.38 494.92 467.25 504.85 475.32 C 514.78 483.38 527.46 491.03 535.23 495.60 C 541.65 499.36 545.05 500.49 551.46 502.69 C 557.88 504.88 564.10 507.59 573.73 508.75 C 583.54 509.94 600.25 510.50 610.33 509.82 C 620.41 509.14 625.19 507.72 634.21 504.69 C 643.22 501.65 656.06 496.22 664.43 491.60 C 672.81 486.97 680.77 479.52 684.46 476.96 C 685.22 476.43 685.76 475.96 686.57 476.28 C 687.38 476.59 688.97 478.56 689.30 478.88 C 688.62 479.79 686.67 483.89 683.63 486.47 C 680.16 489.42 673.97 493.41 668.43 496.60 C 662.90 499.78 656.14 503.08 650.44 505.59 C 644.73 508.11 640.72 509.84 634.21 511.69 C 627.69 513.53 615.18 515.83 611.33 516.67 C 611.25 516.69 611.23 516.73 611.14 516.73 Z"/>
    <path d="M 607.14 498.73 C 603.81 498.76 592.91 499.15 587.34 498.82 C 581.77 498.49 579.34 498.14 573.73 496.75 C 567.58 495.23 557.38 492.38 550.46 489.69 C 543.55 486.99 539.35 485.34 532.23 480.60 C 524.13 475.20 510.50 464.78 501.85 457.32 C 493.20 449.86 484.09 439.89 480.35 435.82 C 479.46 434.86 479.49 433.23 479.37 432.88 C 479.73 432.56 481.13 430.35 482.34 430.24 C 483.55 430.13 485.18 430.85 486.63 432.20 C 491.89 437.05 505.58 452.09 513.85 459.32 C 522.12 466.55 527.63 470.87 536.23 475.60 C 544.83 480.32 557.00 484.99 565.46 487.69 C 573.93 490.39 578.94 491.28 587.02 491.80 C 595.10 492.31 605.24 492.11 613.94 490.75 C 622.64 489.40 630.76 487.07 639.21 483.69 C 647.65 480.31 658.53 474.03 664.63 470.47 C 669.65 467.54 672.72 465.05 675.82 462.32 C 678.92 459.59 681.50 455.63 683.23 454.07 C 684.22 453.18 685.20 452.69 686.21 452.99 C 687.22 453.30 688.93 455.53 689.30 455.88 C 688.52 457.01 686.47 462.19 682.82 465.32 C 678.01 469.44 667.70 476.37 660.43 480.60 C 653.17 484.82 645.29 488.16 639.21 490.69 C 633.12 493.21 629.25 494.42 623.94 495.75 C 618.63 497.08 610.13 498.17 607.33 498.67 C 607.25 498.68 607.23 498.73 607.14 498.73 Z"/>
    <path d="M 337.50 704.46 C 336.31 703.56 333.05 701.72 330.51 698.99 C 326.95 695.19 321.32 689.57 316.20 681.64 C 310.94 673.51 303.19 661.04 298.97 650.21 C 294.75 639.38 292.21 626.68 290.86 616.65 C 289.51 606.61 290.51 596.72 290.86 590.02 C 291.16 584.26 291.62 581.72 292.97 576.46 C 294.32 571.20 295.74 565.74 298.97 558.46 C 302.32 550.92 306.98 540.19 313.07 531.23 C 319.16 522.26 329.88 510.99 335.51 504.67 C 339.99 499.65 344.05 495.75 346.85 493.35 C 348.86 491.63 351.67 490.61 352.33 490.24 C 352.70 490.58 355.03 492.75 355.39 493.10 C 355.28 493.40 355.25 494.81 354.47 495.64 C 349.96 500.43 335.58 513.25 328.35 521.85 C 321.11 530.44 315.80 538.13 311.07 547.23 C 306.34 556.33 302.17 569.32 299.97 576.46 C 298.27 581.97 298.16 584.26 297.86 590.02 C 297.51 596.72 296.51 606.61 297.86 616.65 C 299.21 626.68 302.08 640.04 305.97 650.21 C 309.86 660.37 315.59 669.47 321.20 677.64 C 326.80 685.81 336.40 695.24 339.60 699.23 C 340.25 700.04 340.71 700.71 340.39 701.57 C 340.08 702.43 338.17 703.91 337.69 704.40 C 337.63 704.45 337.57 704.50 337.50 704.46 Z"/>
    <path d="M 363.50 701.46 C 362.53 700.94 359.88 700.12 357.85 698.32 C 354.16 695.05 346.48 687.80 341.35 681.82 C 336.21 675.84 330.45 667.67 327.07 662.44 C 324.01 657.71 323.11 655.69 321.07 650.44 C 318.71 644.36 314.44 635.24 312.90 625.94 C 311.36 616.65 311.83 601.87 311.83 594.67 C 311.83 589.63 312.05 587.09 312.90 582.72 C 313.76 578.35 314.50 574.18 316.97 568.46 C 319.67 562.21 324.31 552.52 329.07 545.23 C 333.82 537.93 339.13 531.50 345.51 524.67 C 351.88 517.84 364.71 506.69 367.33 504.24 C 367.70 504.58 370.03 506.75 370.39 507.10 C 370.28 507.40 370.23 508.80 369.47 509.64 C 364.96 514.60 349.75 529.41 343.35 536.85 C 337.51 543.62 334.80 547.29 331.07 554.23 C 327.34 561.16 323.01 571.72 320.97 578.46 C 318.98 585.03 319.00 587.80 318.83 594.67 C 318.65 602.53 318.84 617.56 319.86 625.65 C 320.83 633.27 322.94 637.74 324.97 643.21 C 327.01 648.68 329.70 654.20 332.07 658.44 C 334.44 662.68 336.79 665.38 339.20 668.64 C 341.60 671.90 343.05 674.40 346.51 677.99 C 350.88 682.56 362.16 692.60 365.47 696.03 C 366.26 696.84 366.69 697.68 366.39 698.57 C 366.10 699.46 364.17 700.91 363.69 701.40 C 363.63 701.45 363.58 701.49 363.50 701.46 Z"/>
    <path d="M 600.14 477.73 C 598.43 477.75 594.24 478.32 590.02 477.80 C 584.57 477.12 575.59 476.22 567.46 473.69 C 559.33 471.15 549.36 467.35 541.23 462.60 C 533.10 457.84 525.99 451.62 518.68 445.16 C 511.36 438.70 501.06 427.87 497.35 423.82 C 496.46 422.86 496.08 421.80 496.37 420.88 C 496.66 419.95 498.22 418.55 499.10 418.28 C 499.97 418.00 500.80 418.43 501.63 419.20 C 505.59 422.87 515.58 433.92 522.85 440.32 C 530.12 446.72 537.80 453.20 545.23 457.59 C 552.67 461.99 559.94 464.48 567.46 466.69 C 574.98 468.89 583.26 470.31 590.34 470.82 C 597.42 471.33 603.09 470.79 609.94 469.75 C 616.79 468.72 622.85 468.13 631.44 464.59 C 640.05 461.04 653.54 454.04 661.63 448.47 C 669.73 442.89 676.40 434.90 680.00 431.16 C 681.76 429.34 682.30 427.05 683.23 426.07 C 683.94 425.32 684.73 424.97 685.57 425.28 C 686.41 425.58 688.15 426.48 688.30 427.88 C 688.45 429.27 688.06 431.66 686.47 433.64 C 683.81 436.96 677.67 443.34 672.33 447.83 C 666.99 452.33 661.29 456.62 654.43 460.60 C 647.58 464.57 640.22 468.84 631.21 471.69 C 622.19 474.53 605.51 476.66 600.33 477.67 C 600.25 477.69 600.23 477.73 600.14 477.73 Z"/>
    <path d="M 608.14 458.73 C 603.38 458.58 587.51 458.93 579.73 457.75 C 571.95 456.58 566.88 453.88 561.46 451.69 C 556.05 449.49 552.00 447.66 547.23 444.60 C 542.46 441.53 538.06 438.00 532.85 433.32 C 527.64 428.64 520.13 421.18 516.00 416.50 C 512.17 412.16 509.02 406.58 508.07 405.22 C 508.54 404.90 511.52 402.83 511.99 402.51 C 514.95 405.59 530.13 421.98 536.68 428.16 C 542.33 433.50 546.27 436.51 551.23 439.60 C 556.20 442.68 560.50 444.65 566.46 446.69 C 572.42 448.73 580.09 450.99 587.00 451.83 C 593.91 452.68 599.70 453.29 607.94 451.75 C 616.18 450.21 628.43 446.36 636.44 442.59 C 644.44 438.83 650.01 434.12 655.99 429.16 C 661.97 424.20 668.54 417.10 672.32 412.82 C 675.46 409.27 677.92 404.63 678.68 403.51 C 679.14 403.81 682.02 405.72 682.47 406.02 C 681.85 407.32 680.68 413.08 677.32 416.82 C 672.02 422.73 658.99 435.32 650.63 441.47 C 642.28 447.61 634.26 450.82 627.21 453.69 C 620.16 456.55 611.51 457.83 608.33 458.67 C 608.25 458.69 608.23 458.73 608.14 458.73 Z"/>
    <path d="M 379.15 691.72 C 377.90 690.99 374.56 689.66 371.85 687.32 C 368.22 684.17 362.64 679.30 357.35 672.82 C 352.05 666.34 344.47 657.09 340.07 648.44 C 335.66 639.79 332.61 628.91 330.90 620.94 C 329.20 612.98 329.49 607.58 329.83 600.67 C 330.18 593.75 330.77 586.86 332.97 579.46 C 335.18 572.05 339.31 562.86 343.07 556.23 C 346.82 549.60 349.57 546.03 355.51 539.67 C 361.88 532.84 378.23 518.17 381.33 515.24 C 381.70 515.58 384.03 517.75 384.39 518.10 C 384.28 518.40 384.25 519.81 383.47 520.64 C 379.46 524.93 366.58 536.58 360.35 543.85 C 354.11 551.11 349.81 557.08 346.07 564.23 C 342.33 571.37 339.44 580.65 337.90 586.72 C 336.46 592.42 336.83 594.96 336.83 600.67 C 336.83 606.37 336.53 613.65 337.90 620.94 C 339.28 628.24 341.00 636.46 345.07 644.44 C 349.14 652.42 356.16 661.61 362.35 668.82 C 368.53 676.03 379.78 685.42 382.16 687.68 C 381.82 688.16 379.84 690.99 379.34 691.66 C 379.29 691.73 379.22 691.76 379.15 691.72 Z"/>
    <path d="M 455.15 351.72 C 454.24 351.33 451.67 350.95 449.85 349.32 C 446.86 346.64 439.46 338.34 437.20 335.64 C 436.47 334.77 436.02 333.95 436.27 333.10 C 436.52 332.24 437.76 330.80 438.68 330.51 C 439.60 330.22 440.79 330.45 441.82 331.35 C 445.06 334.21 456.20 345.72 458.16 347.68 C 457.82 348.16 455.84 350.99 455.34 351.66 C 455.29 351.73 455.22 351.75 455.15 351.72 Z"/>
    <path d="M 425.50 376.46 C 423.42 374.66 415.40 367.87 413.20 365.64 C 412.40 364.83 411.99 363.97 412.27 363.10 C 412.55 362.22 413.95 360.66 414.88 360.37 C 415.80 360.08 416.82 360.51 417.82 361.35 C 419.92 363.12 425.71 368.99 427.47 371.03 C 428.21 371.89 428.69 372.68 428.39 373.57 C 428.10 374.46 426.17 375.91 425.69 376.40 C 425.63 376.45 425.56 376.51 425.50 376.46 Z"/>
  </g>
</svg>
